<svg width="11" height="12" viewBox="0 0 11 12" fill="none" xmlns="http://www.w3.org/2000/svg">
<path d="M0.292893 9.87883C-0.0976311 10.2694 -0.0976311 10.9025 0.292893 11.293C0.683418 11.6836 1.31658 11.6836 1.70711 11.293L0.292893 9.87883ZM11 1.58594C11 1.03365 10.5523 0.585937 10 0.585938L1 0.585937C0.447715 0.585937 2.8711e-07 1.03365 2.8711e-07 1.58594C2.8711e-07 2.13822 0.447715 2.58594 1 2.58594L9 2.58594L9 10.5859C9 11.1382 9.44772 11.5859 10 11.5859C10.5523 11.5859 11 11.1382 11 10.5859L11 1.58594ZM1.70711 11.293L10.7071 2.29304L9.29289 0.878831L0.292893 9.87883L1.70711 11.293Z" fill="#E34C98"/>
</svg>
