<svg width="28" height="26" viewBox="0 0 28 26" fill="none" xmlns="http://www.w3.org/2000/svg">
<path d="M27.927 9.82509C27.7437 9.27572 27.2408 8.88553 26.6458 8.83358L18.5643 8.12254L15.3686 0.874974C15.133 0.343821 14.5963 0 14.0001 0C13.4039 0 12.8672 0.343821 12.6316 0.876216L9.43595 8.12254L1.35312 8.83358C0.759231 8.88677 0.257632 9.27572 0.0732709 9.82509C-0.11109 10.3745 0.0591714 10.977 0.508431 11.3569L6.61713 16.5479L4.81581 24.2364C4.68401 24.8017 4.91045 25.386 5.39453 25.7251C5.65473 25.9073 5.95915 26 6.26614 26C6.53082 26 6.79337 25.9309 7.029 25.7942L14.0001 21.7572L20.9687 25.7942C21.4786 26.0915 22.1214 26.0644 22.6044 25.7251C23.0887 25.385 23.3149 24.8005 23.1831 24.2364L21.3818 16.5479L27.4905 11.3579C27.9398 10.977 28.1113 10.3755 27.927 9.82509Z" fill="#565656"/>
</svg>
