<svg width="17" height="17" viewBox="0 0 17 17" fill="none" xmlns="http://www.w3.org/2000/svg">
<path d="M16.7926 0.207394C16.6598 0.0745998 16.4796 0 16.2918 0C16.104 0 15.9238 0.0745998 15.791 0.207394L8.5 7.4984L1.209 0.207394C1.07616 0.0745998 0.896023 0 0.708195 0C0.520367 0 0.340229 0.0745998 0.207394 0.207394C0.0745998 0.340229 0 0.520367 0 0.708195C0 0.896023 0.0745998 1.07616 0.207394 1.209L7.4984 8.5L0.207394 15.791C0.0745998 15.9238 0 16.104 0 16.2918C0 16.4796 0.0745998 16.6598 0.207394 16.7926C0.340229 16.9254 0.520367 17 0.708195 17C0.896023 17 1.07616 16.9254 1.209 16.7926L8.5 9.5016L15.791 16.7926C15.9238 16.9254 16.104 17 16.2918 17C16.4796 17 16.6598 16.9254 16.7926 16.7926C16.9254 16.6598 17 16.4796 17 16.2918C17 16.104 16.9254 15.9238 16.7926 15.791L9.5016 8.5L16.7926 1.209C16.9254 1.07616 17 0.896023 17 0.708195C17 0.520367 16.9254 0.340229 16.7926 0.207394Z" fill="white"/>
</svg>
