<svg width="151" height="160" fill="none" xmlns="http://www.w3.org/2000/svg"><path d="M144.999 73.476c-.004.013-.14-.037-.391-.088a3.158 3.158 0 0 0-1.074-.028 2.902 2.902 0 0 0-1.438.63 3.002 3.002 0 0 0-1.013 1.614l-.005.017-.061.24-.092-.227a3.23 3.23 0 0 0-1.215-1.472 3.14 3.14 0 0 0-1.486-.504c-.914-.062-1.449.223-1.455.185-.004-.008.121-.08.369-.16.247-.08.624-.16 1.093-.138a3.17 3.17 0 0 1 1.56.493 3.31 3.31 0 0 1 1.283 1.536l-.153.012.005-.019a3.094 3.094 0 0 1 1.076-1.693 2.942 2.942 0 0 1 1.517-.627c.47-.053.853.01 1.104.08.252.071.38.141.376.149zM20.841 53.85c-.005.013-.14-.036-.391-.087a3.158 3.158 0 0 0-1.075-.029 2.902 2.902 0 0 0-1.437.63 3 3 0 0 0-1.013 1.614l-.005.018-.062.239-.091-.227a3.227 3.227 0 0 0-1.215-1.472 3.136 3.136 0 0 0-1.486-.504c-.914-.062-1.449.223-1.456.185-.003-.008.122-.08.37-.16a3.12 3.12 0 0 1 1.093-.139 3.169 3.169 0 0 1 1.56.494 3.313 3.313 0 0 1 1.283 1.535l-.153.013.005-.02a3.094 3.094 0 0 1 1.077-1.692 2.944 2.944 0 0 1 1.516-.627c.47-.053.853.01 1.104.08.252.072.38.142.376.149zM107.036 46.97c.01.01-.125.148-.356.41a8.875 8.875 0 0 0-.874 1.187 8.654 8.654 0 0 0-1.299 4.61l-.001.058-.16.013c-.276-1.874-1.259-3.367-2.122-4.23-.868-.882-1.573-1.224-1.55-1.257a.467.467 0 0 1 .127.058c.079.046.203.103.347.2.297.183.707.483 1.156.919a7.583 7.583 0 0 1 1.33 1.743c.406.723.727 1.593.871 2.544l-.16.013v-.059c-.023-1.944.67-3.631 1.364-4.672.345-.528.677-.918.924-1.169.119-.13.225-.217.292-.28a.485.485 0 0 1 .111-.089z" fill="#E0E0E0"/><path d="M118.649 126.813c-5.248 1.246-9.254 6.477-9.088 11.868-3.36-3.705-9.51-4.461-13.668-1.68-4.158 2.781-5.808 8.753-3.667 13.274-4.969-3.878-13.05-2.803-16.831 2.24-.86-3.175-3.302-5.878-6.373-7.058-3.07-1.179-6.694-.805-9.458.978-.896-5.623-5.433-10.488-10.98-11.772-5.547-1.285-11.761 1.09-15.037 5.747-2.773-2.701-6.832-4.019-10.662-3.463-3.83.557-7.347 2.975-9.237 6.353l3.37 1.087c6.145 1.123 11.55 5.66 13.723 11.517 3.092-3.385 7.881-5.135 12.427-4.541 4.546.593 8.725 3.515 10.844 7.581l25.94-.014c6.458-.053 11.387.296 17.357 0 2.36-8.305 13.218-15.688 21.379-12.871 1.637-6.292 6.994-11.457 13.333-12.887-2.328-4.792-8.182-7.59-13.372-6.359z" fill="#423C4F"/><path d="M132.229 133.124c-.07.015-.139.032-.208.048.027.054.055.107.08.161l.128-.209z" fill="#EBEBEB"/><path d="M65.185 117.718c.199-1.444-1.839-2.632-3.37-2.755-.73-.059-1.488.052-2.18-.188-1.498-.523-2.097-2.459-3.56-3.076-1.092-.461-2.35-.05-3.41.483-1.06.534-2.108 1.205-3.292 1.281-1.03.066-2.149-.316-3.05.187-.671.375-1.023 1.149-1.642 1.605-.605.447-1.395.541-2.146.582-.752.041-1.53.048-2.213.362-.684.313-1.25 1.036-1.108 1.775l25.971-.256zM137.949 36.51c.236-1.718-2.187-3.13-4.008-3.277-.868-.07-1.77.063-2.592-.224-1.783-.62-2.494-2.923-4.233-3.657-1.3-.548-2.797-.06-4.057.574-1.261.635-2.506 1.433-3.914 1.523-1.225.078-2.555-.376-3.627.223-.799.445-1.217 1.366-1.953 1.908-.72.532-1.659.644-2.553.693-.893.048-1.818.057-2.631.43-.814.372-1.487 1.232-1.318 2.111l30.886-.305zM43.072 27.543c.25-1.81-2.305-3.299-4.224-3.453-.915-.074-1.866.066-2.733-.236-1.878-.655-2.629-3.082-4.462-3.855-1.37-.578-2.948-.064-4.277.605-1.328.669-2.642 1.51-4.126 1.605-1.291.082-2.693-.396-3.823.234-.841.47-1.283 1.44-2.058 2.013-.76.56-1.75.678-2.691.73-.942.05-1.917.06-2.775.453-.857.392-1.567 1.3-1.389 2.226l32.558-.322zM144.076 96.436c.336-2.44-3.107-4.446-5.693-4.654-1.234-.1-2.515.089-3.684-.318-2.532-.883-3.543-4.154-6.014-5.196-1.847-.78-3.973-.086-5.764.816-1.791.9-3.56 2.035-5.561 2.163-1.74.111-3.63-.534-5.152.316-1.135.634-1.729 1.94-2.775 2.712-1.023.755-2.357.914-3.627.983-1.269.07-2.583.083-3.739.612-1.156.529-2.111 1.75-1.872 3l43.881-.434zM47.125 79.104c.303-2.208-2.813-4.025-5.155-4.214-1.117-.09-2.276.08-3.334-.288-2.292-.8-3.208-3.76-5.445-4.704-1.672-.705-3.597-.077-5.218.739s-3.223 1.842-5.034 1.958c-1.576.101-3.287-.483-4.665.286-1.027.574-1.565 1.757-2.512 2.455-.926.683-2.134.828-3.283.89-1.15.063-2.339.075-3.385.554-1.046.479-1.912 1.585-1.695 2.715l39.726-.391z" fill="#423C4F"/><path d="M150.248 139.442s-.165-.18-.476-.536c-.156-.178-.342-.405-.596-.645l-.401-.398a5.714 5.714 0 0 0-.475-.438l-.55-.475c-.191-.17-.416-.319-.638-.491-.441-.352-.968-.671-1.526-1.031a18.978 18.978 0 0 0-4.175-1.836 17.74 17.74 0 0 0-5.601-.778l-.782.024-.795.08a54.98 54.98 0 0 0-.403.041l-.404.07-.817.145c-1.086.256-2.199.59-3.292 1.08-1.086.499-2.175 1.093-3.206 1.841a19.813 19.813 0 0 0-2.924 2.61c-1.797 1.995-3.274 4.5-4.033 7.362l-.02.076-.074-.025c-1.934-.668-4.106-.761-6.235-.368-2.134.389-4.234 1.233-6.189 2.407a21.995 21.995 0 0 0-5.327 4.49c-1.544 1.804-2.835 3.925-3.523 6.297l-.017.058-.06.003c-3.285.166-6.677.131-10.138.065a346.9 346.9 0 0 0-5.244-.067l-5.341.006-22.578.009h-.051l-.024-.045c-1.156-2.205-2.893-4.031-4.894-5.334-2.002-1.305-4.28-2.094-6.557-2.274-2.278-.183-4.531.217-6.537 1.031a14.351 14.351 0 0 0-5.156 3.547l-.08.085-.04-.108c-.992-2.646-2.587-4.903-4.427-6.682a20.052 20.052 0 0 0-2.94-2.304c-1.02-.657-2.085-1.168-3.14-1.595-1.058-.423-2.13-.696-3.169-.91l-.78-.116-.386-.056a489.151 489.151 0 0 1-1.141-.09l-.745-.01a17.994 17.994 0 0 0-5.32.773 19.22 19.22 0 0 0-3.982 1.697c-.536.331-1.041.624-1.469.945-.443.298-.816.609-1.152.883-.346.263-.608.546-.856.763-.25.219-.434.427-.589.588-.308.325-.471.488-.471.488s.152-.173.455-.503c.152-.164.335-.375.582-.596.247-.22.507-.506.851-.772.335-.278.707-.592 1.15-.894.426-.325.93-.622 1.467-.957a19.271 19.271 0 0 1 3.99-1.72 18.038 18.038 0 0 1 5.344-.794l.748.007.762.059.387.029.388.055.786.115c1.047.212 2.125.485 3.192.909 1.062.427 2.135.939 3.163 1.598a20.075 20.075 0 0 1 2.964 2.314c1.855 1.788 3.466 4.059 4.47 6.726l-.119-.024a14.494 14.494 0 0 1 5.206-3.59c2.025-.824 4.3-1.231 6.606-1.048 2.303.18 4.608.975 6.633 2.294 2.024 1.316 3.782 3.161 4.954 5.393l-.074-.045 22.577-.015 5.342-.005c1.767.004 3.517.036 5.247.067 3.461.067 6.847.103 10.126-.061l-.077.061c.698-2.402 2.003-4.54 3.561-6.357a22.126 22.126 0 0 1 5.37-4.52c1.97-1.18 4.088-2.029 6.244-2.421 2.149-.394 4.349-.299 6.309.382l-.094.05c.769-2.887 2.262-5.409 4.075-7.415a20.016 20.016 0 0 1 2.949-2.623c1.04-.75 2.137-1.347 3.232-1.846 1.102-.492 2.223-.825 3.317-1.081l.823-.143.406-.07.406-.04.8-.078.788-.022a17.778 17.778 0 0 1 5.627.799 19.001 19.001 0 0 1 4.183 1.86c.558.365 1.085.688 1.525 1.043.222.175.446.326.637.497l.548.48c.176.149.334.295.473.443l.397.403c.252.242.436.473.59.653.307.362.46.551.46.551z" fill="#263238"/><path d="m75.274 14.013 1.742 3.53a.852.852 0 0 0 .641.466l3.895.566c.698.101.977.96.472 1.452l-2.819 2.748a.852.852 0 0 0-.245.753l.666 3.88a.852.852 0 0 1-1.236.897l-3.484-1.831a.853.853 0 0 0-.793 0l-3.483 1.831a.852.852 0 0 1-1.236-.898l.665-3.879a.852.852 0 0 0-.245-.753l-2.818-2.748a.852.852 0 0 1 .472-1.452l3.895-.566a.852.852 0 0 0 .641-.466l1.742-3.53a.852.852 0 0 1 1.528 0z" fill="url(#a)"/><path d="M68.633 16.345c-.033.035-2.244-2.018-4.937-4.584-2.694-2.567-4.85-4.676-4.818-4.71.033-.035 2.243 2.017 4.938 4.584 2.693 2.566 4.85 4.675 4.817 4.71z" fill="url(#b)"/><path d="M64.012 18.517c-.003.048-1.901-.029-4.239-.17-2.339-.143-4.231-.296-4.229-.344.003-.048 1.901.028 4.24.17 2.337.142 4.23.296 4.228.344z" fill="url(#c)"/><path d="M71.218 12.193c-.043.019-.592-1.118-1.225-2.539-.633-1.422-1.11-2.59-1.067-2.61.044-.019.593 1.118 1.226 2.54.632 1.421 1.11 2.59 1.066 2.609z" fill="url(#d)"/><path d="M74.166.875c.048 0 .086 2.322.086 5.185 0 2.865-.039 5.186-.086 5.186-.048 0-.087-2.322-.087-5.186 0-2.863.04-5.185.087-5.185z" fill="url(#e)"/><path d="M80.057 7.14c.043.022-.45 1.148-1.101 2.516-.652 1.369-1.215 2.461-1.258 2.44-.043-.02.45-1.146 1.101-2.515.652-1.368 1.215-2.46 1.258-2.44z" fill="url(#f)"/><path d="M89.575 8.838c.027.04-2.514 1.86-5.676 4.065-3.163 2.207-5.748 3.963-5.776 3.924-.027-.04 2.514-1.86 5.677-4.066 3.161-2.206 5.747-3.962 5.775-3.923z" fill="url(#g)"/><path d="M89.826 16.207c.017.044-1.24.574-2.809 1.183-1.569.61-2.855 1.066-2.872 1.022-.017-.045 1.24-.575 2.81-1.184 1.568-.609 2.854-1.066 2.871-1.021z" fill="url(#h)"/><path d="M67.67 23.308c.015.045-3.29 1.223-7.382 2.63-4.093 1.408-7.423 2.512-7.438 2.467-.016-.045 3.288-1.223 7.382-2.63 4.091-1.408 7.422-2.513 7.437-2.467z" fill="url(#i)"/><path d="M93.716 26.94c-.013.047-2.922-.73-6.496-1.732-3.576-1.003-6.463-1.854-6.45-1.9.013-.046 2.921.73 6.497 1.733 3.574 1.003 6.462 1.854 6.449 1.9z" fill="url(#j)"/><path d="M64.946 32.963c-.031-.037.85-.855 1.97-1.829s2.053-1.733 2.084-1.697c.031.036-.85.854-1.97 1.828-1.12.974-2.052 1.734-2.084 1.698z" fill="url(#k)"/><path d="M74.443 41.121c-.048 0-.072-2.847-.053-6.358.018-3.512.072-6.358.12-6.358s.072 2.847.053 6.36c-.018 3.51-.072 6.356-.12 6.356z" fill="url(#l)"/><path d="M84.264 33.675c-.033.035-.949-.777-2.046-1.812-1.097-1.036-1.96-1.904-1.927-1.939.033-.034.949.777 2.046 1.813 1.097 1.035 1.96 1.903 1.927 1.938z" fill="url(#m)"/><path d="m91.406 21.666.03.573c.001.04.024.078.058.1l.49.3a.124.124 0 0 1-.021.222l-.536.205a.124.124 0 0 0-.077.087l-.134.558a.124.124 0 0 1-.217.049l-.361-.446a.124.124 0 0 0-.106-.046l-.572.044a.124.124 0 0 1-.114-.191l.313-.481a.124.124 0 0 0 .01-.115l-.218-.53a.124.124 0 0 1 .147-.168l.554.149c.04.01.081.001.112-.025l.437-.373a.124.124 0 0 1 .205.088z" fill="url(#n)"/><path d="m95.086 15.624.26.273c.02.02.046.029.073.024l.373-.06c.067-.01.117.06.085.12l-.18.333a.082.082 0 0 0 0 .076l.173.337c.03.06-.021.13-.088.117l-.371-.067a.083.083 0 0 0-.073.022l-.267.268a.082.082 0 0 1-.139-.046l-.05-.375a.081.081 0 0 0-.044-.062l-.337-.17a.082.082 0 0 1 .001-.147l.341-.164a.082.082 0 0 0 .045-.06l.059-.374a.08.08 0 0 1 .139-.045z" fill="url(#o)"/><path d="m52.826 11.09.261.274c.019.019.046.028.072.024l.374-.06c.067-.01.117.06.085.12l-.18.332a.081.081 0 0 0 0 .076l.172.337c.031.06-.02.13-.087.117l-.372-.068a.083.083 0 0 0-.073.023l-.266.268a.082.082 0 0 1-.139-.047l-.05-.374a.082.082 0 0 0-.045-.062l-.337-.171a.082.082 0 0 1 .002-.147l.34-.163a.082.082 0 0 0 .046-.062l.058-.373a.081.081 0 0 1 .14-.044z" fill="url(#p)"/><path d="M19.674 91.647c-.005.013-.14-.036-.392-.087a3.16 3.16 0 0 0-1.074-.028 2.902 2.902 0 0 0-1.438.629 3 3 0 0 0-1.013 1.614l-.005.018-.061.239-.092-.227a3.232 3.232 0 0 0-1.215-1.471 3.136 3.136 0 0 0-1.486-.505c-.914-.062-1.449.223-1.455.185-.004-.008.122-.08.37-.16.247-.08.623-.16 1.093-.138a3.169 3.169 0 0 1 1.56.493 3.313 3.313 0 0 1 1.283 1.536l-.154.012.005-.019a3.095 3.095 0 0 1 1.077-1.693 2.943 2.943 0 0 1 1.517-.627c.47-.053.852.01 1.104.08.251.072.379.141.376.15zM35.802 90.369c.013.014-.178.21-.505.582-.327.37-.773.933-1.238 1.681-.936 1.479-1.873 3.832-1.84 6.53l-.001.082-.227.02c-.391-2.655-1.784-4.77-3.006-5.993-1.23-1.25-2.23-1.734-2.196-1.78.003-.007.066.021.18.082.112.064.287.146.492.283.42.259 1.001.684 1.637 1.301.637.615 1.311 1.443 1.885 2.47a10.69 10.69 0 0 1 1.233 3.603l-.227.019.001-.084c-.033-2.755.949-5.144 1.932-6.62.49-.747.96-1.3 1.31-1.654.168-.184.318-.308.413-.398.098-.087.151-.13.157-.124zM118.224 70.567c-.006.016-.279-.096-.794-.21a6.345 6.345 0 0 0-2.217-.086 5.968 5.968 0 0 0-2.987 1.288 6.194 6.194 0 0 0-2.118 3.385l-.062.24-.092-.228a6.652 6.652 0 0 0-2.524-3.048 6.444 6.444 0 0 0-3.083-1.028 6.829 6.829 0 0 0-2.203.202c-.508.134-.777.252-.783.237a1.085 1.085 0 0 1 .192-.092c.127-.056.32-.13.575-.205a6.521 6.521 0 0 1 2.226-.255c.947.05 2.091.326 3.156 1.017a6.742 6.742 0 0 1 2.594 3.112l-.154.013.01-.039a6.29 6.29 0 0 1 2.172-3.426 6.009 6.009 0 0 1 3.066-1.286 6.095 6.095 0 0 1 2.245.137c.259.065.455.132.585.185.131.052.198.082.196.087zM140.387 58.405c-.005.014-.156-.044-.44-.102a3.542 3.542 0 0 0-1.213-.035 3.278 3.278 0 0 0-1.625.709 3.386 3.386 0 0 0-1.145 1.823l-.006.02-.061.24-.092-.227a3.64 3.64 0 0 0-1.373-1.662 3.54 3.54 0 0 0-1.679-.568 3.824 3.824 0 0 0-1.206.1c-.28.068-.429.129-.435.116-.002-.005.033-.025.103-.058.069-.033.175-.076.315-.12a3.517 3.517 0 0 1 1.23-.151c.524.024 1.16.174 1.752.556.591.375 1.136.97 1.442 1.727l-.153.012.005-.021a3.484 3.484 0 0 1 1.209-1.903 3.316 3.316 0 0 1 1.704-.706 3.3 3.3 0 0 1 1.242.087c.142.038.25.077.32.108.072.032.108.05.106.055zM125.896 53.427c.01.01-.152.174-.426.483-.275.31-.65.778-1.041 1.404a10.245 10.245 0 0 0-1.544 5.466l-.001.07-.16.012a8.984 8.984 0 0 0-1-2.96 9.196 9.196 0 0 0-1.521-2.055 9.276 9.276 0 0 0-1.319-1.119c-.337-.233-.532-.35-.525-.362a.646.646 0 0 1 .149.071c.094.054.239.124.41.24.35.217.835.573 1.365 1.09a8.976 8.976 0 0 1 1.571 2.064 8.965 8.965 0 0 1 1.029 3.008l-.161.014.001-.07c-.028-2.3.79-4.296 1.61-5.53a9.144 9.144 0 0 1 1.09-1.385c.14-.154.265-.258.343-.334a.663.663 0 0 1 .13-.107z" fill="#263238"/><path d="M60.723 62.826h27.901c1.072 0 1.074-1.666 0-1.666H60.723c-1.072 0-1.074 1.666 0 1.666z" fill="#455A64"/><path d="M61.689 30.977h-2V158.92h2V30.978z" fill="#455A64"/><path d="M61.584 158.92c-.048 0-.086-28.624-.086-63.926 0-35.314.038-63.933.086-63.933.048 0 .087 28.619.087 63.933 0 35.302-.04 63.926-.087 63.926z" fill="#263238"/><path d="M60.723 49.88h27.901c1.072 0 1.074-1.666 0-1.666H60.723c-1.072 0-1.074 1.666 0 1.666z" fill="#455A64"/><path d="M89.59 31.24h-2v127.681h2V31.241z" fill="#455A64"/><path d="M87.64 142.836c-.048 0-.087-24.934-.087-55.685 0-30.762.04-55.691.087-55.691.048 0 .087 24.93.087 55.69 0 30.752-.04 55.686-.087 55.686z" fill="#263238"/><path d="M60.689 148.103h27.9c1.072 0 1.074-1.666 0-1.666h-27.9c-1.073 0-1.074 1.666 0 1.666zM61.27 122.275h26.214c1.072 0 1.074-1.666 0-1.666H61.27c-1.072 0-1.074 1.666 0 1.666zM60.689 104.227h27.9c1.072 0 1.074-1.666 0-1.666h-27.9c-1.073 0-1.074 1.666 0 1.666zM60.689 89.988h27.9c1.072 0 1.074-1.666 0-1.666h-27.9c-1.073 0-1.074 1.666 0 1.666zM60.689 76.088h27.9c1.072 0 1.074-1.666 0-1.666h-27.9c-1.073 0-1.074 1.666 0 1.666zM60.965 135.585H87.485c1.071 0 1.073-1.666 0-1.666h-26.52c-1.072 0-1.074 1.666 0 1.666z" fill="#455A64"/><path d="m83.657 51.62-1.693-3.769s.088-2.014-.198-2.184c-.393-.234-.489-.04-.599.632l-.158.99s-.646-1.408-1.25-1.466c-.408-.04-.526.674-.526.674s-.68-.638-1.167-.485c-.455.143-.329.815-.329.815s-.57-.341-.819.262c-.284.691.958 1.736 1.148 2.198.398.968-.444 1-.444 1s-2.165-.278-2.054.277c.111.555.833.555 1.388.61.463.047 2.2.48 2.764.621.118.03.23.08.332.146l1.292 1.327 2.313-1.648z" fill="#FFBE9D"/><path d="m82.778 138.174-.074 9.675-5.22.064.053-9.693 5.24-.046z" fill="url(#q)"/><path d="M80.129 147.516c-.044 0-.037-2.119.016-4.73.053-2.612.13-4.729.174-4.728.044.001.037 2.119-.016 4.731-.053 2.612-.13 4.728-.174 4.727z" fill="#263238"/><path d="M77.501 144.816c-.008-.006.038-.083.136-.21.099-.127.254-.301.472-.492.217-.19.498-.395.85-.556.346-.163.769-.277 1.219-.267.903.012 1.657.462 2.025.908.192.219.31.425.376.572.065.147.089.233.08.237-.029.016-.15-.328-.538-.734-.375-.407-1.09-.813-1.946-.826-.854-.015-1.563.408-1.995.751-.441.352-.657.636-.679.617z" fill="#263238"/><path opacity=".3" d="m77.487 141.721-.006 1.066h5.297v-1.066h-5.291z" fill="#000"/><path d="m77.484 147.913.006-1.009 5.222.001-.008.944-5.22.064z" fill="#E0E0E0"/><path d="m71.828 113.065-.07 9.284-5.01.062.052-9.302 5.028-.044z" fill="url(#r)"/><path d="M69.286 122.03c-.042 0-.035-2.033.015-4.54s.126-4.538.167-4.537c.042.001.035 2.033-.015 4.54s-.125 4.538-.167 4.537z" fill="#263238"/><path d="M66.764 119.439c-.007-.006.037-.08.131-.202.094-.122.244-.289.452-.472.209-.182.48-.379.816-.533a2.643 2.643 0 0 1 1.17-.257c.867.012 1.59.444 1.944.871.183.211.296.409.36.55.063.141.086.224.077.227-.028.015-.145-.314-.516-.704-.36-.39-1.046-.781-1.868-.793-.82-.014-1.5.392-1.914.721-.424.337-.63.609-.651.592z" fill="#263238"/><path opacity=".3" d="m66.75 116.468-.005 1.023h5.083v-1.023H66.75z" fill="#000"/><path d="m66.748 122.411.006-.969 5.01.001-.006.906-5.01.062z" fill="#E0E0E0"/><path d="m72.782 50.83.133-.034c.4-.723 1.213-1.174 2.037-1.217.825-.042 1.645.297 2.263.844.43.38.769.855 1.2 1.233.432.378 1.006.662 1.567.544.069.21-.322.333-.298.552.012.105.12.173.222.194.15.03.307-.008.46-.003.154.004.328.076.367.225a.45.45 0 0 1-.019.223c-.17.654-.442 1.299-.91 1.785-.47.486-1.163.79-1.826.666-.53-.1-.974-.448-1.394-.785l-2.397-1.922c-.37-.296-.742-.596-1.021-.977-.28-.383-.458-.862-.383-1.329z" fill="#263238"/><path d="M73.283 50.963c-.328-.262-.704-.474-1.116-.554-.411-.08-.86-.016-1.2.23-.317.228-.51.585-.733.905-.223.32-.519.633-.905.69-.067.01-.142.013-.192.06-.088.084-.024.247.086.297.11.05.239.023.357-.004-.19.223-.462.377-.751.424a.55.55 0 0 0 .674.39c-.112.452-.224.911-.221 1.378.002.467.132.95.449 1.292.35.378.917.589 1.07 1.08" fill="#263238"/><path d="m76.646 67.427-6.238-.08.696-5.319s-.426-.09-.455-2.405c-.028-2.314-.134-6.245-.134-6.245a8.023 8.023 0 0 1 8.07 1.016l.342.264-2.28 12.77z" fill="#FFBE9D"/><path d="M78.203 57.503c.04-.017 1.588-.47 1.538 1.112-.05 1.582-1.626 1.205-1.628 1.16-.001-.046.09-2.272.09-2.272zM70.784 57.173c-.04-.017-1.448-.397-1.397 1.185.05 1.582 1.626 1.204 1.627 1.16.001-.046-.23-2.345-.23-2.345z" fill="#FFBE9D"/><path d="M78.716 57.327c-.236 1.326-.19 2.022-.408 2.907-.345 1.401-1.04 2.476-2.301 3.175-1.26.7-2.966.687-4.048-.265-.752-.661-1.284-1.408-1.396-2.403-.111-.995-.404-2.865-.411-3.866-.013-1.807.047-3.426.047-3.426l5.154-.934 2.932 1.746.43 3.066zM73.4 64.209c-.008.036.397.137.903.08.506-.055.88-.241.864-.275-.015-.04-.396.08-.88.131-.483.055-.881.022-.887.064z" fill="#263238"/><path d="M78.467 59.58c.15-1.358.249-2.912.46-4.343.08-.538.271-1.313.223-1.854-.048-.543-.196-.378-.434-.868-.3-.614-1.445-1.024-2.115-1.159-.67-.135-.753-.715-1.267-.264a1.716 1.716 0 0 0-1.77-.702 1.718 1.718 0 0 0-1.28 1.409 1.195 1.195 0 0 0-1.404-.152c-.433.263-.654.83-.513 1.317-.37.062-.702.32-.853.663-.151.344-.117.763.087 1.078.239.368.67.57.933.922.303.404.335.992.079 1.428" fill="#263238"/><path d="M71.828 59.297c-.035-.008-.107.649.177 1.39.278.746.765 1.19.785 1.161.035-.028-.385-.498-.65-1.211-.272-.71-.267-1.341-.313-1.34zM71.135 58.144c-.032-.016-.232.548-.1 1.252.124.706.51 1.164.535 1.137.038-.023-.276-.494-.393-1.163-.127-.667.002-1.218-.042-1.226z" fill="#455A64"/><path d="M77.625 52.675c-.393-.617-.928-1.17-1.608-1.44-.679-.27-1.514-.215-2.07.26" fill="#263238"/><path d="M77.495 56.177c-.025-.007 0-.185.05-.467.049-.282.124-.67.12-1.096a2.437 2.437 0 0 0-.236-1.049c-.124-.249-.25-.378-.228-.399.012-.016.176.082.34.335.166.248.304.655.307 1.11.004.455-.095.852-.176 1.129-.084.277-.153.443-.177.437zM76.43 56.7c-.046-.025.081-.338.205-.73.126-.393.202-.722.254-.716.049.004.053.359-.08.77-.13.413-.337.7-.38.676zM71.48 56.294c-.015.012-.194-.18-.354-.566-.161-.38-.28-.971-.154-1.605a2.824 2.824 0 0 1 .759-1.423c.296-.294.534-.403.544-.385.017.025-.19.17-.45.473a3.07 3.07 0 0 0-.674 1.371 3.072 3.072 0 0 0 .097 1.525c.122.38.258.594.232.61zM77.113 50.408c-.014.023-.202-.075-.508-.214-.305-.135-.743-.312-1.243-.306-.502-.003-.916.23-1.126.476-.219.244-.26.46-.289.45-.02.002-.027-.237.188-.532.106-.144.267-.293.48-.402.212-.11.473-.171.744-.175.55-.005 1.007.206 1.304.373.3.173.462.31.45.33zM70.067 51.874c-.02-.007.017-.184.184-.418a1.72 1.72 0 0 1 .903-.637c.43-.124.843-.056 1.104.053.266.109.392.238.38.255-.016.024-.164-.062-.42-.132a1.89 1.89 0 0 0-1.013 0 1.892 1.892 0 0 0-.854.543c-.18.196-.258.349-.284.337zM71.766 57.689c-.006-.022.255-.092.67-.278a5.352 5.352 0 0 0 1.526-1.033l.299-.29-.164.385c-.097.23-.176.483-.223.751-.026.13-.046.294.003.316.035.04.176-.03.294-.114.42-.27.777-.599 1.06-.938l.275-.33-.126.408-.348 1.133-.119-.072c.724-.685.975-1.296 1.01-1.273.012.005-.04.159-.178.412-.138.252-.37.604-.732.965l-.193.193.074-.265.321-1.14.15.078a4.688 4.688 0 0 1-1.094.984c-.065.04-.123.082-.205.118-.073.032-.194.064-.298-.013-.101-.08-.106-.196-.102-.273.006-.083.02-.148.032-.22.052-.283.138-.547.245-.788l.136.095c-.57.535-1.17.843-1.603 1.006-.436.162-.707.197-.71.183z" fill="#455A64"/><path d="M74.781 51.588a.81.81 0 0 0-.498-.385 1.412 1.412 0 0 0-.641-.015 2.298 2.298 0 0 0-1.344.779c-.078.092-.147.235-.064.323.043.047.113.056.176.06.776.066 1.56.038 2.33-.082M64.597 98.053c.104.186 1.366 4.411 4.153 5.128 2.786.716 11.463.239 11.702 0 .239-.239 2.789-1.645 4.021-4.564 1.233-2.919-7.623-8.014-7.623-8.014l-12.253 7.45z" fill="#263238"/><path d="m85.94 99.195.078 2.357c0 .363-.045 2.188-.084 2.549l-1.081 14.631c-.108-.043-.738 9.007-.793 12.168-.053 3.051-.308 11.355-.308 11.355h-7.12l-.479-13.746-.3-14.883-.442-10.411 10.528-4.02zM64.597 95.724s.155.233.12 3.47c-.028 2.476 1.475 17.737 1.475 17.737l6.083-.184 1.215-15.281-8.893-5.742z" fill="#263238"/><path d="M75.973 103.396c.001.012-.18.037-.51.072-.33.034-.808.079-1.4.117-1.181.08-2.844.104-4.63-.27-1.799-.379-3.227-1.402-3.926-2.374a4.447 4.447 0 0 1-.668-1.244c-.06-.156-.079-.286-.102-.37-.02-.086-.026-.131-.02-.133.043-.02.157.743.887 1.672.706.929 2.108 1.909 3.865 2.279 1.764.369 3.407.366 4.587.317l1.401-.061c.332-.014.516-.017.516-.005zM83.184 103.103c.005.022-.292.107-.78.206-.488.099-1.17.206-1.927.272a17.91 17.91 0 0 1-1.946.068c-.498-.012-.805-.044-.804-.067 0-.025.307-.036.803-.056a39.562 39.562 0 0 0 1.931-.118c.752-.066 1.43-.153 1.922-.22.491-.067.796-.11.801-.085zM82.975 105.783c-.003.022-.397-.01-1.028-.104a27.498 27.498 0 0 1-2.444-.489 27.383 27.383 0 0 1-2.391-.704c-.603-.21-.966-.365-.959-.386.009-.024.386.09.996.27.61.179 1.454.419 2.395.652.941.232 1.8.412 2.424.536.624.125 1.01.199 1.007.225z" fill="#455A64"/><path d="M81.285 54.526c.032-.093-.878-1.555-.878-1.555s1.967-2.083 3.149-2.021l1.122 1.555-3.392 2.021z" fill="#fff"/><path d="M90.588 61.073c-.428-1.34-5.817-9.112-5.817-9.112-1.984 0-3.923 2.409-3.923 2.409l3.828 8.062-4.025 3.707 4.545 5.368s2.867-3.588 3.728-4.89c1.915-2.895 2.094-4.203 1.664-5.544z" fill="url(#s)"/><path opacity=".3" d="M64.423 97.623s.451 2.994 2.956 3.882c2.505.887 8.295 0 8.295 0l.673-2.182.719 2.576 8.953-1.148-.127-2.044-9.49-3.942-11.98 2.858z" fill="#000"/><path d="M83.951 87.644c-.19-1.061-.432-1.598-.48-2.238-.143-1.907-.131-6.487-.001-7.073.17-.768 1.726-6.826 1.726-6.826l-.531-4.692-6.613-1.114-.463-1.065s-4.411-1.142-7.202.356l-.483 1.14-1.724.433c-.259.103-1.61.478-2.632.757a4.01 4.01 0 0 0-2.59 2.165c-.155.331-.311.72-.465 1.176-.455 1.353-3.08 8.83-3.198 11.107-.138 2.662 2.224 2.757 3.656 2.418 1.393-.33 3.022-3.565 3.022-3.565l.906 6.309s-.191 1.333-.63 2.532c-.88 2.4-2.147 7.041-2.147 7.041.495 1.548 2.289 4 3.227 4.342.939.341 7.221.065 7.221.065l1.851-4.917 1.709 5.169 8.914-1.39-3.073-12.13z" fill="url(#t)"/><path d="M76.4 85.823c.026.04-1.257.889-2.865 1.895-1.608 1.005-2.931 1.787-2.957 1.746-.025-.04 1.257-.888 2.865-1.894 1.608-1.005 2.932-1.787 2.958-1.747zM74.055 88.416c.026.04-1.338.948-3.046 2.026-1.708 1.08-3.113 1.92-3.139 1.88-.026-.04 1.338-.948 3.046-2.027 1.708-1.078 3.114-1.92 3.14-1.88zM81.104 81.352c.04.018-.339.834-1.07 1.657-.727.828-1.491 1.304-1.513 1.267-.032-.043.672-.572 1.383-1.381.715-.805 1.154-1.57 1.2-1.543zM81.284 82.195c.02.01-.087.27-.3.668-.213.399-.539.934-.948 1.49-.411.556-.826 1.025-1.145 1.346-.318.322-.534.5-.55.484-.037-.038.745-.83 1.555-1.933.814-1.098 1.341-2.08 1.388-2.055zM81.489 90.368c-.024-.008.075-.345.23-.89.157-.543.364-1.297.56-2.137.194-.84.34-1.608.44-2.166.1-.557.16-.903.184-.9.023.003.006.355-.063.919-.069.564-.197 1.34-.393 2.186a21.69 21.69 0 0 1-.61 2.136c-.187.537-.327.86-.348.852zM84.771 70.77c-.046.027-.638-.999-1.535-2.143-.892-1.148-1.743-1.972-1.706-2.01.015-.016.248.17.593.504.345.334.798.821 1.25 1.4.451.579.814 1.136 1.054 1.552.24.416.363.687.344.698zM86.201 68.4c-.047.03-.452-.79-1.319-1.456-.857-.679-1.75-.872-1.732-.925.004-.02.231 0 .58.112.35.111.815.33 1.26.676.442.347.769.745.961 1.057.194.311.268.526.25.535zM66.879 86.932c-.048.007-.582-3.44-1.193-7.7-.611-4.26-1.068-7.718-1.02-7.725.047-.007.58 3.44 1.192 7.7.611 4.26 1.068 7.718 1.02 7.725zM78.146 65.726c-.003.026-.468-.006-1.219-.035a33.877 33.877 0 0 0-2.933.013 33.926 33.926 0 0 0-2.92.28c-.744.102-1.203.181-1.209.155-.002-.012.11-.045.315-.096.205-.051.504-.114.875-.181a23.463 23.463 0 0 1 5.88-.293c.375.03.679.062.888.093.209.03.324.052.323.064z" fill="#263238"/><path d="M66.007 80.861c-.355-2.666-.84-5.332-1.195-7.998-.963 2.626-.431 5.72 1.195 7.998zM84.599 62.33a4.08 4.08 0 0 1 2.28-1.088c.405-.052.857-.028 1.164.242.068.06.13.142.118.232-.012.09-.098.154-.187.172-.088.018-.18 0-.269-.017-1.022-.186-2.132.116-3.103.488M70.24 66.172c.844.259 1.749.207 2.628.132a53.07 53.07 0 0 0 4.643-.606 19.653 19.653 0 0 0-7.426.419M69.937 91.132a19.144 19.144 0 0 0 9.124-5.725c-2.77 1.763-6.395 3.787-9.124 5.725z" fill="#000" opacity=".3"/><path d="M86.771 61.934c-.01.052-.552-.091-1.187.094-.639.173-1.026.578-1.062.54-.016-.014.058-.136.23-.288.17-.152.446-.323.785-.419.339-.094.663-.093.888-.052.225.04.352.105.346.125z" fill="#263238"/><path d="m54.121 58.078-3.068.14a8.27 8.27 0 0 1-3.747 2.542c-4.333 1.427-8.94-1.008-10.29-5.438-1.352-4.43 1.066-9.18 5.399-10.607 4.333-1.427 8.94 1.008 10.29 5.438a8.595 8.595 0 0 1-.146 5.451l.003-.004 1.56 2.478z" fill="#fff"/><path d="M54.122 58.078s-.04-.057-.11-.164l-.308-.474-1.174-1.82.064.002-.002.004a.038.038 0 0 1-.054.01.039.039 0 0 1-.014-.045 8.665 8.665 0 0 0 .415-4.107 8.31 8.31 0 0 0-.79-2.543 8.19 8.19 0 0 0-1.783-2.405 8.054 8.054 0 0 0-2.814-1.694 7.964 7.964 0 0 0-3.512-.4 8.267 8.267 0 0 0-3.52 1.293c-.548.344-1.035.786-1.5 1.255-.433.496-.855 1.018-1.172 1.613-.342.574-.573 1.197-.778 1.818-.163.633-.297 1.271-.32 1.913a8.601 8.601 0 0 0 .6 3.672 8.122 8.122 0 0 0 4.755 4.61 7.992 7.992 0 0 0 5.54-.04 8.304 8.304 0 0 0 3.377-2.383.04.04 0 0 1 .029-.014 4949.304 4949.304 0 0 1 2.863-.097c.135-.004.208-.004.208-.004s-.061.007-.19.015l-.58.035-2.298.13.029-.015a8.31 8.31 0 0 1-3.396 2.442 8.09 8.09 0 0 1-5.632.07 8.21 8.21 0 0 1-2.836-1.734 8.203 8.203 0 0 1-2.023-2.953 8.744 8.744 0 0 1-.617-3.744c.023-.655.158-1.306.325-1.951.208-.634.444-1.27.793-1.855.324-.607.754-1.14 1.198-1.647.473-.478.971-.928 1.531-1.28a8.417 8.417 0 0 1 3.595-1.314 8.11 8.11 0 0 1 3.583.415 8.171 8.171 0 0 1 2.862 1.736 8.304 8.304 0 0 1 1.802 2.455c.42.868.681 1.749.786 2.585a8.658 8.658 0 0 1-.458 4.149l-.068-.035.003-.004a.038.038 0 0 1 .064.001l1.148 1.87.287.473c.064.105.092.156.092.156z" fill="#263238"/><path d="m42.257 51.394 2.444-3.101 2.445 3.063-4.89.038z" fill="url(#u)"/><path d="m45.905 57.066-2.226.018-.071-6.192 2.226-.017.071 6.191z" fill="url(#v)"/><defs><linearGradient id="l" x1="74.383" y1="34.763" x2="74.57" y2="34.763" gradientUnits="userSpaceOnUse"><stop stop-color="#E34C98"/><stop offset="1" stop-color="#7C1E84"/></linearGradient><linearGradient id="a" x1="66.738" y1="20.972" x2="82.286" y2="21.04" gradientUnits="userSpaceOnUse"><stop stop-color="#E34C98"/><stop offset="1" stop-color="#7C1E84"/></linearGradient><linearGradient id="c" x1="55.544" y1="18.26" x2="63.978" y2="18.813" gradientUnits="userSpaceOnUse"><stop stop-color="#E34C98"/><stop offset="1" stop-color="#7C1E84"/></linearGradient><linearGradient id="d" x1="68.923" y1="9.619" x2="71.222" y2="9.623" gradientUnits="userSpaceOnUse"><stop stop-color="#E34C98"/><stop offset="1" stop-color="#7C1E84"/></linearGradient><linearGradient id="e" x1="74.079" y1="6.06" x2="74.252" y2="6.06" gradientUnits="userSpaceOnUse"><stop stop-color="#E34C98"/><stop offset="1" stop-color="#7C1E84"/></linearGradient><linearGradient id="f" x1="77.695" y1="9.619" x2="80.06" y2="9.624" gradientUnits="userSpaceOnUse"><stop stop-color="#E34C98"/><stop offset="1" stop-color="#7C1E84"/></linearGradient><linearGradient id="g" x1="78.123" y1="12.832" x2="89.578" y2="12.902" gradientUnits="userSpaceOnUse"><stop stop-color="#E34C98"/><stop offset="1" stop-color="#7C1E84"/></linearGradient><linearGradient id="h" x1="84.145" y1="17.309" x2="89.827" y2="17.371" gradientUnits="userSpaceOnUse"><stop stop-color="#E34C98"/><stop offset="1" stop-color="#7C1E84"/></linearGradient><linearGradient id="i" x1="52.85" y1="25.856" x2="67.671" y2="26.037" gradientUnits="userSpaceOnUse"><stop stop-color="#E34C98"/><stop offset="1" stop-color="#7C1E84"/></linearGradient><linearGradient id="j" x1="80.77" y1="25.124" x2="93.717" y2="25.318" gradientUnits="userSpaceOnUse"><stop stop-color="#E34C98"/><stop offset="1" stop-color="#7C1E84"/></linearGradient><linearGradient id="k" x1="64.945" y1="31.2" x2="69.002" y2="31.219" gradientUnits="userSpaceOnUse"><stop stop-color="#E34C98"/><stop offset="1" stop-color="#7C1E84"/></linearGradient><linearGradient id="b" x1="58.878" y1="11.698" x2="68.636" y2="11.741" gradientUnits="userSpaceOnUse"><stop stop-color="#E34C98"/><stop offset="1" stop-color="#7C1E84"/></linearGradient><linearGradient id="m" x1="80.29" y1="31.799" x2="84.266" y2="31.817" gradientUnits="userSpaceOnUse"><stop stop-color="#E34C98"/><stop offset="1" stop-color="#7C1E84"/></linearGradient><linearGradient id="n" x1="89.826" y1="22.677" x2="92.043" y2="22.686" gradientUnits="userSpaceOnUse"><stop stop-color="#E34C98"/><stop offset="1" stop-color="#7C1E84"/></linearGradient><linearGradient id="o" x1="94.456" y1="16.345" x2="95.887" y2="16.351" gradientUnits="userSpaceOnUse"><stop stop-color="#E34C98"/><stop offset="1" stop-color="#7C1E84"/></linearGradient><linearGradient id="p" x1="52.196" y1="11.811" x2="53.628" y2="11.817" gradientUnits="userSpaceOnUse"><stop stop-color="#E34C98"/><stop offset="1" stop-color="#7C1E84"/></linearGradient><linearGradient id="q" x1="77.484" y1="143.044" x2="82.779" y2="143.056" gradientUnits="userSpaceOnUse"><stop stop-color="#E34C98"/><stop offset="1" stop-color="#7C1E84"/></linearGradient><linearGradient id="r" x1="66.748" y1="117.738" x2="71.83" y2="117.75" gradientUnits="userSpaceOnUse"><stop stop-color="#E34C98"/><stop offset="1" stop-color="#7C1E84"/></linearGradient><linearGradient id="s" x1="80.651" y1="61.734" x2="90.784" y2="61.756" gradientUnits="userSpaceOnUse"><stop stop-color="#E34C98"/><stop offset="1" stop-color="#7C1E84"/></linearGradient><linearGradient id="t" x1="59.289" y1="82.692" x2="87.031" y2="82.779" gradientUnits="userSpaceOnUse"><stop stop-color="#E34C98"/><stop offset="1" stop-color="#7C1E84"/></linearGradient><linearGradient id="u" x1="42.257" y1="49.844" x2="47.147" y2="49.876" gradientUnits="userSpaceOnUse"><stop stop-color="#E34C98"/><stop offset="1" stop-color="#7C1E84"/></linearGradient><linearGradient id="v" x1="43.608" y1="53.979" x2="45.906" y2="53.983" gradientUnits="userSpaceOnUse"><stop stop-color="#E34C98"/><stop offset="1" stop-color="#7C1E84"/></linearGradient></defs></svg>