<svg width="13" height="13" viewBox="0 0 13 13" fill="none" xmlns="http://www.w3.org/2000/svg">
<path d="M12.9661 4.67861C12.881 4.41701 12.6475 4.2312 12.3713 4.20646L8.61913 3.86788L7.13543 0.416654C7.02603 0.163724 6.77688 0 6.50005 0C6.22323 0 5.97408 0.163724 5.86468 0.417246L4.38098 3.86788L0.628233 4.20646C0.3525 4.2318 0.119615 4.41701 0.0340186 4.67861C-0.0515776 4.94022 0.0274724 5.22715 0.236057 5.40803L3.07224 7.87996L2.23591 11.5411C2.17472 11.8103 2.27985 12.0886 2.5046 12.2501C2.62541 12.3368 2.76675 12.381 2.90928 12.381C3.03217 12.381 3.15406 12.348 3.26346 12.283L6.50005 10.3606L9.73545 12.283C9.9722 12.4245 10.2706 12.4116 10.4949 12.2501C10.7198 12.0881 10.8248 11.8097 10.7636 11.5411L9.92727 7.87996L12.7635 5.40852C12.972 5.22715 13.0517 4.94071 12.9661 4.67861Z" fill="#FFC107"/>
</svg>
