<svg width="18" height="18" viewBox="0 0 18 18" fill="none" xmlns="http://www.w3.org/2000/svg">
<g clip-path="url(#clip0_1119_28106)">
<path d="M10.4166 17.5C10.2633 17.5 10.1142 17.4503 9.99155 17.3583L7.15822 15.2333C7.07025 15.1674 6.99884 15.0818 6.94967 14.9834C6.90049 14.8851 6.87488 14.7766 6.87488 14.6667V10.6858L1.90522 5.09496C1.55227 4.69679 1.32182 4.20516 1.24157 3.67917C1.16131 3.15317 1.23467 2.61519 1.45282 2.12988C1.67097 1.64458 2.02464 1.2326 2.4713 0.943463C2.91797 0.654327 3.43864 0.500336 3.97072 0.5H14.0291C14.5611 0.500624 15.0816 0.65487 15.5281 0.944201C15.9746 1.23353 16.328 1.64564 16.546 2.131C16.7639 2.61636 16.837 3.15432 16.7565 3.68024C16.6761 4.20616 16.4455 4.69765 16.0924 5.09567L11.1249 10.6858V16.7917C11.1249 16.9795 11.0503 17.1597 10.9174 17.2925C10.7846 17.4254 10.6044 17.5 10.4166 17.5Z" fill="white"/>
</g>
<defs>
<clipPath id="clip0_1119_28106">
<rect width="17" height="17" fill="white" transform="translate(0.5 0.5)"/>
</clipPath>
</defs>
</svg>
