<svg width="504" height="401" fill="none" xmlns="http://www.w3.org/2000/svg"><rect x=".5" y=".75" width="201" height="400" rx="10" fill="#1B1C24"/><path d="M503.5 332.275h-465v.233h465v-.233zM456.908 347.244h-30.803v.233h30.803v-.233zM346.535 349.768h-8.085v.233h8.085v-.233zM425.174 338.608h-17.849v.233h17.849v-.233zM127.456 340.171H87.287v.232h40.169v-.232zM141.627 340.171h-5.89v.232h5.89v-.232zM247.887 344.098h-87.119v.233h87.119v-.233zM258.923 290.799H79.341a5.315 5.315 0 0 1-5.309-5.309V33.059a5.315 5.315 0 0 1 5.309-5.309h179.582a5.314 5.314 0 0 1 5.307 5.309V285.49a5.314 5.314 0 0 1-5.307 5.309zM79.341 27.984a5.081 5.081 0 0 0-5.076 5.076V285.49a5.08 5.08 0 0 0 5.076 5.076h179.582a5.08 5.08 0 0 0 5.075-5.076V33.059a5.082 5.082 0 0 0-5.075-5.076H79.341zM460.078 290.799H280.497a5.315 5.315 0 0 1-5.308-5.309V33.059a5.315 5.315 0 0 1 5.308-5.309h179.581a5.315 5.315 0 0 1 5.309 5.309V285.49a5.315 5.315 0 0 1-5.309 5.309zM280.497 27.984a5.081 5.081 0 0 0-5.075 5.076V285.49a5.08 5.08 0 0 0 5.075 5.076h179.581a5.081 5.081 0 0 0 5.076-5.076V33.059a5.082 5.082 0 0 0-5.076-5.076H280.497z" fill="#EBEBEB"/><path d="M114.35 316.411c-.221-2.657.141-6.1 3.243-7.123 5.256-1.733 8.374-5.804 8.199-10.408-.176-4.605 5.356-9.085 9.506-4.77 4.15 4.315 3.596-3.319 9.13-5.173 5.532-1.855 10.222 2.645 8.707 6.758-1.515 4.113 3.945 6.682 10.483 3.185 6.538-3.498 13.731 2.865 12.348 7.844-1.383 4.98-.251 5.534 3.885 3.874 3.343-1.341 8.813 1.473 9.423 5.813H114.35zM375.226 316.411c-.256-2.105-.142-5.174 2.467-6.036 4.081-1.345 6.501-4.505 6.365-8.079-.137-3.574 4.159-7.053 7.381-3.703 3.221 3.35 2.791-2.576 7.087-4.016 4.295-1.439 7.936 2.054 6.76 5.247-1.176 3.192 3.063 5.186 8.138 2.472 5.075-2.715 10.659 2.224 9.585 6.089-1.074 3.866-.194 4.296 3.017 3.007 2.722-1.092 7.245 1.369 7.341 5.019h-58.141z" fill="#E0E0E0"/><path d="M401.965 316.411h-95.521c-1.344-4.483 2.131-9.859 5.916-10.616 4.65-.93 9.324-9.112 9.544-14.321.221-5.209 8.591-21.231 21.611-11.337 13.02 9.895 9.062 1.458 18.481-1.322 9.419-2.78 15.36 5.218 11.227 11.217 0 0 9.462-2.372 13.36 6.463 3.897 8.835 0 14.322 0 14.322s11.959-.348 15.382 5.594z" fill="#E0E0E0"/><path d="M228.455 65.71a4.492 4.492 0 0 0-5.782-4.302c.065-.45.101-.91.101-1.38 0-5.253-4.26-9.512-9.513-9.512a9.53 9.53 0 0 0-1.752.163c-1.462-2.393-4.091-3.995-7.1-3.995-4.555 0-8.25 3.66-8.317 8.199-.047-.001-.092-.007-.139-.007a7.663 7.663 0 0 0 0 15.327h28.143l-.005-.007a4.49 4.49 0 0 0 4.364-4.486zM395.141 92.196a4.492 4.492 0 0 0-5.782-4.302c.065-.45.101-.91.101-1.379 0-5.254-4.26-9.513-9.513-9.513-.599 0-1.184.058-1.753.164-1.462-2.393-4.09-3.995-7.099-3.995-4.555 0-8.25 3.659-8.317 8.198-.047 0-.092-.006-.139-.006a7.663 7.663 0 0 0 0 15.326h28.143l-.006-.006a4.49 4.49 0 0 0 4.365-4.487zM293.196 79.168a2.793 2.793 0 0 0-3.594-2.675 5.914 5.914 0 0 0-6.942-6.67 5.163 5.163 0 0 0-4.414-2.484 5.172 5.172 0 0 0-5.17 5.098c-.029 0-.057-.005-.087-.005a4.764 4.764 0 0 0 0 9.529h17.496l-.004-.004a2.79 2.79 0 0 0 2.715-2.789zM439.091 73.71a2.793 2.793 0 0 0-3.595-2.674 5.914 5.914 0 0 0-6.941-6.67 5.166 5.166 0 0 0-4.414-2.484 5.173 5.173 0 0 0-5.171 5.098c-.029 0-.056-.005-.086-.005a4.765 4.765 0 0 0 0 9.529h17.496l-.004-.004a2.79 2.79 0 0 0 2.715-2.79zM136.078 90.59a2.793 2.793 0 0 0-3.594-2.674 5.915 5.915 0 0 0-6.942-6.67 5.163 5.163 0 0 0-4.414-2.484 5.173 5.173 0 0 0-5.17 5.097c-.029 0-.057-.005-.087-.005a4.765 4.765 0 0 0 0 9.53h17.496l-.003-.005a2.791 2.791 0 0 0 2.714-2.789z" fill="#F5F5F5"/><path d="M392.595 170.228a8.451 8.451 0 0 0 .264-1.746c.215-3.622 3.673-3.048 6.615-3.54 2.298-.384-3.787-6.189.846-8.062.86-.348 1.796-.741 2.236-1.559.582-1.081-.007-2.503-1.01-3.212-1.002-.709-2.29-.859-3.518-.883-.756-.919-.141-2.301.591-3.24.731-.938 1.627-2.006 1.35-3.163-.418-1.747-2.86-1.81-4.624-1.47-.652-1.056-.639-2.375-.955-3.575-.316-1.2-1.27-2.459-2.502-2.308-1.159.141-1.869 1.451-3.006 1.719-1.322.312-2.466-.857-3.502-1.733-1.036-.877-2.848-1.424-3.563-.269-.427.691-.171 1.654-.615 2.335-.77 1.179-2.595.448-3.729-.388-1.133-.837-2.938-1.595-3.735-.433-.245.355-.298.804-.439 1.212-.537 1.547-2.209 2.317-3.511 3.31-1.303.992-2.334 2.965-1.232 4.176.544.598 1.5.84 1.77 1.601.338.951-.634 1.803-1.403 2.458-1.281 1.089-1.512 4.348.18 5.239.711.373 1.753.489 1.927 1.273.157.701-.555 1.246-1.027 1.786-1.299 1.485-.749 4.156 1.029 5.008.407.195.906.355 1.057.78.108.304-.011.635-.097.945a5.004 5.004 0 0 0-.163 1.814c.02.208.063.433.221.569.144.124.347.142.536.151 2.445.109 3.624-.756 5.116 1.371.143.204.294.414.509.54.202.118.442.149.674.168 1.681.139 2.779-.91 4.314-1.106 2.131-.271 2.582.827 4.46 1.71 2.951 1.389 4.382.534 4.936-1.478z" fill="#EBEBEB"/><path d="M364.444 167.186a8.519 8.519 0 0 0 .264-1.747c.215-3.621 3.672-3.047 6.614-3.539 2.298-.384-3.787-6.189.846-8.062.86-.348 1.796-.741 2.236-1.559.582-1.081-.007-2.504-1.009-3.213-1.003-.709-2.291-.859-3.518-.882-.756-.919-.142-2.301.59-3.24.732-.938 1.628-2.006 1.351-3.163-.419-1.746-2.86-1.81-4.624-1.47-.652-1.056-.639-2.375-.956-3.575-.316-1.2-1.27-2.459-2.501-2.308-1.161.141-1.87 1.45-3.007 1.719-1.321.312-2.465-.857-3.501-1.733-1.036-.877-2.849-1.424-3.563-.269-.428.691-.171 1.654-.616 2.335-.77 1.179-2.595.448-3.728-.389-1.134-.836-2.939-1.594-3.736-.432-.245.355-.298.804-.439 1.212-.537 1.547-2.209 2.317-3.512 3.31-1.303.992-2.334 2.965-1.232 4.176.544.597 1.5.839 1.771 1.601.337.951-.634 1.804-1.404 2.458-1.28 1.089-1.512 4.348.181 5.239.71.373 1.753.489 1.927 1.273.156.701-.555 1.246-1.028 1.786-1.298 1.485-.748 4.156 1.03 5.009.406.195.905.355 1.056.78.108.304-.01.635-.097.945a5.004 5.004 0 0 0-.162 1.814c.019.208.062.433.22.569.144.124.347.142.537.151 2.445.108 3.623-.756 5.116 1.37.143.205.293.415.508.541.202.118.442.149.675.168 1.68.139 2.778-.91 4.314-1.106 2.13-.271 2.582.827 4.459 1.71 2.952 1.388 4.383.533 4.938-1.479z" fill="#EBEBEB"/><path d="M361.73 149.258a8.451 8.451 0 0 0 .264-1.746c.215-3.622 3.673-3.048 6.615-3.54 2.298-.384-3.787-6.189.846-8.062.86-.348 1.796-.741 2.236-1.559.582-1.08-.007-2.503-1.009-3.212-1.003-.708-2.291-.859-3.519-.882-.756-.919-.141-2.302.591-3.24.732-.939 1.627-2.006 1.35-3.163-.418-1.747-2.86-1.81-4.624-1.471-.652-1.055-.639-2.375-.955-3.575-.316-1.199-1.27-2.459-2.502-2.308-1.159.141-1.869 1.452-3.006 1.72-1.322.311-2.466-.858-3.502-1.734-1.036-.877-2.848-1.424-3.563-.269-.427.691-.171 1.655-.615 2.336-.77 1.179-2.595.447-3.729-.389-1.133-.836-2.938-1.594-3.735-.433-.245.356-.298.804-.439 1.212-.537 1.548-2.209 2.318-3.511 3.31-1.303.992-2.334 2.966-1.232 4.177.544.597 1.5.839 1.77 1.6.338.952-.634 1.803-1.403 2.458-1.281 1.089-1.512 4.348.18 5.239.711.374 1.754.489 1.927 1.273.157.701-.555 1.246-1.027 1.787-1.299 1.484-.749 4.156 1.029 5.009.407.194.906.354 1.057.779.108.304-.01.635-.097.946a4.997 4.997 0 0 0-.163 1.813c.02.209.063.434.221.569.143.124.347.143.536.152 2.444.109 3.624-.756 5.116 1.371.143.204.294.415.509.54.202.117.442.149.674.168 1.681.139 2.779-.91 4.314-1.105 2.131-.272 2.582.826 4.46 1.709 2.951 1.388 4.382.532 4.936-1.48z" fill="#EBEBEB"/><path d="M343.185 158.188c.142-.512.225-1.099.265-1.745.214-3.623 3.672-3.048 6.614-3.54 2.298-.384-3.787-6.189.846-8.062.86-.348 1.796-.741 2.236-1.559.582-1.08-.007-2.503-1.009-3.212-1.003-.709-2.291-.859-3.519-.882-.756-.918-.141-2.301.591-3.24.731-.938 1.628-2.006 1.35-3.163-.418-1.747-2.859-1.809-4.624-1.47-.652-1.056-.638-2.375-.955-3.575-.316-1.2-1.27-2.459-2.501-2.308-1.16.141-1.87 1.452-3.007 1.719-1.322.312-2.466-.857-3.502-1.733-1.036-.877-2.848-1.424-3.562-.269-.428.691-.171 1.655-.616 2.335-.77 1.18-2.595.448-3.728-.388-1.134-.836-2.939-1.594-3.736-.433-.245.355-.298.804-.439 1.212-.537 1.547-2.209 2.318-3.512 3.31s-2.334 2.966-1.232 4.176c.544.598 1.5.84 1.771 1.601.337.951-.635 1.804-1.404 2.458-1.28 1.089-1.512 4.348.181 5.239.71.374 1.753.489 1.927 1.273.156.701-.556 1.246-1.028 1.786-1.298 1.485-.749 4.157 1.029 5.008.407.195.906.355 1.057.78.108.304-.01.635-.097.946a4.997 4.997 0 0 0-.162 1.813c.019.208.062.433.22.569.144.124.347.143.537.151 2.444.109 3.623-.756 5.115 1.371.144.204.293.414.509.54.202.118.442.149.674.168 1.681.139 2.779-.91 4.315-1.105 2.13-.272 2.582.826 4.459 1.709 2.952 1.387 4.383.532 4.937-1.48z" fill="#EBEBEB"/><path d="M324.443 154.064c.142-.513.225-1.1.264-1.747.215-3.622 3.673-3.047 6.615-3.539 2.298-.384-3.787-6.19.846-8.063.86-.347 1.796-.741 2.236-1.558.582-1.081-.007-2.504-1.009-3.212-1.003-.709-2.291-.86-3.519-.882-.756-.919-.141-2.302.591-3.24.731-.939 1.627-2.006 1.35-3.163-.418-1.747-2.859-1.81-4.624-1.47-.652-1.056-.639-2.376-.955-3.575-.316-1.2-1.27-2.459-2.501-2.309-1.16.142-1.87 1.452-3.007 1.72-1.322.311-2.466-.858-3.502-1.734-1.036-.876-2.848-1.423-3.562-.268-.428.691-.172 1.654-.616 2.335-.77 1.179-2.595.447-3.728-.389-1.134-.836-2.939-1.594-3.736-.432-.245.355-.298.803-.439 1.211-.537 1.548-2.209 2.318-3.512 3.31-1.303.993-2.334 2.966-1.232 4.177.544.597 1.5.84 1.771 1.6.337.952-.635 1.805-1.404 2.458-1.28 1.089-1.512 4.348.181 5.239.71.374 1.753.489 1.927 1.273.156.702-.556 1.247-1.028 1.787-1.297 1.484-.749 4.156 1.029 5.008.407.194.906.354 1.057.779.108.304-.01.635-.097.946a5.025 5.025 0 0 0-.163 1.814c.02.208.063.433.221.569.143.123.347.142.536.15 2.445.109 3.624-.756 5.116 1.371.144.205.294.415.51.541.202.117.442.148.674.168 1.681.138 2.779-.911 4.315-1.106 2.13-.271 2.581.827 4.459 1.709 2.951 1.388 4.382.533 4.936-1.478z" fill="#EBEBEB"/><path d="M324.198 174.113c.112-.404.178-.866.208-1.375.169-2.851 2.892-2.4 5.208-2.787 1.81-.302-2.982-4.873.667-6.348.678-.275 1.414-.584 1.76-1.228.459-.851-.005-1.971-.794-2.529-.79-.558-1.803-.677-2.77-.695-.596-.724-.111-1.813.465-2.551.575-.739 1.281-1.58 1.062-2.491-.329-1.375-2.252-1.424-3.64-1.158-.514-.831-.504-1.87-.753-2.815-.249-.945-1.001-1.936-1.97-1.818-.913.112-1.472 1.143-2.367 1.354-1.041.246-1.941-.675-2.758-1.365-.815-.69-2.243-1.121-2.805-.212-.336.544-.135 1.303-.484 1.839-.607.929-2.043.352-2.936-.306-.893-.659-2.314-1.256-2.942-.342-.192.28-.234.634-.346.955-.422 1.218-1.739 1.825-2.765 2.606-1.025.782-1.838 2.336-.97 3.289.429.47 1.181.661 1.394 1.26.266.749-.499 1.42-1.104 1.935-1.009.858-1.191 3.424.142 4.125.56.295 1.38.385 1.518 1.002.122.552-.437.982-.809 1.407-1.023 1.169-.59 3.273.81 3.945.32.153.714.279.832.613.085.239-.008.501-.076.745-.131.463-.174.95-.129 1.429.016.163.05.341.174.448.114.097.274.113.422.119 1.926.086 2.854-.595 4.028 1.08.113.161.231.326.401.426.159.092.348.117.531.132 1.324.109 2.188-.717 3.397-.871 1.678-.214 2.033.651 3.511 1.346 2.325 1.093 3.452.419 3.888-1.164z" fill="#EBEBEB"/><path d="M313.697 167.186a8.588 8.588 0 0 0 .264-1.747c.215-3.621 3.673-3.047 6.614-3.539 2.298-.384-3.787-6.189.847-8.062.86-.348 1.795-.741 2.235-1.559.582-1.081-.006-2.504-1.009-3.213-1.002-.709-2.29-.859-3.518-.882-.756-.919-.141-2.301.591-3.24.731-.938 1.627-2.006 1.349-3.163-.419-1.746-2.86-1.81-4.624-1.47-.652-1.056-.639-2.375-.955-3.575-.316-1.2-1.27-2.459-2.502-2.308-1.159.141-1.869 1.45-3.006 1.719-1.322.312-2.466-.857-3.502-1.733-1.036-.877-2.848-1.424-3.563-.269-.428.691-.171 1.654-.615 2.335-.77 1.179-2.595.448-3.729-.389-1.133-.836-2.939-1.594-3.736-.432-.244.355-.297.804-.439 1.212-.536 1.547-2.208 2.317-3.511 3.31-1.303.992-2.335 2.965-1.232 4.176.544.597 1.5.839 1.77 1.601.338.951-.634 1.804-1.403 2.458-1.281 1.089-1.512 4.348.18 5.239.711.373 1.753.489 1.927 1.273.157.701-.555 1.246-1.027 1.786-1.298 1.485-.749 4.156 1.029 5.009.407.195.906.355 1.057.78.107.304-.011.635-.097.945a4.96 4.96 0 0 0-.163 1.814c.02.208.062.433.221.569.143.124.346.142.536.151 2.445.108 3.623-.756 5.116 1.37.143.205.293.415.509.541.202.118.442.149.674.168 1.681.139 2.779-.91 4.314-1.106 2.131-.271 2.582.827 4.46 1.71 2.952 1.388 4.383.533 4.938-1.479zM343.185 136.135c.142-.512.225-1.099.265-1.746.214-3.622 3.672-3.048 6.614-3.54 2.298-.384-3.787-6.189.846-8.062.86-.348 1.796-.741 2.236-1.559.582-1.08-.007-2.503-1.009-3.212-1.003-.709-2.291-.859-3.519-.882-.756-.918-.141-2.301.591-3.24.732-.938 1.628-2.006 1.35-3.163-.418-1.747-2.859-1.809-4.624-1.47-.652-1.056-.638-2.375-.955-3.575-.316-1.2-1.27-2.459-2.501-2.308-1.16.141-1.87 1.452-3.007 1.719-1.322.312-2.466-.857-3.502-1.733-1.036-.876-2.848-1.424-3.562-.269-.428.691-.171 1.655-.616 2.335-.77 1.18-2.595.448-3.728-.388-1.134-.836-2.939-1.594-3.736-.433-.245.355-.298.804-.439 1.212-.537 1.547-2.209 2.317-3.512 3.31-1.303.992-2.334 2.966-1.232 4.176.544.597 1.5.84 1.771 1.601.337.951-.635 1.804-1.404 2.458-1.28 1.089-1.512 4.348.181 5.239.71.373 1.753.489 1.927 1.273.156.701-.556 1.246-1.028 1.786-1.298 1.485-.749 4.156 1.029 5.008.407.195.906.355 1.057.78.108.304-.01.635-.097.946a4.997 4.997 0 0 0-.162 1.813c.019.207.062.433.22.569.144.124.347.142.537.152 2.444.109 3.623-.756 5.115 1.371.144.204.293.414.509.54.202.117.442.149.674.168 1.681.139 2.779-.91 4.315-1.106 2.13-.271 2.582.827 4.459 1.71 2.952 1.387 4.383.532 4.937-1.48z" fill="#EBEBEB"/><path d="M367.263 137.367a8.54 8.54 0 0 0 .264-1.747c.215-3.621 3.673-3.048 6.614-3.54 2.298-.384-3.787-6.189.846-8.062.861-.348 1.796-.741 2.236-1.558.582-1.081-.006-2.504-1.009-3.214-1.002-.708-2.29-.859-3.518-.881-.756-.919-.141-2.302.59-3.24.731-.939 1.628-2.006 1.351-3.163-.419-1.747-2.86-1.81-4.624-1.471-.652-1.055-.639-2.375-.955-3.575-.316-1.199-1.271-2.458-2.502-2.308-1.16.142-1.869 1.452-3.007 1.72-1.321.311-2.465-.857-3.501-1.734-1.036-.876-2.849-1.424-3.563-.269-.428.691-.171 1.655-.616 2.336-.77 1.179-2.594.447-3.728-.389-1.134-.836-2.939-1.594-3.736-.432-.244.355-.297.803-.439 1.211-.536 1.547-2.208 2.318-3.51 3.31-1.303.993-2.335 2.966-1.233 4.177.544.597 1.5.84 1.771 1.6.338.952-.634 1.804-1.403 2.458-1.281 1.089-1.513 4.348.18 5.239.711.374 1.753.489 1.927 1.273.156.701-.555 1.246-1.028 1.787-1.298 1.484-.748 4.157 1.03 5.009.406.194.906.354 1.056.779.108.304-.01.635-.096.946a4.977 4.977 0 0 0-.163 1.813c.019.208.062.434.22.57.144.123.347.142.537.151 2.445.109 3.623-.756 5.116 1.371.143.205.294.415.509.54.201.117.441.149.674.169 1.68.138 2.779-.911 4.314-1.106 2.131-.272 2.582.827 4.459 1.709 2.951 1.388 4.383.532 4.937-1.479z" fill="#EBEBEB"/><path d="M381.888 147.22a8.527 8.527 0 0 0 .265-1.747c.214-3.621 3.672-3.047 6.614-3.539 2.298-.384-3.787-6.189.846-8.062.86-.348 1.796-.742 2.236-1.559.582-1.081-.007-2.504-1.009-3.212-1.003-.709-2.291-.86-3.518-.883-.757-.919-.142-2.302.59-3.24.731-.938 1.628-2.006 1.35-3.163-.418-1.747-2.859-1.81-4.624-1.47-.651-1.056-.638-2.376-.955-3.575-.316-1.2-1.27-2.459-2.501-2.308-1.16.141-1.87 1.451-3.007 1.719-1.322.312-2.465-.857-3.502-1.733-1.036-.877-2.848-1.424-3.562-.269-.428.691-.171 1.654-.616 2.335-.77 1.179-2.595.447-3.728-.389-1.134-.836-2.939-1.594-3.736-.432-.245.355-.298.803-.439 1.212-.537 1.547-2.209 2.317-3.511 3.309-1.303.993-2.334 2.966-1.232 4.177.544.597 1.5.84 1.771 1.601.337.951-.635 1.803-1.404 2.458-1.28 1.089-1.512 4.347.181 5.238.71.374 1.753.49 1.927 1.273.156.702-.556 1.247-1.028 1.787-1.298 1.484-.749 4.156 1.029 5.009.407.194.906.354 1.057.779.108.304-.01.636-.097.946a5.025 5.025 0 0 0-.163 1.814c.02.207.063.433.221.569.144.124.347.142.536.15 2.445.109 3.624-.756 5.116 1.371.144.205.293.415.509.541.202.117.442.148.674.168 1.681.139 2.779-.911 4.315-1.106 2.13-.271 2.581.827 4.459 1.71 2.951 1.388 4.382.532 4.936-1.479z" fill="#EBEBEB"/><path d="M377.454 159.673s-6.117 8.648-8.226 11.389c-2.109 2.742-12.655 19.825-14.09 31.125a92.277 92.277 0 0 1-.451 3.151c4.536 29.94 3.825 84.715 3.665 94.093h-14.371c-.132-10.574-1.353-107.238-1.804-110.19-.476-3.122-6.484-15.016-15.763-19.902-9.28-4.886-17.299-21.055-17.299-21.055h2.957s5.483 9.913 13.287 15.396c1.134.796 2.306 1.459 3.511 2.081-.28-8.932 3.103-17.477 3.103-17.477l1.597 1.476c-2.156 8.828-1.872 14.483-1.22 17.731 2.619 1.312 5.336 2.832 8.068 5.4 8.095-10.526 12.647-34.598 12.647-34.598l2.073 1.132s-.674 6.537-2.677 14.763c-1.517 6.23-5.98 17.961-8.057 23.288 2.064 2.866 4.114 6.572 6.115 11.478.227-.349.483-.667.781-.937 5.273-4.767 15.185-27.291 15.185-27.291 2.398-5.236-1.265-18.981-1.265-18.981h2.766l1.24 12.021 6.96-7.592 1.266 1.054-7.381 9.491-3.797 12.025 9.913-10.971 1.267 1.9z" fill="#E6E6E6"/><path d="M116.299 202.48a6.557 6.557 0 0 1-.203-1.341c-.165-2.778-2.818-2.339-5.075-2.715-1.763-.295 2.906-4.749-.649-6.186-.66-.266-1.378-.568-1.716-1.196-.446-.829.006-1.921.775-2.465.769-.544 1.758-.659 2.699-.677.579-.705.108-1.766-.453-2.486-.561-.72-1.248-1.539-1.036-2.426.321-1.34 2.194-1.389 3.548-1.128.5-.81.49-1.823.733-2.743.242-.921.974-1.887 1.919-1.772.89.109 1.434 1.114 2.307 1.32 1.013.239 1.891-.657 2.686-1.33.796-.672 2.186-1.092 2.734-.206.328.53.131 1.269.472 1.792.591.905 1.991.343 2.861-.299.869-.641 2.254-1.223 2.866-.332.187.273.229.617.337.929.411 1.188 1.694 1.779 2.694 2.54 1 .762 1.791 2.276.946 3.205-.418.458-1.152.644-1.359 1.228-.259.731.486 1.384 1.077 1.887.982.835 1.161 3.335-.139 4.019-.545.287-1.344.376-1.478.976-.12.538.426.957.788 1.371.996 1.14.575 3.189-.79 3.843-.312.15-.695.272-.81.598-.083.233.007.487.074.725.127.452.169.926.126 1.392-.015.16-.049.332-.17.437-.11.095-.266.11-.412.116-1.875.084-2.78-.58-3.924 1.052-.11.157-.225.318-.391.415-.155.09-.338.114-.517.129-1.289.106-2.132-.698-3.31-.848-1.635-.209-1.981.634-3.421 1.311-2.265 1.064-3.363.408-3.789-1.135z" fill="#EBEBEB"/><path d="M137.899 200.145a6.536 6.536 0 0 1-.203-1.34c-.164-2.779-2.818-2.339-5.075-2.715-1.763-.295 2.906-4.749-.649-6.186-.66-.267-1.378-.568-1.716-1.196-.446-.829.006-1.921.775-2.464.769-.544 1.758-.66 2.699-.677.58-.705.109-1.767-.453-2.486-.561-.72-1.248-1.539-1.036-2.427.321-1.34 2.195-1.388 3.548-1.128.5-.81.49-1.823.733-2.742.242-.921.974-1.887 1.919-1.772.89.109 1.434 1.113 2.308 1.319 1.013.239 1.891-.658 2.686-1.33.795-.673 2.187-1.092 2.734-.207.328.53.131 1.27.472 1.792.591.905 1.991.344 2.861-.298.869-.642 2.254-1.223 2.866-.332.187.273.229.617.337.929.411 1.188 1.694 1.778 2.694 2.54s1.791 2.276.946 3.205c-.418.458-1.152.644-1.359 1.228-.26.73.486 1.384 1.077 1.886.982.835 1.16 3.336-.139 4.02-.545.287-1.345.374-1.478.976-.12.538.426.956.788 1.371.996 1.139.575 3.189-.79 3.843-.312.149-.695.271-.81.598-.083.233.007.487.074.725.127.451.169.925.125 1.392-.015.159-.048.332-.17.437-.11.095-.266.11-.412.117-1.875.083-2.78-.581-3.924 1.052-.11.157-.225.318-.391.414-.155.091-.338.115-.517.13-1.289.106-2.132-.699-3.31-.849-1.635-.208-1.981.635-3.421 1.312-2.265 1.064-3.363.407-3.789-1.137z" fill="#EBEBEB"/><path d="M139.98 186.39a6.561 6.561 0 0 1-.202-1.34c-.166-2.779-2.818-2.339-5.075-2.716-1.764-.295 2.905-4.749-.65-6.186-.661-.266-1.379-.568-1.716-1.195-.447-.83.005-1.922.774-2.466.77-.544 1.758-.659 2.699-.677.581-.705.108-1.766-.453-2.486-.561-.72-1.248-1.539-1.036-2.426.321-1.34 2.195-1.389 3.548-1.128.501-.81.49-1.823.733-2.744.243-.921.975-1.886 1.92-1.771.89.108 1.434 1.113 2.306 1.318 1.014.239 1.892-.657 2.687-1.33.795-.672 2.185-1.091 2.733-.206.328.53.132 1.269.473 1.791.59.905 1.991.343 2.86-.298.87-.642 2.255-1.223 2.867-.332.187.272.229.616.337.929.411 1.186 1.695 1.778 2.694 2.539 1 .762 1.791 2.276.946 3.205-.417.459-1.151.645-1.359 1.229-.259.73.487 1.384 1.077 1.886.982.835 1.161 3.336-.138 4.019-.545.288-1.345.375-1.479.977-.12.537.426.956.789 1.371.996 1.139.574 3.189-.791 3.842-.311.15-.695.272-.81.598-.083.234.008.488.075.726.126.451.169.925.124 1.391-.015.16-.047.332-.169.437-.11.095-.266.11-.412.116-1.876.084-2.781-.58-3.926 1.052-.109.157-.225.318-.39.415-.156.09-.339.114-.518.129-1.289.106-2.133-.698-3.31-.848-1.635-.208-1.981.634-3.422 1.311-2.261 1.067-3.36.411-3.786-1.132z" fill="#EBEBEB"/><path d="M154.209 193.242a6.561 6.561 0 0 1-.202-1.34c-.165-2.779-2.818-2.338-5.075-2.716-1.764-.295 2.905-4.748-.651-6.185-.66-.267-1.378-.569-1.715-1.196-.447-.83.005-1.922.774-2.466.769-.544 1.758-.659 2.699-.677.58-.705.109-1.766-.453-2.486-.561-.719-1.248-1.539-1.036-2.426.321-1.34 2.195-1.388 3.548-1.128.501-.81.49-1.823.733-2.744.243-.92.975-1.886 1.92-1.771.89.109 1.434 1.113 2.306 1.319 1.014.239 1.892-.657 2.687-1.329.795-.673 2.185-1.092 2.733-.207.328.53.131 1.27.472 1.791.591.905 1.992.343 2.861-.298.87-.642 2.254-1.223 2.866-.332.188.273.229.616.337.93.411 1.186 1.694 1.778 2.694 2.54 1 .761 1.791 2.275.946 3.204-.418.459-1.151.645-1.359 1.229-.259.73.487 1.384 1.077 1.886.982.835 1.161 3.336-.138 4.019-.545.288-1.345.375-1.479.977-.12.537.426.956.789 1.371.996 1.139.573 3.189-.791 3.842-.311.15-.695.272-.81.598-.083.234.008.488.074.726.127.451.17.925.125 1.392-.015.159-.047.332-.169.437-.111.095-.266.11-.412.116-1.876.084-2.781-.58-3.926 1.052-.109.157-.225.318-.39.415-.156.09-.339.114-.518.129-1.289.106-2.132-.698-3.31-.848-1.635-.208-1.981.634-3.422 1.311-2.26 1.064-3.359.408-3.785-1.135z" fill="#EBEBEB"/><path d="M168.59 190.077a6.536 6.536 0 0 1-.203-1.34c-.165-2.779-2.818-2.339-5.075-2.716-1.763-.294 2.906-4.748-.65-6.185-.66-.267-1.378-.568-1.716-1.196-.446-.83.006-1.921.775-2.465.769-.545 1.758-.66 2.699-.678.579-.704.108-1.766-.453-2.485-.561-.72-1.248-1.54-1.036-2.427.321-1.34 2.194-1.388 3.548-1.128.5-.81.49-1.823.733-2.743.242-.921.974-1.886 1.919-1.772.89.109 1.434 1.113 2.307 1.32 1.013.239 1.891-.658 2.686-1.33.796-.673 2.186-1.092 2.734-.207.328.53.131 1.27.472 1.791.591.905 1.991.344 2.861-.298.869-.642 2.255-1.223 2.866-.332.188.272.229.616.337.929.411 1.187 1.694 1.778 2.694 2.54 1 .761 1.791 2.276.946 3.205-.418.458-1.152.644-1.359 1.228-.259.73.486 1.384 1.077 1.886.982.835 1.161 3.336-.139 4.02-.545.287-1.344.374-1.478.976-.12.538.426.956.788 1.371.996 1.139.575 3.189-.789 3.843-.312.149-.695.271-.811.598-.083.233.007.487.074.725.127.451.169.925.125 1.392-.015.16-.048.332-.169.437-.111.095-.266.11-.412.117-1.876.083-2.781-.581-3.926 1.051-.11.158-.225.319-.391.415-.155.09-.338.115-.518.13-1.289.106-2.131-.699-3.309-.849-1.635-.208-1.981.635-3.422 1.312-2.262 1.065-3.359.408-3.785-1.135z" fill="#EBEBEB"/><path d="M168.778 205.459a5.093 5.093 0 0 1-.159-1.054c-.131-2.189-2.219-1.842-3.997-2.138-1.388-.232 2.288-3.74-.511-4.871-.52-.21-1.085-.447-1.35-.941-.352-.653.003-1.512.61-1.941.605-.429 1.384-.519 2.125-.533.456-.555.085-1.39-.356-1.957-.442-.568-.983-1.212-.816-1.912.253-1.055 1.728-1.093 2.794-.888.393-.638.386-1.435.577-2.16.191-.725.767-1.485 1.511-1.395.702.085 1.129.877 1.817 1.039.798.188 1.489-.518 2.115-1.047.626-.53 1.722-.861 2.153-.163.258.417.103 1 .372 1.411.465.712 1.567.27 2.252-.236.684-.505 1.775-.962 2.257-.261.148.215.18.485.265.732.324.935 1.335 1.4 2.121 1.999.787.6 1.411 1.793.745 2.523-.328.361-.906.507-1.069.968-.204.574.383 1.09.848 1.485.774.657.913 2.626-.109 3.165-.429.226-1.059.295-1.164.769-.094.423.336.753.621 1.08.784.896.452 2.511-.622 3.025-.246.118-.547.214-.638.47-.065.184.006.385.059.572.099.356.133.729.098 1.096-.012.125-.038.261-.133.344-.086.074-.21.086-.324.091-1.477.066-2.19-.456-3.091.829-.086.123-.177.251-.308.326-.121.072-.267.09-.407.102-1.016.083-1.679-.55-2.607-.668-1.287-.164-1.559.499-2.694 1.032-1.786.84-2.65.323-2.985-.893z" fill="#EBEBEB"/><path d="M176.835 200.145a6.472 6.472 0 0 1-.202-1.34c-.166-2.779-2.818-2.339-5.075-2.715-1.764-.295 2.905-4.749-.65-6.186-.66-.267-1.378-.568-1.715-1.196-.447-.829.005-1.921.774-2.464.769-.544 1.758-.66 2.699-.677.579-.705.109-1.767-.453-2.486-.561-.72-1.248-1.539-1.036-2.427.321-1.34 2.194-1.388 3.548-1.128.5-.81.49-1.823.733-2.742.243-.92.975-1.887 1.919-1.772.89.109 1.435 1.113 2.307 1.319 1.014.239 1.892-.658 2.687-1.33.795-.673 2.185-1.092 2.733-.207.328.53.131 1.27.472 1.792.591.905 1.992.344 2.861-.298.87-.642 2.254-1.223 2.866-.332.188.273.229.617.337.929.411 1.188 1.694 1.778 2.694 2.54s1.791 2.276.946 3.205c-.418.458-1.151.644-1.359 1.228-.259.73.487 1.384 1.077 1.886.982.835 1.161 3.336-.138 4.02-.545.287-1.345.374-1.479.976-.12.538.426.956.789 1.371.996 1.139.573 3.189-.791 3.843-.311.149-.695.271-.811.598-.083.233.008.487.074.725.127.451.17.925.126 1.392-.015.159-.047.332-.169.437-.111.095-.267.11-.412.117-1.876.083-2.781-.581-3.926 1.052-.109.157-.225.318-.39.414-.156.091-.339.115-.518.13-1.289.106-2.132-.699-3.31-.849-1.635-.208-1.981.635-3.422 1.312-2.261 1.064-3.36.407-3.786-1.137zM154.209 176.321a6.54 6.54 0 0 1-.202-1.34c-.165-2.779-2.818-2.338-5.075-2.715-1.764-.295 2.905-4.749-.651-6.186-.66-.267-1.378-.568-1.715-1.196-.447-.829.005-1.921.774-2.465.769-.544 1.758-.659 2.699-.677.58-.705.109-1.766-.453-2.486-.561-.72-1.248-1.539-1.036-2.426.321-1.341 2.195-1.389 3.548-1.129.501-.81.49-1.822.733-2.743.243-.921.975-1.886 1.92-1.772.89.109 1.434 1.114 2.306 1.32 1.014.239 1.892-.657 2.687-1.33.795-.672 2.185-1.092 2.733-.206.328.53.131 1.269.472 1.791.591.905 1.992.343 2.861-.299.87-.641 2.254-1.223 2.866-.332.188.273.229.617.337.93.411 1.187 1.694 1.778 2.694 2.54s1.791 2.276.946 3.205c-.418.458-1.151.644-1.359 1.228-.259.73.487 1.384 1.077 1.886.982.836 1.161 3.336-.138 4.02-.545.287-1.345.375-1.479.976-.12.538.426.956.789 1.371.996 1.14.573 3.189-.791 3.843-.311.15-.695.272-.81.598-.083.233.008.487.074.725.127.451.17.926.125 1.392-.015.16-.047.332-.169.437-.111.095-.266.11-.412.116-1.876.084-2.781-.58-3.926 1.052-.109.157-.225.318-.39.415-.156.09-.339.114-.518.129-1.289.106-2.132-.699-3.31-.849-1.635-.208-1.981.634-3.422 1.311-2.26 1.066-3.359.409-3.785-1.134z" fill="#EBEBEB"/><path d="M135.736 177.265a6.536 6.536 0 0 1-.203-1.34c-.164-2.779-2.817-2.339-5.075-2.715-1.763-.295 2.906-4.749-.649-6.186-.66-.267-1.378-.569-1.716-1.196-.446-.829.006-1.921.775-2.464.769-.544 1.758-.66 2.699-.677.58-.705.109-1.766-.453-2.486-.562-.72-1.248-1.539-1.036-2.427.321-1.34 2.195-1.388 3.548-1.128.5-.81.49-1.822.733-2.742.243-.921.974-1.887 1.919-1.772.89.109 1.434 1.113 2.307 1.32 1.013.239 1.891-.658 2.687-1.33.795-.672 2.185-1.092 2.733-.207.328.531.131 1.27.472 1.792.591.905 1.991.343 2.861-.299.869-.642 2.254-1.223 2.866-.332.187.274.229.617.337.929.411 1.188 1.694 1.778 2.694 2.54s1.791 2.276.946 3.205c-.418.458-1.151.643-1.359 1.228-.259.73.487 1.384 1.077 1.886.982.835 1.161 3.336-.138 4.02-.545.287-1.345.375-1.479.976-.12.538.426.956.788 1.371.996 1.139.575 3.189-.79 3.843-.312.15-.695.271-.81.598-.083.233.007.487.074.725.127.451.17.926.125 1.392-.015.16-.047.333-.169.438-.111.094-.267.109-.412.116-1.876.084-2.781-.58-3.926 1.052-.11.157-.225.318-.39.414-.156.091-.339.115-.518.13-1.289.106-2.132-.699-3.309-.848-1.635-.209-1.981.634-3.422 1.311-2.263 1.064-3.362.407-3.787-1.137z" fill="#EBEBEB"/><path d="M124.515 184.825a6.537 6.537 0 0 1-.203-1.339c-.165-2.779-2.818-2.339-5.075-2.715-1.763-.295 2.906-4.749-.65-6.186-.66-.267-1.378-.568-1.716-1.196-.446-.829.006-1.921.775-2.464.769-.544 1.758-.66 2.699-.677.58-.705.109-1.766-.453-2.486-.562-.72-1.248-1.539-1.036-2.427.321-1.34 2.195-1.388 3.548-1.128.5-.81.49-1.823.733-2.743.242-.921.974-1.886 1.919-1.772.89.109 1.434 1.113 2.307 1.32 1.013.239 1.891-.658 2.686-1.33.796-.672 2.186-1.092 2.734-.207.328.531.132 1.27.472 1.793.591.904 1.991.343 2.861-.299.869-.642 2.255-1.223 2.866-.332.187.273.229.617.337.93.411 1.187 1.694 1.778 2.694 2.54s1.791 2.276.946 3.205c-.418.458-1.152.643-1.359 1.228-.26.73.487 1.384 1.077 1.886.982.835 1.161 3.336-.139 4.02-.545.287-1.344.374-1.478.976-.12.538.426.956.788 1.371.996 1.139.575 3.189-.79 3.843-.312.149-.695.271-.81.598-.083.233.007.487.074.726.127.451.169.925.125 1.391-.015.159-.048.332-.169.437-.11.095-.266.11-.412.116-1.876.083-2.781-.581-3.926 1.052-.11.157-.225.319-.391.414-.155.091-.338.115-.518.13-1.289.106-2.131-.699-3.309-.849-1.635-.209-1.981.634-3.422 1.311-2.262 1.064-3.36.407-3.785-1.137z" fill="#EBEBEB"/><path d="M127.916 194.381s4.693 6.635 6.311 8.738c1.618 2.104 9.709 15.211 10.811 23.881.117.925.233 1.721.346 2.418-3.481 22.972-2.935 65-2.812 72.195h11.026c.102-8.113 1.039-82.281 1.384-84.545.366-2.396 4.975-11.521 12.095-15.27 7.12-3.749 13.273-16.155 13.273-16.155h-2.27s-4.207 7.605-10.194 11.813c-.87.611-1.77 1.119-2.694 1.597.214-6.855-2.381-13.41-2.381-13.41l-1.225 1.133c1.654 6.774 1.437 11.112.936 13.605-2.01 1.007-4.094 2.172-6.191 4.143-6.211-8.076-9.703-26.546-9.703-26.546l-1.59.868s.517 5.017 2.053 11.328c1.163 4.78 4.588 13.781 6.182 17.867-1.584 2.199-3.157 5.042-4.692 8.806a3.6 3.6 0 0 0-.599-.718c-4.046-3.658-11.651-20.939-11.651-20.939-1.84-4.017.971-14.564.971-14.564h-2.123l-.952 9.224-5.34-5.825-.971.809 5.664 7.282 2.913 9.225-7.606-8.416-.971 1.456z" fill="#E6E6E6"/><path d="M100.068 314.607h341.863a7.361 7.361 0 0 1 7.361 7.361v11.087H92.708v-11.087a7.36 7.36 0 0 1 7.36-7.361z" fill="#E0E0E0"/><path d="M271 374.277c99.586 0 180.317-4.715 180.317-10.531 0-5.816-80.731-10.53-180.317-10.53-99.586 0-180.317 4.714-180.317 10.53 0 5.816 80.731 10.531 180.317 10.531z" fill="url(#a)"/><path d="M136.541 340.422s-1.291-9.463-7.343-10.498c-6.05-1.035-4.227-5.611-5.803-7.381-1.576-1.771-5.693 3.454-2.167 8.515 3.528 5.062.644 3.47 2.167 8.177 1.523 4.707 13.699 9.029 13.146 1.187z" fill="#263238"/><path opacity=".2" d="M136.541 340.422s-1.291-9.463-7.343-10.498c-6.05-1.035-4.227-5.611-5.803-7.381-1.576-1.771-5.693 3.454-2.167 8.515 3.528 5.062.644 3.47 2.167 8.177 1.523 4.707 13.699 9.029 13.146 1.187z" fill="#fff"/><path d="M136.288 346.565s-4.638-9.638-2.203-25.369 11.58-21.836 3.631-39.146c-7.949-17.31-17.032-29.652-12.489-41.934" stroke="#263238" stroke-width=".902" stroke-miterlimit="10" stroke-linecap="round" stroke-linejoin="round"/><path d="M132.796 344.674s-3.912-5.895 1.734-8.925c5.645-3.029 6.776-.59 10.269-2.769 3.493-2.179 6.139-7.46 6.735-4.081.595 3.378-3.438 5.306-2.011 6.85 1.425 1.546-9.496 11.582-16.727 8.925zM123.569 245.038s-3.812-11.582 4.854-11.825c8.667-.242-.885 10.59-4.854 11.825zM131.096 253.942s2.583-10.531 8.735-8.31c6.151 2.221-2.603 8.504-8.735 8.31zM120.661 254.855s.927-8.404-5.601-8.571c-6.526-.167-3.621 7.213 5.601 8.571zM125.004 271.999s-8.761-7.809-11.91-1.998c-3.15 5.812 6.607 7.023 11.91 1.998zM140.502 270.613s1.647-12.97 8.724-8.902c7.077 4.068-2.559 10.199-8.724 8.902zM146.728 289.183s-5.223-13.105 4.483-11.628c9.706 1.476 2.37 8.448-4.483 11.628zM131.835 293.859s-8.199-9.658-14.464-6.595c-6.265 3.063-1.145 12.665 14.464 6.595zM139.275 315.258s6.984-15.509 13.194-10.282c6.21 5.227-3.961 13.041-13.194 10.282zM129.125 314.35s1.845-12.03-5.07-11.063c-6.913.967-5.098 8.327 5.07 11.063z" fill="#263238"/><g opacity=".2" fill="#fff"><path d="M123.569 245.038s-3.812-11.582 4.854-11.825c8.667-.242-.885 10.59-4.854 11.825zM131.096 253.942s2.583-10.531 8.735-8.31c6.151 2.221-2.603 8.504-8.735 8.31zM120.661 254.855s.927-8.404-5.601-8.571c-6.526-.167-3.621 7.213 5.601 8.571zM125.004 271.999s-8.761-7.809-11.91-1.998c-3.15 5.812 6.607 7.023 11.91 1.998zM140.502 270.613s1.647-12.97 8.724-8.902c7.077 4.068-2.559 10.199-8.724 8.902zM146.728 289.183s-5.223-13.105 4.483-11.628c9.706 1.476 2.37 8.448-4.483 11.628zM131.835 293.859s-8.199-9.658-14.464-6.595c-6.265 3.063-1.145 12.665 14.464 6.595zM139.275 315.258s6.984-15.509 13.194-10.282c6.21 5.227-3.961 13.041-13.194 10.282zM129.125 314.35s1.845-12.03-5.07-11.063c-6.913.967-5.098 8.327 5.07 11.063z"/></g><path d="M118.488 252.1s3.729 5.54 8.83 8.396c0 0 3.374-6.51 6.006-8.088M118.277 271.222s9.48-.306 16.985 5.367c0 0 4.166-7.062 9.633-10.281M149.587 282.978s-4.069 10.71-9.266 14.879c0 0-10.77-6.243-18.678-6.4M124.856 307.189s5.322 10.387 9.291 12.657c0 0 3.71-5.232 11.736-7.641" stroke="#263238" stroke-width=".902" stroke-miterlimit="10" stroke-linecap="round" stroke-linejoin="round"/><path d="M133.396 343.268s-3.353-5.339-7.141-6.098c-3.788-.76-5.42-5.123-6.818-2.499-1.399 2.624 2.456 11.323 13.959 8.597z" fill="#263238"/><path d="M115.99 364.221h36.621l2.451-22.588h-41.523l2.451 22.588z" fill="url(#b)"/><path d="M112.685 345.913h43.233l.552-4.787h-44.339l.554 4.787z" fill="url(#c)"/><path opacity=".3" d="M112.685 345.913h43.233l.552-4.787h-44.339l.554 4.787z" fill="#fff"/><path d="m437.375 119.924-3.181 30.55h-15.921l-3.181-30.55h22.283z" fill="#263238"/><path opacity=".3" d="m437.375 119.924-3.181 30.55h-15.921l-3.181-30.55h22.283z" fill="#fff"/><path d="M429.197 143.904h-5.925v220.317h5.925V143.904z" fill="#263238"/><path opacity=".3" d="M429.197 143.904h-5.925v220.317h5.925V143.904z" fill="#fff"/><path d="M432.519 148.61h-12.57l-2.79-26.828h18.15l-2.79 26.828z" fill="url(#d)"/><path opacity=".4" d="M432.519 148.61h-12.57l-2.79-26.828h18.15l-2.79 26.828z" fill="#fff"/><path d="M424.581 149.03h-.858l-.93-28.178h.858l.93 28.178z" fill="#263238"/><path opacity=".3" d="M424.581 149.03h-.858l-.93-28.178h.858l.93 28.178z" fill="#fff"/><path opacity=".2" d="m437.375 119.924-3.181 30.55h-10.007l-1.199-30.55h14.387z" fill="#fff"/><path d="M426.235 110.103s-9.444 9.32-16.679 9.32l2.245 1.471H440.668l2.245-1.471c-7.235 0-16.678-9.32-16.678-9.32z" fill="#263238"/><path opacity=".4" d="m442.909 119.422-2.242 1.47H411.8l-2.241-1.47c7.235 0 16.675-9.318 16.675-9.318s9.439 9.318 16.675 9.318z" fill="#fff"/><path opacity=".2" d="m442.909 119.422-2.242 1.47h-18.748c-.568-.921-.968-1.591-.968-1.591 5.032-2.334 5.283-9.197 5.283-9.197s9.439 9.318 16.675 9.318z" fill="#fff"/><path d="M431.32 360.145h-10.171a2.3 2.3 0 0 0-2.3 2.3v1.777h14.77v-1.777a2.3 2.3 0 0 0-2.299-2.3z" fill="#263238"/><path opacity=".5" d="M431.32 360.145h-10.171a2.3 2.3 0 0 0-2.3 2.3v1.777h14.77v-1.777a2.3 2.3 0 0 0-2.299-2.3z" fill="#fff"/><path d="M261.713 270.636h-121.44a7.28 7.28 0 0 1-7.282-7.281V93.243a7.282 7.282 0 0 1 7.282-7.282h121.44a7.283 7.283 0 0 1 7.282 7.282v170.112a7.281 7.281 0 0 1-7.282 7.281z" fill="url(#e)"/><path opacity=".6" d="M261.713 270.636h-121.44a7.28 7.28 0 0 1-7.282-7.281V93.243a7.282 7.282 0 0 1 7.282-7.282h121.44a7.283 7.283 0 0 1 7.282 7.282v170.112a7.281 7.281 0 0 1-7.282 7.281z" fill="#fff"/><path d="M219.257 135.48c0 5.682-2.594 10.76-6.668 14.117a18.229 18.229 0 0 1-11.597 4.148 18.168 18.168 0 0 1-11.588-4.148c-4.073-3.348-6.677-8.426-6.677-14.117 0-10.082 8.184-18.256 18.265-18.256 10.091 0 18.265 8.174 18.265 18.256z" fill="url(#f)"/><path opacity=".7" d="M219.257 135.48c0 5.682-2.594 10.76-6.668 14.117a18.229 18.229 0 0 1-11.597 4.148 18.168 18.168 0 0 1-11.588-4.148c-4.073-3.348-6.677-8.426-6.677-14.117 0-10.082 8.184-18.256 18.265-18.256 10.091 0 18.265 8.174 18.265 18.256z" fill="#fff"/><path d="M200.993 140.304a6.54 6.54 0 1 0-6.541-6.54 6.54 6.54 0 0 0 6.541 6.54z" fill="#fff"/><path d="M212.589 149.597a18.23 18.23 0 0 1-11.597 4.148 18.168 18.168 0 0 1-11.588-4.148c1.711-5.013 5.236-8.714 9.467-9.653a10.003 10.003 0 0 1 2.121-.233c.725 0 1.432.084 2.12.233 4.241.939 7.756 4.64 9.477 9.653z" fill="#fff"/><path d="M191.233 205.214a.445.445 0 0 0-.208-.335.8.8 0 0 0-.446-.119.864.864 0 0 0-.338.062.545.545 0 0 0-.224.172.414.414 0 0 0-.024.449.49.49 0 0 0 .145.138c.058.036.12.066.184.089.065.023.124.041.178.056l.295.079c.076.02.16.048.253.083.094.035.183.082.269.143.086.06.157.136.213.23a.673.673 0 0 1 .083.345c0 .158-.041.3-.123.426a.847.847 0 0 1-.358.303 1.308 1.308 0 0 1-.57.112c-.208 0-.388-.033-.541-.101a.865.865 0 0 1-.358-.281.8.8 0 0 1-.146-.419h.363c.01.11.047.201.111.273a.606.606 0 0 0 .247.159c.101.034.209.051.324.051a.961.961 0 0 0 .362-.065.622.622 0 0 0 .255-.185.439.439 0 0 0 .094-.278.34.34 0 0 0-.081-.236.587.587 0 0 0-.214-.148 2.162 2.162 0 0 0-.285-.099l-.358-.103a1.336 1.336 0 0 1-.54-.279.618.618 0 0 1-.199-.476c0-.163.044-.305.132-.426a.873.873 0 0 1 .358-.284 1.2 1.2 0 0 1 .505-.103c.187 0 .354.034.5.101a.854.854 0 0 1 .346.273.682.682 0 0 1 .137.393h-.341zm.914 2.182v-2.182h.335v2.182h-.335zm.171-2.545a.239.239 0 0 1-.169-.067.214.214 0 0 1-.07-.161c0-.062.023-.116.07-.16a.235.235 0 0 1 .169-.067.23.23 0 0 1 .167.067.21.21 0 0 1 .071.16.211.211 0 0 1-.071.161.234.234 0 0 1-.167.067zm1.659 3.409c-.162 0-.301-.021-.418-.063a.867.867 0 0 1-.474-.375l.267-.187c.03.04.069.085.115.136.047.052.11.097.19.135a.747.747 0 0 0 .32.058.705.705 0 0 0 .436-.128c.115-.085.172-.218.172-.4v-.443h-.028c-.025.039-.06.089-.106.147a.574.574 0 0 1-.193.155.714.714 0 0 1-.338.067.912.912 0 0 1-.474-.125.875.875 0 0 1-.331-.364 1.264 1.264 0 0 1-.121-.579c0-.224.039-.418.118-.584a.865.865 0 0 1 .814-.524c.142 0 .255.024.338.071a.58.58 0 0 1 .193.159c.046.059.081.107.105.145h.034v-.347h.324v2.245c0 .187-.042.34-.128.457a.73.73 0 0 1-.341.26c-.142.056-.3.084-.474.084zm-.011-1.199a.61.61 0 0 0 .341-.092.582.582 0 0 0 .211-.266c.049-.116.073-.254.073-.415 0-.157-.024-.296-.071-.416a.63.63 0 0 0-.211-.283.563.563 0 0 0-.343-.102.568.568 0 0 0-.355.108.656.656 0 0 0-.212.29c-.046.121-.07.255-.07.403 0 .152.024.286.071.402.049.116.12.207.213.273a.612.612 0 0 0 .353.098zm1.903-.977v1.312h-.335v-2.182h.324v.341h.028a.62.62 0 0 1 .233-.267.727.727 0 0 1 .404-.102.79.79 0 0 1 .387.091c.111.059.197.15.259.273.061.121.092.274.092.46v1.386h-.335v-1.364c0-.171-.045-.304-.134-.4a.472.472 0 0 0-.366-.145.578.578 0 0 0-.287.07.495.495 0 0 0-.197.203.663.663 0 0 0-.073.324zm4.505.42v-1.29h.335v2.182h-.335v-.369h-.023a.687.687 0 0 1-.648.398.724.724 0 0 1-.363-.09.622.622 0 0 1-.25-.273 1.029 1.029 0 0 1-.091-.461v-1.387h.335v1.364c0 .159.044.286.133.381.09.094.205.142.344.142a.575.575 0 0 0 .473-.26.587.587 0 0 0 .09-.337zm.949 1.71v-3h.324v.347h.04c.024-.038.058-.086.102-.145a.587.587 0 0 1 .19-.159.69.69 0 0 1 .338-.071.865.865 0 0 1 .814.528c.079.169.118.368.118.597 0 .231-.039.431-.118.601a.925.925 0 0 1-.327.392.85.85 0 0 1-.481.138.706.706 0 0 1-.337-.07.61.61 0 0 1-.194-.161 1.682 1.682 0 0 1-.105-.15h-.029v1.153h-.335zm.329-1.909c0 .165.025.31.073.436a.655.655 0 0 0 .212.294c.092.07.206.105.34.105a.546.546 0 0 0 .351-.11.678.678 0 0 0 .213-.301c.049-.127.073-.268.073-.424 0-.153-.024-.291-.071-.415a.644.644 0 0 0-.212-.294.558.558 0 0 0-.354-.109.56.56 0 0 0-.343.104.627.627 0 0 0-.211.287 1.183 1.183 0 0 0-.071.427zm-11.72 4.779v1.312h-.336v-2.182h.324v.341h.029a.614.614 0 0 1 .233-.267.723.723 0 0 1 .403-.102c.148 0 .277.03.388.091a.6.6 0 0 1 .258.273c.062.121.093.274.093.46v1.386h-.336v-1.364c0-.171-.044-.304-.133-.4a.472.472 0 0 0-.367-.145.581.581 0 0 0-.287.07.495.495 0 0 0-.197.203.674.674 0 0 0-.072.324zm2.891 1.358a.952.952 0 0 1-.519-.141.95.95 0 0 1-.346-.394 1.318 1.318 0 0 1-.124-.59c0-.228.041-.426.124-.596a.944.944 0 0 1 .346-.394.952.952 0 0 1 .519-.141c.197 0 .369.047.517.141a.937.937 0 0 1 .346.394c.084.17.125.368.125.596 0 .225-.041.422-.125.59a.943.943 0 0 1-.346.394.943.943 0 0 1-.517.141zm0-.302a.575.575 0 0 0 .369-.115.673.673 0 0 0 .214-.302c.047-.125.07-.261.07-.406 0-.146-.023-.282-.07-.408a.683.683 0 0 0-.214-.305.57.57 0 0 0-.369-.117.571.571 0 0 0-.37.117.683.683 0 0 0-.214.305c-.047.126-.07.262-.07.408 0 .145.023.281.07.406a.673.673 0 0 0 .214.302c.097.077.22.115.37.115zm1.92.256-.665-2.182h.353l.471 1.671h.023l.466-1.671h.358l.46 1.665h.023l.471-1.665h.353l-.665 2.182h-.33l-.477-1.676h-.034l-.477 1.676h-.33z" fill="#000"/><path d="M237.785 227.68h-73.586a7.602 7.602 0 1 1 0-15.204h73.586a7.603 7.603 0 0 1 0 15.204z" fill="url(#g)"/><path d="M184.612 238.126v-2.91h1.744v.313h-1.392v.983h1.262v.312h-1.262v1.302h-.352zm3.028.045a.948.948 0 0 1-.518-.141.957.957 0 0 1-.347-.393 1.34 1.34 0 0 1-.123-.591c0-.227.041-.426.123-.595a.956.956 0 0 1 .347-.395.948.948 0 0 1 .518-.141.94.94 0 0 1 .517.141.935.935 0 0 1 .347.395c.083.169.125.368.125.595 0 .225-.042.422-.125.591a.936.936 0 0 1-.347.393.94.94 0 0 1-.517.141zm0-.301c.15 0 .273-.038.37-.115a.682.682 0 0 0 .214-.303c.047-.125.07-.26.07-.406 0-.146-.023-.282-.07-.408a.688.688 0 0 0-.214-.305.571.571 0 0 0-.37-.117.57.57 0 0 0-.369.117.68.68 0 0 0-.214.305c-.047.126-.07.262-.07.408 0 .146.023.281.07.406a.674.674 0 0 0 .214.303c.097.077.22.115.369.115zm1.501.256v-2.182h.324v.329h.022a.53.53 0 0 1 .216-.263.637.637 0 0 1 .352-.1 3.28 3.28 0 0 1 .177.005v.341a1.131 1.131 0 0 0-.205-.022.598.598 0 0 0-.284.066.493.493 0 0 0-.267.445v1.381h-.335zm2.302.863c-.162 0-.301-.021-.417-.062a.898.898 0 0 1-.292-.162.944.944 0 0 1-.183-.213l.267-.188c.031.04.069.085.115.137.047.052.11.097.191.134a.741.741 0 0 0 .319.059.711.711 0 0 0 .436-.128c.115-.085.172-.219.172-.401v-.443h-.028a2.04 2.04 0 0 1-.105.148.602.602 0 0 1-.194.155.728.728 0 0 1-.338.066.903.903 0 0 1-.474-.125.872.872 0 0 1-.331-.363 1.278 1.278 0 0 1-.121-.58c0-.223.04-.418.118-.584a.865.865 0 0 1 .814-.524c.142 0 .255.024.338.071.084.047.149.1.193.159.046.059.081.107.105.145h.035v-.346h.323v2.244c0 .188-.042.34-.127.457a.728.728 0 0 1-.341.26 1.287 1.287 0 0 1-.475.084zm-.011-1.199c.134 0 .248-.03.341-.092a.57.57 0 0 0 .211-.266c.049-.115.073-.253.073-.414 0-.158-.024-.296-.071-.417a.626.626 0 0 0-.21-.282.568.568 0 0 0-.344-.103.568.568 0 0 0-.355.108.656.656 0 0 0-.212.29 1.13 1.13 0 0 0-.069.404c0 .151.023.285.071.402a.611.611 0 0 0 .213.272.599.599 0 0 0 .352.098zm2.454.381a.948.948 0 0 1-.518-.141.957.957 0 0 1-.347-.393 1.34 1.34 0 0 1-.123-.591c0-.227.041-.426.123-.595a.956.956 0 0 1 .347-.395.948.948 0 0 1 .518-.141.94.94 0 0 1 .517.141.935.935 0 0 1 .347.395c.083.169.125.368.125.595 0 .225-.042.422-.125.591a.936.936 0 0 1-.347.393.94.94 0 0 1-.517.141zm0-.301c.15 0 .273-.038.37-.115a.682.682 0 0 0 .214-.303c.047-.125.07-.26.07-.406 0-.146-.023-.282-.07-.408a.688.688 0 0 0-.214-.305.571.571 0 0 0-.37-.117.57.57 0 0 0-.369.117.688.688 0 0 0-.214.305c-.047.126-.07.262-.07.408 0 .146.023.281.07.406a.682.682 0 0 0 .214.303c.097.077.22.115.369.115zm2.45-1.926v.284h-1.131v-.284h1.131zm-.801-.523h.335v2.08c0 .094.013.165.041.213a.21.21 0 0 0 .108.093.553.553 0 0 0 .288.006l.068.301a.726.726 0 0 1-.528-.021.552.552 0 0 1-.224-.186.536.536 0 0 1-.088-.316v-2.17zm-10.923 7.705v-2.91h.983c.228 0 .415.042.56.124a.774.774 0 0 1 .323.331c.07.139.106.295.106.466 0 .171-.036.327-.106.467a.778.778 0 0 1-.321.335c-.145.083-.33.124-.556.124h-.705v-.312h.693a.761.761 0 0 0 .377-.081.489.489 0 0 0 .206-.219.74.74 0 0 0 .065-.314.73.73 0 0 0-.065-.313.47.47 0 0 0-.208-.215.769.769 0 0 0-.38-.08h-.62v2.597h-.352zm3.136.051a.89.89 0 0 1-.377-.078.645.645 0 0 1-.268-.229.642.642 0 0 1-.1-.364c0-.125.025-.226.074-.304a.516.516 0 0 1 .198-.184c.082-.045.173-.078.272-.1.101-.023.202-.041.303-.054.132-.017.24-.03.322-.038a.5.5 0 0 0 .182-.047c.039-.022.058-.06.058-.114v-.011a.445.445 0 0 0-.115-.327c-.075-.077-.191-.116-.345-.116a.602.602 0 0 0-.376.105.625.625 0 0 0-.192.224l-.318-.113a.762.762 0 0 1 .227-.31.845.845 0 0 1 .313-.156c.113-.031.225-.046.335-.046.07 0 .15.009.241.026.092.016.181.05.266.101a.586.586 0 0 1 .214.231.86.86 0 0 1 .086.415v1.438h-.336v-.296h-.017a.576.576 0 0 1-.113.152.66.66 0 0 1-.212.138.814.814 0 0 1-.322.057zm.051-.301a.657.657 0 0 0 .335-.079.528.528 0 0 0 .278-.461v-.307c-.014.017-.045.033-.093.047a1.62 1.62 0 0 1-.165.035c-.062.01-.122.018-.181.026l-.14.017a1.31 1.31 0 0 0-.245.055.418.418 0 0 0-.181.113.282.282 0 0 0-.069.201.3.3 0 0 0 .13.264.577.577 0 0 0 .331.089zm3.106-1.444-.301.086a.561.561 0 0 0-.084-.147.404.404 0 0 0-.148-.119.537.537 0 0 0-.24-.047.579.579 0 0 0-.334.092c-.088.061-.132.138-.132.232a.24.24 0 0 0 .091.197.745.745 0 0 0 .284.121l.324.08c.195.047.341.119.436.217a.508.508 0 0 1 .144.374.554.554 0 0 1-.108.335.722.722 0 0 1-.299.233 1.082 1.082 0 0 1-.446.085.977.977 0 0 1-.552-.145.642.642 0 0 1-.277-.423l.318-.08c.03.118.088.206.172.264a.574.574 0 0 0 .334.089c.156 0 .28-.034.372-.1.093-.067.139-.148.139-.241a.254.254 0 0 0-.079-.191.51.51 0 0 0-.245-.116l-.363-.085c-.2-.048-.347-.121-.441-.221a.53.53 0 0 1-.139-.376c0-.123.035-.232.104-.327a.712.712 0 0 1 .285-.223c.121-.054.259-.081.412-.081.216 0 .386.048.509.142.124.095.212.22.264.375zm2.09 0-.301.086a.561.561 0 0 0-.084-.147.404.404 0 0 0-.148-.119.537.537 0 0 0-.24-.047.577.577 0 0 0-.334.092c-.088.061-.132.138-.132.232 0 .083.03.149.091.197a.745.745 0 0 0 .284.121l.324.08c.195.047.34.119.436.217a.508.508 0 0 1 .144.374.554.554 0 0 1-.108.335.722.722 0 0 1-.299.233 1.085 1.085 0 0 1-.446.085.977.977 0 0 1-.552-.145.642.642 0 0 1-.277-.423l.318-.08c.03.118.087.206.172.264a.574.574 0 0 0 .334.089c.156 0 .28-.034.372-.1.093-.067.139-.148.139-.241a.255.255 0 0 0-.08-.191.501.501 0 0 0-.244-.116l-.364-.085c-.199-.048-.346-.121-.44-.221a.53.53 0 0 1-.139-.376c0-.123.034-.232.104-.327a.712.712 0 0 1 .285-.223c.121-.054.259-.081.412-.081.216 0 .385.048.509.142.124.095.212.22.264.375zm1.038 1.694-.664-2.182h.352l.472 1.67h.022l.466-1.67h.358l.46 1.665h.023l.472-1.665h.352l-.665 2.182h-.329l-.478-1.677h-.034l-.477 1.677h-.33zm3.568.045a.946.946 0 0 1-.518-.141.957.957 0 0 1-.347-.393 1.34 1.34 0 0 1-.123-.591c0-.227.041-.426.123-.595a.956.956 0 0 1 .347-.395.946.946 0 0 1 .518-.141.94.94 0 0 1 .517.141.935.935 0 0 1 .347.395c.083.169.125.368.125.595 0 .225-.042.422-.125.591a.936.936 0 0 1-.347.393.94.94 0 0 1-.517.141zm0-.301c.15 0 .273-.038.37-.115a.682.682 0 0 0 .214-.303c.046-.125.07-.26.07-.406 0-.146-.024-.282-.07-.408a.688.688 0 0 0-.214-.305.571.571 0 0 0-.37-.117.57.57 0 0 0-.369.117.69.69 0 0 0-.215.305 1.18 1.18 0 0 0-.069.408c0 .146.023.281.069.406a.684.684 0 0 0 .215.303c.097.077.22.115.369.115zm1.501.256v-2.182h.323v.329h.023a.53.53 0 0 1 .216-.263.637.637 0 0 1 .352-.1 3.28 3.28 0 0 1 .177.005v.341a1.131 1.131 0 0 0-.205-.022.598.598 0 0 0-.284.066.493.493 0 0 0-.267.445v1.381h-.335zm2.245.045a.853.853 0 0 1-.481-.138.934.934 0 0 1-.327-.392 1.425 1.425 0 0 1-.118-.601c0-.229.04-.428.118-.596a.92.92 0 0 1 .328-.391.865.865 0 0 1 .486-.138c.142 0 .254.024.337.071.083.047.146.1.19.159.045.059.079.107.104.145h.028v-1.074h.335v2.91h-.324v-.336h-.039c-.025.04-.06.09-.105.151a.625.625 0 0 1-.195.16.69.69 0 0 1-.337.07zm.046-.301a.551.551 0 0 0 .341-.105.653.653 0 0 0 .211-.294 1.2 1.2 0 0 0 .073-.436c0-.163-.024-.306-.071-.428a.632.632 0 0 0-.21-.287.562.562 0 0 0-.344-.104.563.563 0 0 0-.355.11.651.651 0 0 0-.212.294c-.046.123-.07.261-.07.415 0 .155.024.296.071.423.049.126.12.226.214.301a.553.553 0 0 0 .352.111zm2.052-.563v-.017a1.44 1.44 0 0 1 .057-.431.64.64 0 0 1 .154-.26 1.2 1.2 0 0 1 .238-.184.767.767 0 0 0 .151-.12.56.56 0 0 0 .105-.164.519.519 0 0 0 .04-.204.436.436 0 0 0-.24-.399.548.548 0 0 0-.468-.008.438.438 0 0 0-.18.152.54.54 0 0 0-.084.272h-.358a.809.809 0 0 1 .125-.414.754.754 0 0 1 .303-.262.947.947 0 0 1 .419-.091c.166 0 .311.033.434.099.124.066.22.157.287.273a.753.753 0 0 1 .103.395.787.787 0 0 1-.049.282.676.676 0 0 1-.136.226.926.926 0 0 1-.213.176.876.876 0 0 0-.2.165.52.52 0 0 0-.11.203 1.14 1.14 0 0 0-.037.294v.017h-.341zm.182.841a.245.245 0 0 1-.18-.075.245.245 0 0 1-.075-.18c0-.07.025-.131.075-.181.05-.05.11-.075.18-.075.07 0 .13.025.181.075a.248.248 0 0 1 .039.308.251.251 0 0 1-.22.128z" fill="#000" opacity=".5"/><path d="M190.987 223v-5.818h.704v5.193h2.705V223h-3.409zm6.182.091c-.394 0-.74-.093-1.037-.281a1.909 1.909 0 0 1-.694-.787c-.164-.337-.247-.731-.247-1.182 0-.454.083-.851.247-1.19.167-.339.398-.602.694-.79a1.906 1.906 0 0 1 1.037-.281c.394 0 .738.094 1.034.281.297.188.528.451.693.79.167.339.25.736.25 1.19 0 .451-.083.845-.25 1.182-.165.337-.396.6-.693.787-.296.188-.64.281-1.034.281zm0-.602c.299 0 .545-.077.738-.23.193-.154.336-.355.429-.605.093-.25.139-.521.139-.813 0-.291-.046-.563-.139-.815a1.376 1.376 0 0 0-.429-.611c-.193-.155-.439-.233-.738-.233-.3 0-.546.078-.739.233a1.376 1.376 0 0 0-.429.611 2.337 2.337 0 0 0-.139.815c0 .292.046.563.139.813.093.25.236.451.429.605.193.153.439.23.739.23zm4.762 2.239c-.324 0-.603-.042-.836-.125a1.786 1.786 0 0 1-.582-.324 1.775 1.775 0 0 1-.366-.426l.534-.375c.06.079.137.17.23.272.093.105.219.194.38.27.163.078.376.117.64.117.352 0 .643-.085.872-.256.229-.17.344-.437.344-.801v-.886h-.057c-.049.079-.12.178-.21.295a1.186 1.186 0 0 1-.387.31c-.167.089-.392.133-.676.133-.352 0-.669-.083-.949-.25a1.754 1.754 0 0 1-.662-.727c-.161-.318-.241-.705-.241-1.159 0-.447.078-.836.236-1.168.157-.333.375-.591.656-.773.28-.183.604-.275.971-.275.284 0 .51.047.677.142.168.093.297.199.386.318.091.118.161.214.21.29h.068v-.693h.648v4.488c0 .375-.085.68-.256.915a1.45 1.45 0 0 1-.681.52 2.573 2.573 0 0 1-.949.168zm-.023-2.398c.269 0 .496-.062.682-.185.185-.123.326-.3.423-.531a2.14 2.14 0 0 0 .145-.83c0-.314-.047-.591-.142-.832a1.25 1.25 0 0 0-.421-.565 1.122 1.122 0 0 0-.687-.205c-.284 0-.521.072-.71.216a1.313 1.313 0 0 0-.424.58 2.253 2.253 0 0 0-.139.806c0 .303.048.571.142.804.097.231.239.413.426.546.19.131.425.196.705.196zm3.136.67v-4.363h.671V223h-.671zm.341-5.091a.478.478 0 0 1-.338-.133.428.428 0 0 1-.139-.321c0-.125.046-.232.139-.321a.479.479 0 0 1 .338-.134c.131 0 .243.045.335.134a.424.424 0 0 1 .142.321.424.424 0 0 1-.142.321.464.464 0 0 1-.335.133zm-13.819 12.466V233h-.67v-4.363h.648v.682h.056c.103-.222.258-.4.466-.535.209-.136.478-.204.807-.204.296 0 .554.061.776.182.221.119.394.301.517.545.123.243.184.549.184.921V233h-.67v-2.727c0-.343-.089-.61-.267-.801-.178-.193-.422-.29-.733-.29a1.18 1.18 0 0 0-.574.139 1 1 0 0 0-.395.407 1.347 1.347 0 0 0-.145.647zM237.785 176.34h-73.586a7.603 7.603 0 0 1 0-15.204h73.586a7.603 7.603 0 0 1 0 15.204zM237.785 197.901h-73.586a7.603 7.603 0 0 1 0-15.203h73.586a7.602 7.602 0 1 1 0 15.203z" fill="#fff"/><path d="M169.663 166.819v3.637h-.426l-1.981-2.856h-.036v2.856h-.44v-3.637h.426l1.989 2.862h.035v-2.862h.433zm1.627 3.7c-.173 0-.329-.032-.47-.097a.816.816 0 0 1-.336-.286.807.807 0 0 1-.124-.455c0-.156.031-.283.092-.38a.65.65 0 0 1 .247-.23c.103-.056.217-.098.341-.125a4.04 4.04 0 0 1 .378-.067c.166-.022.3-.037.403-.048a.624.624 0 0 0 .227-.059c.049-.027.073-.074.073-.142v-.014c0-.175-.048-.311-.144-.408-.094-.097-.238-.146-.431-.146-.2 0-.357.044-.471.131a.787.787 0 0 0-.239.281l-.398-.142a.954.954 0 0 1 .284-.387c.12-.094.25-.159.391-.195.142-.038.281-.057.419-.057.087 0 .188.01.302.032.114.02.225.062.332.126.107.064.197.16.268.289.071.129.106.302.106.519v1.797h-.419v-.37h-.021a.805.805 0 0 1-.407.362c-.11.048-.244.071-.403.071zm.064-.376a.83.83 0 0 0 .419-.098.662.662 0 0 0 .348-.577v-.383c-.018.021-.057.041-.117.058a1.855 1.855 0 0 1-.206.045c-.077.012-.152.022-.225.032a7.755 7.755 0 0 0-.176.021 1.592 1.592 0 0 0-.306.069.53.53 0 0 0-.227.141.354.354 0 0 0-.085.252c0 .145.054.255.161.33.109.073.247.11.414.11zm1.951.313v-2.728h.405v.426h.035a.69.69 0 0 1 .276-.339.826.826 0 0 1 .456-.122c.18 0 .33.041.449.122a.801.801 0 0 1 .282.339h.029a.797.797 0 0 1 .314-.335.958.958 0 0 1 .503-.126c.243 0 .443.076.598.229.155.151.233.387.233.708v1.826h-.419v-1.826c0-.201-.055-.345-.166-.431a.606.606 0 0 0-.388-.13c-.192 0-.341.058-.446.174a.624.624 0 0 0-.158.437v1.776h-.426v-1.868a.494.494 0 0 0-.151-.375.54.54 0 0 0-.389-.144.571.571 0 0 0-.305.087.656.656 0 0 0-.228.242.707.707 0 0 0-.085.353v1.705h-.419zm5.489.056c-.263 0-.489-.058-.68-.174a1.165 1.165 0 0 1-.438-.49 1.664 1.664 0 0 1-.153-.735c0-.279.051-.525.153-.738a1.2 1.2 0 0 1 .429-.501c.185-.121.4-.181.647-.181.142 0 .282.023.42.071.139.047.265.124.379.231.113.105.204.245.271.419.068.174.101.388.101.642v.178h-2.102v-.362h1.676a.89.89 0 0 0-.092-.412.696.696 0 0 0-.653-.391.76.76 0 0 0-.434.124.827.827 0 0 0-.278.32.926.926 0 0 0-.098.423v.241c0 .206.035.381.106.524.073.142.173.25.301.325a.88.88 0 0 0 .445.11c.11 0 .21-.015.298-.046a.65.65 0 0 0 .233-.142.647.647 0 0 0 .151-.238l.405.113a.902.902 0 0 1-.215.363 1.05 1.05 0 0 1-.373.241 1.378 1.378 0 0 1-.499.085zm3.862.902a2.84 2.84 0 0 1-.961-.149 1.82 1.82 0 0 1-.701-.435 1.878 1.878 0 0 1-.43-.705 2.891 2.891 0 0 1-.145-.955c0-.347.049-.657.147-.93.1-.274.243-.506.432-.696.189-.192.419-.338.689-.439.271-.101.577-.151.919-.151.333 0 .624.055.874.163a1.82 1.82 0 0 1 1.008 1.059c.086.229.128.466.128.71 0 .172-.008.346-.025.522a1.965 1.965 0 0 1-.104.486.803.803 0 0 1-.247.356c-.11.09-.259.134-.448.134-.082 0-.174-.013-.273-.039a.728.728 0 0 1-.265-.129.36.36 0 0 1-.136-.243h-.022a.637.637 0 0 1-.36.342.85.85 0 0 1-.343.048.92.92 0 0 1-.406-.103.874.874 0 0 1-.295-.259 1.233 1.233 0 0 1-.178-.382 1.807 1.807 0 0 1-.058-.47c0-.16.023-.306.071-.439a1.12 1.12 0 0 1 .197-.348 1.004 1.004 0 0 1 .669-.35 1 1 0 0 1 .323.016.678.678 0 0 1 .24.098.28.28 0 0 1 .119.142h.021v-.199h.377v1.605c0 .1.028.187.083.263a.284.284 0 0 0 .244.114.33.33 0 0 0 .277-.125c.065-.082.109-.21.133-.383.025-.173.037-.394.037-.664a1.697 1.697 0 0 0-.261-.904 1.407 1.407 0 0 0-.329-.357 1.512 1.512 0 0 0-.466-.241 1.893 1.893 0 0 0-.606-.089c-.278 0-.527.043-.747.13-.219.085-.406.21-.56.374a1.66 1.66 0 0 0-.35.597 2.47 2.47 0 0 0-.119.795c0 .302.04.57.119.805.081.234.199.432.356.593.157.161.352.282.584.365.232.084.499.126.802.126.13 0 .259-.012.386-.037.126-.025.238-.052.335-.082l.21-.065.099.326a2.137 2.137 0 0 1-.288.093 3.466 3.466 0 0 1-.376.076c-.133.02-.259.03-.38.03zm-.206-1.413a.693.693 0 0 0 .385-.096.541.541 0 0 0 .215-.289c.045-.129.068-.292.068-.489 0-.198-.025-.354-.075-.465a.447.447 0 0 0-.22-.234.852.852 0 0 0-.359-.068.565.565 0 0 0-.346.107.672.672 0 0 0-.218.28.951.951 0 0 0-.075.38c0 .152.02.295.06.428a.695.695 0 0 0 .198.323.527.527 0 0 0 .367.123zm2.794.455v-2.728h.404v.426h.036a.689.689 0 0 1 .275-.339.83.83 0 0 1 .456-.122c.18 0 .33.041.45.122.12.081.214.194.282.339h.028a.8.8 0 0 1 .315-.335.955.955 0 0 1 .502-.126c.244 0 .443.076.598.229.156.151.233.387.233.708v1.826h-.419v-1.826c0-.201-.055-.345-.165-.431a.609.609 0 0 0-.389-.13c-.192 0-.34.058-.446.174a.624.624 0 0 0-.158.437v1.776h-.426v-1.868a.49.49 0 0 0-.151-.375.539.539 0 0 0-.389-.144.576.576 0 0 0-.305.087.662.662 0 0 0-.227.242.707.707 0 0 0-.085.353v1.705h-.419zm5.148.063c-.173 0-.33-.032-.471-.097a.813.813 0 0 1-.335-.286.807.807 0 0 1-.125-.455c0-.156.031-.283.093-.38a.643.643 0 0 1 .247-.23c.102-.056.216-.098.34-.125a4.12 4.12 0 0 1 .379-.067c.165-.022.3-.037.403-.048a.624.624 0 0 0 .227-.059c.048-.027.073-.074.073-.142v-.014c0-.175-.048-.311-.144-.408-.095-.097-.239-.146-.432-.146-.2 0-.356.044-.47.131a.78.78 0 0 0-.24.281l-.398-.142a.955.955 0 0 1 .285-.387c.119-.094.249-.159.39-.195.142-.038.282-.057.419-.057.088 0 .188.01.302.032.115.02.226.062.332.126.108.064.197.16.268.289.071.129.107.302.107.519v1.797h-.419v-.37h-.022a.8.8 0 0 1-.406.362 1.01 1.01 0 0 1-.403.071zm.064-.376a.835.835 0 0 0 .419-.098.662.662 0 0 0 .348-.577v-.383c-.018.021-.057.041-.117.058-.06.017-.128.032-.206.045-.077.012-.153.022-.226.032a8.52 8.52 0 0 0-.176.021c-.109.014-.21.037-.305.069a.523.523 0 0 0-.227.141.355.355 0 0 0-.086.252c0 .145.054.255.162.33.109.073.247.11.414.11zm1.951.313v-2.728h.419v2.728h-.419zm.213-3.182a.3.3 0 0 1-.212-.084.266.266 0 0 1-.087-.2c0-.079.029-.145.087-.201a.298.298 0 0 1 .212-.083.29.29 0 0 1 .209.083.266.266 0 0 1 .089.201c0 .078-.03.145-.089.2a.29.29 0 0 1-.209.084zm1.392-.455v3.637h-.419v-3.637h.419zm1.073 3.665a.304.304 0 0 1-.225-.094.308.308 0 0 1-.095-.226c0-.087.032-.162.095-.225a.304.304 0 0 1 .225-.094c.088 0 .163.031.226.094a.31.31 0 0 1 .049.385.322.322 0 0 1-.115.117.302.302 0 0 1-.16.043zm-27.254 6.028a1.18 1.18 0 0 1-.661-.181 1.19 1.19 0 0 1-.426-.499 1.697 1.697 0 0 1-.149-.726c0-.277.051-.521.153-.733.103-.213.246-.38.43-.499.184-.121.4-.181.646-.181.192 0 .364.035.518.106a1 1 0 0 1 .379.299.922.922 0 0 1 .182.447h-.419a.651.651 0 0 0-.213-.33.637.637 0 0 0-.44-.146.74.74 0 0 0-.43.128.834.834 0 0 0-.286.357 1.331 1.331 0 0 0-.101.538c0 .211.033.394.1.55a.832.832 0 0 0 .284.364.73.73 0 0 0 .433.13.74.74 0 0 0 .296-.057.616.616 0 0 0 .226-.163.623.623 0 0 0 .131-.256h.419a.968.968 0 0 1-.543.74 1.177 1.177 0 0 1-.529.112zm2.793 0a1.19 1.19 0 0 1-.648-.175 1.2 1.2 0 0 1-.433-.492 1.665 1.665 0 0 1-.155-.739c0-.284.052-.532.155-.744.104-.212.248-.376.433-.493.186-.118.402-.176.648-.176s.462.058.646.176c.186.117.33.281.433.493.105.212.157.46.157.744 0 .282-.052.528-.157.739-.103.21-.247.374-.433.492a1.18 1.18 0 0 1-.646.175zm0-.376a.72.72 0 0 0 .462-.144.855.855 0 0 0 .268-.378 1.45 1.45 0 0 0 .087-.508c0-.182-.029-.352-.087-.51a.864.864 0 0 0-.268-.381.716.716 0 0 0-.462-.146.716.716 0 0 0-.462.146.864.864 0 0 0-.268.381 1.469 1.469 0 0 0-.087.51c0 .182.029.352.087.508a.855.855 0 0 0 .268.378.72.72 0 0 0 .462.144zm1.875.32v-2.728h.405v.426h.036a.689.689 0 0 1 .275-.339.83.83 0 0 1 .456-.122c.18 0 .33.041.449.122a.81.81 0 0 1 .283.339h.028a.803.803 0 0 1 .314-.335.96.96 0 0 1 .503-.126c.244 0 .443.076.598.229.155.151.233.387.233.708v1.826h-.419v-1.826c0-.201-.055-.345-.165-.431a.609.609 0 0 0-.389-.13c-.192 0-.34.058-.446.174a.624.624 0 0 0-.158.437v1.776h-.426v-1.868a.49.49 0 0 0-.151-.375.539.539 0 0 0-.389-.144.574.574 0 0 0-.305.087.654.654 0 0 0-.227.242.707.707 0 0 0-.086.353v1.705h-.419z" fill="#000" opacity=".5"/><path d="m167.851 192.697.04-1.093-.925.586-.239-.417.975-.507-.975-.508.239-.417.925.586-.04-1.093h.477l-.04 1.093.925-.586.239.417-.975.508.975.507-.239.417-.925-.586.04 1.093h-.477zm3.5 0 .04-1.093-.925.586-.239-.417.975-.507-.975-.508.239-.417.925.586-.04-1.093h.477l-.04 1.093.925-.586.239.417-.975.508.975.507-.239.417-.925-.586.04 1.093h-.477zm3.5 0 .04-1.093-.925.586-.239-.417.975-.507-.975-.508.239-.417.925.586-.04-1.093h.477l-.04 1.093.925-.586.239.417-.975.508.975.507-.239.417-.925-.586.04 1.093h-.477zm3.5 0 .04-1.093-.925.586-.239-.417.975-.507-.975-.508.239-.417.925.586-.04-1.093h.477l-.04 1.093.925-.586.239.417-.975.508.975.507-.239.417-.925-.586.04 1.093h-.477zm-10.5 8 .04-1.093-.925.586-.239-.417.975-.507-.975-.508.239-.417.925.586-.04-1.093h.477l-.04 1.093.925-.586.239.417-.975.508.975.507-.239.417-.925-.586.04 1.093h-.477zm3.5 0 .04-1.093-.925.586-.239-.417.975-.507-.975-.508.239-.417.925.586-.04-1.093h.477l-.04 1.093.925-.586.239.417-.975.508.975.507-.239.417-.925-.586.04 1.093h-.477zm3.5 0 .04-1.093-.925.586-.239-.417.975-.507-.975-.508.239-.417.925.586-.04-1.093h.477l-.04 1.093.925-.586.239.417-.975.508.975.507-.239.417-.925-.586.04 1.093h-.477z" fill="#000"/><path opacity=".2" d="M229.762 165.168v7.141h10.116v-7.141h-10.116zm8.466.778-3.407 2.322-3.407-2.322h6.814zm-7.688 5.584v-5.238l4.28 2.917 4.28-2.917v5.238h-8.56z" fill="#000"/><g opacity=".2" fill="#000"><path d="M237.21 189.116v-.867c0-1.092-.888-1.98-1.98-1.98h-1.077c-1.092 0-1.98.888-1.98 1.98v.867h-1.628v5.936h8.551v-5.936h-1.886zm-4.258-.868c0-.663.538-1.202 1.201-1.202h1.078c.663 0 1.202.539 1.202 1.202v.867h-3.481v-.867zm5.366 6.024h-6.995v-4.378h6.995v4.378z"/><path d="M234.596 192.321v.705h.449v-.705a.436.436 0 0 0 .219-.373.442.442 0 0 0-.886 0c0 .161.09.296.218.373z"/></g><path d="M365.542 112.101h-26.717a8.227 8.227 0 0 0-8.227 8.227v23.252a8.228 8.228 0 0 0 8.227 8.227h10.566l2.792 7.341 2.792-7.341h10.568a8.226 8.226 0 0 0 8.226-8.227v-23.252a8.228 8.228 0 0 0-8.227-8.227z" fill="url(#h)"/><path opacity=".7" d="M365.542 112.101h-26.717a8.227 8.227 0 0 0-8.227 8.227v23.252a8.228 8.228 0 0 0 8.227 8.227h10.566l2.792 7.341 2.792-7.341h10.568a8.226 8.226 0 0 0 8.226-8.227v-23.252a8.228 8.228 0 0 0-8.227-8.227z" fill="#fff"/><path d="M361.556 141.231c5.178-5.179 5.178-13.574 0-18.752-5.179-5.179-13.574-5.179-18.753 0-5.178 5.178-5.178 13.573 0 18.752 5.179 5.178 13.574 5.178 18.753 0z" fill="url(#i)"/><path d="M350.79 137.777c-.358 0-.697-.158-.929-.43l-5.202-6.13a1.22 1.22 0 0 1 1.858-1.577l4.273 5.035 7.057-8.314a1.219 1.219 0 1 1 1.858 1.577l-7.985 9.41a1.224 1.224 0 0 1-.93.429z" fill="#fff"/><path d="M401.84 364.221h6.141l-12.554-70.86h-6.142l12.555 70.86zM266.845 364.221h6.142l-12.555-70.86h-6.141l12.554 70.86z" fill="#263238"/><path opacity=".3" d="M401.84 364.221h6.141l-12.554-70.86h-6.142l12.555 70.86zM266.845 364.221h6.142l-12.555-70.86h-6.141l12.554 70.86z" fill="#fff"/><path d="M213.421 335.011h185.213v-6.22H213.421v6.22z" fill="#263238"/><path opacity=".5" d="M213.421 335.011h185.213v-6.22H213.421v6.22z" fill="#fff"/><path d="M345.208 364.221h-6.141l12.554-70.86h6.142l-12.555 70.86zM210.215 364.221h-6.142l12.554-70.86h6.142l-12.554 70.86z" fill="#263238"/><path opacity=".3" d="M345.208 364.221h-6.141l12.554-70.86h6.142l-12.555 70.86zM210.215 364.221h-6.142l12.554-70.86h6.142l-12.554 70.86z" fill="#fff"/><path d="M265.905 290.607h6.111l10.23-56.869h-6.112l-10.229 56.869z" fill="#263238"/><path opacity=".3" d="M265.905 290.607h6.111l10.23-56.869h-6.112l-10.229 56.869z" fill="#fff"/><path d="M387.256 290.607h6.112l10.229-56.869h-6.111l-10.23 56.869zM326.58 290.607h6.112l10.23-56.869h-6.112l-10.23 56.869z" fill="#263238"/><path opacity=".3" d="M387.256 290.607h6.112l10.229-56.869h-6.111l-10.23 56.869zM326.58 290.607h6.112l10.23-56.869h-6.112l-10.23 56.869z" fill="#fff"/><path d="M255.35 237.622h160.49l1.915-10.643H257.264l-1.914 10.643zM251.886 256.875h160.491l1.914-10.644h-160.49l-1.915 10.644zM248.423 276.128h160.491l1.915-10.644H250.338l-1.915 10.644zM202.79 296.294h204.534v-7.363H202.79v7.363z" fill="#263238"/><path opacity=".5" d="M255.35 237.622h160.49l1.915-10.643H257.264l-1.914 10.643zM251.886 256.875h160.491l1.914-10.644h-160.49l-1.915 10.644zM248.423 276.128h160.491l1.915-10.644H250.338l-1.915 10.644zM202.79 296.294h204.534v-7.363H202.79v7.363z" fill="#fff"/><path opacity=".2" d="M202.79 296.294h154.316v-7.363H202.79v7.363z" fill="#fff"/><path d="M341.294 213.056a106.544 106.544 0 0 1-8.169 8.128c-1.454 1.285-2.946 2.55-4.59 3.761a36.463 36.463 0 0 1-2.638 1.798c-.486.291-1.001.58-1.589.865-.597.282-1.249.575-2.207.815-.504.112-1.084.226-1.916.193a7.309 7.309 0 0 1-.656-.069l-.338-.076a12.057 12.057 0 0 1-.663-.171 11.542 11.542 0 0 1-1.986-.86c-1.12-.623-2.002-1.284-2.839-1.951-1.661-1.328-3.042-2.748-4.385-4.174-2.648-2.89-4.95-5.894-7.076-9.135a2.32 2.32 0 0 1 3.443-3.038l.05.044c2.767 2.362 5.589 4.765 8.385 6.948a48.58 48.58 0 0 0 4.174 2.976c.673.416 1.352.775 1.896.987.277.12.484.16.598.181.018-.003.012-.017.017-.018l.002-.001a1.96 1.96 0 0 0-.309-.038c-.367-.019-.485.013-.538.013-.06-.004.142-.092.369-.24.236-.148.518-.339.812-.556a29.022 29.022 0 0 0 1.872-1.483 91.38 91.38 0 0 0 3.848-3.538c2.549-2.473 5.131-5.106 7.603-7.657l.047-.049a4.644 4.644 0 0 1 6.783 6.345z" fill="#E9B376"/><path d="M338.933 204.726v13.327s-2.818 2.344-6.277 4.929c-1.73 1.293-3.618 2.642-5.385 3.785-2.688 1.749-5.106 3.032-6.333 2.958-3.664-.223-11.616-5.906-11.616-5.906l5.227-8.704s6.007 3.673 6.389 3.924c.381.242 12.982-14.229 17.995-14.313z" fill="url(#j)"/><path opacity=".2" d="M332.655 222.982c-1.729 1.293-3.617 2.642-5.384 3.785.418-7.644 4.017-10.583 4.017-10.583 1.116 2.139 1.478 4.529 1.367 6.798z" fill="#000"/><path d="M344.019 169.682c-6.417 5.237-5.663 20.302 1.551 30.189 0 0 15.4 1.291 23.953-2.539 8.554-3.83-.901-28.224-9.942-30.144-9.043-1.921-15.562 2.494-15.562 2.494z" fill="#263238"/><path d="M344.392 185.341c-2.35-4.06-4.687-15.001 5.095-18.382 12.21-4.221 17.684 3.565 18.738 11.283 1.055 7.717-3.294 13.553-11.363 12.972-8.071-.581-10.843-3.066-12.47-5.873zM331.286 216.187c-1.195 5.641.899 18.941 1.243 28.965l28.754 3.314c.007-3.146.589-7.705 2.462-14.947 1.079-4.242 2.615-9.408 4.726-15.749.311-.943.634-1.904.974-2.898 1.514-4.431-1.097-8.902-5.612-9.609a63.55 63.55 0 0 0-3.8-.488c-5.121-.523-9.329-.912-13.905-.739a93.314 93.314 0 0 0-4.608.291c-5.44.457-9.119 6.573-10.234 11.86z" fill="#263238"/><path d="M359.885 189.065c-1.448 4.409-3.37 12.526-.621 15.665 0 0-4.204-.861-13.495 4.223-2.405-3.874-.407-4.962-.407-4.962 5.14-.921 5.484-4.615 5.059-8.123l9.464-6.803z" fill="#EBB376"/><path opacity=".2" d="m356.027 191.841-5.602 4.024c.103.831.159 1.671.114 2.482 1.941-.173 4.825-2.118 5.282-4.094.228-.987.308-1.941.206-2.412z" fill="#000"/><path d="M361.804 178.769c.1 7.359.298 10.472-3.12 14.509-5.141 6.073-14.202 4.585-16.497-2.596-2.067-6.464-1.882-17.413 5.07-20.865 6.849-3.401 14.448 1.594 14.547 8.952z" fill="#FFB573"/><path d="M355.565 171.887c-2.041 2.557 2.608 10.612 6.267 11.984 7.117-2.346-.178-19.614-6.267-11.984z" fill="#263238"/><path d="M346.852 168.459c-2.707 1.191-5.246 6.277-5.577 8.177 4.023.302 14.389-4.35 14.389-4.35s7.306 1.346 3.375-1.955c-3.93-3.3-12.187-1.872-12.187-1.872zM349.567 181.764c.045.596-.235 1.104-.625 1.133-.389.028-.742-.431-.786-1.027-.045-.596.235-1.104.625-1.133.389-.03.742.431.786 1.027zM342.825 182.269c.045.596-.235 1.104-.625 1.133-.389.028-.742-.431-.786-1.027-.045-.596.235-1.104.625-1.133.389-.029.742.431.786 1.027z" fill="#263238"/><path d="m342.214 181.263-1.464-.306s.818 1.063 1.464.306z" fill="#263238"/><path d="M345.684 183.014s-.819 2.644-1.841 3.966c.842.676 2.156.24 2.156.24l-.315-4.206z" fill="#ED893E"/><path d="M349.428 189.312a5.871 5.871 0 0 1-.874.132.174.174 0 0 1-.188-.162.18.18 0 0 1 .162-.188c2.625-.197 3.703-2.117 3.713-2.135a.176.176 0 1 1 .308.17c-.042.074-.949 1.68-3.121 2.183z" fill="#263238"/><path d="M364.293 185.338c-.414 1.468-1.468 2.608-2.571 3.204-1.66.895-2.903-.489-2.789-2.273.104-1.605 1.091-4.006 2.924-4.166 1.805-.158 2.908 1.555 2.436 3.235z" fill="#FFB573"/><path d="M352.87 180.014a.352.352 0 0 1-.38-.161c-.84-1.392-2.926-1.557-2.946-1.558a.352.352 0 1 1 .05-.701c.1.007 2.472.196 3.498 1.895a.353.353 0 0 1-.222.525zM341.267 179.133a.352.352 0 0 1-.324-.596c1.403-1.344 2.987-.995 3.053-.98a.353.353 0 0 1-.158.686c-.052-.011-1.289-.272-2.409.801a.347.347 0 0 1-.162.089zM348.955 180.757l-1.464-.306s.82 1.065 1.464.306z" fill="#263238"/><path d="m322.821 207.925.696 2.179a2.661 2.661 0 0 0 1.724 1.724l3.828 1.227a4.96 4.96 0 0 0 4.49-.756l.796-.597c-.908-3.693-4.611-7.014-4.611-7.014l-.95-1.064c-.847-.946-2.213-1.056-3.14-.25l-2.132 1.856c-.737.64-1.016 1.713-.701 2.695zM297.073 209.92l.697 2.179c.262.82.903 1.462 1.723 1.725l3.829 1.226a4.96 4.96 0 0 0 4.49-.755l.796-.597c-.909-3.693-4.611-7.014-4.611-7.014l-.951-1.064c-.846-.947-2.213-1.056-3.139-.25l-2.133 1.855c-.736.641-1.015 1.713-.701 2.695z" fill="#EBB376"/><path opacity=".2" d="M352.655 221.601c1.849 5.449 6.57 9.514 11.089 11.918 1.079-4.242 2.615-9.408 4.726-15.749-2.834-3.967-6.808-6.784-11.861-6.022 0 0-5.827 4.334-3.954 9.853z" fill="#000"/><path d="m250.605 329.724 4.853 1.96s41.252-62.223 45.069-59.885c13.83 8.471 42.259 23.612 55.714 14.444 13.453-9.16 5.468-33.341 5.468-33.341s-26.165-9.183-29.398-3.506c-.628 1.098-1.516 3.32-2.223 5.231-.677 1.8-1.196 3.32-1.196 3.32s-.009-.002-.016-.012c-.792-.376-26.441-12.714-38.52-7.632-12.271 5.171-39.751 79.421-39.751 79.421z" fill="#EBB376"/><path d="M340.051 289.564s-12.975.848-30.747-5.19c0 0-4.381 49.551-7.322 76.442l-5.96-.839s-10.126-73.408-8.123-82.357c2.004-8.95 12.835-9.537 12.835-9.537s20.738 15.216 39.317 21.481z" fill="#EBB376"/><path d="M340.051 289.564c-.29-.058-12.976.473-25.951-3.208l1.688-7.049c6.542 4.306 15.647 6.934 24.263 10.257z" fill="url(#k)"/><path opacity=".4" d="M340.051 289.564c-.29-.058-12.976.473-25.951-3.208l1.688-7.049c6.542 4.306 15.647 6.934 24.263 10.257z" fill="#fff"/><path d="m314.693 278.573-1.556 7.846 2.367.806 1.82-6.927-2.631-1.725z" fill="url(#l)"/><path opacity=".6" d="m314.693 278.573-1.556 7.846 2.367.806 1.82-6.927-2.631-1.725z" fill="#fff"/><path opacity=".2" d="M290.052 308.827c-.937-19.5-1.34-29.611 1.868-33.645 3.207-4.032 8.23-4.759 8.23-4.759 4.163 10.555 22.343 17.144 22.819 17.32l.008.002c6.783 1.409 16.827 1.77 17.073 1.819-10.291-2.125-17.722-5.951-24.264-10.258-9.049-5.962-15.055-11.22-15.055-11.22s-10.831.587-12.835 9.537c-.816 3.658.396 18.097 2.105 33.893a23.34 23.34 0 0 0 .051-2.689z" fill="#000"/><path d="M245.756 325.637c-.09-.185-.13-.488.185-.877a.878.878 0 0 1 .631-.32c.5-.046 1.152.235 1.752.587-.456-.602-.804-1.239-.647-1.641.103-.261.364-.396.778-.4.388-.004.716.136.975.418.814.883.641 2.901.632 2.996a.222.222 0 0 1-.066.138.242.242 0 0 1-.069.045h-.001a.215.215 0 0 1-.077.014c-.357.005-1.571.003-2.594-.201-.7-.138-1.311-.371-1.499-.759zm.854-.767a.456.456 0 0 0-.333.162c-.209.258-.152.377-.133.416.218.45 1.771.669 3.081.71-.747-.57-1.935-1.35-2.615-1.288zm1.849-1.451c-.124.001-.338.019-.38.126-.135.344.662 1.413 1.571 2.34.003-.618-.067-1.676-.538-2.188a.82.82 0 0 0-.653-.278zM290.206 355.731c-.16-.128-.327-.384-.209-.871a.877.877 0 0 1 .431-.56c.432-.255 1.14-.281 1.834-.223-.669-.348-1.259-.773-1.289-1.202-.019-.28.159-.515.531-.696.348-.17.705-.183 1.059-.042 1.116.448 1.827 2.348 1.859 2.434a.211.211 0 0 1 .001.148v.001a.211.211 0 0 1-.049.076.206.206 0 0 1-.052.04l-.007.004c-.435.213-2.268 1.078-3.411 1.078-.288.002-.532-.053-.698-.187zm.442-1.058a.455.455 0 0 0-.231.288c-.078.323.025.406.059.433.388.311 1.886-.157 3.087-.682-.92-.193-2.329-.387-2.915-.039zm1.045-2.105c-.112.054-.297.162-.289.277.026.368 1.204.991 2.423 1.438-.262-.56-.78-1.486-1.425-1.744a.85.85 0 0 0-.709.029z" fill="#263238"/><path d="M258.52 329.588c.265-.612-7.396-3.569-7.396-3.569s-6.726 2.545-11.655 1.541c-4.93-1.005-3.676 2.81 1.295 5.103l12.296 5.67c3.532 1.628 2.711-2.398 5.46-8.745zM303.429 353.816c-.023-.667-8.212-.046-8.212-.046s-4.98 5.189-9.863 6.399c-4.884 1.211-2.112 4.117 3.362 4.052 5.473-.067 9.65-.117 13.539-.163 3.889-.047 1.419-3.331 1.174-10.242z" fill="#263238"/><path d="M361.708 252.901s-26.166-9.183-29.399-3.506c-.627 1.098-1.516 3.32-2.223 5.231-.676 1.8-1.196 3.32-1.196 3.32s-.009-.002-.016-.012l-2.146-.985-8.768 26.162c13.936 7.731 33.643 8.629 41.713 3.131 13.454-9.159 2.035-33.341 2.035-33.341z" fill="url(#m)"/><path d="M361.708 252.901s-26.166-9.183-29.399-3.506c-.627 1.098-1.516 3.32-2.223 5.231-.676 1.8-1.196 3.32-1.196 3.32s-.009-.002-.016-.012l-2.146-.985-8.768 26.162c13.936 7.731 33.643 8.629 41.713 3.131 13.454-9.159 2.035-33.341 2.035-33.341z" fill="#fff" opacity=".4"/><path opacity=".3" d="m328.89 257.946 15.099 6.406s-7.751-6.536-13.903-9.725c-.675 1.799-1.196 3.319-1.196 3.319z" fill="#000"/><path d="m331.937 250.115.529-6.459 29.242 3.887.387 6.234-30.158-3.662z" fill="url(#n)"/><path opacity=".4" d="m331.937 250.115.529-6.459 29.242 3.887.387 6.234-30.158-3.662z" fill="#fff"/><path d="m332.524 244.289 1.526.223-.474 5.031-1.265-.149.213-5.105zM335.501 244.716l16.489 2.4-.428 4.575-16.526-1.971.465-5.004zM361.708 252.9l-8.687-1.032.42-4.538h.008l7.841 1.134.418 4.436z" fill="#263238"/><path opacity=".2" d="m332.524 244.289 1.526.223-.474 5.031-1.265-.149.213-5.105zM335.501 244.716l16.489 2.4-.428 4.575-16.526-1.971.465-5.004zM361.708 252.9l-8.687-1.032.42-4.538h.008l7.841 1.134.418 4.436z" fill="#000"/><path d="m339.425 250.329 4.696.622a.871.871 0 0 0 .979-.749l.416-3.145a.87.87 0 0 0-.749-.978l-4.697-.622a.87.87 0 0 0-.978.749l-.417 3.145a.871.871 0 0 0 .75.978zM342.796 248.204l1.655.262" stroke="#fff" stroke-miterlimit="10" stroke-linecap="round" stroke-linejoin="round"/><path d="m325.476 255.141 2.438 1.286-8.267 28.102-3.471-.688 9.3-28.7z" fill="url(#o)"/><path opacity=".6" d="m325.476 255.141 2.438 1.286-8.267 28.102-3.471-.688 9.3-28.7z" fill="#fff"/><path d="M323.526 226.767h-20.49c-.79 0-1.485-.642-1.554-1.435l-2.852-27.195c-.069-.793.516-1.436 1.305-1.436h20.49c.79 0 1.485.643 1.554 1.436l2.853 27.195c.067.793-.517 1.435-1.306 1.435z" fill="#263238"/><path opacity=".6" d="M323.526 226.767h-20.49c-.79 0-1.485-.642-1.554-1.435l-2.852-27.195c-.069-.793.516-1.436 1.305-1.436h20.49c.79 0 1.485.643 1.554 1.436l2.853 27.195c.067.793-.517 1.435-1.306 1.435z" fill="#fff"/><path opacity=".2" d="M322.669 226.767h-19.633c-.79 0-1.485-.642-1.554-1.435l-2.852-27.195c-.069-.793.516-1.436 1.305-1.436h19.633c.79 0 1.486.643 1.554 1.436l2.854 27.195c.067.793-.517 1.435-1.307 1.435z" fill="#fff"/><path d="M310.723 209.511c-1.222 0-2.127.995-2.021 2.224.106 1.228 1.183 2.224 2.406 2.224s2.127-.996 2.02-2.224c-1.222 0-2.299-.996-2.405-2.224z" fill="#263238"/><path opacity=".3" d="M315.157 198.861h-10.823a1.436 1.436 0 0 1-1.27-.818l-.648-1.342h14.285l-.416 1.342a1.16 1.16 0 0 1-1.128.818z" fill="#000"/><path d="M367.4 261.103h-3.804s-4.752-14.266-7.524-26.356c-.828-3.562-1.469-6.938-1.776-9.7a27.796 27.796 0 0 1 .921-10.769c1.711-5.943 4.817-9.505 4.817-9.505l-.772-.047c7.198-.074 11.086 2.418 11.569 6.901.493 4.473-7.477 31.081-7.849 34.633-.362 3.562 4.418 14.843 4.418 14.843z" fill="url(#p)"/><path d="M342.83 204.223s-7.611 11.995-9.649 17.098c-2.04 5.103-.87 19.694-.87 19.694s-3.897-17.563-1.388-26.271c2.506-8.706 6.837-10.496 11.907-10.521z" fill="url(#q)"/><path d="M368.915 215.036c-2.325 3.486-4.752 6.617-7.675 9.685-1.469 1.525-3.019 3.005-4.982 4.403-.996.693-2.069 1.394-3.592 1.951-.768.271-1.674.516-2.806.551-.581.003-1.189-.034-1.843-.202a6.933 6.933 0 0 1-.922-.3l-.486-.225c-1.274-.61-2.271-1.297-3.182-2.011a30.796 30.796 0 0 1-2.491-2.193c-1.534-1.495-2.877-3.057-4.153-4.643-2.543-3.19-4.725-6.492-6.711-10.026a2.315 2.315 0 0 1 3.683-2.743l.048.052c2.629 2.724 5.362 5.462 8.087 7.993a59.728 59.728 0 0 0 4.15 3.54c1.358 1.065 2.858 2.001 3.905 2.376l.184.065c-.012-.019-.164-.065-.226-.088-.182-.044-.299-.072-.395-.071-.159-.016-.114-.022.023-.102a9.842 9.842 0 0 0 1.42-.997c1.143-.947 2.356-2.227 3.526-3.553 2.322-2.676 4.64-5.729 6.729-8.643l.072-.101a4.646 4.646 0 0 1 6.481-1.068 4.651 4.651 0 0 1 1.156 6.35z" fill="#E9B376"/><path opacity=".2" d="M367.902 218.481s-6.696 11.42-11.83 16.266c-.828-3.562-1.469-6.938-1.776-9.7a27.796 27.796 0 0 1 .921-10.769c2.129-1.749 4.231-3.488 5.301-4.371 2.641-2.205 7.384 8.574 7.384 8.574z" fill="#000"/><path d="M368.381 207.913c3.504 1.888 2.443 6.954-2.151 12.964-4.594 6.009-12.908 14.125-17.275 12.642-4.366-1.482-9.309-7.288-9.309-7.288l3.184-9.003s6.265 4.753 7.569 4.507c1.304-.245 7.678-8.494 9.519-11.054 1.841-2.559 4.661-4.817 8.463-2.768z" fill="url(#r)"/><path d="m303.024 208.444-.133 1.784a2.049 2.049 0 0 1-1.741 1.873l-2.426.36.573-6.548 2.027.36a2.05 2.05 0 0 1 1.7 2.171z" fill="#FFB573"/><defs><linearGradient id="j" x1="309.322" y1="217.227" x2="338.941" y2="217.375" gradientUnits="userSpaceOnUse"><stop stop-color="#E34C98"/><stop offset="1" stop-color="#7C1E84"/></linearGradient><linearGradient id="a" x1="257.952" y1="352.678" x2="257.952" y2="374.03" gradientUnits="userSpaceOnUse"><stop stop-color="#fff" stop-opacity=".08"/><stop offset="1" stop-color="#fff" stop-opacity=".17"/></linearGradient><linearGradient id="c" x1="112.131" y1="343.519" x2="156.415" y2="345.244" gradientUnits="userSpaceOnUse"><stop stop-color="#E34C98"/><stop offset="1" stop-color="#7C1E84"/></linearGradient><linearGradient id="d" x1="417.159" y1="135.196" x2="435.314" y2="135.248" gradientUnits="userSpaceOnUse"><stop stop-color="#E34C98"/><stop offset="1" stop-color="#7C1E84"/></linearGradient><linearGradient id="e" x1="132.991" y1="178.299" x2="269.031" y2="178.72" gradientUnits="userSpaceOnUse"><stop stop-color="#E34C98"/><stop offset="1" stop-color="#7C1E84"/></linearGradient><linearGradient id="f" x1="182.727" y1="135.484" x2="219.267" y2="135.638" gradientUnits="userSpaceOnUse"><stop stop-color="#E34C98"/><stop offset="1" stop-color="#7C1E84"/></linearGradient><linearGradient id="g" x1="156.597" y1="220.078" x2="245.358" y2="222.258" gradientUnits="userSpaceOnUse"><stop stop-color="#E34C98"/><stop offset="1" stop-color="#7C1E84"/></linearGradient><linearGradient id="h" x1="330.598" y1="135.625" x2="373.781" y2="135.791" gradientUnits="userSpaceOnUse"><stop stop-color="#E34C98"/><stop offset="1" stop-color="#7C1E84"/></linearGradient><linearGradient id="i" x1="342.803" y1="141.231" x2="361.639" y2="122.553" gradientUnits="userSpaceOnUse"><stop stop-color="#E34C98"/><stop offset="1" stop-color="#7C1E84"/></linearGradient><linearGradient id="b" x1="113.539" y1="352.927" x2="155.071" y2="353.248" gradientUnits="userSpaceOnUse"><stop stop-color="#E34C98"/><stop offset="1" stop-color="#7C1E84"/></linearGradient><linearGradient id="k" x1="314.1" y1="284.435" x2="340.055" y2="284.712" gradientUnits="userSpaceOnUse"><stop stop-color="#E34C98"/><stop offset="1" stop-color="#7C1E84"/></linearGradient><linearGradient id="l" x1="313.137" y1="282.899" x2="317.325" y2="282.907" gradientUnits="userSpaceOnUse"><stop stop-color="#E34C98"/><stop offset="1" stop-color="#7C1E84"/></linearGradient><linearGradient id="m" x1="317.96" y1="268.648" x2="366.242" y2="268.88" gradientUnits="userSpaceOnUse"><stop stop-color="#E34C98"/><stop offset="1" stop-color="#7C1E84"/></linearGradient><linearGradient id="n" x1="331.937" y1="248.717" x2="362.099" y2="249.095" gradientUnits="userSpaceOnUse"><stop stop-color="#E34C98"/><stop offset="1" stop-color="#7C1E84"/></linearGradient><linearGradient id="o" x1="316.176" y1="269.835" x2="327.917" y2="269.855" gradientUnits="userSpaceOnUse"><stop stop-color="#E34C98"/><stop offset="1" stop-color="#7C1E84"/></linearGradient><linearGradient id="p" x1="354.126" y1="232.914" x2="370.858" y2="232.935" gradientUnits="userSpaceOnUse"><stop stop-color="#E34C98"/><stop offset="1" stop-color="#7C1E84"/></linearGradient><linearGradient id="q" x1="330.081" y1="222.619" x2="342.834" y2="222.638" gradientUnits="userSpaceOnUse"><stop stop-color="#E34C98"/><stop offset="1" stop-color="#7C1E84"/></linearGradient><linearGradient id="r" x1="339.646" y1="220.406" x2="370.469" y2="220.557" gradientUnits="userSpaceOnUse"><stop stop-color="#E34C98"/><stop offset="1" stop-color="#7C1E84"/></linearGradient></defs></svg>