<svg width="433" height="437" fill="none" xmlns="http://www.w3.org/2000/svg"><rect x="33" y="200.777" width="200" height="399" rx="9.5" transform="rotate(-90 33 200.777)" fill="#1B1C24" stroke="url(#a)"/><path d="m426.5 321.737-7.491-110.395-9.439-10.635-13.101-49.996-11.166-10.635-1.923-18.5-10.249-8.116-5.023-37.387-8.313 2.77-2.245 15.572-9.134 3.444-10.725 36.761-13.383 7.484-11.04 35.783-14.503 9.765-43.65 135.508 171.385-1.423z" fill="#E0E0E0"/><path d="m422.612 264.434-21.438-15.767-9.429-34.172-11.795-1.966-7.877-28.508-8.806 1.966-7.262 14.72-13.737 2.646-11.469-35.343-10.485.939-7.743-22.557-6.347 6.945-4.915 13.646-10.813 3.932-8.192 17.936-16.382 3.014-33.182 131.296 193.76-1.424-3.888-57.303z" fill="#F0F0F0"/><path d="m287.458 436.394-99.553-155.303-74.573 43.208-22.408 10.705-73.091 43.284 269.625 58.106z" fill="#E0E0E0"/><path d="m405.975 413.766-69.979-109.167-52.42 30.372-15.752 7.525-51.377 30.426 189.528 40.844z" fill="#E0E0E0"/><path d="M77.476 76.898c-1-.453-2.191-.495-3.052-.563-.987-.078-1.3-.274-1.49-.487-2.403-3.439-6.374-3.57-8.744-2.584-.581-2.366-3.443-4.42-6.594-3.727.108-3.074-3.817-6.377-7.343-7.127-3.382-.72-6.33-.418-8.26 1.806-2.065-4.033-10.162-5.17-14.544-3.036-2.52 1.226-4.657 2.486-5.702 4.795-.69 1.525-.936 2.54-.948 4.591-1.708-1.505-5.127-1.912-7.408-1.03-2.459.952-2.646 2.805-2.766 4.69-2.411-.607-4.025-.214-4.476-.08-1.55.459-2.443 1.674-2.23 2.657-1.225-.068-4.146.923-3.81 2.217.377 1.452 3.712 1.305 4.957 1.26 1.031-.038 2.367-.314 3.487-.548.34.168 1.244.349 1.813.344 2.123-.015 3.023-.925 3.364-1.715 1.036 2.182 4.724 3.845 7.331 4.512 4.91 1.256 11.857.49 14.88-3.179.316.66.846 1.275 1.462 1.782 1.2.988 2.82 1.68 4.542 1.84 2.016.19 7.427.448 8.951-2.758 1.08 2.131 5.897 3.102 9.56 2.582 1.37-.195 2.908-.67 4.101-1.238.963-.459 1.509-.904 2.358-1.414.721-.433 1.047-.428 2.01-.138 2.514.759 5.433 1.068 7.998-.008 2.046-.86 2.473-2.573.553-3.444z" fill="#F0F0F0"/><path d="M326.214 90.696c-.964-.437-2.113-.478-2.941-.543-.952-.076-1.255-.264-1.438-.47-2.317-3.315-6.144-3.442-8.43-2.492-.56-2.28-3.32-4.26-6.357-3.594.104-2.963-3.68-6.147-7.079-6.87-3.261-.695-6.103-.403-7.963 1.74-1.991-3.888-9.797-4.984-14.021-2.926-2.429 1.183-4.49 2.396-5.498 4.623-.664 1.469-.902 2.447-.915 4.425-1.646-1.45-4.943-1.843-7.141-.993-2.371.917-2.55 2.704-2.667 4.522-2.324-.586-3.879-.207-4.316-.078-1.493.442-2.354 1.614-2.149 2.563-1.181-.066-3.997.889-3.673 2.137.363 1.4 3.578 1.26 4.779 1.215.994-.037 2.281-.304 3.361-.529.328.162 1.2.336 1.748.332 2.047-.014 2.914-.891 3.243-1.653.999 2.103 4.554 3.706 7.068 4.35 4.733 1.211 11.431.473 14.346-3.065.305.637.817 1.23 1.409 1.718 1.157.952 2.719 1.619 4.38 1.774 1.943.182 7.16.432 8.63-2.66 1.041 2.056 5.684 2.991 9.216 2.49a14.498 14.498 0 0 0 3.955-1.194c.928-.442 1.454-.872 2.273-1.364.695-.417 1.01-.412 1.938-.132 2.423.73 5.237 1.029 7.71-.009 1.972-.826 2.384-2.478.532-3.317z" fill="#F5F5F5"/><path d="M121.712 200.863c-1.472-.618-3.203-.629-4.454-.692-1.438-.073-1.901-.344-2.186-.646-3.632-4.894-9.406-4.921-12.808-3.391-.942-3.412-5.184-6.276-9.731-5.141.03-4.469-5.808-9.104-10.961-10.048-4.943-.905-9.212-.344-11.922 2.966-3.168-5.774-14.975-7.089-21.25-3.808-3.61 1.887-6.662 3.805-8.084 7.202-.939 2.242-1.255 3.727-1.189 6.707-2.542-2.114-7.525-2.565-10.802-1.189-3.532 1.483-3.726 4.183-3.824 6.927-3.526-.783-5.853-.145-6.505.067-2.231.731-3.478 2.535-3.129 3.954-1.783-.048-5.983 1.511-5.442 3.378.607 2.094 5.445 1.742 7.252 1.624 1.497-.097 3.424-.554 5.042-.939.502.231 1.822.455 2.647.425 3.084-.11 4.352-1.468 4.815-2.631 1.596 3.127 7.021 5.389 10.835 6.25 7.184 1.622 17.242.221 21.48-5.233.488.945 1.284 1.816 2.2 2.526 1.783 1.386 4.164 2.323 6.673 2.485 2.936.19 10.805.343 12.888-4.377 1.656 3.051 8.692 4.261 13.992 3.353 1.981-.339 4.196-1.093 5.906-1.967 1.378-.705 2.154-1.377 3.367-2.152 1.03-.659 1.503-.664 2.913-.283 3.683.997 7.934 1.325 11.617-.343 2.937-1.332 3.486-3.84.66-5.024zM314.509 252.089c-1.18-.507-2.572-.529-3.578-.589-1.156-.068-1.526-.29-1.753-.535-2.886-3.963-7.529-4.026-10.277-2.821-.733-2.751-4.122-5.085-7.789-4.205.055-3.594-4.605-7.364-8.742-8.161-3.969-.765-7.406-.344-9.61 2.298-2.505-4.666-11.992-5.81-17.063-3.217-2.916 1.491-5.384 3.011-6.553 5.733-.771 1.797-1.036 2.988-1.005 5.385-2.029-1.719-6.034-2.118-8.679-1.035-2.851 1.167-3.027 3.337-3.126 5.543-2.831-.655-4.707-.159-5.232.007-1.8.572-2.816 2.013-2.545 3.157-1.433-.052-4.823 1.171-4.402 2.676.474 1.689 4.367 1.442 5.821 1.36 1.204-.068 2.759-.421 4.062-.719.401.189 1.461.378 2.126.361 2.482-.066 3.511-1.15 3.892-2.081 1.26 2.526 5.607 4.385 8.669 5.105 5.765 1.357 13.864.304 17.314-4.052.385.765 1.019 1.47 1.749 2.049 1.425 1.127 3.332 1.898 5.35 2.047 2.359.174 8.688.353 10.396-3.427 1.309 2.466 6.96 3.491 11.229 2.799a17.563 17.563 0 0 0 4.764-1.54c1.114-.557 1.743-1.091 2.723-1.706.834-.522 1.214-.523 2.346-.207 2.954.829 6.371 1.124 9.344-.192 2.373-1.047 2.833-3.059.569-4.033z" fill="#EBEBEB"/><path d="M125.476 42.65c-.634-.288-1.388-.314-1.933-.358-.626-.05-.824-.174-.945-.309-1.521-2.178-4.037-2.26-5.539-1.636-.368-1.499-2.18-2.8-4.176-2.362.069-1.946-2.418-4.039-4.651-4.514-2.142-.456-4.009-.264-5.232 1.144-1.309-2.555-6.438-3.275-9.213-1.923-1.596.777-2.95 1.575-3.612 3.037-.437.965-.593 1.608-.6 2.907-1.082-.953-3.248-1.21-4.693-.652-1.558.603-1.676 1.777-1.753 2.97-1.527-.384-2.549-.135-2.835-.05-.981.29-1.547 1.06-1.413 1.683-.777-.044-2.626.584-2.413 1.404.239.92 2.35.827 3.14.798.652-.024 1.498-.199 2.208-.347.216.107.789.22 1.149.219 1.344-.01 1.914-.586 2.13-1.086.657 1.382 2.993 2.434 4.644 2.857 3.11.797 7.51.311 9.424-2.013.201.419.537.807.927 1.128a5.375 5.375 0 0 0 2.877 1.166c1.277.12 4.705.284 5.67-1.747.684 1.35 3.735 1.965 6.055 1.636a9.52 9.52 0 0 0 2.599-.784c.609-.29.956-.573 1.493-.896.458-.274.664-.271 1.274-.087 1.592.48 3.441.676 5.065-.006 1.299-.542 1.569-1.628.353-2.18zM275.993 122.63c-.595-.27-1.301-.294-1.813-.335-.587-.046-.773-.162-.885-.289-1.427-2.042-3.785-2.12-5.193-1.534-.345-1.406-2.045-2.625-3.917-2.214.065-1.825-2.266-3.787-4.36-4.232-2.009-.428-3.76-.248-4.906 1.072-1.227-2.396-6.036-3.071-8.638-1.803-1.496.729-2.766 1.477-3.387 2.848-.409.905-.556 1.509-.564 2.727-1.013-.894-3.044-1.135-4.399-.612-1.46.565-1.571 1.666-1.644 2.786-1.431-.361-2.39-.128-2.659-.049-.919.273-1.45.995-1.324 1.579-.728-.041-2.463.548-2.263 1.316.225.863 2.205.776 2.945.749.612-.022 1.405-.187 2.071-.326.203.1.739.208 1.077.205 1.261-.009 1.795-.55 1.998-1.018.615 1.295 2.805 2.283 4.354 2.679 2.915.747 7.042.291 8.838-1.888.187.393.503.757.868 1.059a5.046 5.046 0 0 0 2.698 1.092c1.197.112 4.411.266 5.317-1.638.641 1.265 3.502 1.842 5.678 1.533a8.924 8.924 0 0 0 2.435-.735c.572-.272.897-.538 1.401-.84.429-.258.622-.254 1.194-.082 1.493.45 3.226.634 4.75-.005 1.215-.51 1.469-1.528.328-2.045z" fill="#F5F5F5"/><g opacity=".2"><path d="M367.237 30.157a.346.346 0 0 1-.346-.346V17.749a.346.346 0 0 1 .692 0v12.062a.346.346 0 0 1-.346.346z" fill="url(#b)"/><path d="M360.949 83.238a.346.346 0 0 1-.346-.346V70.831a.346.346 0 0 1 .692 0v12.061a.344.344 0 0 1-.346.346z" fill="url(#c)"/><path d="M374.223 36.687a.347.347 0 0 1-.3-.519l4.523-7.834a.35.35 0 0 1 .473-.127.347.347 0 0 1 .127.473l-4.523 7.834a.348.348 0 0 1-.3.173z" fill="url(#d)"/><path d="M349.439 72.482a.347.347 0 0 1-.299-.519l4.522-7.835a.347.347 0 0 1 .6.346l-4.522 7.835a.347.347 0 0 1-.301.173z" fill="url(#e)"/><path d="M379.337 46.459a.345.345 0 0 1-.065-.685l7.834-1.508a.343.343 0 0 1 .406.273.347.347 0 0 1-.275.404l-7.834 1.509a.328.328 0 0 1-.066.007z" fill="url(#f)"/><path d="M341.014 56.383a.347.347 0 0 1-.339-.28.346.346 0 0 1 .274-.405l7.835-1.508a.342.342 0 0 1 .405.275.348.348 0 0 1-.274.405l-7.835 1.508a.536.536 0 0 1-.066.005z" fill="url(#g)"/><path d="M390.256 62.078a.345.345 0 0 1-.173-.047l-9.046-5.222a.346.346 0 0 1 .345-.6l9.046 5.223a.347.347 0 0 1 .128.473.348.348 0 0 1-.3.173z" fill="url(#h)"/><path d="M346.977 44.479a.342.342 0 0 1-.173-.047l-9.047-5.223a.346.346 0 0 1-.128-.472.35.35 0 0 1 .473-.127l9.047 5.223a.347.347 0 0 1-.172.646z" fill="url(#i)"/><path d="M385.463 76.576a.347.347 0 0 1-.278-.14l-7.835-10.555a.347.347 0 0 1 .556-.412l7.834 10.555a.346.346 0 0 1-.277.552z" fill="url(#j)"/><path d="M351.389 34.093a.346.346 0 0 1-.278-.14L343.276 23.4a.346.346 0 0 1 .556-.412l7.835 10.555a.346.346 0 0 1-.278.551z" fill="url(#k)"/><path d="M375 83.62a.347.347 0 0 1-.328-.232L370.15 70.33a.346.346 0 0 1 .654-.227l4.523 13.057a.348.348 0 0 1-.327.46z" fill="url(#l)"/><path d="M358.541 29.552a.346.346 0 0 1-.327-.232l-4.523-13.058a.348.348 0 0 1 .213-.44.345.345 0 0 1 .441.213l4.523 13.058a.348.348 0 0 1-.327.46z" fill="url(#m)"/></g><path d="m354.993 35.871-.886-1.85 3.878-2.236c.46-.265.947-.471 1.463-.611.178-.047.359-.087.543-.119.853-.148 1.767-.128 2.73.074.323.067.652.156.984.265.334.107.673.238 1.017.391.43.188.865.41 1.306.669a16.906 16.906 0 0 1 2.357 1.679c4.814 4.062 8.601 11.304 9.563 18.27.067.475.118.947.156 1.416.057.674.085 1.342.083 2.002a21.4 21.4 0 0 1-.064 1.569 15.982 15.982 0 0 1-.377 2.448v.001c-.265 1.13-.646 2.13-1.125 2.988-.105.185-.212.364-.324.536a7.218 7.218 0 0 1-1.719 1.857c-.203.153-.414.29-.632.414l-3.665 2.117-.812-1.693a8.913 8.913 0 0 1-.652-.17 11.866 11.866 0 0 1-2.551-1.13 15.788 15.788 0 0 1-1.498-.997c-.63-.47-1.246-.995-1.841-1.569-4.018-3.866-7.182-9.915-8.341-15.937a26.818 26.818 0 0 1-.379-2.673 23.59 23.59 0 0 1-.098-2.194c.004-1.115.092-2.156.257-3.113.146-.87.359-1.672.627-2.404z" fill="url(#n)"/><path opacity=".25" d="m377.062 48.286-7.866 4.543-1.036-2.993 7.876-4.548c.39.984.734 1.986 1.026 2.998zM357.985 31.786a6.12 6.12 0 0 1 2.006-.73c.853-.148 1.767-.128 2.73.074.119.025.24.056.361.087l-8.094 4.675a.079.079 0 0 0 .006-.02l-.886-1.85 3.877-2.236zM358.828 43.274l-1.037-1.246 11.797-6.79c.375.37.741.76 1.1 1.168l-11.86 6.868zM373.194 39.745l-10.218 5.9-1.126-2.94 9.516-5.496a28.302 28.302 0 0 1 1.828 2.536z" fill="#fff"/><path opacity=".4" d="M357.985 31.786a6.12 6.12 0 0 1 2.006-.73c.853-.148 1.767-.128 2.73.074.323.067.652.156.984.265.334.107.673.238 1.017.391.43.188.865.41 1.306.669a16.864 16.864 0 0 1 2.357 1.679c4.484 3.783 8.076 10.326 9.325 16.834l-16.414 9.478c-3.232-3.814-5.714-9.01-6.711-14.19a26.818 26.818 0 0 1-.379-2.672 23.59 23.59 0 0 1-.098-2.194c.004-1.115.092-2.156.257-3.114.148-.871.361-1.673.63-2.405l-.886-1.85 3.876-2.235z" fill="#fff"/><path opacity=".1" d="m370.28 67.753-.812-1.693a8.964 8.964 0 0 1-.652-.17 11.871 11.871 0 0 1-2.551-1.13 15.827 15.827 0 0 1-1.498-.997c-.63-.47-1.245-.995-1.841-1.569a23.744 23.744 0 0 1-1.63-1.747l16.414-9.478c.092.479.172.958.238 1.436.067.475.118.947.156 1.416.057.674.085 1.342.083 2.002-.003.54-.024 1.064-.064 1.569a15.993 15.993 0 0 1-.377 2.448v.001c-.265 1.13-.646 2.13-1.125 2.987-.105.185-.212.365-.324.537a7.216 7.216 0 0 1-1.719 1.857c-.203.153-.414.29-.632.414l-3.666 2.117z" fill="#000"/><path opacity=".1" d="M376.62 62.83a9.692 9.692 0 0 1-.324.536 7.218 7.218 0 0 1-1.719 1.857c-.203.153-.414.29-.632.414l-3.665 2.117-.812-1.693c-.011-.003-.021-.006-.033-.007l-.058-.694 8.152-4.709c-.242.803-.547 1.531-.909 2.178z" fill="#000"/><path d="M349.96 43.784c-.003.723.032 1.456.098 2.195.08.884.206 1.778.379 2.673 1.159 6.021 4.323 12.07 8.341 15.937.596.574 1.21 1.098 1.841 1.569.491.367.99.7 1.498.996.874.51 1.728.884 2.551 1.13.95.286 1.857.4 2.711.353a6.094 6.094 0 0 0 3.392-1.216 7.228 7.228 0 0 0 1.718-1.857c.113-.171.221-.351.324-.536.48-.858.861-1.857 1.126-2.987v-.002c.09-.379.166-.772.229-1.18.063-.408.113-.83.148-1.269.041-.505.061-1.028.064-1.569a22.52 22.52 0 0 0-.082-2.001c-.037-.47-.089-.942-.156-1.417-.962-6.966-4.748-14.208-9.562-18.271-.328-.278-.66-.54-.996-.785a15.793 15.793 0 0 0-1.362-.894 12.6 12.6 0 0 0-1.305-.669 10.177 10.177 0 0 0-2.001-.655c-.962-.203-1.877-.222-2.729-.075a6.12 6.12 0 0 0-2.681 1.176c-.974.746-1.783 1.805-2.38 3.149a12.897 12.897 0 0 0-.909 3.092 18.756 18.756 0 0 0-.257 3.113z" fill="url(#o)"/><path opacity=".1" d="M349.96 43.784c-.003.723.032 1.456.098 2.195.08.884.206 1.778.379 2.673 1.159 6.021 4.323 12.07 8.341 15.937.596.574 1.21 1.098 1.841 1.569.491.367.99.7 1.498.996.874.51 1.728.884 2.551 1.13.95.286 1.857.4 2.711.353a6.094 6.094 0 0 0 3.392-1.216 7.228 7.228 0 0 0 1.718-1.857c.113-.171.221-.351.324-.536.48-.858.861-1.857 1.126-2.987v-.002c.09-.379.166-.772.229-1.18.063-.408.113-.83.148-1.269.041-.505.061-1.028.064-1.569a22.52 22.52 0 0 0-.082-2.001c-.037-.47-.089-.942-.156-1.417-.962-6.966-4.748-14.208-9.562-18.271-.328-.278-.66-.54-.996-.785a15.793 15.793 0 0 0-1.362-.894 12.6 12.6 0 0 0-1.305-.669 10.177 10.177 0 0 0-2.001-.655c-.962-.203-1.877-.222-2.729-.075a6.12 6.12 0 0 0-2.681 1.176c-.974.746-1.783 1.805-2.38 3.149a12.897 12.897 0 0 0-.909 3.092 18.756 18.756 0 0 0-.257 3.113z" fill="#fff"/><path opacity=".05" d="M373.902 53.157a27.185 27.185 0 0 1 .396 2.863c.057.672.085 1.342.082 2.001-.003.54-.023 1.064-.064 1.57-.035.436-.085.86-.148 1.269-.063.407-.139.8-.229 1.179v.002c-.265 1.13-.645 2.13-1.126 2.987a9.683 9.683 0 0 1-.323.536 7.213 7.213 0 0 1-1.719 1.857 6.101 6.101 0 0 1-3.392 1.216c-.854.048-1.761-.068-2.711-.352a11.821 11.821 0 0 1-2.551-1.131 15.589 15.589 0 0 1-1.332-.879l13.117-13.118z" fill="#000"/><path opacity=".05" d="M373.713 62.881c-.24.79-.542 1.507-.899 2.145a9.05 9.05 0 0 1-.324.537 7.21 7.21 0 0 1-1.718 1.856 6.074 6.074 0 0 1-2.744 1.147l5.685-5.685z" fill="#000"/><path opacity=".15" d="M372.233 47.49c.39.983.734 1.985 1.025 2.995L358.973 64.77l-.194-.181a23.576 23.576 0 0 1-1.751-1.894l15.205-15.204zM367.562 39.406a28.3 28.3 0 0 1 1.828 2.537l-15.724 15.724a33.105 33.105 0 0 1-1.397-2.967l15.293-15.294zM365.779 37.432c.377.374.747.767 1.109 1.177l-15.033 15.034a31.526 31.526 0 0 1-.586-1.702l14.51-14.509zM349.995 42.698c.016-.291.039-.575.067-.855l.029-.279c.011-.095.022-.19.035-.283.028-.206.057-.412.092-.61.196-1.153.504-2.186.908-3.093.597-1.343 1.406-2.403 2.381-3.148a6.101 6.101 0 0 1 2.68-1.176c.853-.148 1.767-.129 2.73.074.12.025.241.056.362.086l-9.284 9.284z" fill="#fff"/><path d="M353.072 45.65c0 6.428 3.747 13.847 8.488 17.004.201.133.406.262.611.38 5.025 2.902 9.097-.178 9.097-6.877 0-6.7-4.072-14.483-9.097-17.385a9.345 9.345 0 0 0-.611-.325c-4.741-2.319-8.488.777-8.488 7.203z" fill="url(#p)"/><path opacity=".4" d="M353.072 45.65c0 6.428 3.747 13.847 8.488 17.004.201.133.406.262.611.38 5.025 2.902 9.097-.178 9.097-6.877 0-6.7-4.072-14.483-9.097-17.385a9.345 9.345 0 0 0-.611-.325c-4.741-2.319-8.488.777-8.488 7.203z" fill="#000"/><path d="M353.477 45.885c0 .206.003.415.013.625.229 5.99 3.719 12.705 8.097 15.62l.119.08c.154.099.308.195.464.285.954.55 1.873.877 2.732.993 2.039.278 3.745-.616 4.802-2.446.62-1.074 1.018-2.471 1.126-4.145a15.245 15.245 0 0 0 .006-1.903 18.402 18.402 0 0 0-.221-1.975c-.767-4.628-3.238-9.349-6.376-12.183a12.943 12.943 0 0 0-1.386-1.096 10.47 10.47 0 0 0-1.267-.74 3.251 3.251 0 0 0-.164-.076c-1.302-.606-2.521-.78-3.595-.573-1.831.352-3.241 1.812-3.915 4.141-.281.984-.435 2.12-.435 3.393z" fill="url(#q)"/><path opacity=".5" d="M353.477 45.885c0 .206.003.415.013.625.229 5.99 3.719 12.705 8.097 15.62l.119.08c.154.099.308.195.464.285.954.55 1.873.877 2.732.993 2.039.278 3.745-.616 4.802-2.446.62-1.074 1.018-2.471 1.126-4.145a15.245 15.245 0 0 0 .006-1.903 18.402 18.402 0 0 0-.221-1.975c-.767-4.628-3.238-9.349-6.376-12.183a12.943 12.943 0 0 0-1.386-1.096 10.47 10.47 0 0 0-1.267-.74 3.251 3.251 0 0 0-.164-.076c-1.302-.606-2.521-.78-3.595-.573-1.831.352-3.241 1.812-3.915 4.141-.281.984-.435 2.12-.435 3.393z" fill="#000"/><path d="M354.933 45.67c-.009-.21-.013-.418-.013-.624 0-1.272.153-2.409.438-3.39.393-1.36 1.039-2.42 1.871-3.14a4.46 4.46 0 0 1 .602-.163c1.074-.208 2.292-.033 3.595.573.055.023.109.05.164.076a10.407 10.407 0 0 1 1.267.74c.474.322.937.69 1.385 1.096 3.139 2.834 5.61 7.554 6.376 12.183.11.662.185 1.322.222 1.975a14.62 14.62 0 0 1-.006 1.903c-.109 1.674-.507 3.07-1.126 4.145a5.494 5.494 0 0 1-1.144 1.409 4.742 4.742 0 0 1-2.216.198c-.859-.117-1.777-.443-2.732-.994a11.033 11.033 0 0 1-.582-.363c-4.382-2.917-7.871-9.633-8.101-15.623z" fill="url(#r)"/><path opacity=".25" d="M354.933 45.67c-.009-.21-.013-.418-.013-.624 0-1.272.153-2.409.438-3.39.393-1.36 1.039-2.42 1.871-3.14a4.46 4.46 0 0 1 .602-.163c1.074-.208 2.292-.033 3.595.573.055.023.109.05.164.076a10.407 10.407 0 0 1 1.267.74c.474.322.937.69 1.385 1.096 3.139 2.834 5.61 7.554 6.376 12.183.11.662.185 1.322.222 1.975a14.62 14.62 0 0 1-.006 1.903c-.109 1.674-.507 3.07-1.126 4.145a5.494 5.494 0 0 1-1.144 1.409 4.742 4.742 0 0 1-2.216.198c-.859-.117-1.777-.443-2.732-.994a11.033 11.033 0 0 1-.582-.363c-4.382-2.917-7.871-9.633-8.101-15.623z" fill="#000"/><path d="M356.186 33.254c5.254-.593 9.528 3.76 12.381 7.672 4.12 6.071 6.729 13.762 5.305 21.114l.002-.016c-.465 2.044-1.399 4.096-3.101 5.397 1.739-1.275 2.747-3.324 3.236-5.383l-.002.013c1.312-6.018-.337-12.341-3.092-17.726-2.948-5.328-7.947-11.796-14.729-11.07z" fill="#F5F5F5"/><path d="M368.673 56.009c-.087-2.337-1.304-3.972-2.737-5.327l.688.177 1.987-1.147a8.835 8.835 0 0 0-.357-1.27 8.68 8.68 0 0 0-1.034-1.972c-.731-1.047-1.64-1.886-2.546-2.53l-.076-2.06-2.459-1.42-1.988 1.147.016.523.004.113a2.35 2.35 0 0 0-.487.221c-.056.034-.103.069-.15.104-.232.17-1.378.768-1.837 1.043-.056.033-.103.069-.151.104-.524.385-.809 1.125-.763 2.274l-.005.003c.049 1.223.436 2.272.998 3.18.047.077.103.156.152.232l.015.026.168.237c.049.069.099.138.153.204.024.028.044.058.064.08a13.543 13.543 0 0 0 1.225 1.327c.17.163.346.32.523.474l-.906-.226-1.987 1.148c.53 2.11 1.805 3.955 3.746 5.374l.08 2.056 2.483 1.375 1.987-1.148-.025-.642a1.53 1.53 0 0 0 .399-.168l.015-.009c.3-.195 1.629-.924 1.971-1.138l.015-.01c.57-.37.865-1.137.819-2.355z" fill="url(#s)"/><path opacity=".15" d="M357.79 43.559c.507-.298 1.527-.834 1.743-.99l.151-.106c.163-.1.327-.169.489-.221l.053 1.48s-1.16-.857-2.436-.163z" fill="#000"/><path opacity=".45" d="M363.442 55.557c.024.617-.332.926-1.363.36-1.096-.611-1.736-1.52-1.923-2.5l-2.973-.745 1.988-1.142.903.221c.018.018.035.029.052.047.273.244.548.478.81.699.111.087.216.175.314.262.752.618 1.306 1.09 1.655 1.527.227.274.378.53.46.81.049.146.072.304.077.46z" fill="#000"/><path opacity=".2" d="m365.452 59.693.023.641-1.987 1.142-.075-2.05c.81.314 1.504.413 2.039.267z" fill="#000"/><path opacity=".15" d="m362.609 43.029-2.459-1.422 1.988-1.148 2.465 1.422.07 2.057c.909.647 1.818 1.486 2.546 2.534a8.655 8.655 0 0 1 1.037 1.97 9.1 9.1 0 0 1 .355 1.27l-1.987 1.148a9.06 9.06 0 0 0-.355-1.27 8.58 8.58 0 0 0-1.037-1.97c-.728-1.049-1.638-1.888-2.547-2.535l-.076-2.056z" fill="#000"/><path opacity=".2" d="M364.672 43.937a7.959 7.959 0 0 1 2.236 1.9c.615.768 1.109 1.652 1.347 2.604a12.858 12.858 0 0 0-1.554-2.436 14.23 14.23 0 0 0-.965-1.073c-.34-.344-.7-.666-1.064-.995z" fill="#000"/><path opacity=".35" d="m367.853 58.365-.012.006c-.344.216-1.672.944-1.975 1.142.571-.373.869-1.136.821-2.354-.105-2.709-1.719-4.475-3.432-5.955-1.596-1.369-3.006-2.22-3.058-3.53-.029-.822.507-.893 1.317-.444 1.299.718 1.847 2.017 1.975 2.821l2.448.63.005.005c1.433 1.358 2.645 2.995 2.733 5.326.046 1.217-.251 1.98-.822 2.353z" fill="#000"/><path d="m362.143 52.27-1.987 1.148-2.973-.743 1.987-1.148 2.973.743z" fill="url(#t)"/><path opacity=".15" d="m362.143 52.27-1.987 1.148-2.973-.743 1.987-1.148 2.973.743z" fill="#000"/><path d="m363.492 61.48-.08-2.057 2.042.266.024.643-1.986 1.148z" fill="url(#u)"/><path opacity=".45" d="m363.492 61.48-.08-2.057 2.042.266.024.643-1.986 1.148z" fill="#000"/><path d="m360.167 42.13.056 1.591s-1.216-.896-2.526-.11c-.056.033-.103.069-.151.104-.524.385-.809 1.125-.763 2.274l-.005.003c.049 1.223.435 2.272.998 3.18.047.077.103.156.152.232l.015.026.168.237c.049.069.099.138.153.204.024.028.044.058.064.08a13.557 13.557 0 0 0 1.225 1.327c.186.177.377.351.57.517.276.243.553.478.816.7.111.089.212.175.315.262.752.618 1.301 1.091 1.654 1.526.225.274.378.533.459.809.044.15.07.303.077.46.024.62-.332.932-1.365.362-1.098-.608-1.739-1.518-1.922-2.5l-2.973-.742c.53 2.11 1.805 3.956 3.746 5.374l.08 2.056 2.483 1.375-.08-2.056c1.036.406 1.875.45 2.441.098l.015-.01c.569-.37.864-1.137.817-2.355-.1-2.706-1.716-4.474-3.43-5.952-1.598-1.37-3.006-2.22-3.057-3.535-.029-.82.505-.887 1.317-.438 1.297.714 1.844 2.011 1.976 2.818l3.132.81a8.88 8.88 0 0 0-.357-1.272 8.68 8.68 0 0 0-1.034-1.971c-.731-1.048-1.641-1.886-2.547-2.531l-.075-2.059-2.46-1.422.016.527z" fill="url(#v)"/><path opacity=".1" d="m360.167 42.13.056 1.591s-1.216-.896-2.526-.11c-.056.033-.103.069-.151.104-.524.385-.809 1.125-.763 2.274l-.005.003c.049 1.223.435 2.272.998 3.18.047.077.103.156.152.232l.015.026.168.237c.049.069.099.138.153.204.024.028.044.058.064.08a13.557 13.557 0 0 0 1.225 1.327c.186.177.377.351.57.517.276.243.553.478.816.7.111.089.212.175.315.262.752.618 1.301 1.091 1.654 1.526.225.274.378.533.459.809.044.15.07.303.077.46.024.62-.332.932-1.365.362-1.098-.608-1.739-1.518-1.922-2.5l-2.973-.742c.53 2.11 1.805 3.956 3.746 5.374l.08 2.056 2.483 1.375-.08-2.056c1.036.406 1.875.45 2.441.098l.015-.01c.569-.37.864-1.137.817-2.355-.1-2.706-1.716-4.474-3.43-5.952-1.598-1.37-3.006-2.22-3.057-3.535-.029-.82.505-.887 1.317-.438 1.297.714 1.844 2.011 1.976 2.818l3.132.81a8.88 8.88 0 0 0-.357-1.272 8.68 8.68 0 0 0-1.034-1.971c-.731-1.048-1.641-1.886-2.547-2.531l-.075-2.059-2.46-1.422.016.527z" fill="#fff"/><path d="M366.685 57.156a6.784 6.784 0 0 0-.814-2.82c-.467-.868-1.112-1.626-1.822-2.309-.701-.695-1.484-1.302-2.241-1.944-.375-.325-.746-.66-1.063-1.047-.309-.391-.539-.864-.546-1.365.031.5.28.95.601 1.32.322.372.698.695 1.08 1.007.768.621 1.555 1.232 2.27 1.926.708.697 1.365 1.467 1.819 2.36.226.445.411.912.531 1.396.115.485.172.98.185 1.476z" fill="#fff"/><path d="m362.612 43.028 1.987-1.148.075 2.06-1.988 1.147-.074-2.06z" fill="url(#w)"/><path opacity=".35" d="m362.612 43.028 1.987-1.148.075 2.06-1.988 1.147-.074-2.06z" fill="#000"/><path d="m360.152 41.606 2.233 1.542.301 1.939-.074-2.06-2.46-1.421zM360.929 58.05l.28 1.926 2.283 1.504-2.483-1.375-.08-2.056z" fill="#FAFAFA"/><path opacity=".15" d="M357.183 52.675c.095.38.224.747.367 1.108l.814-.814-1.181-.294zM366.679 57.064a6.537 6.537 0 0 0-.94-3.079l-4.782 4.782.052 1.338 1.692.938.744-.744-.033-.875c.24.094.468.166.687.221l2.58-2.58zM356.809 46.4c.069.657.235 1.26.472 1.815l5.241-5.24-1.449-.837-.874.873.026.71s-.184-.133-.483-.252l-2.933 2.932zM357.943 49.432l.168.237c.049.069.099.138.153.204.024.028.043.058.064.08a13.557 13.557 0 0 0 1.225 1.327c.086.082.174.158.262.238l1.731-1.733c-.778-.681-1.318-1.311-1.348-2.115-.029-.82.505-.887 1.317-.439a3.801 3.801 0 0 1 1.337 1.248l1.707-1.707a11.003 11.003 0 0 0-1.874-1.685l-.028-.777-4.875 4.874c.046.074.099.15.145.222l.016.026z" fill="#fff"/><path d="m369.055 39.708.232-3.064.234 3.064 3.063.233-3.063.233-.234 3.064-.232-3.063-3.064-.234 3.064-.233z" fill="#fff"/><path d="m371.458 42.221.113-1.485.113 1.485 1.484.113-1.484.113-.113 1.485-.113-1.485-1.485-.113 1.485-.113z" fill="#fff"/><path d="m39.548 154.432-1.226-4.147c-3.56.387-8.089-.287-10.685-5.175l-.316-.593 7.716-4.679.342.702c.31.646 1.556 2.686 4.422 1.837.774-.23 1.348-.563 1.658-.965.293-.38.356-.834.194-1.384-.44-1.489-1.998-1.48-4.947-1.322-.665.035-1.363.074-2.087.085-4.165.032-8.651-.709-10.364-6.507-1.385-4.689.44-8.675 5.015-11.017l-1.226-4.15 6.873-2.032 1.227 4.157c4.441-.408 7.927 1.193 10.094 4.65l.381.607-7.407 4.555-.353-.678c-.944-1.813-2.782-1.708-4.16-1.299-1.618.478-2.285 1.246-1.978 2.282.417 1.414 1.703 1.425 5.694 1.255 4.032-.124 10.116-.311 12.077 6.323 1.4 4.74-.548 8.835-5.35 11.323l1.228 4.154-6.822 2.018zm-.209-5.724 1.169 3.957 4.097-1.209-1.168-3.95.551-.261c2.644-1.248 6.83-4.192 5.142-9.903-1.65-5.58-6.647-5.428-10.662-5.305-4.097.175-6.36.271-7.11-2.274-.203-.688-.589-3.006 2.939-4.048 2.336-.692 4.271-.194 5.422 1.359l4.914-3.02c-1.987-2.722-4.98-3.844-8.908-3.333l-.602.078-1.164-3.946-4.146 1.225 1.168 3.954-.56.259c-3.064 1.413-6.385 4.225-4.8 9.59 1.364 4.608 4.576 5.526 8.982 5.487.7-.011 1.38-.048 2.03-.083 2.883-.151 5.605-.297 6.384 2.34.294.992.144 1.911-.43 2.656-.503.651-1.303 1.142-2.382 1.461-2.734.805-4.69-.409-5.715-1.908l-5.263 3.191c2.416 3.895 6.46 4.216 9.502 3.773l.61-.09z" fill="#F0F0F0"/><path d="m391.502 319.451-1.605-4.029c-3.52.713-8.103.456-11.145-4.188l-.37-.563 7.277-5.38.406.67c.369.616 1.8 2.539 4.585 1.429.752-.299 1.294-.685 1.568-1.116.258-.406.278-.864.066-1.399-.576-1.447-2.13-1.295-5.061-.866-.66.097-1.355.198-2.077.276-4.156.415-8.705.085-10.946-5.548-1.813-4.556-.356-8.703 3.997-11.461l-1.604-4.032 6.678-2.659 1.607 4.039c4.398-.815 8.026.465 10.506 3.719l.436.572-6.98 5.227-.414-.646c-1.108-1.723-2.935-1.45-4.275-.916-1.57.626-2.166 1.454-1.765 2.46.546 1.375 1.831 1.268 5.801.732 4.016-.495 10.075-1.239 12.641 5.207 1.833 4.604.263 8.874-4.304 11.798l1.606 4.036-6.628 2.638zm-.734-5.697 1.531 3.845 3.98-1.584-1.529-3.837.527-.311c2.526-1.488 6.435-4.813 4.227-10.362-2.16-5.421-7.135-4.81-11.134-4.319-4.076.55-6.327.852-7.31-1.62-.266-.668-.864-2.949 2.563-4.312 2.269-.905 4.247-.586 5.54.86l4.63-3.466c-2.234-2.536-5.327-3.381-9.202-2.512l-.594.133-1.524-3.833-4.029 1.603 1.529 3.842-.535.309c-2.93 1.692-5.989 4.805-3.915 10.017 1.784 4.477 5.077 5.099 9.474 4.656a52.056 52.056 0 0 0 2.019-.269c2.865-.415 5.569-.811 6.59 1.752.385.964.319 1.895-.186 2.691-.442.696-1.197 1.26-2.245 1.678-2.657 1.053-4.722.02-5.883-1.382l-4.963 3.669c2.77 3.669 6.839 3.618 9.836 2.897l.603-.145zM73.367 267.404l-.798 2.749-3.709-1.076.798-2.748c-2.445-1.104-4.587-3.126-4.308-6.563l5.133.125c-.122 1.041.245 2.62 2.2 3.186 1.225.355 2.196.099 2.513-.993.509-1.756-1.582-2.469-3.774-3.824-2.339-1.467-4.377-3.351-3.33-6.961.941-3.245 3.465-4.524 6.78-4.066l.797-2.749 3.741 1.086-.797 2.749c2.78 1.308 4.183 3.402 4.159 6.088l-4.893-.09c.114-1.259-.592-2.289-2.248-2.769-1.556-.452-2.32.081-2.56.908-.394 1.358.678 1.991 3.012 3.35 2.448 1.464 5.557 3.371 4.366 7.477-.96 3.311-3.726 4.556-7.082 4.121z" fill="#E0E0E0"/><path d="m225.538 174.053 1.114 3.018-4.071 1.503-1.114-3.018c-2.947.635-6.234.237-8.277-3.058l4.725-3.314c.585 1.023 1.971 2.205 4.116 1.413 1.346-.497 2.053-1.378 1.61-2.576-.713-1.927-3.079-1.177-5.964-.938-3.095.235-6.196-.108-7.659-4.069-1.316-3.563.114-6.404 3.416-8.202l-1.114-3.018 4.108-1.517 1.114 3.018c3.387-.672 6.054.284 7.825 2.729l-4.485 3.184c-.737-1.215-2.064-1.675-3.881-1.003-1.71.63-2.045 1.622-1.71 2.531.551 1.491 1.944 1.348 4.962 1.017 3.191-.309 7.274-.661 8.939 3.847 1.341 3.633-.329 6.605-3.654 8.453z" fill="#F0F0F0"/><path d="M272.482 318.355a.929.929 0 0 1-.515-.155 199.133 199.133 0 0 0-2.323-1.523.93.93 0 0 1 1.008-1.563c.777.501 1.559 1.014 2.345 1.536a.93.93 0 0 1-.515 1.705zM265.218 313.754a.93.93 0 0 1-.478-.133 154.661 154.661 0 0 0-5.002-2.879.93.93 0 1 1 .894-1.629 151.87 151.87 0 0 1 5.064 2.913.93.93 0 0 1-.478 1.728zm-10.179-5.583a.93.93 0 0 1-.411-.096 117.247 117.247 0 0 0-5.225-2.425.93.93 0 0 1-.483-1.223.927.927 0 0 1 1.223-.482c1.747.757 3.534 1.587 5.308 2.463a.93.93 0 0 1-.412 1.763zm-10.653-4.607a.95.95 0 0 1-.321-.057 96.103 96.103 0 0 0-5.451-1.829.93.93 0 0 1 .537-1.78 98.22 98.22 0 0 1 5.557 1.863.932.932 0 0 1-.322 1.803zm-11.114-3.346a.966.966 0 0 1-.212-.025 88.831 88.831 0 0 0-5.636-1.121.929.929 0 0 1-.765-1.069.92.92 0 0 1 1.068-.765c1.923.318 3.859.703 5.754 1.145a.93.93 0 0 1-.209 1.835zm-40.397-.964a.929.929 0 0 1-.126-1.851c1.977-.274 3.927-.511 5.796-.705a.939.939 0 0 1 1.022.829.931.931 0 0 1-.83 1.022c-1.847.192-3.776.426-5.733.697a1.16 1.16 0 0 1-.129.008zm28.949-.933c-.03 0-.062-.002-.094-.004a94.497 94.497 0 0 0-5.736-.401.93.93 0 0 1-.892-.966c.021-.514.481-.93.967-.892 1.959.077 3.928.214 5.848.407a.931.931 0 0 1-.093 1.856zm-17.4-.25a.93.93 0 0 1-.057-1.859c1.976-.124 3.943-.2 5.847-.227.529-.044.937.404.944.916a.93.93 0 0 1-.916.944 118.6 118.6 0 0 0-5.818.226zM184.359 300.619a.93.93 0 0 1-.163-1.845c.928-.167 1.849-.327 2.762-.481a.928.928 0 0 1 1.07.764.928.928 0 0 1-.763 1.07c-.906.152-1.819.312-2.74.477a.868.868 0 0 1-.166.015z" fill="#455A64"/><path d="m405.975 394.236-122.398-78.795-3.344 13.926 125.742 64.869z" fill="#F0F0F0"/><path d="m305.209 329.367.32 13.307-25.296-13.307 3.344-13.926 21.632 13.926z" fill="#E0E0E0"/><path d="m283.576 315.441-3.343 13.926.841.434 3.514-14.36h-1.012z" fill="#455A64"/><path d="m216.447 353.392 189.528 40.844-138.151-71.27-51.377 30.426z" fill="#fff"/><path d="m216.447 353.392 77.334-17.036-25.957-13.39-51.377 30.426z" fill="#F5F5F5"/><path d="m267.849 323.803 132.884 68.554-182.303-39.288 49.419-29.266zm-.025-.837-51.377 30.426 189.528 40.845-138.151-71.271z" fill="#455A64"/><path d="m405.975 394.236-122.398-78.795 52.419-30.372 69.979 109.167z" fill="#fff"/><path d="m305.209 329.367 30.787-44.298-52.419 30.372 21.632 13.926z" fill="#F5F5F5"/><path d="m335.757 286.054 67.785 105.743-118.56-76.324 50.775-29.419zm.239-.985-52.419 30.372 122.399 78.795-69.98-109.167zM101.214 311.995a.925.925 0 0 1-.515-.156 211.119 211.119 0 0 0-2.322-1.524.929.929 0 1 1 1.008-1.562c.777.5 1.558 1.014 2.345 1.537a.93.93 0 0 1-.516 1.705zM93.951 307.392a.917.917 0 0 1-.478-.133 152.567 152.567 0 0 0-5.002-2.878.929.929 0 1 1 .895-1.63c1.66.911 3.363 1.891 5.064 2.913a.93.93 0 0 1-.479 1.728zm-10.18-5.582a.913.913 0 0 1-.41-.097 117.216 117.216 0 0 0-5.225-2.425.93.93 0 0 1 .74-1.705c1.748.758 3.534 1.586 5.308 2.462a.93.93 0 0 1-.412 1.765zm-10.652-4.608a.934.934 0 0 1-.321-.057 96.617 96.617 0 0 0-5.451-1.83.929.929 0 1 1 .537-1.78 98.259 98.259 0 0 1 5.557 1.864.93.93 0 0 1-.322 1.803zm-11.114-3.346a.97.97 0 0 1-.212-.024 88.934 88.934 0 0 0-5.635-1.121.93.93 0 0 1-.765-1.07.923.923 0 0 1 1.068-.765c1.923.318 3.859.703 5.754 1.144a.93.93 0 0 1-.21 1.836zm-40.398-.963a.93.93 0 0 1-.126-1.851c1.977-.274 3.927-.511 5.795-.706a.935.935 0 0 1 1.022.83.932.932 0 0 1-.83 1.022 170.53 170.53 0 0 0-5.733.696.931.931 0 0 1-.128.009zm28.95-.932a1.04 1.04 0 0 1-.094-.005 96.122 96.122 0 0 0-5.736-.401.928.928 0 0 1-.891-.966.92.92 0 0 1 .966-.892c1.96.078 3.928.214 5.848.409a.929.929 0 0 1-.092 1.855zm-17.4-.251a.93.93 0 0 1-.056-1.859c1.975-.124 3.942-.2 5.846-.227.508-.034.937.403.944.916a.93.93 0 0 1-.916.944 118.664 118.664 0 0 0-5.818.226zM13.092 294.259a.93.93 0 0 1-.164-1.845 230.3 230.3 0 0 1 2.763-.482.928.928 0 0 1 1.07.764.93.93 0 0 1-.763 1.07c-.905.152-1.818.311-2.739.478a.971.971 0 0 1-.167.015z" fill="#455A64"/><path d="m17.833 358.758 269.624 58.106-196.534-101.39-73.09 43.284z" fill="url(#x)"/><path d="M287.457 416.864 113.332 304.769l74.573-43.208 99.552 155.303z" fill="url(#y)"/><path opacity=".2" d="m17.833 358.758 110.017-24.234-36.927-19.05-73.09 43.284zM144.108 324.582l43.797-63.021-74.573 43.208 30.776 19.813z" fill="#000"/><path d="M287.457 416.864 113.332 304.769l-4.755 19.813 178.88 92.282z" fill="url(#z)"/><path opacity=".2" d="M287.457 416.864 113.332 304.769l-4.755 19.813 178.88 92.282z" fill="#000"/><path opacity=".2" d="m144.108 324.582-.292 18.179-35.239-18.179 4.755-19.813 30.776 19.813z" fill="#000"/><path d="m156.717 324.129 3.163-1.626-3.163-.832v2.458z" fill="#263238"/><path d="M188.459 329.541s-37.926-16.498-38.355-13.938a3.796 3.796 0 0 0 .044 1.535c-.034-.046-.074-.09-.104-.137l.771 4.751s2.731 2.269 5.901 2.377v-2.458c1.03.414 2.09.909 3.35 1.719 2.439 1.57 4.036 4.354 6.65 7.578 1.905 2.349 5.251 3.406 10.193 4.033 5.319.674 9.978-.424 11.274-1.878 1.032-1.158.473-3.253.276-3.582z" fill="#263238"/><path d="M187.405 328.675c-.368-.375-1.735-1.843-3.578-3.436-1.612-1.393-3.493-3.156-5.509-4.572-.804-.564-2.039-1.47-2.734-2.197-.668-.7-1.31-1.424-1.906-2.185-1.854-2.366-3.373-4.975-4.668-7.683-.615-1.285-1.73-4.116-1.508-9.403.336-8.008.938-10.904.885-16.107l-17.921 2.749c.57 2.875 1.234 9.299 1.56 12.571.498 4.978 1.232 5.44-.621 10.441-.546 1.472-1.373 2.894-1.421 4.462-.079 2.551 1.947 4.722 4.192 5.934 1.862 1.004 3.993 1.414 5.8 2.487 1.902 1.129 3.392 2.853 4.761 4.558 1.294 1.61 2.341 3.521 4.138 4.639 1.991 1.24 3.876 1.606 6.169 2.037 2.635.495 6.006.499 8.247.288 3.907-.37 6.795-1.846 4.114-4.583z" fill="#FFA8A7"/><path d="M185.202 325.926c-1.644-1.347-3.975-3.277-6.787-5.444-.626-.309-3.118-.864-5.833.627-5.549 3.047-6.435 7.253-6.435 7.253s1.247 2.814 4.631 3.947c6.508 2.738 18.06 1.653 18.126-1.343.042-1.908-1.706-3.403-3.702-5.04zm-33.455-18.161s-.361.989-1.318 2.932c-.957 1.942-1.11 3.866.148 5.773 1.666 2.523 3.677 3.276 5.728 3.782 1.704-5.708-2.293-11.294-4.558-12.487z" fill="#37474F"/><path d="M119.252 322.375c1.032 1.734-.478 8.166-.326 12.768.139 4.183.865 10.716-.256 15.589-1.15 4.993-5.421 10.216-11.08 5.52-3.507-2.911-4.879-6.362-5.246-12.386-.255-4.187 1.527-9.934 3.06-15.034 1.791-5.957 2.492-9.146 2.492-9.146l11.356 2.689z" fill="#263238"/><path d="M108.057 291.322c-.603 9.738.395 16.603.337 22.845-.122 2.906-.364 5.355-1.055 8.411-.898 3.966-2.396 9.474-3.031 12.044-.888 3.59-1.551 5.85-.384 9.92.091.317.23.621.389.921 1.675 3.367 6.05 5.972 7.476 5.597.383.665 1.379 1.081 2.473.92a3.51 3.51 0 0 0 .95-.287c.949-.444 1.864-1.381 2.416-3.017.092-.273.175-.565.245-.877 1.129-5.001.445-8.259.387-10.224-.066-2.269.122-5.152.395-8.804.271-3.652 1.369-15.116 2.748-20.58 1.018-3.813 2.29-8.595 3.631-13.694l-16.977-3.175z" fill="#FFA8A7"/><path d="M103.353 339.299c3.521-1.471 13.642-1.485 15.158 3.471-.051 4.638-.084 7.782-3.093 11.759-3.997 5.286-8.962-.5-10.837-4.147-1.876-3.647-1.753-8.595-1.228-11.083zM124.861 154.128c-5.104 8.738-11.981 20.885-12.618 40.671-.849 26.372-1.4 45.266-1.589 48.443-.19 3.177-2.353 8.967-4.403 24.587-2.049 15.62.189 45.501.189 45.501s1.752 3.552 7.728 4.251c5.512.645 8.1-1.938 8.1-1.938s8.729-41.813 11.081-51.192c2.351-9.378 10.373-50.399 10.373-50.399l2.932 25.259s-1.919 8.599-.606 22.381c1.313 13.782 5.672 40.372 5.672 40.372s2.502 2.642 8.365 2.411c5.366-.212 8.071-3.184 8.071-3.184s5.138-52.471 5.56-68.041c.422-15.57-.012-54.451-4.289-77.635l-44.566-1.487z" fill="#37474F"/><path d="m148.525 189.129-4.803 24.922 2.932 25.259.102-23.978 4.765-23.744c3.779-.799 13.496-7.371 14.326-13.701-5.248 8.217-17.322 11.242-17.322 11.242zm-28.087 93.654a950.553 950.553 0 0 0-4.383 24.334 952.642 952.642 0 0 0 5.651-24.068c1.803-8.045 3.505-16.076 5.196-24.172 1.589-8.118 3.651-26.484 4.554-34.679.921-8.195 1.622-16.407 2.229-24.629-1.244 8.15-2.373 16.314-3.509 24.467-1.165 8.149-3.293 26.47-4.902 34.518-1.649 8.038-3.294 16.14-4.836 24.229zm46.088-58.42c.067 3.575.181 7.172.027 10.702-.17 3.545-.484 7.131-.761 10.702l-.832 10.727a921.202 921.202 0 0 0-1.436 21.488 591.35 591.35 0 0 0 2.725-21.368c.782-7.144 1.524-14.26 1.962-21.478.174-7.26-.248-14.407-.696-21.584a346.269 346.269 0 0 0-2.051-21.45l.762 21.514c.101 3.583.234 7.165.3 10.747zM127.486 65.43c-5.097 2.724-5.613 6.957-5.87 17.267-.467 18.704-6.193 39.998-6.193 39.998l42.774.493 2.308-42.812s3.785-4.584 3.62-9.52c-.164-4.935-2.867-11.487-11.935-13.862-7.556-1.979-22.261-1.207-24.704 8.436z" fill="#263238"/><path d="M208.228 118.693c-2.36-10.427-8.298-24.851-11.07-31.71-.78-1.93-1.743-6.164-2.101-7.794-.763-3.52-1.434-5.553-2.951-8.2-.996-1.732-1.895-3.4-4.574-5.753-.786-.692-1.828-.66-2.196-.287-.841-.795-1.362-1.254-2.275-1.526-.714-.225-1.473-.105-2.225-.13-1.189-.048-1.882-.763-2.641-1.592-.373-.389-.737-.84-1.241-1.026-.821-.306-1.215.254-1.389.936-.26.986-.102 2.056.262 3.019.586 1.572 1.593 2.71 2.395 4.164 1.215 2.206 3.032 4.994 2.93 7.562-.021.522-.217 1.6-.868.895-.854-.92-1.647-1.915-2.643-2.677-.997-.76-2.28-1.276-3.505-1.031-.374.07-.746.224-.98.532-.314.434-.109.733.148 1.071.278.349.486.752.713 1.142.455.804.92 1.597 1.397 2.4 2.768 4.645 4.009 6.59 7.998 9.749.625.497 2.623 1.658 4.053 5.743 1.431 4.086 2.483 17.033 2.483 17.033s-1.819-.425-13.893-3.321c-9.831-2.359-12.217-2.442-18.844-3.232l8.558 20.37s14.163 2.583 28.143 4.79c10.675 1.686 17.15 1.402 14.316-11.127z" fill="#FFA8A7"/><path d="m189.095 103.755-.57-4.065s2.856 1.315 7.093.46 5.955-2.76 5.955-2.76l1.346 3.394s-2.887 2.024-6.718 2.819c-3.831.796-7.106.152-7.106.152z" fill="#F0F0F0"/><path d="M157.465 104.477c5.824.288 11.414 1.31 19.709 3.24 7.391 1.719 12.538 3.103 12.538 3.103l-.983-8.665s2.492 1.6 7.59.69c5.098-.909 6.405-3.035 6.405-3.035s5.248 14.203 6.423 21.047c1.042 6.062-.53 11.372-8.807 10.636-10.166-.904-36.285-5.519-36.285-5.519l-6.59-21.497z" fill="url(#A)"/><path opacity=".15" d="M189.712 110.821c.408 5.648 1.545 9.897 3.603 12.382-3.536-1.943-5.742-7.48-5.903-12.983l2.3.601z" fill="#000"/><path d="M167.784 73.681c-.636.208-1.157.711-1.414 1.464-.512 1.506.228 3.431 1.655 4.3.698.427 1.431.519 2.057.325.211-.065 2.215-.765 2.411-.828.637-.207 1.16-.71 1.417-1.465.512-1.506-.228-3.43-1.655-4.3-.704-.43-1.442-.52-2.072-.32-.205.064-2.202.76-2.399.825z" fill="#FAFAFA"/><path d="M167.784 73.681c-.636.208-1.157.711-1.414 1.464-.512 1.506.228 3.431 1.655 4.3.698.427 1.431.519 2.057.325.211-.065 2.215-.765 2.411-.828.637-.207 1.16-.71 1.417-1.465.512-1.506-.228-3.43-1.655-4.3-.704-.43-1.442-.52-2.072-.32-.205.064-2.202.76-2.399.825z" fill="url(#B)"/><path opacity=".25" d="M167.784 73.681c-.636.208-1.157.711-1.414 1.464-.512 1.506.228 3.431 1.655 4.3.698.427 1.431.519 2.057.325.211-.065 2.215-.765 2.411-.828.637-.207 1.16-.71 1.417-1.465.512-1.506-.228-3.43-1.655-4.3-.704-.43-1.442-.52-2.072-.32-.205.064-2.202.76-2.399.825z" fill="#fff"/><path d="M170.398 78.628c1.427.87 2.999.354 3.511-1.152.512-1.506-.228-3.43-1.654-4.3-1.427-.87-2.999-.354-3.511 1.152-.512 1.505.229 3.43 1.654 4.3z" fill="url(#C)"/><path d="M170.762 73.135c-.546.177-.993.61-1.214 1.256-.44 1.293.195 2.945 1.42 3.692.6.366 1.229.445 1.766.278.182-.056 20.05-5.65 20.219-5.704.546-.178.776-1.542.997-2.19.44-1.292-.195-2.945-1.42-3.69-.604-.37-1.672-1.31-2.212-1.14-.177.057-19.387 7.442-19.556 7.498z" fill="#263238"/><path d="M185.031 65.162c-1.122.365-2.042 1.253-2.494 2.581-.905 2.657.401 6.053 2.917 7.587 1.232.752 2.524.914 3.629.572.372-.114 39.167-10.937 39.513-11.05 1.123-.365 1.597-3.17 2.049-4.5.904-2.655-.401-6.052-2.918-7.585-1.242-.757-3.435-2.69-4.546-2.338-.361.114-37.803 14.62-38.15 14.733z" fill="#E0E0E0"/><path d="M223.894 64.029c3.376 2.058 7.097.837 8.31-2.727 1.214-3.563-.539-8.121-3.915-10.18-3.376-2.058-7.097-.837-8.311 2.727-1.213 3.564.54 8.122 3.916 10.18z" fill="#E0E0E0"/><path d="M223.414 64.634c1.224.744 2.482 1.096 3.672 1.087.025.002.043 0 .064 0l.107-.004c.035.002.068-.003.103-.001l.034-.005 1.919-.052c-.013-.002-.035-.002-.056-.002-.03.001-.056-.001-.086-.001a7.315 7.315 0 0 1-.82-.08c-.965-.15-1.946-.51-2.913-1.093a9.711 9.711 0 0 1-1.35-1.003c-3.072-2.704-4.523-7.308-3.259-11a6.716 6.716 0 0 1 1.6-2.645c.038-.04.085-.08.126-.118.009-.007.013-.017.022-.025l.274-.242c.034-.03.072-.056.101-.082l-1.594 1.142-.013.012a4.99 4.99 0 0 0-.424.334c-.769.67-1.381 1.579-1.765 2.707-1.206 3.546.286 7.999 3.363 10.437.133.105.271.208.405.307.021.013.034.027.052.037.146.103.288.2.438.29z" fill="#263238"/><path d="M232.476 62.493c4.207 2.565 8.843 1.043 10.355-3.399 1.512-4.44-.671-10.12-4.879-12.685-4.207-2.565-8.843-1.043-10.355 3.398-1.512 4.442.672 10.122 4.879 12.686z" fill="url(#D)"/><path d="M225.273 64.86c.773.473 1.571.81 2.357 1.008.45.115 1.636.23 1.778.233.148.003.72-.029.856-.047.145-.02.286-.041.421-.066.238-.043.473-.103.694-.17l.009-.002.013-.004c.013-.005.021-.006.029-.013l.051-.013.106-.037.06-.02 6.906-2.27c-.055.017-.114.03-.17.047-.008.001-.013 0-.017.003a3.991 3.991 0 0 1-.204.052c-.154.033-.298.059-.451.085-.205.033-.41.054-.618.072-1.475.095-3.07-.297-4.603-1.235a9.99 9.99 0 0 1-1.213-.868c-3.402-2.828-5.031-7.822-3.669-11.819.484-1.419 1.285-2.54 2.292-3.324.106-.08.207-.157.313-.225l.013-.01c.101-.072.203-.136.309-.196.109-.065.216-.127.33-.182.093-.05.182-.097.276-.135.076-.042.153-.07.238-.1.076-.036.157-.069.242-.1l-6.919 2.276-.004.004-.314.105c-1.793.642-3.261 2.113-3.996 4.264-1.293 3.814.129 8.538 3.22 11.423.147.14.301.277.473.418.379.306.771.593 1.192.846z" fill="#FAFAFA"/><path d="M244.555 44.601c3.982 2.428 6.047 7.8 4.615 12.001-.414 1.22-1.078 2.21-1.909 2.936-.596.52-1.28.907-2.016 1.152l-.014.004-.003.003-5.762 1.924-.141.05a6.489 6.489 0 0 1-.848.194c-1.555.252-3.284-.09-4.94-1.1-3.979-2.426-6.047-7.8-4.616-12.001.595-1.747 1.703-3.017 3.081-3.728.231-.123.467-.225.715-.313l.041-.016.278-.09 5.653-1.892.003.002c1.773-.587 3.869-.342 5.863.874z" fill="#EBEBEB"/><path d="M236.577 43.777c-1.877.612-3.416 2.097-4.173 4.32-1.513 4.445.672 10.128 4.883 12.695 2.061 1.257 4.224 1.528 6.072.957.624-.192 4.603-1.59 5.181-1.778 1.88-.61 3.423-2.097 4.181-4.322 1.513-4.445-.673-10.128-4.883-12.695-2.078-1.266-4.258-1.532-6.116-.944-.608.193-4.565 1.578-5.145 1.767z" fill="#FAFAFA"/><path d="M225.273 64.86c.773.473 1.571.81 2.357 1.008.45.115 1.636.23 1.778.233.148.003.72-.029.856-.047.145-.02.286-.041.421-.066.238-.043.473-.103.694-.17l.009-.002.013-.004c.013-.005.021-.006.029-.013l.051-.013.106-.037.06-.02 6.906-2.27c-.055.017-.114.03-.17.047-.008.001-.013 0-.017.003a3.991 3.991 0 0 1-.204.052c-.154.033-.298.059-.451.085-.205.033-.41.054-.618.072-1.475.095-3.07-.297-4.603-1.235a9.99 9.99 0 0 1-1.213-.868c-3.402-2.828-5.031-7.822-3.669-11.819.484-1.419 1.285-2.54 2.292-3.324.106-.08.207-.157.313-.225l.013-.01c.101-.072.203-.136.309-.196.109-.065.216-.127.33-.182.093-.05.182-.097.276-.135.076-.042.153-.07.238-.1.076-.036.157-.069.242-.1l-6.919 2.276-.004.004-.314.105c-1.793.642-3.261 2.113-3.996 4.264-1.293 3.814.129 8.538 3.22 11.423.147.14.301.277.473.418.379.306.771.593 1.192.846z" fill="url(#E)"/><path opacity=".25" d="M225.273 64.86c.773.473 1.571.81 2.357 1.008.45.115 1.636.23 1.778.233.148.003.72-.029.856-.047.145-.02.286-.041.421-.066.238-.043.473-.103.694-.17l.009-.002.013-.004c.013-.005.021-.006.029-.013l.051-.013.106-.037.06-.02 6.906-2.27c-.055.017-.114.03-.17.047-.008.001-.013 0-.017.003a3.991 3.991 0 0 1-.204.052c-.154.033-.298.059-.451.085-.205.033-.41.054-.618.072-1.475.095-3.07-.297-4.603-1.235a9.99 9.99 0 0 1-1.213-.868c-3.402-2.828-5.031-7.822-3.669-11.819.484-1.419 1.285-2.54 2.292-3.324.106-.08.207-.157.313-.225l.013-.01c.101-.072.203-.136.309-.196.109-.065.216-.127.33-.182.093-.05.182-.097.276-.135.076-.042.153-.07.238-.1.076-.036.157-.069.242-.1l-6.919 2.276-.004.004-.314.105c-1.793.642-3.261 2.113-3.996 4.264-1.293 3.814.129 8.538 3.22 11.423.147.14.301.277.473.418.379.306.771.593 1.192.846z" fill="#fff"/><path d="M244.555 44.601c3.982 2.428 6.047 7.8 4.615 12.001-.414 1.22-1.078 2.21-1.909 2.936-.596.52-1.28.907-2.016 1.152l-.014.004-.003.003-5.762 1.924-.141.05a6.489 6.489 0 0 1-.848.194c-1.555.252-3.284-.09-4.94-1.1-3.979-2.426-6.047-7.8-4.616-12.001.595-1.747 1.703-3.017 3.081-3.728.231-.123.467-.225.715-.313l.041-.016.278-.09 5.653-1.892.003.002c1.773-.587 3.869-.342 5.863.874z" fill="url(#F)"/><path opacity=".15" d="M244.555 44.601c3.982 2.428 6.047 7.8 4.615 12.001-.414 1.22-1.078 2.21-1.909 2.936-.596.52-1.28.907-2.016 1.152l-.014.004-.003.003-5.762 1.924-.141.05a6.489 6.489 0 0 1-.848.194c-1.555.252-3.284-.09-4.94-1.1-3.979-2.426-6.047-7.8-4.616-12.001.595-1.747 1.703-3.017 3.081-3.728.231-.123.467-.225.715-.313l.041-.016.278-.09 5.653-1.892.003.002c1.773-.587 3.869-.342 5.863.874z" fill="#fff"/><path d="M236.577 43.777c-1.877.612-3.416 2.097-4.173 4.32-1.513 4.445.672 10.128 4.883 12.695 2.061 1.257 4.224 1.528 6.072.957.624-.192 4.603-1.59 5.181-1.778 1.88-.61 3.423-2.097 4.181-4.322 1.513-4.445-.673-10.128-4.883-12.695-2.078-1.266-4.258-1.532-6.116-.944-.608.193-4.565 1.578-5.145 1.767z" fill="url(#G)"/><path opacity=".25" d="M236.577 43.777c-1.877.612-3.416 2.097-4.173 4.32-1.513 4.445.672 10.128 4.883 12.695 2.061 1.257 4.224 1.528 6.072.957.624-.192 4.603-1.59 5.181-1.778 1.88-.61 3.423-2.097 4.181-4.322 1.513-4.445-.673-10.128-4.883-12.695-2.078-1.266-4.258-1.532-6.116-.944-.608.193-4.565 1.578-5.145 1.767z" fill="#fff"/><path d="M242.357 59.05c4.21 2.567 8.85 1.044 10.363-3.4 1.513-4.445-.672-10.128-4.883-12.695-4.21-2.567-8.849-1.044-10.363 3.4-1.513 4.445.674 10.128 4.883 12.695z" fill="url(#H)"/><path opacity=".2" d="M249.61 58.184c-1.965 1.716-4.513.478-5.518-.134-3.919-2.39-6.04-7.904-4.631-12.042.348-1.022.885-1.87 1.553-2.454 1.965-1.717 4.513-.478 5.518.134 3.919 2.39 6.04 7.904 4.631 12.04-.348 1.023-.885 1.872-1.553 2.456z" fill="#000"/><path d="M244.082 44.5c-.6-.366-1.751-.954-2.999-1.003l-.07.057c-.668.583-1.205 1.432-1.553 2.454-1.408 4.138.712 9.652 4.631 12.042.6.366 1.752.954 3 1.004l.068-.057c.668-.584 1.206-1.432 1.553-2.455 1.41-4.137-.71-9.652-4.63-12.041z" fill="url(#I)"/><path opacity=".6" d="M244.082 44.5c-.6-.366-1.751-.954-2.999-1.003l-.07.057c-.668.583-1.205 1.432-1.553 2.454-1.408 4.138.712 9.652 4.631 12.042.6.366 1.752.954 3 1.004l.068-.057c.668-.584 1.206-1.432 1.553-2.455 1.41-4.137-.71-9.652-4.63-12.041z" fill="#fff"/><path opacity=".1" d="M239.408 46.177c-1.297 4.118.817 9.516 4.684 11.873l.01.006c1.446-.308 2.655-1.353 3.216-3.004 1.01-2.965-.448-6.757-3.256-8.469-1.606-.98-3.304-1.065-4.654-.406z" fill="url(#J)"/><path opacity=".2" d="M239.07 49.669c.191 2.097 1.027 4.22 2.341 5.932 1.709.82 3.491.132 4.1-1.653.65-1.91-.29-4.353-2.099-5.456-1.716-1.046-3.598-.51-4.342 1.177z" fill="url(#K)"/><path opacity=".6" d="M240.289 48.431c-.387-2.266 1.037-3.964 1.941-3.924.905.04 6.796 3.594 5.864 10.593 0 0-.162-4.448-2.839-7.357-2.537-2.758-4.822-1.511-4.966.688z" fill="#fff"/><path opacity=".1" d="m224.081 64.01-.001-.002 7.181-2.385.012-.011.895-.858 3.519-1.167c.142.13.301.27.478.414l5.125-1.703c.341.275.693.525 1.067.75.133.08.266.16.399.228 1.137.623 2.297.953 3.411 1.01a6.595 6.595 0 0 0 2.105-.228c-.017.005-.037.016-.054.022-1.119.383-4.308 1.5-4.859 1.67-.671.207-1.383.299-2.117.278l-.412.137a6.172 6.172 0 0 1-2.753 1.411l.084-.016c.068-.015.14-.034.203-.052.005-.004.009 0 .017-.002.056-.016.115-.03.17-.047l-6.906 2.27-.059.02-.106.037-.052.013c-.008.007-.016.008-.029.013l-.013.005h-.009a6.545 6.545 0 0 1-1.115.237c-.136.017-.707.049-.856.047-.141-.004-1.327-.118-1.777-.231 0 0-.001-.002-.003-.002a8.331 8.331 0 0 1-1.772-.678 9.503 9.503 0 0 1-.583-.329c-.42-.255-.811-.54-1.19-.85z" fill="#000"/><path d="M119.223 163.928c.553-4.009 3.35-4.603 1.988-14.18-.674-4.741-3.052-17.008-3.052-17.008s8.155-6.29 5.536-24.629l8.775-3.529 4.78-1.689 13.369.558 6.864 1.881c2.355 2.024 6.665 5.214 10.132 10.111 5.003 7.066 5.901 14.845.788 20.657-.054 1.129.152 18.613 1.469 22.869.523 1.691 1.235 3.991.133 6.261-4.922 8.074-34.109 16.3-50.782-1.302z" fill="#FAFAFA"/><path d="m150.618 103.452 6.846 1.025c6.578 4.97 14.405 13.937 14.844 20.837.439 6.902-3.068 11.566-3.068 11.566s-.097 14.029 1.509 21.438c1.605 7.408 3.379 27.242 3.379 27.242s.143 1.241-5.356 2.785c-1.687-9.507-5.859-44.381-5.627-52.753.232-8.371.387-21.591-12.527-32.14z" fill="url(#L)"/><path opacity=".3" d="m150.618 103.452 6.846 1.025c6.578 4.97 14.405 13.937 14.844 20.837.439 6.902-3.068 11.566-3.068 11.566s-.097 14.029 1.509 21.438c1.605 7.408 3.379 27.242 3.379 27.242s.143 1.241-5.356 2.785c-1.687-9.507-5.859-44.381-5.627-52.753.232-8.371.387-21.591-12.527-32.14z" fill="#000"/><path opacity=".2" d="M164.175 139.493c.543-2.223 1.14-4.432 1.744-6.635a237.098 237.098 0 0 0 1.733-6.622c.26-1.104.515-2.222.627-3.32.167-1.048-.579-1.922-1.317-2.745-1.536-1.615-3.383-2.992-5.258-4.242l-.174-.117.038-.207c.213-1.17.174-2.432-.016-3.631-.201-1.202-.618-2.383-1.261-3.418-.678-1.014-1.577-1.89-2.573-2.633a17.408 17.408 0 0 0-3.23-1.893c1.183.421 2.316.992 3.371 1.691 1.061.687 2.027 1.551 2.778 2.602.722 1.075 1.198 2.288 1.456 3.55.249 1.267.288 2.554.075 3.858l-.136-.322c1.931 1.265 3.814 2.596 5.428 4.302.397.43.77.895 1.074 1.428.088.123.136.281.2.424.062.146.129.288.145.463.084.345.051.642.034.946-.134 1.177-.406 2.29-.682 3.406-.558 2.227-1.26 4.406-1.935 6.591-.684 2.183-1.413 4.349-2.121 6.524z" fill="#000"/><path d="M132.469 104.582s2.877 3.704 6.69 12.417c3.813 8.713 7.491 16.634 7.426 24.705-.066 8.07-2.704 49.803-2.704 49.803s-11.572 1.744-22.053-2.475l.856-16.164-3.968 15.403s-5.014-1.798-6.868-3.47c2.73-16.806 8.847-24.782 9.151-30.985.21-4.26-3.409-16.071-4.101-26.717-.603-9.278 1.273-18.648 1.273-18.648l14.298-3.869z" fill="url(#M)"/><path opacity=".3" d="M132.469 104.582s2.877 3.704 6.69 12.417c3.813 8.713 7.491 16.634 7.426 24.705-.066 8.07-2.704 49.803-2.704 49.803s-11.572 1.744-22.053-2.475l.856-16.164-3.968 15.403s-5.014-1.798-6.868-3.47c2.73-16.806 8.847-24.782 9.151-30.985.21-4.26-3.409-16.071-4.101-26.717-.603-9.278 1.273-18.648 1.273-18.648l14.298-3.869z" fill="#000"/><path opacity=".2" d="M145.058 144.109c-.647-2.074-1.884-3.868-3.18-5.577-1.297-1.717-2.719-3.338-4.179-4.923a132.767 132.767 0 0 0-2.194-2.378l-1.114-1.182c-.187-.208-.368-.389-.561-.625-.049-.065-.093-.093-.145-.189a2.62 2.62 0 0 1-.137-.306c-.06-.198-.048-.364-.06-.544.14-1.256.655-2.217 1.128-3.219a36.891 36.891 0 0 1 1.661-2.838l.054.537-3.306-3.343-1.645-1.683-.408-.425-.204-.213c-.065-.084-.121-.088-.28-.34-.124-.324-.081-.51-.085-.736a7.11 7.11 0 0 1 .064-.617c.26-1.592.672-3.111 1.128-4.625.463-1.509.937-3.013 1.478-4.494-.374 1.531-.765 3.057-1.107 4.593-.329 1.534-.712 3.072-.879 4.603-.038.352-.055.823.014.988-.056-.082.039.044.112.101l.213.203.429.408 1.703 1.651 3.389 3.325.241.237-.187.301c-.562.9-1.095 1.837-1.575 2.784-.46.933-.967 1.942-1.07 2.849.011.087.001.201.02.258a.131.131 0 0 1 .023.067c.002.028.068.089.098.132.146.186.344.393.516.589l1.093 1.196c.73.8 1.459 1.604 2.171 2.423 1.405 1.656 2.761 3.359 3.996 5.152a25.092 25.092 0 0 1 1.674 2.804c.499.966.909 1.99 1.111 3.056z" fill="#000"/><path d="M132.173 92.878c-1.89.579-3.83-.17-5.147-1.327-2.923-2.568-3.494-5.454-2.5-7.53.817-1.707 3.157-3.003 5.001-2.118 1.971.945 2.135 1.88 2.977 3.105.865 1.257 2.512.006 1.325-5.163 3.385-2.085 2.138-8.01 3.794-10.67 2.593-4.165 7.686-3.732 9.404-3.015 1.309-1.333 4.138-2.234 6.735-1.198 2.548 1.016 4.45 3.542 6.345 12.751 1.93 9.387 1.003 15.89-.96 18.148-1.35 1.553-4.762 2.99-8.118 3.172l-.394 5.163s11.087 8.702-1.301 9.17c-9.284.351-16.025-9.08-16.025-9.08l.73-13.128s-.07 1.168-1.866 1.72z" fill="#FFA8A7"/><path d="m144.246 75.6-3.344 1.772c-.469-.964-.101-2.141.822-2.63.924-.49 2.052-.105 2.522.858zM157.573 72.89l-3.768-.573c.117-1.058 1.056-1.788 2.095-1.63 1.042.159 1.791 1.145 1.673 2.203z" fill="#263238"/><path d="m145.903 88.27 5.356.807c-.168 1.505-1.502 2.545-2.982 2.322-1.478-.222-2.541-1.623-2.374-3.13z" fill="#B16668"/><path d="M149.307 91.349a2.79 2.79 0 0 0-2.783-2.071c-.182.006-.36.032-.531.071.294 1.046 1.171 1.882 2.285 2.05.356.055.703.032 1.029-.05z" fill="#F28F8F"/><path d="M157.329 77.008a1.542 1.542 0 0 1-.639 2.086 1.544 1.544 0 0 1-2.084-.648 1.542 1.542 0 0 1 .639-2.086 1.544 1.544 0 0 1 2.084.648zM146.421 79.71c.119.312-.894-.299-1.944-.15-1.339.189-2.129 1.497-1.997.653.117-.752.581-1.476 1.848-1.658.969-.138 1.755.268 2.093 1.156z" fill="#263238"/><path d="m149.533 75.835 1.906 9.924 5.301-2.22c-1.793-3.766-4.899-6.077-7.207-7.704zM151.029 99.033c-4.826.361-10.744-.813-12.82-3.719 1.335 3.235 4.916 4.586 7.701 5.042 3.387.554 4.987.403 4.987.403l.132-1.726zM110.676 188.718c-1.101-1.152-2.508-2.16-2.989-3.744-.247-.817-.189-1.766.335-2.44.109-.14.241-.275.281-.448.033-.144-.001-.294-.032-.439-.126-.602-.171-1.252.08-1.813a1.864 1.864 0 0 1 1.136-1.007 4.356 4.356 0 0 1-.035-2.739c.335-1.045 1.391-1.898 2.12-.749.355.561.62 1.181.851 1.801.577 1.551.939 3.191 1.14 4.831.21 1.717.724 6.576-1.934 6.862-.209.024-.797.048-.953-.115z" fill="#F28F8F"/><path d="M120.668 109.431c-10.218 2.155-11.18 5.394-17.11 13.935-5.852 8.429-13.352 20.197-15.172 24.33-2.253 5.116-2.712 7.072 2.828 12.357 2.854 2.723 6.826 5.957 10.873 9.617 3.194 2.888 7.031 5.939 10.127 8.933.821.793 1.251 1.587 1.004 2.779-.144.695-.432 1.361-.495 2.067-.082.91.213 1.809.276 2.72.062.911-.205 1.965-1.025 2.367-.397.196-.857.203-1.299.181.792.535 1.618 1.042 2.534 1.312.916.27 1.941.282 2.793-.151.825-.421 1.437-1.226 2.319-1.51.476-.153.991-.139 1.472-.278a2.418 2.418 0 0 0 1.25-.856c.494-.649.684-1.569 1.391-1.975.338-.193.742-.232 1.1-.385.732-.312 1.192-1.081 1.338-1.863.146-.783.027-1.588-.107-2.373a59.208 59.208 0 0 0-1.427-6.255c-.203-.711-.624-1.319-1.054-1.91-.496-.682-.969-1.386-1.503-2.037-3.621-4.417-15.108-19.157-15.108-19.157l12.684-16.628s9.265-10.736 2.311-25.22z" fill="#FFA8A7"/><path d="M105.673 151.278c-3.054 3.122-7.888 3.47-9.674 3.398 6.344 2.43 10.712-2.067 10.712-2.067l-1.038-1.331z" fill="#F28F8F"/><path d="m99.209 167.167 2.878 2.503s3.922-.311 7.044-4.053c3.197-3.832 2.948-6.63 2.948-6.63l-3.337-3.779-9.534 11.959z" fill="#F0F0F0"/><path d="M120.783 107.763c-7.336 1.606-8.7 2.582-13.946 9.926-5.245 7.343-14.101 21.355-16.404 24.974-2.303 3.62-5.74 9.877-3.752 13.013 1.99 3.136 12.896 12.334 12.896 12.334s3.691-.176 7.294-3.885c3.742-3.852 3.443-7.787 3.443-7.787l-4.045-5.073s11.316-14.581 13.364-17.279c2.049-2.698 6.573-11.788 1.15-26.223z" fill="url(#N)"/><path opacity=".15" d="M106.27 151.265c-1.469-1.654-5.054-4.342-7.68-4.8 2.746-.479 6.849 1.488 8.782 3.297l-1.102 1.503z" fill="#000"/><defs><linearGradient id="u" x1="363.412" y1="60.451" x2="365.479" y2="60.46" gradientUnits="userSpaceOnUse"><stop stop-color="#E34C98"/><stop offset="1" stop-color="#7C1E84"/></linearGradient><linearGradient id="a" x1="233.5" y1="401.277" x2="32.5" y2="401.277" gradientUnits="userSpaceOnUse"><stop stop-color="#fff" stop-opacity=".1"/><stop offset="1" stop-color="#fff" stop-opacity=".08"/></linearGradient><linearGradient id="c" x1="360.603" y1="76.862" x2="361.295" y2="76.862" gradientUnits="userSpaceOnUse"><stop stop-color="#E34C98"/><stop offset="1" stop-color="#7C1E84"/></linearGradient><linearGradient id="d" x1="373.878" y1="32.425" x2="379.093" y2="32.438" gradientUnits="userSpaceOnUse"><stop stop-color="#E34C98"/><stop offset="1" stop-color="#7C1E84"/></linearGradient><linearGradient id="e" x1="349.094" y1="68.219" x2="354.31" y2="68.233" gradientUnits="userSpaceOnUse"><stop stop-color="#E34C98"/><stop offset="1" stop-color="#7C1E84"/></linearGradient><linearGradient id="f" x1="378.991" y1="45.358" x2="387.518" y2="45.497" gradientUnits="userSpaceOnUse"><stop stop-color="#E34C98"/><stop offset="1" stop-color="#7C1E84"/></linearGradient><linearGradient id="g" x1="340.669" y1="55.283" x2="349.195" y2="55.422" gradientUnits="userSpaceOnUse"><stop stop-color="#E34C98"/><stop offset="1" stop-color="#7C1E84"/></linearGradient><linearGradient id="h" x1="380.864" y1="59.121" x2="390.604" y2="59.188" gradientUnits="userSpaceOnUse"><stop stop-color="#E34C98"/><stop offset="1" stop-color="#7C1E84"/></linearGradient><linearGradient id="i" x1="337.583" y1="41.522" x2="347.324" y2="41.589" gradientUnits="userSpaceOnUse"><stop stop-color="#E34C98"/><stop offset="1" stop-color="#7C1E84"/></linearGradient><linearGradient id="j" x1="377.282" y1="70.953" x2="385.81" y2="70.98" gradientUnits="userSpaceOnUse"><stop stop-color="#E34C98"/><stop offset="1" stop-color="#7C1E84"/></linearGradient><linearGradient id="k" x1="343.208" y1="28.471" x2="351.737" y2="28.498" gradientUnits="userSpaceOnUse"><stop stop-color="#E34C98"/><stop offset="1" stop-color="#7C1E84"/></linearGradient><linearGradient id="l" x1="370.131" y1="76.746" x2="375.347" y2="76.754" gradientUnits="userSpaceOnUse"><stop stop-color="#E34C98"/><stop offset="1" stop-color="#7C1E84"/></linearGradient><linearGradient id="m" x1="353.673" y1="22.677" x2="358.888" y2="22.686" gradientUnits="userSpaceOnUse"><stop stop-color="#E34C98"/><stop offset="1" stop-color="#7C1E84"/></linearGradient><linearGradient id="n" x1="354.107" y1="49.355" x2="378.193" y2="49.421" gradientUnits="userSpaceOnUse"><stop stop-color="#E34C98"/><stop offset="1" stop-color="#7C1E84"/></linearGradient><linearGradient id="o" x1="349.96" y1="50.903" x2="374.387" y2="50.973" gradientUnits="userSpaceOnUse"><stop stop-color="#E34C98"/><stop offset="1" stop-color="#7C1E84"/></linearGradient><linearGradient id="p" x1="353.072" y1="50.903" x2="371.273" y2="50.956" gradientUnits="userSpaceOnUse"><stop stop-color="#E34C98"/><stop offset="1" stop-color="#7C1E84"/></linearGradient><linearGradient id="q" x1="353.477" y1="50.903" x2="370.868" y2="50.953" gradientUnits="userSpaceOnUse"><stop stop-color="#E34C98"/><stop offset="1" stop-color="#7C1E84"/></linearGradient><linearGradient id="r" x1="354.92" y1="50.485" x2="370.871" y2="50.529" gradientUnits="userSpaceOnUse"><stop stop-color="#E34C98"/><stop offset="1" stop-color="#7C1E84"/></linearGradient><linearGradient id="s" x1="356.778" y1="50.969" x2="368.681" y2="50.997" gradientUnits="userSpaceOnUse"><stop stop-color="#E34C98"/><stop offset="1" stop-color="#7C1E84"/></linearGradient><linearGradient id="t" x1="357.183" y1="52.472" x2="362.144" y2="52.527" gradientUnits="userSpaceOnUse"><stop stop-color="#E34C98"/><stop offset="1" stop-color="#7C1E84"/></linearGradient><linearGradient id="b" x1="366.891" y1="23.78" x2="367.583" y2="23.78" gradientUnits="userSpaceOnUse"><stop stop-color="#E34C98"/><stop offset="1" stop-color="#7C1E84"/></linearGradient><linearGradient id="v" x1="356.778" y1="51.54" x2="366.694" y2="51.56" gradientUnits="userSpaceOnUse"><stop stop-color="#E34C98"/><stop offset="1" stop-color="#7C1E84"/></linearGradient><linearGradient id="w" x1="362.612" y1="43.483" x2="364.674" y2="43.489" gradientUnits="userSpaceOnUse"><stop stop-color="#E34C98"/><stop offset="1" stop-color="#7C1E84"/></linearGradient><linearGradient id="x" x1="17.833" y1="366.169" x2="287.497" y2="369.185" gradientUnits="userSpaceOnUse"><stop stop-color="#E34C98"/><stop offset="1" stop-color="#7C1E84"/></linearGradient><linearGradient id="y" x1="113.332" y1="339.212" x2="287.501" y2="340.034" gradientUnits="userSpaceOnUse"><stop stop-color="#E34C98"/><stop offset="1" stop-color="#7C1E84"/></linearGradient><linearGradient id="z" x1="108.577" y1="360.816" x2="287.498" y2="362.017" gradientUnits="userSpaceOnUse"><stop stop-color="#E34C98"/><stop offset="1" stop-color="#7C1E84"/></linearGradient><linearGradient id="A" x1="157.465" y1="115.686" x2="209.444" y2="116.043" gradientUnits="userSpaceOnUse"><stop stop-color="#E34C98"/><stop offset="1" stop-color="#7C1E84"/></linearGradient><linearGradient id="B" x1="166.208" y1="76.311" x2="174.074" y2="76.348" gradientUnits="userSpaceOnUse"><stop stop-color="#E34C98"/><stop offset="1" stop-color="#7C1E84"/></linearGradient><linearGradient id="C" x1="168.582" y1="75.902" x2="174.073" y2="75.922" gradientUnits="userSpaceOnUse"><stop stop-color="#E34C98"/><stop offset="1" stop-color="#7C1E84"/></linearGradient><linearGradient id="D" x1="227.118" y1="54.451" x2="243.315" y2="54.51" gradientUnits="userSpaceOnUse"><stop stop-color="#E34C98"/><stop offset="1" stop-color="#7C1E84"/></linearGradient><linearGradient id="E" x1="219.911" y1="55.813" x2="238.558" y2="55.884" gradientUnits="userSpaceOnUse"><stop stop-color="#E34C98"/><stop offset="1" stop-color="#7C1E84"/></linearGradient><linearGradient id="F" x1="228.468" y1="53.183" x2="249.63" y2="53.28" gradientUnits="userSpaceOnUse"><stop stop-color="#E34C98"/><stop offset="1" stop-color="#7C1E84"/></linearGradient><linearGradient id="G" x1="231.924" y1="51.873" x2="253.206" y2="51.967" gradientUnits="userSpaceOnUse"><stop stop-color="#E34C98"/><stop offset="1" stop-color="#7C1E84"/></linearGradient><linearGradient id="H" x1="236.995" y1="51.002" x2="253.204" y2="51.062" gradientUnits="userSpaceOnUse"><stop stop-color="#E34C98"/><stop offset="1" stop-color="#7C1E84"/></linearGradient><linearGradient id="I" x1="239.024" y1="51.275" x2="249.152" y2="51.303" gradientUnits="userSpaceOnUse"><stop stop-color="#E34C98"/><stop offset="1" stop-color="#7C1E84"/></linearGradient><linearGradient id="J" x1="239.026" y1="51.904" x2="247.641" y2="51.929" gradientUnits="userSpaceOnUse"><stop stop-color="#E34C98"/><stop offset="1" stop-color="#7C1E84"/></linearGradient><linearGradient id="K" x1="239.07" y1="51.951" x2="245.718" y2="51.974" gradientUnits="userSpaceOnUse"><stop stop-color="#E34C98"/><stop offset="1" stop-color="#7C1E84"/></linearGradient><linearGradient id="L" x1="150.618" y1="145.898" x2="174.135" y2="145.926" gradientUnits="userSpaceOnUse"><stop stop-color="#E34C98"/><stop offset="1" stop-color="#7C1E84"/></linearGradient><linearGradient id="M" x1="111.848" y1="148.223" x2="146.595" y2="148.281" gradientUnits="userSpaceOnUse"><stop stop-color="#E34C98"/><stop offset="1" stop-color="#7C1E84"/></linearGradient><linearGradient id="N" x1="86.086" y1="137.886" x2="123.364" y2="137.983" gradientUnits="userSpaceOnUse"><stop stop-color="#E34C98"/><stop offset="1" stop-color="#7C1E84"/></linearGradient></defs></svg>