<svg width="472" height="440" fill="none" xmlns="http://www.w3.org/2000/svg"><path d="M40.374 217.955c1.22-.764 2.841-.787 4.119-.13.635.332 1.236.718 1.886 1.018.635.317 1.316.597 1.832 1.107a4.116 4.116 0 0 1 1.138 1.787c.228.686.174 1.411.214 2.112l.145 4.242-.047-.044 17.571-.595-.1.104-.204-5.579a4.113 4.113 0 0 1 1.037-2.641c.64-.757 1.561-1.151 2.317-1.659l1.192-.74c.41-.265.862-.473 1.338-.597a4.392 4.392 0 0 1 2.904.21l5.018 2.598-.35.104 8.206-15.342.155.506-5.02-2.623a4.51 4.51 0 0 1-1.903-2.36 4.7 4.7 0 0 1-.268-1.503l-.055-1.383-.059-1.382a4.558 4.558 0 0 1 .154-1.528 4.474 4.474 0 0 1 1.764-2.507l4.813-2.973-.16.673-9.308-14.71.748.173-4.835 2.961a4.694 4.694 0 0 1-3.115.457 4.796 4.796 0 0 1-1.487-.566l-1.206-.684-1.242-.619a4.794 4.794 0 0 1-1.293-.912 4.56 4.56 0 0 1-1.323-2.801l-.166-5.611.528.49-17.575.483.443-.464.13 5.606a4.483 4.483 0 0 1-1.13 2.791 4.52 4.52 0 0 1-1.21.948l-1.19.716-1.19.716c-.426.285-.9.498-1.397.627a4.586 4.586 0 0 1-2.996-.275l-4.992-2.672.407-.121-8.42 15.228-.072-.239 4.966 2.682a4.22 4.22 0 0 1 1.75 2.229c.329.918.207 1.888.265 2.796-.011.912.159 1.873-.114 2.799a4.099 4.099 0 0 1-1.615 2.285l-4.812 2.933.02-.084 9.227 14.76-.02-.005 4.587-2.792zm0 0-4.572 2.813-.012.008-.008-.012-9.308-14.71-.032-.052.052-.033 4.789-2.953a3.938 3.938 0 0 0 1.54-2.205c.26-.882.078-1.812.076-2.747-.07-.935.032-1.874-.29-2.726a3.963 3.963 0 0 0-1.67-2.072l-4.988-2.604-.157-.082.083-.157 8.205-15.343.139-.26.268.139 4.989 2.586c.792.348 1.7.421 2.532.199a3.804 3.804 0 0 0 1.157-.538l1.215-.754 1.215-.752c.37-.207.704-.476.983-.793a3.688 3.688 0 0 0 .897-2.303l-.21-5.549-.016-.45.46-.015 17.57-.594.512-.018.018.508.193 5.545c.077.807.45 1.579 1.031 2.152.29.287.632.52 1.002.698l1.286.634 1.25.699a3.6 3.6 0 0 0 3.511.069l4.796-2.903.464-.281.284.454 9.227 14.759.26.417-.42.257-4.785 2.919a3.527 3.527 0 0 0-1.401 1.975 3.84 3.84 0 0 0-.137 1.231l.042 1.404.035 1.404c.003.419.065.838.203 1.234a3.664 3.664 0 0 0 1.518 1.939l4.935 2.664.335.181-.18.325-8.418 15.229-.124.225-.225-.121-4.956-2.654a3.974 3.974 0 0 0-2.62-.222c-.878.201-1.606.794-2.443 1.259-.802.519-1.675.878-2.263 1.565a3.83 3.83 0 0 0-.997 2.439l.128 5.567.002.101-.102.003-17.574.483-.047.001-.001-.045-.122-4.242c-.035-.705.022-1.424-.2-2.097a4.059 4.059 0 0 0-1.114-1.772c-.508-.505-1.179-.786-1.816-1.108-.65-.303-1.252-.693-1.882-1.029-1.27-.659-2.887-.648-4.112.111z" fill="#EBEBEB"/><path d="M43.996 192.274c1.355-3.459 4.04-6.459 7.525-7.983 3.432-1.563 7.52-1.847 11.142-.526 3.595 1.291 6.768 3.968 8.362 7.497 1.644 3.484 1.814 7.62.444 11.25-1.45 3.573-4.276 6.634-7.877 8.149-3.572 1.523-7.74 1.608-11.304.165-1.77-.73-3.422-1.741-4.791-3.056a14.111 14.111 0 0 1-3.212-4.603c-1.557-3.415-1.656-7.422-.29-10.893zm0 0c-1.316 3.49-1.151 7.473.438 10.826 1.537 3.399 4.593 5.962 8.053 7.209 3.482 1.27 7.413.997 10.712-.508 3.353-1.467 5.92-4.353 7.228-7.683 1.312-3.329 1.222-7.183-.271-10.471-1.396-3.342-4.267-5.998-7.69-7.368-3.429-1.389-7.437-1.301-10.878.158-3.469 1.458-6.187 4.396-7.592 7.837zM451.141 205.132l-6.156-10.521-3.264 1.86a2.96 2.96 0 0 1-3.07-.102 17.144 17.144 0 0 0-1.595-.91c-.985-.493-1.619-1.475-1.619-2.566v-3.719h-12.32v3.719c0 1.091-.634 2.073-1.62 2.566-.549.276-1.081.579-1.594.91a2.96 2.96 0 0 1-3.07.102l-3.266-1.86-6.155 10.521 3.28 1.862c.961.546 1.491 1.587 1.434 2.679a16.616 16.616 0 0 0 0 1.788c.057 1.088-.47 2.124-1.426 2.668l-3.289 1.874 6.155 10.522 3.275-1.862a2.965 2.965 0 0 1 3.071.106c.51.329 1.041.633 1.588.907.984.495 1.617 1.476 1.617 2.566v3.719h12.32v-3.719c0-1.09.633-2.071 1.617-2.566a16.875 16.875 0 0 0 1.588-.907 2.965 2.965 0 0 1 3.071-.106l3.275 1.862 6.155-10.522-3.276-1.864c-.957-.545-1.485-1.583-1.429-2.671a16.821 16.821 0 0 0 0-1.795c-.057-1.093.472-2.133 1.434-2.681l3.269-1.86zm-11.777 5.435c0 5.495-4.512 9.946-10.084 9.946s-10.095-4.451-10.095-9.946 4.523-9.955 10.095-9.955c5.571.001 10.084 4.46 10.084 9.955zM129.978 111.792l-6.156-10.521-3.264 1.86a2.96 2.96 0 0 1-3.07-.102 17.258 17.258 0 0 0-1.594-.91c-.986-.493-1.62-1.475-1.62-2.566v-3.719h-12.32v3.719c0 1.091-.634 2.073-1.62 2.566a17.08 17.08 0 0 0-1.594.91 2.96 2.96 0 0 1-3.07.102l-3.265-1.86-6.156 10.521 3.28 1.862c.961.547 1.491 1.587 1.434 2.679a16.961 16.961 0 0 0 0 1.788c.056 1.088-.47 2.124-1.426 2.668l-3.289 1.874 6.155 10.522 3.275-1.862a2.965 2.965 0 0 1 3.07.106c.512.33 1.042.633 1.589.907.984.495 1.617 1.476 1.617 2.566v3.719h12.32v-3.719c0-1.09.633-2.071 1.617-2.566a16.657 16.657 0 0 0 1.588-.907 2.965 2.965 0 0 1 3.071-.106l3.275 1.862 6.155-10.522-3.275-1.864c-.958-.545-1.486-1.583-1.43-2.671a16.821 16.821 0 0 0 0-1.795c-.057-1.093.473-2.133 1.434-2.681l3.269-1.86zm-11.777 5.435c0 5.495-4.512 9.946-10.084 9.946s-10.095-4.451-10.095-9.946 4.523-9.955 10.095-9.955c5.571.001 10.084 4.461 10.084 9.955zM393.157 29.727H285.473S296.151.967 312.582.967c16.432 0 21.579 19.85 21.579 19.85s11.087-10.784 20.194-10.784c9.106 0 17.025 14.252 17.025 14.252s12.869-7.664 21.777 5.442zM220.193 202.163H112.508s10.678-28.761 27.109-28.761c16.432 0 21.579 19.851 21.579 19.851s11.087-10.785 20.194-10.785c9.106 0 17.025 14.252 17.025 14.252s12.87-7.664 21.778 5.443z" fill="#EBEBEB"/><path opacity=".5" d="M459.216 125.262h-50.324s11.244-16.068 20.104-16.068 11.477 10.711 11.477 10.711 6.252-4.999 12.045-4.106c5.793.894 6.698 9.463 6.698 9.463zM319.563 155.123h-50.324s11.244-16.067 20.104-16.067c8.859 0 11.477 10.711 11.477 10.711s6.252-4.999 12.044-4.106c5.793.893 6.699 9.462 6.699 9.462z" fill="#EBEBEB"/><path d="M98.022 154.809H0s13.424-29.555 27.784-31.402c14.36-1.847 21.227 21.962 21.227 21.962s9.26-8.415 16.545-8.415c7.284 0 12.903 11.083 12.903 11.083s14.568-7.595 19.563 6.772z" fill="#EBEBEB"/><path opacity=".5" d="M166.351 75.873h-66.215S111.51 54.46 123.85 54.148c12.34-.312 18.826 16.205 18.826 16.205s19.193-15.191 23.675 5.52z" fill="#EBEBEB"/><path d="M114.639 355.475H29.906v83.006h84.733v-83.006z" fill="url(#a)"/><path opacity=".1" d="M54.876 355.475h-24.97v83.006h24.97v-83.006z" fill="#000"/><path d="M224.611 317.283h-84.733v121.198h84.733V317.283z" fill="url(#b)"/><path opacity=".1" d="M164.848 317.283h-24.97v121.198h24.97V317.283z" fill="#000"/><path d="M334.583 279.091H249.85v159.39h84.733v-159.39z" fill="url(#c)"/><path opacity=".1" d="M274.82 279.091h-24.97v159.39h24.97v-159.39z" fill="#000"/><path d="M444.555 240.899h-84.733v197.583h84.733V240.899z" fill="url(#d)"/><path opacity=".1" d="M384.792 240.899h-24.97v197.583h24.97V240.899z" fill="#000"/><path d="M29.788 248.879c2.07-.001 4.433-.055 6.68-.113 2.286-.077 4.567-.137 6.864-.251 4.585-.191 9.187-.451 13.788-.761 9.205-.588 18.414-1.438 27.616-2.39a780.292 780.292 0 0 0 54.999-7.863 760.756 760.756 0 0 0 54.341-11.822 683.31 683.31 0 0 0 53.21-16.188c17.545-6.04 34.683-13.169 51.519-20.942 16.884-7.703 33.161-16.645 49.004-26.286l11.779-7.411 11.438-7.92c3.875-2.569 7.509-5.444 11.196-8.259l5.53-4.23 2.767-2.116 2.656-2.244 10.623-9.003c1.812-1.461 3.442-3.11 5.144-4.688l5.067-4.777 5.071-4.78c1.679-1.605 3.218-3.343 4.834-5.01l9.599-10.11.635.527-9.125 10.582c-1.541 1.748-3.005 3.569-4.609 5.259l-4.857 5.039-4.861 5.042c-1.634 1.668-3.201 3.408-4.948 4.962l-10.258 9.572-2.572 2.391-2.683 2.264-5.371 4.53c-3.585 3.017-7.123 6.1-10.904 8.876l-11.182 8.557-11.557 8.063c-15.565 10.521-31.658 20.38-48.419 29.013-16.716 8.702-33.812 16.781-51.364 23.769a695.46 695.46 0 0 1-53.407 19.05 775.644 775.644 0 0 1-54.856 14.678 797.204 797.204 0 0 1-55.87 10.697c-9.39 1.422-18.8 2.74-28.27 3.796a555.857 555.857 0 0 1-14.241 1.462c-2.377.23-4.776.408-7.17.602-2.432.175-4.75.343-7.366.468l-.47-22.035z" fill="url(#e)"/><path d="m437.014 104.86-5.497-10.174-11.242-3.162 24.397-12.9-7.658 26.236z" fill="url(#f)"/><path d="M409.835 234.658h-16.008s-1.241-3.554 3.393-17.263c4.634-13.709 7.465-26.658 1.288-40.114-6.179-13.455-10.21-30.169-3.535-47.039 7.535-19.047 9.619-18.772-.193-45.869-.859-2.37-.049-2.466 1.153-.943 1.201 1.523 8.409 19.464 9.267 24.372 0 0 7.037-11.51 9.611-11.678 2.575-.17 1.685.281 0 2.2-12.066 13.741-18.706 36.051-19.05 47.052-.343 11.001 5.491 22.849 5.491 22.849s7.894-11.848 13.044-16.756c5.148-4.909 8.581-12.356 5.834-18.957-2.745-6.6 8.637 3.216.972 14.049 0 0 11.557-2.2 14.303 2.37 2.745 4.569-7.551-5.416-17.677 3.554s-13.215 19.633-13.215 19.633 9.861 22.136 6.693 34.528c-5.147 20.142-1.371 28.012-1.371 28.012z" fill="url(#g)"/><path opacity=".5" d="M409.835 234.658h-16.008s-1.241-3.554 3.393-17.263c4.634-13.709 7.465-26.658 1.288-40.114-6.179-13.455-10.21-30.169-3.535-47.039 7.535-19.047 9.619-18.772-.193-45.869-.859-2.37-.049-2.466 1.153-.943 1.201 1.523 8.409 19.464 9.267 24.372 0 0 7.037-11.51 9.611-11.678 2.575-.17 1.685.281 0 2.2-12.066 13.741-18.706 36.051-19.05 47.052-.343 11.001 5.491 22.849 5.491 22.849s7.894-11.848 13.044-16.756c5.148-4.909 8.581-12.356 5.834-18.957-2.745-6.6 8.637 3.216.972 14.049 0 0 11.557-2.2 14.303 2.37 2.745 4.569-7.551-5.416-17.677 3.554s-13.215 19.633-13.215 19.633 9.861 22.136 6.693 34.528c-5.147 20.142-1.371 28.012-1.371 28.012z" fill="#000"/><path d="M406.701 169.365s14.364-3.916 22.154 9.955c0 0-14.645 2.65-22.154-9.955zM371.477 93.51s13.168-6.885 23.812 4.999c0 0-13.718 5.708-23.812-5z" fill="#37474F"/><path d="M410.358 165.545s7.148-7.308 16.725-1.759c0 0-7.766 6.652-16.725 1.759zM403.872 94.585s1.127-10.093 12.145-11.475c0 0-2.022 9.947-12.145 11.475zM374.819 129.151s10.078-2.084 14.836 7.814c0 0-10.215 1.199-14.836-7.814z" fill="#37474F"/><path d="m383.601 197.884.908 10.622 2.781 32.394h29.795l2.783-32.394.907-10.622h-37.174z" fill="#455A64"/><path d="m383.601 197.884.908 10.622h35.359l.907-10.622h-37.174z" fill="#263238"/><path d="M380.678 203.812H423.7v-10.19h-43.022v10.19z" fill="#455A64"/><path d="M283.34 269.99h18.505s-11.811-16.234-14.483-24.939c-3.953-12.883 2.95-25.34 12.35-32.224 4.268-3.126 8.653 1.448 14.834-.028 7.608-1.816 7.437-8.093 7.138-8.715-.3-.624-1.369 5.483-5.012 6.687-8.357 2.765-11.197-3.478-18.683-.954 0 0 .465-3.534.119-7.897-.345-4.364 4.324-17.242 16.782-15.927 1.609.17.633-.907-2.298-1.134-2.932-.227-6.035 1.077-6.035 1.077s2.586-2.833 2.873-6.404c.287-3.571 2.471-5.782 2.242-6.348-.23-.567-2.069.68-2.873 4.42 0 0-1.84 5.838-4.023 7.708-2.184 1.871-6.71 7.043-7.86 12.087 0 0-.325-3.169-.876-9.252-.403-4.457-3.16-8.049-3.851-7.765-.69.283 2.644 4.194 2.816 8.388.172 4.193-.642 8.727.193 12.21 1.337 5.569-.078 11.65-2.779 14.711s-9.712 9.312-10.056 20.534c-.345 11.223 3.851 29.117.977 33.765z" fill="url(#h)"/><path d="M283.34 269.99h18.505s-11.811-16.234-14.483-24.939c-3.953-12.883 2.95-25.34 12.35-32.224 4.268-3.126 8.653 1.448 14.834-.028 7.608-1.816 7.437-8.093 7.138-8.715-.3-.624-1.369 5.483-5.012 6.687-8.357 2.765-11.197-3.478-18.683-.954 0 0 .465-3.534.119-7.897-.345-4.364 4.324-17.242 16.782-15.927 1.609.17.633-.907-2.298-1.134-2.932-.227-6.035 1.077-6.035 1.077s2.586-2.833 2.873-6.404c.287-3.571 2.471-5.782 2.242-6.348-.23-.567-2.069.68-2.873 4.42 0 0-1.84 5.838-4.023 7.708-2.184 1.871-6.71 7.043-7.86 12.087 0 0-.325-3.169-.876-9.252-.403-4.457-3.16-8.049-3.851-7.765-.69.283 2.644 4.194 2.816 8.388.172 4.193-.642 8.727.193 12.21 1.337 5.569-.078 11.65-2.779 14.711s-9.712 9.312-10.056 20.534c-.345 11.223 3.851 29.117.977 33.765z" fill="#000" opacity=".5"/><path d="M294.508 207.904s-12.72 2.014-18.07-10.635c0 0 12.837-.899 18.07 10.635zM293.737 210.834s-4.74 7.428-13.837 4.399c0 0 5.38-6.98 13.837-4.399zM332.997 217.448s-8.594 2.279-13.187-6.036c0 0 8.756-1.522 13.187 6.036zM306.19 181.614s-8.8-1.305-9.633-10.738c0 0 8.642 2.062 9.633 10.738z" fill="#37474F"/><path d="m275.149 236.223.908 10.622 2.781 32.394h29.796l2.782-32.394.907-10.622h-37.174z" fill="#455A64"/><path d="m275.149 236.223.908 10.622h35.359l.907-10.622h-37.174z" fill="#263238"/><path d="M272.225 242.151h43.022v-10.19h-43.022v10.19z" fill="#455A64"/><path d="M169.364 305.314h14.995s-9.57-13.155-11.735-20.209c-3.204-10.44 2.391-20.533 10.008-26.112 3.457-2.533 7.011 1.174 12.02-.022 6.165-1.471 6.025-6.558 5.784-7.062-.243-.505-1.11 4.442-4.061 5.419-6.771 2.24-9.073-2.818-15.139-.774 0 0-.191-2.863.097-6.399.612-7.517 6.846-12.951 6.846-12.951s2.095-2.297 2.329-5.19c.232-2.893 2.002-4.685 1.816-5.143-.187-.46-1.676.551-2.329 3.582 0 0-1.49 4.73-3.26 6.245-1.769 1.516-5.437 5.707-6.369 9.795 0 0-1.455 12.342-3.644 14.823-2.189 2.48-7.869 7.546-8.15 16.64-.279 9.092 3.12 23.592.792 27.358z" fill="url(#i)"/><path d="M169.364 305.314h14.995s-9.57-13.155-11.735-20.209c-3.204-10.44 2.391-20.533 10.008-26.112 3.457-2.533 7.011 1.174 12.02-.022 6.165-1.471 6.025-6.558 5.784-7.062-.243-.505-1.11 4.442-4.061 5.419-6.771 2.24-9.073-2.818-15.139-.774 0 0-.191-2.863.097-6.399.612-7.517 6.846-12.951 6.846-12.951s2.095-2.297 2.329-5.19c.232-2.893 2.002-4.685 1.816-5.143-.187-.46-1.676.551-2.329 3.582 0 0-1.49 4.73-3.26 6.245-1.769 1.516-5.437 5.707-6.369 9.795 0 0-1.455 12.342-3.644 14.823-2.189 2.48-7.869 7.546-8.15 16.64-.279 9.092 3.12 23.592.792 27.358z" fill="#000" opacity=".5"/><path d="M178.705 250.318s-8.9-.002-11.143-9.209c0 0 8.856.776 11.143 9.209zM212.955 245.744s-2.876 8.307-12.435 7.429c0 0 3.603-8.016 12.435-7.429zM191.044 227.096s-8.086-3.665-6.229-12.955c0 0 7.72 4.349 6.229 12.955z" fill="#37474F"/><path d="m157.491 274.268.907 10.621 2.782 32.394h29.795l2.783-32.394.907-10.621h-37.174z" fill="#455A64"/><path d="m157.491 274.268.907 10.621h35.36l.907-10.621h-37.174z" fill="#263238"/><path d="M154.567 280.196h43.022v-10.191h-43.022v10.191z" fill="#455A64"/><path d="M67.488 329.967H79.34s-7.565-10.398-9.276-15.972c-2.532-8.252 2.874-17.444 7.476-20.313 2.878-1.794 5.975.602 9.934-.343 4.872-1.163 4.763-5.183 4.572-5.582-.191-.399-.878 3.511-3.21 4.284-5.352 1.771-7.17-2.227-11.965-.612 0 0 .18-6.368-4.813-9.313-.892-.525 2.055 2.508 2.84 6.083.613 2.797.146 4.973-1.594 6.993-1.707 1.98-6.22 5.963-6.442 13.151-.22 7.187 2.466 18.647.626 21.624z" fill="url(#j)"/><path d="M67.488 329.967H79.34s-7.565-10.398-9.276-15.972c-2.532-8.252 2.874-17.444 7.476-20.313 2.878-1.794 5.975.602 9.934-.343 4.872-1.163 4.763-5.183 4.572-5.582-.191-.399-.878 3.511-3.21 4.284-5.352 1.771-7.17-2.227-11.965-.612 0 0 .18-6.368-4.813-9.313-.892-.525 2.055 2.508 2.84 6.083.613 2.797.146 4.973-1.594 6.993-1.707 1.98-6.22 5.963-6.442 13.151-.22 7.187 2.466 18.647.626 21.624z" fill="#000" opacity=".5"/><path d="m53.685 312.46.907 10.622 2.782 32.393H87.17l2.781-32.393.908-10.622H53.685z" fill="#455A64"/><path d="m53.685 312.46.907 10.622h35.36l.907-10.622H53.685z" fill="#263238"/><path d="M50.76 318.388h43.023v-10.19H50.76v10.19z" fill="#455A64"/><path d="m2.96 438.482 58.569-.268 58.566-.097 117.135-.185 117.135.184 58.567.097 58.568.269-58.568.27-58.567.097-117.135.183-117.135-.185-58.566-.098-58.568-.267zM252.239 51.449c.002.109.168.097.171-.01.153-5.208 5.351-8.673 5.176-13.974-.078-2.328-1.025-4.583-2.348-6.484-.879-1.263-1.968-2.353-3.003-3.487a96.822 96.822 0 0 1-.425-.574c-.893-1.216-1.774-2.457-2.434-3.813-.761-1.567-1.088-3.232-1.267-4.945-.336-3.262-.454-6.582-2.766-9.167-1.93-2.157-4.718-3.414-7.512-4.085-6.325-1.519-13.853-.423-18.043 4.92a11.488 11.488 0 0 0-1.74 3.106s-3.682 2.642-4.793 6.894c-.978 3.743 1.558 6.812 1.324 8.68-.206 1.645-1.224 3.052-1.9 4.537-.695 1.265-1.384 2.538-1.875 3.882-.687 1.885-.618 3.897-.144 5.824.426 1.728 1.166 3.419 2.374 4.758 1.166 1.292 2.699 2.043 4.36 2.53.397.117.796.223 1.194.326.01.006.02.013.031.018 1.395.757 2.904 1.318 4.232 2.192 1.503.994 2.438 2.38 2.94 4.084.456 1.54.607 3.15.958 4.713.327 1.465.879 2.846 1.741 4.085 1.691 2.434 4.272 4.16 7.101 5.062 3.3 1.05 6.91 1.02 10.289.36 3.046-.59 5.92-1.896 7.628-4.557 1.468-2.285 1.941-5.216 1.143-7.819-.485-1.582-1.466-2.948-2.237-4.397-.779-1.47-1.208-3.01-.988-4.672.704-5.367 5.948-9.519 4.565-15.265-.357-1.476-1.066-2.815-1.9-4.086 1.556 1.876 2.736 4.109 3.053 6.531.354 2.703-.647 5.083-1.991 7.38-1.349 2.303-2.954 4.687-2.914 7.453zm-34.588-1.61c-2.318-.724-4.224-1.962-5.429-4.09-1.232-2.177-1.902-4.986-1.482-7.46.21-1.234.751-2.37 1.288-3.493l.043-.093a12.61 12.61 0 0 0-.438 2.4c-.219 2.6.325 5.244 1.503 7.576 1.062 2.1 2.638 3.905 4.617 5.19a3.597 3.597 0 0 1-.102-.03z" fill="#263238"/><path d="M229.652 52.698c4.379 21.763 15.535 40.854 22.081 42.33 9.39 2.12 34.437-.705 45.816-4.028 3.342-.976-4.886-26.483-8.461-25.442-4.321 1.256-29.404 7.026-29.857 7.018-.969-.016-16.043-19.766-19.653-24.876-6.62-9.37-12.309-6.837-9.926 4.998z" fill="#F7A9A0"/><path d="M311.575 86.903c-4.753 2.844-16.782 4.91-19.879 4.307-3.097-.602-7.337-20.654-5.233-23.083 2.103-2.43 18.861-10.781 24.487-10.056 5.625.725 5.55 25.886.625 28.832z" fill="#F7A9A0"/><path d="m367.379 69.359-2.152 9.81 8.443 5.053-6.291-14.863z" fill="#37474F"/><path d="m343.852 85.548-6.298 12.806L367.7 80.67l-2.061-3.216-21.787 8.095zM323.994 71.745s-5.183-18.478-10.218-19.582c-5.045-1.11-14.864 28.382-5.607 37.617 2.963 2.968 8.87 1.833 8.87 1.833l6.955-19.868zM309.863 87.33c-7.209-7.19.176-31.844 4.098-30.987 3.923.858 8.22 16.944 8.22 16.944l-5.416 15.468s-4.595.883-6.902-1.425z" fill="#455A64"/><path d="m345.17 106.721-33.275-6.151 14.657-47.583 21.315 4.13-2.697 49.604z" fill="#37474F"/><path d="m326.552 52.987-2.739-4.17 27.346 4.759-3.292 3.542-21.315-4.131zM371.477 71.159s2.903-3.825 3.857-2.196c.953 1.63-3.857 2.196-3.857 2.196zM372.446 77.272s3.513-3.288 4.175-1.524c.662 1.766-4.175 1.524-4.175 1.524zM378.17 73.147s4.399-2.002 4.45-.12c.053 1.881-4.45.12-4.45.12zM380.629 77.882s4.554-1.627 4.445.252c-.109 1.878-4.445-.252-4.445-.252zM380.509 69.108s3.959-2.753 4.355-.912c.397 1.84-4.355.912-4.355.912zM385.972 72.96s4.624-1.42 4.429.452c-.196 1.871-4.429-.452-4.429-.452zM374.676 83.775s4.791.7 3.79 2.303c-1 1.601-3.79-2.303-3.79-2.303zM384.88 91.708s3.652 3.137 1.935 3.954c-1.719.818-1.935-3.954-1.935-3.954zM379.416 88.702s4.197 2.386 2.67 3.514c-1.528 1.128-2.67-3.514-2.67-3.514zM376.4 81.113s4.78-.776 4.323 1.052c-.457 1.827-4.323-1.052-4.323-1.052zM382.549 84.923s4.518 1.723 3.185 3.068c-1.335 1.346-3.185-3.068-3.185-3.068z" fill="#455A64"/><path d="M302.069 58.67c-1.365 2.574 2.493 2.686 2.493 2.686s-5.593 1.159-5.959 4.35c-.344 3.075 4.321 3.05 4.656 3.052-.295.064-5.407 1.26-5.439 4.505-.031 3.371 4.647 2.552 4.949 2.498-.259.147-3.66 2.142-3.116 4.612.935 4.245 9.772-.621 13.158.479 0 0-1.234 5.873-1.234 6.051 0 0 8.503-4.46 9.752-9.048.659-2.419-1.497-3.501-1.497-3.501s2.903-1.14 3.01-3.692c.052-1.31-2.028-2.56-2.028-2.56s2.285-1.008 2.238-3.285c-.032-1.817-2.113-2.786-2.113-2.786s1.739-1.972 1.095-3.818c-1.293-3.726-17.039-5.054-19.965.457z" fill="#F7A9A0"/><path d="M320.633 61.828c.052.01.075-.061.024-.079-5.071-1.683-11.164-2-16.302-.421-.168.052-.156.344.041.322 5.61-.628 10.641-.745 16.237.178zM320.894 68.079c.06.01.078-.09.016-.11-5.234-1.706-12.108-1.876-17.811.63-.196.087-.284.358-.052.275 3.922-1.384 12.814-1.653 17.847-.795zM302.431 76.071c5.564-2.197 11.282-2.412 17.188-1.802.077.008.081-.1.018-.125-2.806-1.074-6.612-1.076-9.574-.832-2.836.235-5.347 1.01-7.711 2.566-.091.062-.04.24.079.193z" fill="#263238"/><path d="M304.562 61.357a18.107 18.107 0 0 0-3.045 1.236c-.948.508-1.883 1.147-2.397 2.015-.25.428-.356.913-.255 1.38.106.474.319.942.644 1.293.639.721 1.725 1.011 2.685.993l2.415-.045-2.253.871c-.983.38-1.967.917-2.767 1.588-.799.668-1.416 1.543-1.425 2.48-.029.979.49 1.797 1.429 2.073.915.31 2.056.261 3.059.06l2.805-.558-2.455 1.426a9.318 9.318 0 0 0-1.874 1.432c-.543.55-1 1.197-1.118 1.878-.118.666.133 1.405.678 1.769.566.39 1.399.482 2.194.492 1.626.001 3.274-.343 4.924-.602.826-.136 1.656-.275 2.492-.373.83-.084 1.705-.18 2.51.087-.823-.182-1.659.004-2.474.139-.817.16-1.628.358-2.442.557-1.626.397-3.267.78-4.997.874-.856.018-1.787.007-2.651-.508-.887-.538-1.262-1.625-1.101-2.572.16-.966.723-1.731 1.323-2.367a10.212 10.212 0 0 1 2.063-1.625l.35.867c-1.184.246-2.377.343-3.615-.036-.608-.19-1.215-.594-1.584-1.174-.373-.58-.502-1.23-.485-1.869.046-1.33.899-2.41 1.803-3.14.932-.75 1.955-1.287 3.071-1.7l.162.825c-1.221-.019-2.45-.433-3.255-1.4-.393-.481-.612-1.05-.712-1.642-.102-.61.075-1.252.4-1.745.676-.998 1.718-1.543 2.72-2.003a15.206 15.206 0 0 1 3.178-.976z" fill="#263238"/><path d="M289.063 66.208s13.726-18.92 18.595-10.006c1.448 2.65 4.184 15.231 1.632 15.822-3.295.763-5.431-4.279-6.263-7.653 0 0-3.75 7.083-9.53 5.979-3.624-.692-4.434-4.142-4.434-4.142z" fill="#F7A9A0"/><path d="M307.207 55.488c.732.942 1.193 2.06 1.615 3.167.42 1.114.731 2.265.995 3.422.498 2.328.922 4.644 1.008 7.066.012.608-.002 1.227-.176 1.883a2.479 2.479 0 0 1-.485.97 1.791 1.791 0 0 1-.45.397c-.186.106-.37.183-.556.22-.744.183-1.474.007-2.084-.29-.602-.321-1.096-.758-1.524-1.23-.846-.957-1.41-2.063-1.86-3.184-.462-1.122-.78-2.28-1.067-3.439l.779.084a14.403 14.403 0 0 1-1.59 2.234 13.324 13.324 0 0 1-1.973 1.886 9.328 9.328 0 0 1-2.388 1.323 7.153 7.153 0 0 1-2.662.467 8.088 8.088 0 0 0 2.547-.73c.796-.377 1.51-.893 2.167-1.462a12.907 12.907 0 0 0 1.777-1.903 13.664 13.664 0 0 0 1.374-2.18l.471-.95.308 1.034c.332 1.113.659 2.231 1.133 3.279.46 1.045.987 2.08 1.731 2.89.713.795 1.726 1.435 2.622 1.217.804-.123.96-1.407.958-2.51.005-1.142-.111-2.308-.227-3.471a54.824 54.824 0 0 0-.449-3.482c-.433-2.288-.857-4.63-1.994-6.708z" fill="#263238"/><path d="m270.067 69.794 1.809 26.969s-18.013 2.397-22.986-1.676c-4.973-4.073-16.449-24.054-19.253-39.88-2.804-15.824 2.978-18.238 12.379-4.802s16.893 21.704 17.345 21.68c.453-.021 10.706-2.29 10.706-2.29z" fill="url(#k)"/><path d="M265.215 71.955c-.01-.087-.155-.076-.156.01-.057 7.927.46 15.883 1.278 23.765.009.087.157.076.157-.01-.032-7.924-.372-15.89-1.279-23.765z" fill="#263238"/><path opacity=".1" d="M257.091 97.335c-3.42-.244-6.532-.886-8.199-2.25-4.969-4.075-16.449-24.047-19.251-39.883-2.031-11.438.423-15.866 5.492-12.366l21.958 54.499z" fill="#000"/><path d="M213.856 319.949c-2.147.245-59.488-11.808-61.373-13.635-.729-.682.564-9.025 2.421-19.061l.062-.314c.378-2.069 10.476-36.679 10.476-36.679l37.375 8.682-10.77 35.367-.148.616s19.856 14.295 21.716 16.52c1.843 2.215 2.386 8.268.241 8.504z" fill="#F7A9A0"/><path d="M154 292.243c-1.338 7.691-2.126 13.505-1.516 14.071 1.887 1.83 59.225 13.882 61.374 13.635 2.148-.238 1.602-6.288-.245-8.506-1.132-1.352-8.946-7.189-14.884-11.551 3.979 3.176 9.701 10.775-14.841 2.999-15.143-4.8-24.604-8.438-29.888-10.648z" fill="#263238"/><path d="M235.558 88.152s3.203 27.033-2.455 33.19c0 0-8.699 61.253-12.282 79.187-4.73 23.673-23.85 83.952-23.85 83.952l-40.89-9.755s25.833-76.786 26.033-78.329c1.14-8.755 7.828-69.514 7.289-71.014-6.961-19.374 2.317-37.23 2.317-37.23h43.838z" fill="#37474F"/><path d="M196.212 273.634c-5.694-1.552-4.033-1.21-9.75-2.679-2.798-.719-21.188-5.421-23.951-5.498-.061-.002-.092.124-.038.151 2.482 1.201 20.976 5.487 23.791 6.136 5.753 1.326 4.122.864 9.894 2.107.109.023.162-.187.054-.217zM191.841 266.96l12.381-42.994 3.063-10.755 1.489-5.386c.508-1.799.946-3.585 1.208-5.417 1.101-7.36 2.06-14.752 3.042-22.136l6.022-44.297 1.509-11.075.773-5.536c.141-.933.246-1.822.42-2.791.095-.52.144-.847.159-1.34l.051-1.389c.154-7.44.104-14.893.08-22.342.16 7.449.348 14.893.33 22.35-.008.467-.009.933-.036 1.403.005.44-.103 1.034-.165 1.431-.147.867-.261 1.828-.391 2.738l-.737 5.539-1.439 11.082-5.745 44.335c-1.03 7.381-2.034 14.762-3.184 22.134-.278 1.858-.741 3.692-1.258 5.478l-1.526 5.384-3.132 10.74-6.366 21.448-6.548 21.396z" fill="#263238"/><path d="M233.1 121.341s-3.419 24.081-6.85 46.454l-34.531-79.638h43.84s3.196 27.023-2.459 33.184z" fill="#263238"/><path d="M303.147 279.246c-2.053.665-60.681.212-62.9-1.204-.853-.524 5.45-51.892 5.45-51.892l37.464 1.594-6.619 31.335s22.362 10.072 24.638 11.884c2.257 1.804 4.021 7.628 1.967 8.283z" fill="#F7A9A0"/><path d="M303.15 279.246c-.905.293-12.726.369-25.891.245l-2.614-.032c-2.246-.016-4.515-.053-6.762-.089-.875-.02-1.75-.041-2.615-.052l-.04.003c-.865-.02-1.73-.041-2.575-.055a321.118 321.118 0 0 1-3.847-.088c-.814-.024-1.619-.049-2.402-.066l-.03.002c-.785-.026-1.558-.054-2.301-.074l-.031.003a177.9 177.9 0 0 1-3.238-.119c-.693-.024-1.375-.047-2.028-.082a138.967 138.967 0 0 1-3.468-.184c-.52-.024-1.01-.062-1.46-.1-1.123-.084-2.023-.172-2.64-.271-.503-.076-.835-.164-.962-.245-.298-.18-.107-6.435.258-14.567 5.659 1.307 16.014 3.356 31.848 5.601 26.035 3.694 18.276-3.211 13.855-5.554-.043-.028-.085-.044-.128-.072.273.121.557.252.83.385.042.017.094.034.136.06l1.513.709c.547.253 1.103.516 1.65.779.914.429 1.828.857 2.701 1.288.881.411 1.724.825 2.524 1.22.474.239.938.468 1.379.678.221.105.433.222.643.328.284.141.568.282.832.424.59.301 1.108.575 1.551.825.105.053.21.106.307.17.476.268.826.495 1.031.651 2.26 1.797 4.02 7.618 1.974 8.279z" fill="#263238"/><path d="m281.465 244.691-39.254.468s9.723-70.202 8.713-73.526c-.396-1.3-48.008-43.887-48.008-43.887-17.077-16.602-11.196-39.595-11.196-39.595h43.838s.589 6.753 2.894 9.303c13.185 14.589 46.789 44.766 51.937 58.172 6.46 16.827-8.924 89.065-8.924 89.065z" fill="#37474F"/><path d="M191.841 103.052c.151 2.58.605 5.128 1.432 7.561a38.412 38.412 0 0 0 3.082 7.039c2.509 4.479 5.685 8.59 9.321 12.248 3.572 3.737 7.475 7.181 11.347 10.645a410.199 410.199 0 0 0 5.878 5.132l5.915 5.103c-2.129-1.51-4.192-3.105-6.266-4.687a380.84 380.84 0 0 1-6.093-4.906c-4-3.346-7.912-6.802-11.587-10.528-3.622-3.777-6.875-7.956-9.269-12.615-2.366-4.639-3.967-9.795-3.76-14.992zM225.371 91.501c-.074 1.661.026 3.334.369 4.958.186.799.4 1.63.808 2.324.482.67 1.047 1.294 1.595 1.922 2.226 2.495 4.532 4.924 6.831 7.358l13.81 14.593c4.613 4.856 9.175 9.76 13.716 14.684 4.528 4.937 9.047 9.882 13.366 15.013a92.412 92.412 0 0 1 3.133 3.948c.499.68.991 1.366 1.43 2.11.217.357.435.789.553 1.223.122.421.208.843.276 1.263.49 3.368.353 6.711.225 10.044-.338 6.663-1.029 13.292-1.86 19.899-1.656 13.216-3.766 26.367-6.135 39.469a940.71 940.71 0 0 0 2.935-19.75c.933-6.588 1.809-13.184 2.561-19.794.729-6.609 1.442-13.226 1.738-19.858.117-3.305.231-6.654-.253-9.881a9.755 9.755 0 0 0-.26-1.174c-.103-.369-.266-.688-.481-1.043-.411-.693-.897-1.367-1.389-2.032a93.56 93.56 0 0 0-3.119-3.9c-8.611-10.217-17.835-19.948-26.907-29.793l-13.64-14.751c-2.249-2.48-4.505-4.955-6.686-7.499-.537-.642-1.087-1.273-1.568-1.97-.421-.753-.606-1.572-.781-2.388-.31-1.638-.374-3.316-.267-4.975zM278.403 235.495c-5.487-.159-3.911-.222-9.399-.295-2.687-.036-20.336-.25-22.846.329-.056.013-.056.143 0 .155 2.51.579 20.159.365 22.846.329 5.488-.074 3.912-.136 9.399-.296.103-.002.103-.219 0-.222z" fill="#263238"/><path d="m237.993 81.348-2.177 6.803s-29.587 3.1-43.977 0c0 0 10.151-34.681 26.791-44.264 8.322-4.793 15.494-2.074 18.711 4.013.813 1.54 6.714 16.344 6.714 22.556 0 6.618-6.062 10.892-6.062 10.892z" fill="url(#l)"/><path d="M231.754 76.286c-2.369.26-4.746.603-7.054 1.207-1.148.3-2.274.65-3.398 1.028-.561.187-1.125.356-1.691.521-.582.17-1.207.33-1.817.354-.055.002-.053.082.002.084.593.01 1.161.02 1.752-.048.562-.064 1.12-.187 1.669-.325 1.166-.294 2.32-.641 3.484-.947 2.349-.617 4.696-1.233 7.085-1.681.11-.02.081-.205-.032-.193zM237.653 78.314a53.326 53.326 0 0 0-5.904-.23 35.53 35.53 0 0 0-2.944.199c-.469.048-.936.106-1.403.168-.513.07-1.018.207-1.532.268-.054.007-.053.09.002.084.486-.044.983-.008 1.471-.023.49-.016.981-.035 1.472-.052.983-.032 1.964-.053 2.948-.095 1.966-.082 3.925-.145 5.893-.16.108 0 .098-.15-.003-.16z" fill="#263238"/><path d="M217.135 44.92c-20.187 11.674-38.77 26.607-39.056 33.665-.386 9.493 9.108 29.897 15.029 40.038 1.74 2.979 24.981-10.841 23.125-14.028-2.243-3.852-14.172-23.6-14.269-24.035-.209-.934 15.424-22.55 19.286-27.626 6.449-8.477 4.844-13.195-4.115-8.014z" fill="#F7A9A0"/><path d="M233.213 133.154c-1.748 2.268-4.562 1.269-4.562 1.269s-.144 2.269-1.787 3.737c-1.879 1.681-5.376-.49-5.376-.49s-.629 2.268-2.521 3.646c-1.964 1.429-5.808-.265-5.808-.265s-1.762 1.796-4.263 1.829c-4.277.057-7.815-5.359-10.1-8.78-2.284-3.42-5.516-15.233-6.362-17.422l22.133-14.649s14.669 12.464 16.776 16.862c1.775 3.705 3.832 11.718 1.87 14.263z" fill="#F7A9A0"/><path d="M228.904 134.038c-.929-4.386-3.123-8.262-5.089-12.254-.043-.089-.184-.02-.139.069 2.002 3.947 3.184 8.235 5.023 12.253.05.111.229.051.205-.068zM221.73 137.409c-.24-.987-.81-1.89-1.301-2.772a98.669 98.669 0 0 0-1.632-2.819 125.145 125.145 0 0 0-3.503-5.508c-.053-.08-.191-.018-.138.069a155.792 155.792 0 0 1 3.232 5.64c.517.954 1.025 1.911 1.527 2.871.467.894.885 1.875 1.546 2.65.097.115.305.018.269-.131zM213.114 140.971c-.174-.865-.84-1.695-1.306-2.434-.529-.838-1.052-1.68-1.571-2.525-1.039-1.688-2.075-3.378-3.052-5.101-.05-.086-.188-.018-.14.068.984 1.757 1.943 3.526 2.943 5.274.491.858.987 1.713 1.488 2.566.426.726.874 1.679 1.553 2.208.039.029.094-.012.085-.056z" fill="#263238"/><path d="m208.277 90.355-26.12 10.845s-6.195-18.582-3.915-24.546c2.281-5.965 20.825-22.572 35.077-30.35 14.253-7.779 16.001-2.988 6.191 10.161-9.809 13.15-16.719 23.578-16.549 23.992.17.415 5.316 9.898 5.316 9.898z" fill="url(#m)"/><path d="M204.114 85.468c.08-.04.021-.171-.064-.143-7.592 2.601-15.02 5.746-22.278 9.146-.08.037-.02.17.064.14 7.559-2.68 15.055-5.664 22.278-9.144zM208.277 90.355c-.976-1.602-1.916-3.225-2.857-4.846l-2.773-4.889-.102-.18.121-.178 3.881-5.743c1.288-1.919 2.637-3.796 3.953-5.696 1.311-1.902 2.668-3.773 4.024-5.646a233.434 233.434 0 0 1 4.133-5.565 234.92 234.92 0 0 1-3.714 5.856c-1.261 1.937-2.52 3.872-3.825 5.778-1.301 1.907-2.569 3.837-3.896 5.727l-3.967 5.68.019-.359 2.542 5.01a248.564 248.564 0 0 1 2.461 5.051z" fill="#263238"/><path d="M214.922 63.157c.498-.725 1.098-1.33 1.717-1.918a16.14 16.14 0 0 1 2.019-1.597c-.199.394-.469.737-.745 1.068-.274.335-.581.634-.892.93-.639.575-1.312 1.113-2.099 1.517z" fill="#263238"/><path d="M226.225 42.726c.107.968 3.908 7.624 8.294 7.947 1.429.102 2.345-7.564 2.345-7.564l.199-.551 2.776-7.71-8.704-7.108-1.267-.955s-.618 2.16-1.361 4.855c-.035.126-.071.25-.106.384-.046.152-.092.294-.128.437-.116.401-.232.811-.341 1.224-.082.311-.165.616-.241.946-.085.331-.159.653-.244.983-.759 3.276-1.261 6.702-1.222 7.112z" fill="#F7A9A0"/><path d="M228.506 31.64c1.523 6.585 6.316 9.77 8.555 10.919l2.776-7.71-8.703-7.108-1.267-.955c0-.002-.618 2.157-1.361 4.854z" fill="#263238"/><path d="M251.922 21.187c2.244 14.188-6.12 17.116-9.223 17.59-2.817.43-12.463 1.541-16.182-12.343-3.718-13.885 2.262-19.398 8.651-20.719 6.389-1.319 14.51 1.283 16.754 15.472z" fill="#F7A9A0"/><path d="M248.658 17.59c-.343.014-.663-.03-1.005-.051-.385-.024-.693-.005-1.013-.246-.171-.13-.209-.44-.097-.616.26-.41.739-.496 1.204-.486.504.01.891.146 1.274.47.371.312.091.912-.363.93zM239.369 20.361c.344.007.662-.043 1.003-.07.384-.032.694-.018 1.009-.265.169-.132.2-.444.085-.618-.268-.406-.749-.482-1.214-.463-.504.02-.887.164-1.263.494-.366.318-.074.913.38.922zM241.98 23.211c-.014-.035-.068.06-.059.098.208.957.282 2.087-.543 2.564-.026.014-.014.063.018.052 1.05-.342.936-1.84.584-2.714z" fill="#263238"/><path d="M240.925 22.361c-1.59.162-1.145 3.288.329 3.138 1.45-.148 1.004-3.274-.329-3.137z" fill="#263238"/><path d="M240.326 22.613c-.251.215-.478.565-.807.644-.381.091-.718-.196-1.016-.475-.031-.03-.054.002-.049.043.076.6.398 1.182 1.062 1.181.606-.001.956-.59 1.021-1.213.011-.116-.11-.267-.211-.18zM247.327 22.124c.003-.038.083.035.087.076.1.973.38 2.072 1.312 2.277.029.006.033.055-.001.055-1.105-.008-1.461-1.47-1.398-2.408z" fill="#263238"/><path d="M248.068 20.997c1.566-.325 2.11 2.785.661 3.086-1.428.297-1.972-2.813-.661-3.086z" fill="#263238"/><path d="M248.762 21.09c.278.122.578.38.879.348.348-.036.545-.416.708-.777.017-.037.047-.015.055.025.121.592.03 1.245-.53 1.459-.509.194-.987-.25-1.235-.818-.046-.105.011-.287.123-.237zM243.115 30.856c.259.206.525.498.886.493.346-.003.734-.194 1.037-.343.03-.016.064.014.048.045-.221.398-.738.682-1.203.646-.454-.036-.712-.396-.859-.788-.02-.055.053-.083.091-.053zM246.671 26.745s.426 1.413.531 2.094c.009.064-.153.119-.386.167-.01.006-.016.01-.026.005-1.191.371-2.482.14-3.375-.73-.058-.06.019-.142.088-.11 1.012.522 2.045.541 3.129.396.019-.197-.811-2.396-.703-2.42.372-.09 1.156.052 1.623.114-.8-2.97-2.077-5.787-2.829-8.755-.024-.106.127-.162.173-.07 1.55 2.86 2.547 6.256 3.454 9.301.116.38-1.385.082-1.679.008z" fill="#263238"/><path d="M226.526 27.54c2.484-.088 2.465-5.241 2.465-5.241s5.004-.544 5.841-7.823c0 0 .27 3.314-1.541 6.113 0 0 8.714-1.906 11.594-9.6 0 0-1.056 3.874-2.294 5.347 0 0 3.582-1.43 5.046-4.594 0 0 2.026 4.029 3.348 5.057 0 0-2.109-15.18-16.222-11.967 0 0-8.886 1.585-11.3 8.933-2.412 7.349 3.063 13.774 3.063 13.774z" fill="#263238"/><path d="M229.435 26.95s-3.268-4.419-5.308-3.26c-2.039 1.158.483 7.606 2.921 8.447 2.439.841 3.273-1.37 3.273-1.37l-.886-3.817z" fill="#F7A9A0"/><path d="M224.897 25.52c-.039-.002-.046.052-.011.064 1.711.645 2.636 2.179 3.295 3.776-.517-.61-1.211-.936-2.04-.326-.044.032 0 .099.048.088.691-.161 1.197-.052 1.677.488.341.383.578.87.825 1.314.082.148.355.063.294-.11l-.015-.038c-.002-2.134-1.745-5.087-4.073-5.256z" fill="#263238"/><path d="m236.861 43.25-3.291 6.033-7.051-8.874-2.548 2.315s6.343 13.562 6.457 12.994l3.259-5.153 3.381 4.21.772-9.547-.979-1.978z" fill="#fff"/><path d="M237.72 50.077c.074-1.581.193-3.17.193-4.753 0-.056-.085-.09-.106-.026-.49 1.48-.741 7.525-.912 8.962l-.014-.019c-.141-.181-3.154-3.724-3.193-3.677-.671.8-3.06 4.552-3.233 4.898-1.002-2.153-4.888-10.009-6.128-12.078-.036-.06-.128-.024-.102.044.846 2.251 5.968 12.818 6.067 12.802.059.057 3.023-4.562 3.416-5.453.493.754 3.491 4.707 3.529 4.476.256-1.566.409-3.594.483-5.176z" fill="#263238"/><defs><linearGradient id="g" x1="391.526" y1="158.537" x2="435.867" y2="158.591" gradientUnits="userSpaceOnUse"><stop stop-color="#E34C98"/><stop offset="1" stop-color="#7C1E84"/></linearGradient><linearGradient id="a" x1="29.906" y1="396.978" x2="114.66" y2="397.342" gradientUnits="userSpaceOnUse"><stop stop-color="#E34C98"/><stop offset="1" stop-color="#7C1E84"/></linearGradient><linearGradient id="c" x1="249.85" y1="358.786" x2="334.605" y2="358.976" gradientUnits="userSpaceOnUse"><stop stop-color="#E34C98"/><stop offset="1" stop-color="#7C1E84"/></linearGradient><linearGradient id="d" x1="359.822" y1="339.691" x2="444.578" y2="339.843" gradientUnits="userSpaceOnUse"><stop stop-color="#E34C98"/><stop offset="1" stop-color="#7C1E84"/></linearGradient><linearGradient id="e" x1="29.788" y1="181.315" x2="434.222" y2="185.153" gradientUnits="userSpaceOnUse"><stop stop-color="#E34C98"/><stop offset="1" stop-color="#7C1E84"/></linearGradient><linearGradient id="f" x1="420.275" y1="91.743" x2="444.679" y2="91.838" gradientUnits="userSpaceOnUse"><stop stop-color="#E34C98"/><stop offset="1" stop-color="#7C1E84"/></linearGradient><linearGradient id="b" x1="139.878" y1="377.882" x2="224.633" y2="378.131" gradientUnits="userSpaceOnUse"><stop stop-color="#E34C98"/><stop offset="1" stop-color="#7C1E84"/></linearGradient><linearGradient id="h" x1="282.342" y1="221.522" x2="321.799" y2="221.589" gradientUnits="userSpaceOnUse"><stop stop-color="#E34C98"/><stop offset="1" stop-color="#7C1E84"/></linearGradient><linearGradient id="i" x1="168.556" y1="266.039" x2="200.529" y2="266.094" gradientUnits="userSpaceOnUse"><stop stop-color="#E34C98"/><stop offset="1" stop-color="#7C1E84"/></linearGradient><linearGradient id="j" x1="66.849" y1="306.012" x2="92.119" y2="306.068" gradientUnits="userSpaceOnUse"><stop stop-color="#E34C98"/><stop offset="1" stop-color="#7C1E84"/></linearGradient><linearGradient id="k" x1="228.927" y1="69.566" x2="271.887" y2="69.704" gradientUnits="userSpaceOnUse"><stop stop-color="#E34C98"/><stop offset="1" stop-color="#7C1E84"/></linearGradient><linearGradient id="l" x1="191.839" y1="65.483" x2="244.068" y2="65.721" gradientUnits="userSpaceOnUse"><stop stop-color="#E34C98"/><stop offset="1" stop-color="#7C1E84"/></linearGradient><linearGradient id="m" x1="177.738" y1="71.879" x2="225.697" y2="72.044" gradientUnits="userSpaceOnUse"><stop stop-color="#E34C98"/><stop offset="1" stop-color="#7C1E84"/></linearGradient></defs></svg>