<svg width="466" height="344" fill="none" xmlns="http://www.w3.org/2000/svg"><path d="M442.069 211.006c-6.393-22.901 13.915-23.786 14.357-53.308.183-12.069-6.438-24.366-22.336-30.011-7.827-2.777-15.608-4.684-22.581-9.079-15.852-10.039-15.578-29.156-19.896-45.45-9.505-35.78-46.061-64.204-83.075-63.288-26.685.671-50.807 1.48-75.127 24.137-16.646 15.501-27.463 34.558-42.919 50.532-16.356 16.92-36.297 25.037-58.695 30.469-21.177 5.141-44.215 11.26-60.418 26.669-15.227 14.48-13.015 29.63-6.485 47.42 7.202 19.606-8.407 32.956-24.701 40.6-13.716 6.423-31.964 5.874-38.326 21.253-6.897 16.676 13.594 16.966 32.665 16.966 19.072 0 265.858-1.465 334.836.58 18.568.549 77.797 5.599 86.173-17.531 5.722-15.776-9.017-23.969-13.472-39.959z" fill="url(#a)"/><path d="M457.281 192.438c-13.793 32.086-40.34 58.268-72.182 72.457" stroke="url(#b)" stroke-miterlimit="10"/><path d="M453.222 200.967c4.821-4.012 8.102-9.795 9.093-15.974.245-1.511.29-3.25-.732-4.394-.275-.321-.656-.58-1.068-.626-.671-.061-1.266.427-1.724.931-2.395 2.685-3.219 6.408-3.631 9.993-.412 3.586-1.19 6.21-1.938 10.07z" fill="url(#c)"/><path d="M446.677 211.907c2.823-5.585 3.555-12.206 2.014-18.279-.381-1.48-1.022-3.097-2.411-3.738-.381-.183-.824-.274-1.22-.137-.641.198-.992.9-1.205 1.541-1.13 3.418-.412 7.171.625 10.619 1.038 3.433 1.358 6.149 2.197 9.994z" fill="url(#d)"/><path d="M437.05 225.348c3.494-5.202 5.019-11.687 4.226-17.896-.198-1.526-.625-3.189-1.938-4.013-.351-.229-.793-.366-1.205-.29-.671.122-1.098.763-1.388 1.388-1.541 3.25-1.297 7.065-.672 10.604.611 3.555.611 6.286.977 10.207z" fill="url(#e)"/><path d="M425.988 237.127c3.494-5.203 5.02-11.687 4.226-17.897-.198-1.526-.641-3.189-1.937-4.013-.351-.228-.794-.366-1.206-.289-.671.122-1.098.762-1.388 1.388-1.541 3.25-1.297 7.064-.672 10.604.611 3.555.595 6.286.977 10.207z" fill="url(#f)"/><path d="M409.403 250.721c4.013-4.806 6.21-11.092 6.058-17.363-.031-1.541-.306-3.234-1.511-4.18-.336-.26-.747-.443-1.159-.412-.672.061-1.175.656-1.526 1.236-1.877 3.082-2.014 6.896-1.77 10.481.229 3.586-.061 6.302-.092 10.238z" fill="url(#g)"/><path d="M396.405 259.402c3.951-4.287 6.499-10.252 7.033-16.493.137-1.525.092-3.249-.854-4.348-.26-.305-.595-.534-.946-.549-.58-.031-1.068.503-1.434 1.037-1.923 2.823-2.457 6.591-2.64 10.192-.168 3.601-.702 6.271-1.159 10.161z" fill="url(#h)"/><path d="M443.396 216.713c6.347 1.052 13.213-.275 18.919-3.632 1.404-.823 2.854-1.937 3.143-3.493.077-.428.061-.885-.167-1.236-.367-.565-1.16-.702-1.862-.702-3.738-.061-7.323 1.785-10.527 3.845-3.204 2.075-5.859 3.219-9.506 5.218z" fill="url(#i)"/><path d="M435.615 226.889c5.92 2.533 12.893 2.899 19.24.992 1.556-.473 3.234-1.205 3.89-2.64.183-.396.275-.839.138-1.251-.229-.64-.962-.946-1.648-1.129-3.616-.946-7.537-.015-11.138 1.236-3.601 1.236-6.454 1.724-10.482 2.792z" fill="url(#j)"/><path d="M423.989 238.744c5.294 3.662 12.053 5.416 18.644 4.821 1.617-.152 3.402-.534 4.333-1.8.259-.351.427-.778.382-1.19-.092-.671-.748-1.129-1.389-1.434-3.356-1.648-7.384-1.526-11.168-1.022-3.753.488-6.652.381-10.802.625z" fill="url(#k)"/><path d="M407.725 252.445c5.981 2.396 12.954 2.609 19.255.565 1.541-.504 3.204-1.267 3.83-2.731.167-.397.259-.855.106-1.251-.244-.641-.976-.931-1.663-1.099-3.631-.87-7.537.153-11.107 1.48-3.585 1.343-6.423 1.877-10.421 3.036z" fill="url(#l)"/><path d="M394.573 260.303c4.257 4.836 10.39 8.162 16.936 9.169 1.602.244 3.432.306 4.653-.701.336-.275.61-.641.656-1.068.076-.672-.458-1.267-.992-1.725-2.853-2.41-6.789-3.249-10.588-3.677-3.799-.442-6.576-1.235-10.665-1.998z" fill="url(#m)"/><path d="M137.763 149.398c8.056 44.063 38.784 83.35 79.613 101.811" stroke="url(#n)" stroke-miterlimit="10"/><path d="M139.808 158.628c-3.799-4.974-5.721-11.351-5.309-17.607.106-1.525.442-3.219 1.693-4.119.336-.244.763-.412 1.175-.366.671.091 1.144.702 1.465 1.297 1.739 3.158 1.709 6.972 1.312 10.558-.382 3.57-.214 6.301-.336 10.237z" fill="url(#o)"/><path d="M143.744 170.727c-1.51-6.072-.748-12.694 2.121-18.263.702-1.373 1.678-2.792 3.189-3.112.412-.092.869-.076 1.235.137.58.351.779 1.099.84 1.77.335 3.585-1.19 7.079-2.976 10.207-1.8 3.143-2.731 5.722-4.409 9.261z" fill="url(#p)"/><path d="M150.137 185.985c-2.243-5.844-2.289-12.511-.137-18.385.534-1.435 1.327-2.976 2.776-3.479.397-.137.855-.183 1.236-.015.626.274.9.991 1.053 1.663.778 3.524-.32 7.171-1.709 10.497-1.388 3.31-1.983 5.996-3.219 9.719z" fill="url(#q)"/><path d="M158.3 199.945c-2.243-5.844-2.289-12.511-.138-18.385.534-1.434 1.328-2.975 2.777-3.479.397-.137.854-.183 1.236-.015.625.275.9.992 1.053 1.663.778 3.524-.321 7.171-1.709 10.497-1.389 3.311-1.984 5.981-3.219 9.719z" fill="url(#r)"/><path d="M171.436 216.896c-2.838-5.584-3.57-12.206-2.044-18.278.381-1.496 1.007-3.098 2.41-3.738.382-.184.824-.275 1.221-.153.641.198.992.9 1.205 1.541 1.129 3.418.427 7.171-.61 10.619-1.022 3.448-1.343 6.164-2.182 10.009z" fill="url(#s)"/><path d="M182.162 228.247c-2.899-5.05-4.043-11.443-3.174-17.637.214-1.526.641-3.189 1.801-4.043.32-.229.702-.397 1.053-.336.579.107.93.732 1.174 1.327 1.251 3.189.931 6.973.29 10.513-.641 3.554-.717 6.286-1.144 10.176z" fill="url(#t)"/><path d="M145.865 176.159c-6.423-.397-12.816-3.204-17.637-7.751-1.175-1.114-2.35-2.517-2.289-4.104.016-.427.138-.885.443-1.175.488-.473 1.281-.427 1.968-.275 3.646.779 6.744 3.372 9.398 6.103 2.686 2.731 5.02 4.44 8.117 7.202z" fill="url(#u)"/><path d="M151.19 187.815c-6.332 1.145-13.213-.061-18.98-3.326-1.419-.808-2.884-1.892-3.204-3.433-.092-.427-.076-.885.152-1.235.367-.58 1.145-.718 1.847-.733 3.738-.122 7.354 1.663 10.588 3.677 3.25 1.999 5.92 3.097 9.597 5.05z" fill="url(#v)"/><path d="M159.872 201.959c-5.981 2.395-12.954 2.594-19.255.534-1.541-.504-3.204-1.282-3.83-2.731-.167-.397-.244-.855-.106-1.251.244-.641.976-.931 1.663-1.099 3.631-.854 7.537.168 11.107 1.495 3.601 1.343 6.438 1.892 10.421 3.052z" fill="url(#w)"/><path d="M172.672 218.94c-6.362 1.007-13.197-.351-18.888-3.738-1.389-.839-2.838-1.953-3.128-3.509-.076-.427-.061-.885.183-1.236.382-.564 1.16-.686 1.877-.702 3.738-.03 7.308 1.831 10.497 3.921 3.189 2.091 5.828 3.25 9.459 5.264z" fill="url(#x)"/><path d="M183.749 229.529c-5.218 3.768-11.946 5.63-18.553 5.157-1.617-.122-3.417-.473-4.363-1.724-.26-.351-.443-.763-.397-1.19.076-.672.732-1.145 1.358-1.465 3.326-1.709 7.354-1.663 11.138-1.236 3.768.443 6.667.29 10.817.458z" fill="url(#y)"/><path d="M58.303 210.93c44.75-2.044 89.942 19.072 117.084 54.698" stroke="url(#z)" stroke-miterlimit="10"/><path d="M67.748 210.854c-5.707-2.579-12.359-3.021-18.355-1.206-1.465.443-3.051 1.16-3.631 2.564-.168.396-.229.839-.092 1.236.23.64.946.961 1.602 1.144 3.464.976 7.171.107 10.574-1.083 3.402-1.206 6.103-1.648 9.902-2.655z" fill="url(#A)"/><path d="M80.426 211.968c-6.255-.107-12.541 2.12-17.317 6.164-1.175.991-2.334 2.273-2.319 3.799 0 .427.122.854.412 1.174.473.489 1.236.504 1.922.412 3.57-.473 6.637-2.746 9.277-5.187 2.64-2.441 4.943-3.921 8.025-6.362z" fill="url(#B)"/><path d="M96.737 214.775c-6.195-.87-12.71.58-17.943 3.997-1.281.84-2.594 1.969-2.761 3.494-.046.412.015.87.259 1.206.397.549 1.175.656 1.846.64 3.6-.03 6.912-1.922 9.841-4.012 2.93-2.106 5.401-3.28 8.758-5.325z" fill="url(#C)"/><path d="M112.161 219.596c-6.194-.869-12.709.58-17.942 3.998-1.282.839-2.594 1.968-2.762 3.494-.046.411.015.869.26 1.205.396.549 1.174.656 1.846.641 3.6-.031 6.911-1.923 9.841-4.013 2.929-2.106 5.401-3.28 8.757-5.325z" fill="url(#D)"/><path d="M131.629 228.583c-6.072-1.511-12.694-.748-18.262 2.121-1.358.701-2.793 1.678-3.113 3.188-.092.412-.076.87.137 1.236.351.58 1.099.778 1.77.839 3.586.336 7.08-1.19 10.207-2.975 3.128-1.8 5.707-2.731 9.261-4.409z" fill="url(#E)"/><path d="M145.102 236.486c-5.569-1.678-12.069-1.373-17.912.87-1.434.549-2.96 1.342-3.54 2.654-.152.367-.229.763-.091 1.099.229.534.915.748 1.556.839 3.387.504 7.003-.671 10.314-2.075 3.341-1.419 5.981-2.09 9.673-3.387z" fill="url(#F)"/><path d="M86.194 212.822c-1.83-6.179-5.996-11.763-11.52-15.44-1.357-.9-2.99-1.724-4.515-1.312-.428.106-.824.335-1.038.701-.35.58-.122 1.343.183 1.984 1.572 3.387 4.806 5.813 8.056 7.796 3.25 1.968 5.447 3.86 8.834 6.271z" fill="url(#G)"/><path d="M98.75 215.385c-.305-6.438-3.02-12.862-7.506-17.744-1.099-1.19-2.487-2.38-4.074-2.35-.427.016-.885.123-1.175.428-.473.488-.442 1.281-.305 1.968.733 3.662 3.28 6.789 5.966 9.49 2.7 2.7 4.363 5.065 7.094 8.208z" fill="url(#H)"/><path d="M114.496 220.664c.992-6.362-.381-13.197-3.799-18.888-.839-1.389-1.968-2.838-3.524-3.113-.428-.076-.885-.045-1.236.183-.565.382-.687 1.16-.687 1.877-.015 3.738 1.846 7.308 3.952 10.497 2.09 3.174 3.25 5.828 5.294 9.444z" fill="url(#I)"/><path d="M133.918 229.33c-.443-6.423-3.311-12.785-7.888-17.576-1.129-1.175-2.548-2.334-4.12-2.258-.427.015-.869.152-1.159.458-.473.488-.412 1.296-.26 1.983.809 3.647 3.418 6.713 6.18 9.353 2.761 2.639 4.455 4.958 7.247 8.04z" fill="url(#J)"/><path d="M146.719 237.737c2.487-5.935 2.808-12.908.87-19.239-.473-1.557-1.22-3.22-2.67-3.876-.397-.183-.854-.259-1.251-.122-.641.229-.946.962-1.114 1.648-.915 3.616.031 7.537 1.297 11.138s1.77 6.438 2.868 10.451z" fill="url(#K)"/><path d="M253.245 274.004c-51.57-1.587-98.41-.809-149.994 0-1.389.015-3.28.396-4.028-.778-2.716-4.303 23.984-8.651 48.213-10.955 1.098-.107 2.288-.259 3.112-1.007 1.907-1.739.397-5.02 1.266-7.446.977-2.715 4.608-3.433 7.4-2.715 2.792.717 5.325 2.38 8.178 2.822 2.853.443 6.408-1.053 6.607-3.936.137-2.121-1.557-3.86-2.243-5.874-1.495-4.425 3.555-9.475 7.979-7.995 2.655.885 5.157 3.555 7.736 2.487 2.639-1.099 2.426-4.806 3.051-7.598 1.312-5.859 7.842-9.063 13.823-9.658 8.834-.885 17.989 2.197 24.473 8.254 8.269 7.735 13.93 17.668 17.515 28.394 1.648 4.958 4.059 11.626 6.912 16.005z" fill="url(#L)"/><path d="M303.96 260.959c-.106-4.135-.076-8.27.061-12.404.183-5.508.702-11.352 4.013-15.746 2.121-2.807 6.393-7.888 9.566-9.383 9.002-4.211 15.288-4.913 24.946-2.518 4.226 1.053 10.65 5.295 12.053 10.894 2.762-5.706 15.685-13.502 32.712-4.028 13.579 7.568 9.169 24.717 6.301 28.592 1.633-1.342 4.364-.976 5.584.733 1.221 1.709.672 4.424-1.114 5.523a41.915 41.915 0 0 1 13.29-2.975c2.242-.122 4.561-.061 6.606.869 2.044.931 3.738 2.899 3.753 5.142.016 2.243-4.318 3.982-4.318 3.982s18.614-3.417 24.504.382c6.957 4.485 2.914 5.736 1.632 5.721l-114.429-1.556c-2.152-.031-5.203-.626-7.37-.626h-18.614c.596-4.653.946-7.918.824-12.602z" fill="url(#M)"/><path d="M247.54 178.798c-1.312 4.822-3.86 11.016-4.455 16.539-.595 5.523 9.642 8.651 10.97 5.874.167-.366-2.152-2.288-.214-7.4 2.319-6.148 3.509-8.788 2.426-13.044-.839-3.235-7.903-4.944-8.727-1.969z" fill="#AD7C63"/><path d="M329.349 94.136s-16.173 8.345-26.609 7.308c-10.436-1.038-35.991-4.226-45.39 5.325-9.383 9.551-46.947 55.719-45.131 59.106 1.831 3.388 43.56 36.511 52.424 33.643 8.864-2.869 48.045-42.782 57.932-48.778 9.887-5.996 24.656-13.304 24.656-13.304l-17.882-43.3z" fill="#AD7C63"/><path d="M167.729 84.112s28.073 14.982 40.065 15.76c11.992.779 33.063-1.037 48.228 3.128 15.166 4.181 2.167 11.474 7.492 16.692s42.857 27.036 48.625 30.774c5.767 3.738 7.308 8.65 3.387 12.022-3.906 3.372-8.605 2.319-15.914-1.846-7.308-4.18-21.131-14.082-21.909-11.992-.778 2.09 23.481 17.256 26.868 20.109 3.387 2.853 3.906 7.552-1.571 10.421-5.478 2.868-10.177 3.127-14.861 0-4.699-3.128-20.613-14.861-22.428-13.045-1.831 1.831 8.346 7.308 14.86 12.19 6.088 4.562 10.696 6.073 11.214 9.719.519 3.647-5.172 10.146-14.601 7.049-5.569-1.831-20.353-12.786-22.611-11.214-2.258 1.571 21.559 11.123 21.208 14.952-.351 3.83-5.386 10.222-19.774 3.311-8.773-4.211-62.143-41.729-67.696-45.909-5.569-4.181-52.607-28.958-52.607-28.958l32.025-43.163z" fill="#F9D6AE"/><path d="M281.35 135.346s-1.831 7.995-8.087 11.565c.656 4.745-2.868 13.991-10.436 16.554-.656 5.294-5.202 13.899-10.558 15.715" stroke="#EFBA92" stroke-width=".972" stroke-miterlimit="10" stroke-linecap="round" stroke-linejoin="round"/><path d="M221.357 109.256c-.152-2.258 10.604-3.311 17.912-5.737 7.309-2.441 20.003-6.332 30.439-5.859 10.436.473 23.114 3.174 31.811 3.647 8.697.473 2.273 10.207-6.088 12.648-8.345 2.441-26.639 8.697-31.933 5.737-5.294-2.96-9.978-4.181-18.156-3.479-8.163.702-23.634-1.556-23.985-6.957z" fill="#AD7C63"/><path d="M437.249 137.37c14.68-5.706 15.602-38.576 2.059-73.417-13.542-34.841-36.421-58.46-51.1-52.754-14.68 5.706-15.602 38.576-2.059 73.417 13.542 34.841 36.421 58.46 51.1 52.754z" fill="#3E4F82"/><path d="m422.081 114.413 22.565-10.101" stroke="#8C82D1" stroke-width=".972" stroke-miterlimit="10"/><path d="M340.272 83.486s-7.873 3.067-10.986 4.043c-2.136.672-4.638 1.618-6.011 2.152a1.06 1.06 0 0 0-.58 1.419c2.03 4.562 10.33 23.16 12.328 27.89 2.289 5.416 8.529 22.291 9.338 23.282.824.977 19.346-6.392 19.346-6.392l-23.435-52.394z" fill="#6559D9"/><path d="m336.305 81.396 73.906-42.034s7.308 9.917 6.789 20.476c-.518 10.558 9.124 16.31 8.865 34.557-.122 8.346 6.515 15.914 6.515 15.914l-70.428 30.514-25.647-59.427z" fill="#8C82D1"/><path d="m418.389 34.144-82.084 47.252" stroke="#fff" stroke-width=".972" stroke-miterlimit="10"/><path d="m347.244 106.754 39.669-18.187" stroke="#2C356B" stroke-width=".972" stroke-miterlimit="10"/><path d="M359.343 94.136a4.05 4.05 0 0 1-4.043 4.043 4.05 4.05 0 0 1-4.043-4.043 4.05 4.05 0 0 1 4.043-4.043 4.04 4.04 0 0 1 4.043 4.043z" fill="#fff"/><path d="M354.522 93.053a.394.394 0 0 1-.397.396.404.404 0 0 1-.396-.396c0-.23.183-.397.396-.397.214 0 .397.183.397.397zM356.887 93.053a.394.394 0 0 1-.397.396.394.394 0 0 1-.397-.396c0-.23.183-.397.397-.397.214 0 .397.183.397.397zM354.522 95.204a.394.394 0 0 1-.397.397.404.404 0 0 1-.396-.397c0-.229.183-.397.396-.397.214 0 .397.183.397.397zM356.887 95.204a.394.394 0 0 1-.397.397.394.394 0 0 1-.397-.397c0-.229.183-.397.397-.397.214 0 .397.183.397.397z" fill="#2C356B"/><path d="M375.165 87.53a4.05 4.05 0 0 1-4.043 4.043 4.05 4.05 0 0 1-4.044-4.044 4.05 4.05 0 0 1 4.044-4.043 4.04 4.04 0 0 1 4.043 4.043z" fill="#fff"/><path d="M370.344 86.446a.394.394 0 0 1-.397.397.393.393 0 0 1-.396-.397c0-.214.183-.397.396-.397.214 0 .397.183.397.397zM372.708 86.446a.394.394 0 0 1-.396.397.394.394 0 0 1-.397-.397c0-.214.183-.397.397-.397.213 0 .396.183.396.397zM370.344 88.597a.394.394 0 0 1-.397.397.393.393 0 0 1-.396-.397c0-.229.183-.396.396-.396.214 0 .397.183.397.396zM372.708 88.597a.394.394 0 0 1-.396.397.394.394 0 0 1-.397-.397c0-.229.183-.396.397-.396.213 0 .396.183.396.396z" fill="#2C356B"/><path d="M71.577 63.942c-13.548 34.847-12.617 67.711 2.06 73.418 14.677 5.706 37.563-17.912 51.097-52.745 13.548-34.847 12.617-67.712-2.06-73.418-14.678-5.706-37.548 17.912-51.097 52.745z" fill="#3E4F82"/><path d="m88.802 114.413-22.565-10.101" stroke="#E34C98" stroke-width=".972" stroke-miterlimit="10" stroke-linecap="round" stroke-linejoin="round"/><path d="M171.009 82.586s7.247 4.058 10.222 5.416c1.785.809 4.486 2.045 5.859 2.579.564.213.824.87.58 1.419-2.03 4.562-9.796 22.26-11.81 26.99-2.288 5.416-11.412 24.671-12.236 25.663-.824.976-16.463-8.773-16.463-8.773l23.848-53.294z" fill="#C53A80"/><path d="m174.579 81.396-73.906-42.034s-.687 13.564-11.123 19.484c-9.2 5.218-18.491 16.05-11.046 32.742 4.76 10.68 0 18.736 0 18.736l70.428 30.514 25.647-59.442z" fill="#E34C98"/><path d="m92.495 34.144 82.084 47.252" stroke="#fff" stroke-width=".972" stroke-miterlimit="10" stroke-linecap="round" stroke-linejoin="round"/><path d="m163.625 106.754-39.654-18.187" stroke="#C53A80" stroke-width=".972" stroke-miterlimit="10"/><path d="M155.569 98.179a4.043 4.043 0 1 0 0-8.086 4.043 4.043 0 0 0 0 8.086z" fill="#fff"/><path d="M156.347 93.053c0 .228.183.396.397.396a.394.394 0 0 0 .397-.396.395.395 0 0 0-.397-.397.404.404 0 0 0-.397.397zM153.997 93.053c0 .228.184.396.397.396a.394.394 0 0 0 .397-.396.394.394 0 0 0-.397-.397.405.405 0 0 0-.397.397zM156.347 95.204c0 .229.183.397.397.397a.394.394 0 0 0 .397-.397.395.395 0 0 0-.397-.397.404.404 0 0 0-.397.397zM153.997 95.204c0 .229.184.397.397.397a.394.394 0 0 0 .397-.397.394.394 0 0 0-.397-.397.405.405 0 0 0-.397.397z" fill="#2C356B"/><path d="M135.718 87.53a4.05 4.05 0 0 0 4.044 4.043 4.05 4.05 0 0 0 4.043-4.044 4.05 4.05 0 0 0-4.043-4.043 4.031 4.031 0 0 0-4.044 4.043z" fill="#fff"/><path d="M140.524 86.446c0 .229.183.397.397.397a.394.394 0 0 0 .397-.397.404.404 0 0 0-.397-.397.404.404 0 0 0-.397.397zM138.175 86.446c0 .229.183.397.396.397a.404.404 0 0 0 .397-.397.404.404 0 0 0-.397-.397.404.404 0 0 0-.396.397zM140.524 88.597c0 .23.183.397.397.397a.394.394 0 0 0 .397-.397.394.394 0 0 0-.397-.396.404.404 0 0 0-.397.396zM138.175 88.597c0 .23.183.397.396.397a.404.404 0 0 0 .397-.397.394.394 0 0 0-.397-.396.404.404 0 0 0-.396.396z" fill="#2C356B"/><path d="M192.217 160.23c0-5.569 4.867-23.298 9.566-22.779 4.699.519 7.644 3.998 7.125 9.734-.518 5.737-5.919 17.745-4.867 19.652 1.038 1.907 3.998 2.441 2.441 3.478-1.571 1.053-14.265-1.724-14.265-10.085zM211.441 176.739c-1.74-3.006-1.907-8.514 0-14.266 1.907-5.737 6.988-18.736 8.696-19.132 3.83-.87 8.514 2.776 9.735 7.643 1.22 4.867-9.628 26.121-8.072 27.677 1.572 1.572 2.579 2.06 2.182 2.807-1.419 2.716-9.932-.213-12.541-4.729zM227.629 186.595c-.443-2.991 4.501-22.261 8.025-23.039 3.525-.778 7.492 3.479 8.01 7.659.519 4.181-5.096 18.34-4.348 19.576.687 1.113 2.243 1.891 2.121 2.41-.87 3.708-12.862-.015-13.808-6.606z" fill="#AD7C63"/><path d="M175.311 283.891s-11.336-11.016-12.907-23.924c-1.572-12.908-1.572-26.441-12.588-27.707-11.015-1.266-7.552 20.139-11.641 20.46-4.089.32-5.981-57.917-22.352-58.863-16.37-.946-13.06 24.229-10.71 37.777 1.48 8.468 1.861 12.618-2.869 12.618-7.964 0-7.522-23.328-10.36-42.217-2.837-18.888-8.177-33.367-28.653-33.367-20.475 0-8.498 28.332-1.892 40.294 6.607 11.962 14.8 26.136 7.553 28.012-7.247 1.892-12.587-17.622-24.55-16.371-11.96 1.267-16.996 23.603-5.354 35.565 11.64 11.962-18.263 4.715-16.692 27.707h153.015v.016z" fill="url(#N)"/><path d="M66.741 168.195s21.757 70.503 29.89 115.695" stroke="url(#O)" stroke-width=".879" stroke-miterlimit="10"/><path d="M39.14 222.77s14.709 32.834 43.972 61.121" stroke="url(#P)" stroke-width=".879" stroke-miterlimit="10"/><path d="M112.589 194.056s10.07 42.659 7.934 89.834" stroke="url(#Q)" stroke-width=".879" stroke-miterlimit="10"/><path d="M151.983 233.435s-1.648 23.587-5.233 50.455" stroke="url(#R)" stroke-width=".879" stroke-miterlimit="10"/><path d="M14.622 283.967h173.613" stroke="#292E4A" stroke-width=".879" stroke-miterlimit="10"/><path d="M62.85 203.286s-10.894 11.855-10.344 15.441l4.684 3.722s17.24-16.279 17.79-19.453c.564-3.158-12.13.29-12.13.29z" fill="#AC7E70"/><path opacity=".1" d="M82.013 320.676c12.632 0 22.871-1.182 22.871-2.64 0-1.458-10.24-2.639-22.87-2.639-12.632 0-22.871 1.181-22.871 2.639 0 1.458 10.24 2.64 22.87 2.64z" fill="#0D3B48"/><path d="M84.088 167.218s-4.012-.961-2.761 3.753c1.098 4.12 5.736 2.365 6.987 7.568 1.252 5.187.382 10.665-1.724 11.824l-.198 5.188s8.01 1.373 10.787 1.373c0 0 2.975-1.16 2.212-4.516 0 0 3.204.122 3.601-1.801.381-1.922-.259-3.585-3.204-3.783 0 0 1.724-1.45.87-2.976-.87-1.541-2.686-.869-2.686-.869s1.724-1.541.382-3.464c-1.343-1.922-2.914-1.159-2.914-1.159s1.083-3.143.06-5.386c-1.54-3.357-5.324-8.132-11.412-5.752z" fill="#2C356B"/><path d="M91.335 187.159c0 1.099.9 1.999 1.999 1.999 1.098 0 1.998-.9 1.998-1.999 0-1.098-.9-1.998-1.998-1.998-1.114 0-2 .9-2 1.998z" fill="#F8B780"/><path d="M75.117 186.503c1.66 0 3.006-1.475 3.006-3.295 0-1.82-1.346-3.296-3.006-3.296-1.66 0-3.005 1.476-3.005 3.296 0 1.82 1.345 3.295 3.005 3.295z" fill="#AC7E70"/><path d="m75.895 195.139 5.31.595-.534-9.719-5.127.092.351 9.032z" fill="#001118"/><path d="m79.282 185.283.381 9.902-8.849 1.831s8.895 4.867 15.944 4.439c7.049-.427 7.705-4.439 7.705-4.439l-7.4-1.725-.091-5.004-7.69-5.004z" fill="#AC7E70"/><path opacity=".4" d="m87.063 194.513-.091-4.989-7.888-6.347.58 10.284c.884-.031 6.102.762 7.399 1.052z" fill="#7F594F"/><path d="M83.966 169.888s7.309.351 8.743 5.599c1.434 5.264 2.319 12.054-2.045 15.319-4.363 3.265-10.893 1.068-13.884-3.342-3.005-4.409-4.424-15.409 7.186-17.576z" fill="#AC7E70"/><path d="M87.628 181.453s.473 1.022 1.83 2.411l-1.357 1.266M87.383 186.869c-.564.977-1.724 1.358-2.792 1.252-.534-.077-1.083-.275-1.51-.626-.427-.351-.748-.854-.778-1.419.534.183.946.29 1.327.366.397.061.763.138 1.144.168.778.107 1.526.137 2.61.259z" fill="#7F594F"/><path d="M88.025 176.235c.076-.503.411-.87.808-1.098.412-.244.9-.306 1.373-.245.931.168 1.679.824 1.8 1.786-.503.015-.869-.031-1.19-.061-.32-.031-.594-.077-.854-.107-.534-.092-.992-.199-1.938-.275z" fill="#001118"/><path d="M87.612 283.173s-3.066 4.486-1.8 9.445c1.266 4.958 2.685 16.584 2.685 16.584l3.83 6.286 3.128.351-3.052-6.499s.778-22.078 1.358-25.938c.58-3.86-5.264-5.553-6.149-.229z" fill="#2C356B"/><path d="M88.589 308.851s-1.48 1.099-1.236 3.037c.244 1.937.656 4.928.656 4.928l.595.015.29-3.509s1.098 3.219 1.77 3.54c.671.32 6.072 1.876 6.698.747.625-1.129-2.228-2.609-2.228-2.609s-1.48.687-2.853-.564c-1.358-1.267-3.692-5.585-3.692-5.585zM70.997 284.272s-3.066 4.486-1.8 9.444c1.266 4.959 2.685 16.585 2.685 16.585l3.83 6.286 3.127.351-3.05-6.5s.777-22.077 1.357-25.937c.58-3.86-5.264-5.554-6.149-.229z" fill="#2C356B"/><path d="M71.973 309.965s-1.48 1.099-1.236 3.036c.244 1.938.656 4.928.656 4.928l.595.016.29-3.51s1.098 3.22 1.77 3.54c.671.321 6.072 1.877 6.698.748.625-1.129-2.228-2.609-2.228-2.609s-1.48.686-2.853-.565c-1.358-1.281-3.692-5.584-3.692-5.584z" fill="#2C356B"/><path d="M93.502 221.625s8.651 5.188 11.153 20.964c2.502 15.761-5.188 68.841-5.188 68.841s-8.467 3.463-15.959-.58l-.58-67.3.763-21.528.199-3.646 9.429-1.053.183 4.302z" fill="#8C82D1"/><path d="M72.28 221.626s-8.652 5.187-11.154 20.963c-2.502 15.761 5.188 68.841 5.188 68.841s8.468 3.463 15.959-.58l1.236-67.88 1.54-20.963-.198-3.647-12.312-1.251-.26 4.517z" fill="#8C82D1"/><path d="M93.41 219.032s-14.738.488-21.268.091l-.183 2.503s7.491 1.922 21.543 0l-.091-2.594z" fill="#F8B780"/><path d="M91.107 218.742h-1.724v3.646h1.724v-3.646zM76.582 218.742h-1.725v3.646h1.725v-3.646z" fill="#2D2F3B"/><path d="M81.006 219.23v3.372c0 .214.168.381.381.381h4.135a.377.377 0 0 0 .381-.381v-3.372a.377.377 0 0 0-.381-.381h-4.135a.387.387 0 0 0-.381.381zm1.16.793c0-.106.09-.198.198-.198h2.181c.107 0 .199.092.199.198v1.786a.202.202 0 0 1-.199.198h-2.181a.202.202 0 0 1-.199-.198v-1.786z" fill="#0D3B48"/><path d="M124.916 205.575c-.732.076-1.663.137-2.67.473-8.117 2.67-13.548 4.714-14.555 5.065l-5.767-7.781-9.124 5.935s10.375 14.266 15.638 11.947c4.517-1.984 15.639-10.528 17.973-13.701a5.125 5.125 0 0 1-1.495-1.938z" fill="#AC7E70"/><path d="M124.229 209.267s4.196-1.968 4.135-2.685c-.03-.458-2.655.763-2.655.763s3.021-1.831 2.594-2.121c-.427-.305-2.258.748-2.258.748s2.212-1.45 1.907-1.618c-.305-.152-2.792.946-2.792.946s4.013-2.761-1.342-.076c0 0 1.617-4.547-1.206.397-2.822 4.943 1.617 3.646 1.617 3.646zM56.67 213.585c.443-.442.9-.885 1.343-1.327 0 0 0 .015.015.015.58.885 5.188 9.993 7.858 15.562.458.961-.671.275-.412.961-.64.519-.473.763-.824 1.511-3.647-1.465-7.964-5.63-11.306-9.246-3.448-3.723 3.525-8.849 3.174-9.795 2.304-.534-1.785 3.784.152 2.319z" fill="#AC7E70"/><path d="M60.928 204.659s3.357-6.881 10.466-8.223a33.674 33.674 0 0 1 4.196-.519c.87 2.014 4.059 3.509 7.873 3.509s6.988-1.495 7.873-3.494c1.281.092 2.654.244 4.089.519 5.492 1.053 10.176 10.146 10.176 10.146l-8.956 4.745c1.51 6.057-3.051 6.439-3.051 6.439s-14.159 1.663-20.964 0c-.198-.046-1.342-3.891-1.983-5.752l-9.719-7.37z" fill="#F277C8"/><path d="M80.793 177.059c.03-1.037 1.037-1.694 1.983-1.739.961 0 1.862.473 2.197 1.403-.503.122-.885.138-1.22.168-.336.031-.626.031-.916.046-.564.046-1.068.03-2.044.122z" fill="#001118"/><path d="M81.494 165.677s6.057.198 4.806 4.898c-1.098 4.119-7.308 2.41-8.56 7.598-1.25 5.187-.472 6.057-.472 6.057s-1.16.58-1.541-2.212c0 0-1.694-2.38-2.685 0-.962 2.304.58 4.134 3.372 3.753 0 0 .96 3.082 3.082 4.226l.198 5.188s-6.439 1.342-9.23 1.342c0 0-2.976-1.159-2.213-4.516 0 0-2.594.092-2.975-1.831-.382-1.922-.382-2.975 2.594-3.753 0 0-1.725-1.449-.87-2.975.87-1.541 2.685-.87 2.685-.87s-1.724-1.541-.381-3.463c1.342-1.923 3.646-.961 3.646-.961s-1.83-2.213-.763-5.768c1.038-3.539 4.12-6.24 9.307-6.713z" fill="#2C356B"/><path d="M72.981 186.93c0 1.099.9 1.999 1.999 1.999a1.996 1.996 0 0 0 1.998-1.999c0-1.098-.9-1.998-1.998-1.998-1.099 0-1.999.9-1.999 1.998z" fill="#F8B780"/><path d="M88.559 179.958c.03.671.35 1.19.732 1.175.366-.015.64-.58.61-1.236-.03-.671-.366-1.19-.732-1.175-.366.015-.64.565-.61 1.236zM81.754 180.324c.03.671.366 1.19.732 1.175.367-.015.641-.58.61-1.236-.03-.671-.35-1.19-.732-1.175-.366.015-.64.565-.61 1.236z" fill="#001118"/><path d="M64.65 227.835s2.35-3.86 4.41-1.8c2.074 2.075 2.76 3.173-.138.824 0 0 4.272 5.248-.55.961 0 0 3.037 4.821-.823.961 0 0 3.31 5.096-1.099.687 0 0-1.236 2.487-3.585-.138-2.35-2.624 1.648-2.349 1.648-2.349l.137.854z" fill="#AC7E70"/><path d="M248.592 336.147H126.656l-15.075-74.502h121.937l15.074 74.502z" fill="#292E4A"/><path d="M242.153 329.571H134.33l-12.419-61.365h107.823l12.419 61.365z" fill="#E34C98"/><path d="M130.256 336.147h-3.6l-15.075-74.502h3.601l15.074 74.502z" fill="#6470B5"/><path d="m156.774 329.571 18.919-61.365M193.437 268.206l-18.904 61.365M194.382 283.219l-14.296 46.352" stroke="#fff" stroke-width=".9" stroke-miterlimit="10"/><path d="M319.629 336.147H126.655v6.82h192.974v-6.82z" fill="#6470B5"/><path d="M319.629 336.147H197.953v6.82h121.676v-6.82z" fill="#292E4A"/><path d="M126.655 336.147h192.974" stroke="#6470B5" stroke-width=".9" stroke-miterlimit="10" stroke-linecap="round" stroke-linejoin="round"/><path d="M160.39 329.967h44.292l10.451-13.136 8.91 6.561 29.37-33.276 7.568 6.682 3.784-26.044-24.259 9.582 4.669 3.783-23.359 21.361-16.921-13.351-44.505 37.838z" fill="#F277C8"/><path d="M116.662 342.692h219.689" stroke="#292E4A" stroke-miterlimit="10"/><path d="M320.942 290.207h84.769s15.288-39.791 14.815-52.76c-.458-12.968-7.415-9.276-3.25-26.639s11.123-46.565-1.388-48.411c-12.511-1.846-36.587 57.443-48.167 61.151-11.581 3.707-22.703 11.123-32.422 28.714-9.719 17.607-14.357 37.945-14.357 37.945z" fill="url(#S)"/><path d="M417.291 162.748s-23.374 78.819-48.853 127.459" stroke="url(#T)" stroke-miterlimit="10"/><path d="M383.024 204.934s-10.986 44.429-23.115 85.273" stroke="url(#U)" stroke-miterlimit="10"/><path d="M416.376 215.294s-22.443 50.974-38.082 74.913" stroke="url(#V)" stroke-miterlimit="10"/><path d="M299.627 290.207h119.724" stroke="#292E4A" stroke-miterlimit="10"/><path d="M296.21 230.795c1.541.382 2.945.916 4.196 1.617a15.578 15.578 0 0 1 3.219 2.365c.885.87 1.602 1.801 2.106 2.762.518.961.793 1.892.824 2.777 0 .305-.107.579-.336.793-.229.229-.473.336-.748.336h-6.743c-.489 0-.87-.061-1.16-.214a3.448 3.448 0 0 1-.9-.625c-.107-.107-.26-.275-.488-.519-.229-.244-.534-.488-.946-.748-.412-.259-.931-.473-1.541-.671-.626-.183-1.373-.29-2.274-.29a12.4 12.4 0 0 0-1.876.137 7.703 7.703 0 0 0-1.602.412 2.903 2.903 0 0 0-1.129.794c-.29.351-.443.778-.443 1.281 0 .519.168.946.488 1.282.321.351.87.656 1.648.946.778.29 1.801.58 3.067.854 1.266.275 2.853.595 4.73.977 1.892.381 3.539.854 4.943 1.434 1.404.58 2.579 1.312 3.524 2.182a8.178 8.178 0 0 1 2.106 3.082c.458 1.19.702 2.578.702 4.195 0 1.45-.275 2.762-.824 3.967-.549 1.206-1.327 2.258-2.319 3.189s-2.197 1.694-3.601 2.319a19.588 19.588 0 0 1-4.638 1.343v3.661c0 .382-.137.702-.412.977a1.326 1.326 0 0 1-.977.412h-6.743c-.382 0-.702-.137-.977-.412a1.33 1.33 0 0 1-.412-.977v-3.814c-1.647-.381-3.127-.915-4.455-1.617-1.327-.702-2.456-1.495-3.402-2.395-.946-.885-1.678-1.862-2.182-2.915-.519-1.052-.793-2.105-.824-3.173 0-.305.107-.58.336-.794.229-.228.473-.335.747-.335h6.744c.488 0 .855.061 1.129.183.275.122.549.305.824.549.137.138.336.366.61.672.275.305.641.625 1.114.945.458.321 1.053.611 1.755.855s1.571.366 2.593.366c1.816 0 3.342-.198 4.562-.595 1.221-.397 1.831-1.114 1.831-2.136 0-.519-.229-.946-.671-1.282-.442-.335-1.114-.656-2.014-.946-.885-.289-2.029-.579-3.418-.854a258.902 258.902 0 0 1-4.912-1.037c-3.54-.748-6.119-2.014-7.751-3.784-1.633-1.77-2.441-4.135-2.441-7.08a9.35 9.35 0 0 1 .671-3.478 9.9 9.9 0 0 1 1.938-3.067c.839-.931 1.876-1.739 3.097-2.426 1.22-.687 2.594-1.221 4.15-1.602v-3.814c0-.382.137-.702.412-.977.274-.274.595-.412.976-.412h6.744c.381 0 .702.138.976.412.275.275.412.595.412.977v3.936h-.015z" fill="#F277C8"/><path d="m373.626 183.696.686 11.351.961 5.737-4.211 1.419-4.882 1.755.137-8.438-.183-8.605 7.492-3.219z" fill="#D7A095"/><path d="M370.513 164.64c5.783 1.098 5.783 5.035 5.783 5.035s.442 2.288.473 5.919c.503-.747 1.388-1.083 2.319-.732 1.983.763.778 6.957-2.212 6.545-.061 1.724-.687 3.83-.901 4.288-.762 1.785-4.333 4.577-7.567 5.126-3.235.534-7.446-1.098-7.888-4.913-.626-5.279-.336-16.722-.336-16.722s.763-6.362 10.329-4.546z" fill="#EFBA92"/><path d="M372.741 167.767c1.541-.061 3.951-.686 5.492-.778-.015-.152.061 1.129.061 1.145-.228.686.031 6.728.031 6.728-1.556.137-1.465 1.373-1.465 1.373l-.107 2.792-1.556-.107-.305-5.889c-1.068-.519-1.449-1.449-1.449-1.449s-.412-2.777-.702-3.815z" fill="#6559D9"/><path d="M372.695 171.688c-1.297.168-2.09.168-2.853.199l-1.175.015c-.443 0-.915.061-1.602.046.168-1.312 1.449-2.212 2.731-2.212a3.071 3.071 0 0 1 1.77.503c.519.32.946.793 1.129 1.449zM364.746 173.153c-1.16 0-1.785-.03-2.243.031-.229 0-.473 0-.809.061-.351.046-.747.152-1.358.213-.061-.595.107-1.129.489-1.541.35-.457.976-.717 1.586-.762.626-.016 1.221.183 1.633.549.397.366.686.839.702 1.449z" fill="#002938"/><path d="M366.501 181.667s4.562-1.16 5.34.244c.778 1.403 1.098 2.975 2.349 2.349 1.252-.625.611-12.175.611-12.175l1.876 3.769s3.632 15.135-5.645 15.928c-9.719.839-11.275-1.876-10.634-7.049 0 0 1.098.473 1.571-.946.473-1.403-.625-2.578 4.532-2.12z" fill="#6559D9"/><path d="m370.743 183.482-7.415.519s2.395 3.921 7.415-.519z" fill="#fff"/><path d="M378.31 168.134s.641-5.005-3.586-4.44c0 0-3.234-4.211-9.383-3.891l2.594 1.297s-3.555-2.106-9.383.32c0 0 .641 2.106 2.914 2.274 0 0-2.746-.321-3.403-.809 0 0 .321 3.891 2.426 4.699 2.106.809 9.719-3.082 12.633.641 2.915 3.723 4.7-.641 4.7-.641" fill="#6559D9"/><path d="m372.909 172.863-6.317.885s.046 5.31 4.196 4.684c4.15-.625 2.121-5.569 2.121-5.569z" fill="#C5F4FF" stroke="#F1AB65" stroke-width=".613" stroke-miterlimit="10"/><path d="M369.689 175.503c.031.793.412 1.403.855 1.388.427-.015.747-.671.717-1.464-.031-.794-.412-1.404-.855-1.389-.442.015-.762.671-.717 1.465z" fill="#0D3B48"/><path d="m366.348 173.55 7.309-1.099.228.824-7.354.946-.183-.671z" fill="#F1AB65"/><path d="m359.009 174.389 6.057-.504s1.023 5.752-3.188 5.722c-4.196-.046-2.869-5.218-2.869-5.218z" fill="#C5F4FF" stroke="#F1AB65" stroke-width=".613" stroke-miterlimit="10"/><path d="m365.265 173.626-7.049.458-.122.854 7.094-.595.077-.717z" fill="#F1AB65"/><path d="M362.641 176.037c.03.793.412 1.404.854 1.388.427-.015.748-.671.717-1.464-.03-.794-.412-1.404-.854-1.389-.443.015-.763.671-.717 1.465z" fill="#0D3B48"/><path d="m366.501 181.667-1.099-6.515-2.06 5.904 3.159.611z" fill="#D7A095"/><path d="m373.87 173.275 5.111 1.663-.076-.747-5.248-1.74.213.824z" fill="#F1AB65"/><path d="M366.775 174.862c-.504-.32-1.175-.305-1.618.107" stroke="#F1AB65" stroke-width=".738" stroke-miterlimit="10"/><path opacity=".1" d="M381.223 319.669c16.137 0 29.218-1.134 29.218-2.533s-13.081-2.533-29.218-2.533c-16.136 0-29.217 1.134-29.217 2.533s13.081 2.533 29.217 2.533z" fill="#0D3B48"/><path d="m371.947 303.938 1.251 9.338-3.601 1.251-1.831-9.993 4.181-.596z" fill="#EFBA92"/><path d="M367.476 309.08s-2.105 2.716-5.37 3.723c-3.265 1.007-6.21 2.258-5.935 4.135 0 0 4.943 2.166 12.816-.519l.015.793 5.203-.32-.137-6.561-4.318.382.305-.656-2.579-.977z" fill="#8C82D1"/><path d="M365.539 316.571c-7.079 1.877-8.91-.015-9.337-.137a1.066 1.066 0 0 0-.031.488s4.943 2.167 12.816-.518l.015.793 5.203-.32-.03-1.313c-1.847.153-3.418-.381-8.636 1.007z" fill="#5F4645"/><path d="m389.417 304.183-.199 9.429 3.723.839.702-10.131-4.226-.137z" fill="#EFBA92"/><path d="M394.436 308.806s2.396 2.456 5.752 3.097c3.357.641 6.424 1.556 6.347 3.448 0 0-4.668 2.7-12.8.915l.076.794-5.203.259-.595-6.545 4.333-.107-.381-.61 2.471-1.251z" fill="#8C82D1"/><path d="M397.198 316.037c7.232 1.084 8.864-1.006 9.261-1.174.061.152.092.32.092.488 0 0-4.669 2.7-12.801.915l.076.794-5.203.259-.122-1.297c1.862-.091 3.357-.793 8.697.015z" fill="#5F4645"/><path d="M358.75 229.712s-5.523 39.15 7.384 77.766c0 0 3.967 2.685 7.431-.213 0 0-4.547-37.137-3.128-59.107l2.777.427s6.926 19.026 7.674 24.229c.748 5.187 5.325 33.367 6.439 35.702 0 0 5.691 1.51 7.293-1.526 0 0-1.435-21.711-1.969-30.911-.381-6.82-8.513-40.417-8.513-40.417l-25.388-5.95z" fill="#2C356B"/><path d="M384.183 234.442s-13.731 6.041-26.487 2.044c0 0-2.319-23.313-3.555-37.441 0 0 7.019-2.762 15.166-3.494l1.053 3.036.656-3.158s11.946.595 16.463 1.586c.015.016-2.075 26.579-3.296 37.427z" fill="#C53A80"/><path d="m377.364 195.78-3.922 4.043-2.426-4.379 4.303-2.426 2.045 2.762zM363.022 196.451l3.372 3.463 2.929-4.394-4.623-1.785-1.678 2.716z" fill="#18A4BA"/><path d="M354.157 199.06s-5.447 13.335-7.858 20.613c0 0 2.777 2.929 6.774 3.158l4.44-11.84-3.356-11.931zM387.448 197.138s9.078 17.744 11.291 25.083c0 0-2.853 2.868-6.866 2.975l-8.102-16.219 3.677-11.839z" fill="#C53A80"/><path d="M384.184 236.272s-2.747 4.501-10.482 7.446l-2.426-6.149-4.272 6.225s-6.667-2.593-9.292-7.308l28.943-30.499-2.471 30.285z" fill="#C53A80"/><path d="M369.628 201.028a.643.643 0 0 0 .595.671.643.643 0 0 0 .672-.595.643.643 0 0 0-.595-.671.634.634 0 0 0-.672.595zM369.766 206.811a.642.642 0 0 0 .595.671.62.62 0 0 0 .656-.595.642.642 0 0 0-.595-.671.619.619 0 0 0-.656.595zM369.628 214.012a.62.62 0 0 0 .595.656.644.644 0 0 0 .672-.595.642.642 0 0 0-.595-.671.667.667 0 0 0-.672.61zM369.704 220.863a.643.643 0 0 0 .595.671.62.62 0 0 0 .656-.595.641.641 0 0 0-.595-.671.64.64 0 0 0-.656.595zM370.559 234.793a.62.62 0 0 0 .595.656.643.643 0 0 0 .671-.595.643.643 0 0 0-.595-.672c-.351 0-.656.275-.671.611z" fill="#F2EFEF"/><path d="m374.086 209.739-.022 1.113 7.993.158.022-1.114-7.993-.157z" fill="#18A4BA"/><path d="M367.202 227.576a.596.596 0 1 0 .626-.565c-.321-.015-.595.244-.626.565z" fill="#F2EFEF"/><path d="M377.608 228.766c-.016.397-.534.702-1.16.687l-36.068-1.16c-.626-.015-1.129-.351-1.114-.748.015-.396.534-.701 1.16-.686l36.068 1.159c.641.016 1.129.351 1.114.748z" fill="#3B5F69"/><path d="m376.494 228.018-36.068-1.159 25.098.809c.503.045.9.473.885 1.007 0 .167-.061.32-.153.457l10.192.336c.626.015 1.144-.29 1.16-.687.015-.412-.473-.747-1.114-.763z" fill="#E34C98"/><path d="M366.866 226.859a1.023 1.023 0 0 1-1.053.992l-26.166-.641a1.023 1.023 0 0 1-1.007-1.038l.488-19.788a1.024 1.024 0 0 1 1.053-.992l26.166.641c.565.015 1.023.473 1.007 1.037l-.488 19.789z" fill="#E34C98"/><path d="m366.348 206.033-.321-.016c.305.184.519.504.504.885l-.489 19.942a1.011 1.011 0 0 1-.961.976l.733.015a1.022 1.022 0 0 0 1.052-.991l.488-19.789c.016-.549-.442-1.007-1.006-1.022z" fill="#3B5F69"/><path d="m380.888 225.928-3.051.809c-.366-.26-1.023-.656-1.846-.748-.031 0-.061-.015-.092-.015-.61-.046-1.297.061-2.029.503 0 0-2.746.153-2.838 1.343l2.594.152a7.723 7.723 0 0 0-.519 1.343l-3.25-.091c1.816 3.295 8.239.762 8.239.762l3.387-.671-.595-3.387z" fill="#EFBA92"/><path d="M389.966 220.146s-5.935 4.653-10.817 6.072c0 0 .076 2.685 1.449 4.394 0 0 12.908-1.907 17.409-5.416 0 0 2.334-1.16-.412-6.454-1.053-2.014-7.629 1.404-7.629 1.404z" fill="#C53A80"/><defs><linearGradient id="y" x1="160.429" y1="231.79" x2="183.749" y2="232.175" gradientUnits="userSpaceOnUse"><stop stop-color="#E34C98"/><stop offset="1" stop-color="#7C1E84"/></linearGradient><linearGradient id="a" x1="228.671" y1="9.848" x2="228.671" y2="269.336" gradientUnits="userSpaceOnUse"><stop stop-color="#E34C98"/><stop offset="1" stop-color="#fff" stop-opacity="0"/></linearGradient><linearGradient id="c" x1="453.222" y1="190.468" x2="462.464" y2="190.485" gradientUnits="userSpaceOnUse"><stop stop-color="#E34C98"/><stop offset="1" stop-color="#7C1E84"/></linearGradient><linearGradient id="d" x1="443.282" y1="200.797" x2="449.483" y2="200.804" gradientUnits="userSpaceOnUse"><stop stop-color="#E34C98"/><stop offset="1" stop-color="#7C1E84"/></linearGradient><linearGradient id="e" x1="435.589" y1="214.238" x2="441.483" y2="214.245" gradientUnits="userSpaceOnUse"><stop stop-color="#E34C98"/><stop offset="1" stop-color="#7C1E84"/></linearGradient><linearGradient id="f" x1="424.527" y1="226.017" x2="430.421" y2="226.023" gradientUnits="userSpaceOnUse"><stop stop-color="#E34C98"/><stop offset="1" stop-color="#7C1E84"/></linearGradient><linearGradient id="g" x1="409.403" y1="239.742" x2="415.47" y2="239.749" gradientUnits="userSpaceOnUse"><stop stop-color="#E34C98"/><stop offset="1" stop-color="#7C1E84"/></linearGradient><linearGradient id="h" x1="396.405" y1="248.706" x2="403.497" y2="248.716" gradientUnits="userSpaceOnUse"><stop stop-color="#E34C98"/><stop offset="1" stop-color="#7C1E84"/></linearGradient><linearGradient id="i" x1="443.396" y1="212.357" x2="465.504" y2="212.575" gradientUnits="userSpaceOnUse"><stop stop-color="#E34C98"/><stop offset="1" stop-color="#7C1E84"/></linearGradient><linearGradient id="j" x1="435.615" y1="225.781" x2="458.95" y2="226.127" gradientUnits="userSpaceOnUse"><stop stop-color="#E34C98"/><stop offset="1" stop-color="#7C1E84"/></linearGradient><linearGradient id="k" x1="423.989" y1="240.733" x2="447.355" y2="241.122" gradientUnits="userSpaceOnUse"><stop stop-color="#E34C98"/><stop offset="1" stop-color="#7C1E84"/></linearGradient><linearGradient id="l" x1="407.725" y1="251.006" x2="430.996" y2="251.341" gradientUnits="userSpaceOnUse"><stop stop-color="#E34C98"/><stop offset="1" stop-color="#7C1E84"/></linearGradient><linearGradient id="m" x1="394.573" y1="264.963" x2="416.829" y2="265.187" gradientUnits="userSpaceOnUse"><stop stop-color="#E34C98"/><stop offset="1" stop-color="#7C1E84"/></linearGradient><linearGradient id="n" x1="137.763" y1="200.303" x2="217.397" y2="200.565" gradientUnits="userSpaceOnUse"><stop stop-color="#E34C98"/><stop offset="1" stop-color="#7C1E84"/></linearGradient><linearGradient id="o" x1="134.444" y1="147.578" x2="140.368" y2="147.585" gradientUnits="userSpaceOnUse"><stop stop-color="#E34C98"/><stop offset="1" stop-color="#7C1E84"/></linearGradient><linearGradient id="p" x1="142.985" y1="160.013" x2="151.177" y2="160.026" gradientUnits="userSpaceOnUse"><stop stop-color="#E34C98"/><stop offset="1" stop-color="#7C1E84"/></linearGradient><linearGradient id="q" x1="148.42" y1="174.991" x2="155.325" y2="175" gradientUnits="userSpaceOnUse"><stop stop-color="#E34C98"/><stop offset="1" stop-color="#7C1E84"/></linearGradient><linearGradient id="r" x1="156.582" y1="188.951" x2="163.488" y2="188.961" gradientUnits="userSpaceOnUse"><stop stop-color="#E34C98"/><stop offset="1" stop-color="#7C1E84"/></linearGradient><linearGradient id="s" x1="168.613" y1="205.784" x2="174.807" y2="205.791" gradientUnits="userSpaceOnUse"><stop stop-color="#E34C98"/><stop offset="1" stop-color="#7C1E84"/></linearGradient><linearGradient id="t" x1="178.704" y1="217.233" x2="183.872" y2="217.238" gradientUnits="userSpaceOnUse"><stop stop-color="#E34C98"/><stop offset="1" stop-color="#7C1E84"/></linearGradient><linearGradient id="u" x1="125.937" y1="169.454" x2="145.87" y2="169.578" gradientUnits="userSpaceOnUse"><stop stop-color="#E34C98"/><stop offset="1" stop-color="#7C1E84"/></linearGradient><linearGradient id="v" x1="128.953" y1="183.66" x2="151.194" y2="183.887" gradientUnits="userSpaceOnUse"><stop stop-color="#E34C98"/><stop offset="1" stop-color="#7C1E84"/></linearGradient><linearGradient id="w" x1="136.61" y1="200.503" x2="159.873" y2="200.837" gradientUnits="userSpaceOnUse"><stop stop-color="#E34C98"/><stop offset="1" stop-color="#7C1E84"/></linearGradient><linearGradient id="x" x1="150.615" y1="214.51" x2="172.676" y2="214.725" gradientUnits="userSpaceOnUse"><stop stop-color="#E34C98"/><stop offset="1" stop-color="#7C1E84"/></linearGradient><linearGradient id="b" x1="385.099" y1="228.667" x2="457.299" y2="228.969" gradientUnits="userSpaceOnUse"><stop stop-color="#E34C98"/><stop offset="1" stop-color="#7C1E84"/></linearGradient><linearGradient id="z" x1="58.303" y1="238.211" x2="175.41" y2="239.262" gradientUnits="userSpaceOnUse"><stop stop-color="#E34C98"/><stop offset="1" stop-color="#7C1E84"/></linearGradient><linearGradient id="A" x1="45.595" y1="211.779" x2="67.749" y2="212.099" gradientUnits="userSpaceOnUse"><stop stop-color="#E34C98"/><stop offset="1" stop-color="#7C1E84"/></linearGradient><linearGradient id="B" x1="60.79" y1="217.763" x2="80.431" y2="217.902" gradientUnits="userSpaceOnUse"><stop stop-color="#E34C98"/><stop offset="1" stop-color="#7C1E84"/></linearGradient><linearGradient id="C" x1="76.019" y1="219.321" x2="96.741" y2="219.509" gradientUnits="userSpaceOnUse"><stop stop-color="#E34C98"/><stop offset="1" stop-color="#7C1E84"/></linearGradient><linearGradient id="D" x1="91.443" y1="224.142" x2="112.165" y2="224.33" gradientUnits="userSpaceOnUse"><stop stop-color="#E34C98"/><stop offset="1" stop-color="#7C1E84"/></linearGradient><linearGradient id="E" x1="110.201" y1="231.919" x2="131.633" y2="232.155" gradientUnits="userSpaceOnUse"><stop stop-color="#E34C98"/><stop offset="1" stop-color="#7C1E84"/></linearGradient><linearGradient id="F" x1="123.487" y1="238.742" x2="145.104" y2="239.038" gradientUnits="userSpaceOnUse"><stop stop-color="#E34C98"/><stop offset="1" stop-color="#7C1E84"/></linearGradient><linearGradient id="G" x1="68.944" y1="204.391" x2="86.198" y2="204.465" gradientUnits="userSpaceOnUse"><stop stop-color="#E34C98"/><stop offset="1" stop-color="#7C1E84"/></linearGradient><linearGradient id="H" x1="85.602" y1="205.338" x2="98.754" y2="205.374" gradientUnits="userSpaceOnUse"><stop stop-color="#E34C98"/><stop offset="1" stop-color="#7C1E84"/></linearGradient><linearGradient id="I" x1="105.25" y1="209.645" x2="114.814" y2="209.663" gradientUnits="userSpaceOnUse"><stop stop-color="#E34C98"/><stop offset="1" stop-color="#7C1E84"/></linearGradient><linearGradient id="J" x1="120.38" y1="219.411" x2="133.921" y2="219.45" gradientUnits="userSpaceOnUse"><stop stop-color="#E34C98"/><stop offset="1" stop-color="#7C1E84"/></linearGradient><linearGradient id="K" x1="142.189" y1="226.084" x2="148.845" y2="226.092" gradientUnits="userSpaceOnUse"><stop stop-color="#E34C98"/><stop offset="1" stop-color="#7C1E84"/></linearGradient><linearGradient id="L" x1="99.031" y1="247.638" x2="253.264" y2="249.53" gradientUnits="userSpaceOnUse"><stop stop-color="#E34C98"/><stop offset="1" stop-color="#7C1E84"/></linearGradient><linearGradient id="M" x1="303.136" y1="247.643" x2="445.907" y2="249.168" gradientUnits="userSpaceOnUse"><stop stop-color="#E34C98"/><stop offset="1" stop-color="#7C1E84"/></linearGradient><linearGradient id="N" x1="22.236" y1="226.279" x2="175.348" y2="227.134" gradientUnits="userSpaceOnUse"><stop stop-color="#E34C98"/><stop offset="1" stop-color="#7C1E84"/></linearGradient><linearGradient id="O" x1="66.741" y1="226.043" x2="96.638" y2="226.075" gradientUnits="userSpaceOnUse"><stop stop-color="#E34C98"/><stop offset="1" stop-color="#7C1E84"/></linearGradient><linearGradient id="P" x1="39.141" y1="253.33" x2="83.124" y2="253.463" gradientUnits="userSpaceOnUse"><stop stop-color="#E34C98"/><stop offset="1" stop-color="#7C1E84"/></linearGradient><linearGradient id="Q" x1="112.589" y1="238.973" x2="120.822" y2="238.976" gradientUnits="userSpaceOnUse"><stop stop-color="#E34C98"/><stop offset="1" stop-color="#7C1E84"/></linearGradient><linearGradient id="R" x1="146.75" y1="258.663" x2="151.985" y2="258.665" gradientUnits="userSpaceOnUse"><stop stop-color="#E34C98"/><stop offset="1" stop-color="#7C1E84"/></linearGradient><linearGradient id="S" x1="320.942" y1="226.281" x2="423.025" y2="226.623" gradientUnits="userSpaceOnUse"><stop stop-color="#E34C98"/><stop offset="1" stop-color="#7C1E84"/></linearGradient><linearGradient id="T" x1="368.438" y1="226.477" x2="417.305" y2="226.556" gradientUnits="userSpaceOnUse"><stop stop-color="#E34C98"/><stop offset="1" stop-color="#7C1E84"/></linearGradient><linearGradient id="U" x1="359.909" y1="247.571" x2="383.03" y2="247.597" gradientUnits="userSpaceOnUse"><stop stop-color="#E34C98"/><stop offset="1" stop-color="#7C1E84"/></linearGradient><linearGradient id="V" x1="378.294" y1="252.75" x2="416.386" y2="252.832" gradientUnits="userSpaceOnUse"><stop stop-color="#E34C98"/><stop offset="1" stop-color="#7C1E84"/></linearGradient></defs></svg>