<svg width="176" height="169" viewBox="0 0 176 169" fill="none" xmlns="http://www.w3.org/2000/svg">
<path d="M116.837 52.7218C148.791 52.2337 174.872 77.3834 175.49 109.335C175.581 114.026 175.112 118.592 174.146 122.972C172.511 130.388 171.538 137.934 171.538 145.529V160.208C171.538 162.457 169.715 164.28 167.466 164.28H152.787C145.192 164.28 137.646 165.253 130.23 166.889C125.85 167.855 121.284 168.323 116.593 168.233C84.6419 167.614 59.4922 141.535 59.9796 109.581C60.4551 78.3924 85.6489 53.1983 116.837 52.7218Z" fill="url(#paint0_linear_1213_9188)"/>
<path d="M116.837 52.7218C148.791 52.2337 174.872 77.3834 175.49 109.335C175.581 114.026 175.112 118.592 174.146 122.972C172.511 130.388 171.538 137.934 171.538 145.529V160.208C171.538 162.457 169.715 164.28 167.466 164.28H152.787C145.192 164.28 137.646 165.253 130.23 166.889C125.85 167.855 121.284 168.323 116.593 168.233C84.6419 167.614 59.4922 141.535 59.9796 109.581C60.4551 78.3924 85.6489 53.1983 116.837 52.7218Z" fill="url(#paint1_linear_1213_9188)"/>
<path d="M71.969 0.0085131C33.0405 -0.586212 1.26746 30.0527 0.513453 68.9785C0.403053 74.693 0.974194 80.2565 2.15134 85.5919C4.14401 94.6263 5.32868 103.82 5.32868 113.072V130.956C5.32868 133.696 7.54967 135.917 10.2899 135.917H28.1733C37.4251 135.917 46.619 137.102 55.6537 139.094C60.9892 140.271 66.5522 140.843 72.2667 140.732C111.192 139.978 141.831 108.206 141.237 69.2783C140.658 31.2818 109.965 0.588541 71.969 0.0085131Z" fill="url(#paint2_linear_1213_9188)"/>
<path d="M45.6835 66.6009C43.6956 64.4886 40.882 63.1621 37.7518 63.1621C31.7317 63.1621 26.8516 68.0423 26.8516 74.0623C26.8516 77.1922 28.1777 80.0058 30.2904 81.9941L53.8039 105.508C55.7921 107.62 58.6058 108.946 61.7356 108.946C67.7557 108.946 72.6358 104.066 72.6358 98.0462C72.6358 94.9164 71.3093 92.1027 69.197 90.1144L45.6835 66.6009Z" fill="url(#paint3_linear_1213_9188)"/>
<path d="M37.7518 84.9606C43.7718 84.9606 48.652 80.0804 48.652 74.0604C48.652 68.0404 43.7718 63.1602 37.7518 63.1602C31.7318 63.1602 26.8516 68.0404 26.8516 74.0604C26.8516 80.0804 31.7318 84.9606 37.7518 84.9606Z" fill="white"/>
<path d="M76.5116 66.6009C74.5237 64.4886 71.7101 63.1621 68.5799 63.1621C62.5599 63.1621 57.6797 68.0423 57.6797 74.0623C57.6797 77.1922 59.0059 80.0058 61.1185 81.9941L84.632 105.508C86.6203 107.62 89.4339 108.946 92.5637 108.946C98.5838 108.946 103.464 104.066 103.464 98.0462C103.464 94.9164 102.137 92.1027 100.025 90.1144L76.5116 66.6009Z" fill="url(#paint4_linear_1213_9188)"/>
<path d="M68.5799 84.9606C74.5999 84.9606 79.4801 80.0804 79.4801 74.0604C79.4801 68.0404 74.5999 63.1602 68.5799 63.1602C62.5599 63.1602 57.6797 68.0404 57.6797 74.0604C57.6797 80.0804 62.5599 84.9606 68.5799 84.9606Z" fill="white"/>
<path d="M107.336 66.6009C105.348 64.4886 102.534 63.1621 99.4041 63.1621C93.3841 63.1621 88.5039 68.0423 88.5039 74.0623C88.5039 77.1922 89.8304 80.0058 91.9427 81.9941L115.456 105.508C117.444 107.62 120.258 108.946 123.388 108.946C129.408 108.946 134.288 104.066 134.288 98.0462C134.288 94.9164 132.962 92.1027 130.849 90.1144L107.336 66.6009Z" fill="url(#paint5_linear_1213_9188)"/>
<path d="M99.4041 84.9606C105.424 84.9606 110.304 80.0804 110.304 74.0604C110.304 68.0404 105.424 63.1602 99.4041 63.1602C93.3841 63.1602 88.5039 68.0404 88.5039 74.0604C88.5039 80.0804 93.3841 84.9606 99.4041 84.9606Z" fill="white"/>
<defs>
<linearGradient id="paint0_linear_1213_9188" x1="106.077" y1="98.8224" x2="190.884" y2="183.63" gradientUnits="userSpaceOnUse">
<stop stop-color="white"/>
<stop offset="1" stop-color="#E34C98"/>
</linearGradient>
<linearGradient id="paint1_linear_1213_9188" x1="133.838" y1="126.583" x2="97.8165" y2="90.5642" gradientUnits="userSpaceOnUse">
<stop stop-color="white"/>
<stop offset="1" stop-color="#0E1017"/>
</linearGradient>
<linearGradient id="paint2_linear_1213_9188" x1="0.499999" y1="70.3727" x2="141.282" y2="70.9647" gradientUnits="userSpaceOnUse">
<stop stop-color="#E34C98"/>
<stop offset="1" stop-color="#7C1E84"/>
</linearGradient>
<linearGradient id="paint3_linear_1213_9188" x1="36.56" y1="82.0313" x2="57.4414" y2="102.299" gradientUnits="userSpaceOnUse">
<stop stop-color="#7C1E84"/>
<stop offset="1" stop-color="#7C1E84" stop-opacity="0"/>
</linearGradient>
<linearGradient id="paint4_linear_1213_9188" x1="63.2215" y1="76.9044" x2="94.3346" y2="105.268" gradientUnits="userSpaceOnUse">
<stop stop-color="#7C1E84"/>
<stop offset="1" stop-color="#7C1E84" stop-opacity="0"/>
</linearGradient>
<linearGradient id="paint5_linear_1213_9188" x1="96.8866" y1="74.6827" x2="128.031" y2="103.557" gradientUnits="userSpaceOnUse">
<stop stop-color="#7C1E84"/>
<stop offset="1" stop-color="#7C1E84" stop-opacity="0"/>
</linearGradient>
</defs>
</svg>
