<svg width="61" height="60" viewBox="0 0 61 60" fill="none" xmlns="http://www.w3.org/2000/svg">
<path opacity="0.2" d="M30.5 0C13.9317 0 0.5 13.4314 0.5 30C0.5 46.5686 13.9317 60 30.5 60C47.0683 60 60.5 46.5686 60.5 30C60.5 13.4314 47.0683 0 30.5 0ZM40.8688 31.5902L25.8687 40.9652C25.5652 41.1547 25.2201 41.25 24.875 41.25C24.5623 41.25 24.2492 41.1722 23.9659 41.0147C23.3698 40.6842 23 40.057 23 39.375V20.625C23 19.943 23.3698 19.3158 23.9659 18.9853C24.5619 18.653 25.2907 18.6731 25.8687 19.0348L40.8688 28.4098C41.4167 28.7531 41.75 29.3537 41.75 30C41.75 30.6463 41.4167 31.247 40.8688 31.5902Z" fill="white"/>
</svg>
