<svg width="424" height="386" viewBox="0 0 424 386" fill="none" xmlns="http://www.w3.org/2000/svg">
<rect width="424" height="385.915" rx="20" fill="#18191B"/>
<path d="M198.522 199.025C195.274 197.172 196.374 187.792 193.814 182.257C188.04 169.777 178.13 162.811 181.92 138.811C184.398 123.117 198.56 114.279 212.647 114.279C229.701 114.279 242.84 123.052 245.108 139.306C248.081 160.617 236.435 169.785 232.057 179.201C230.685 182.152 231.161 196.976 226.989 198.689C222.843 200.391 201.496 200.721 198.522 199.025Z" fill="#FFF34F"/>
<path d="M186.806 324.218C177.638 300.076 185.113 275.489 194.446 257.599C201.957 243.201 205.108 236.957 207.586 233.356C208.69 231.752 199.487 231.258 198.215 230.198C194.232 226.879 214.147 232.308 216.347 226.632C217.181 224.479 195.785 226.563 195.38 222.914C195.039 219.844 222.35 223.498 222.526 220.419C222.673 217.843 194.74 219.599 194.828 216.52C194.913 213.528 229.579 217.977 229.703 214.846C229.836 211.484 194.564 213.704 194.548 210.64C194.536 208.419 229.915 211.049 229.989 210.311C230.063 209.574 228.772 207.516 229.952 205.746C231.132 203.976 224.421 205.451 197.022 205.37C193.924 205.361 192.301 204.19 191.638 199.544C190.974 194.897 190.753 189.808 188.319 183.392C185.885 176.975 170.618 157.284 174.38 138.698C178.141 120.113 195.694 106.173 213.247 106.173C230.8 106.173 246.824 119.756 251.598 136.264C257.907 158.078 243.817 173.472 239.171 181.437C234.524 189.403 235.188 194.418 233.934 198.327C232.681 202.236 231.015 202.293 218.115 202.092C213.601 202.022 208.401 202.694 207.382 192.915C206.152 181.105 216.639 190.325 219 185.236C220.875 181.192 227.149 155.256 229.177 148.286C231.005 142.006 213.984 153.744 215.386 166.429C216.787 179.114 221.433 142.533 213.911 142.755C206.388 142.976 206.954 169.197 209.596 168.9C212.599 168.562 209.803 158.531 205.318 152.084C201.486 146.575 195.797 143.868 198.312 150.019C202.208 159.548 200.282 166.303 203.801 175.1C205.487 179.316 218.723 176.074 218.044 178.519C217.456 180.633 204.415 179.062 205.185 181.099C205.956 183.136 216.889 181.439 217.297 183.476C217.704 185.513 212.083 200.932 233.595 200.996C238.233 201.01 238.038 212.137 243.233 212.137C248.428 212.137 258.314 213.628 261.37 222.761C264.4 231.82 261.54 243.066 261.845 240.927C262.151 238.788 267.356 222.1 261.549 217.211C255.743 212.322 243.645 213.356 233.255 216.039C222.895 218.713 206.363 239.875 212.475 241.097C218.587 242.319 234.783 232.846 229.229 234.68C223.675 236.513 212.729 247.883 209.419 258.21C203.511 276.647 216.609 280.983 209.993 278.379C203.378 275.775 203.791 260.523 209.993 250.876C215.124 242.896 228.06 230.911 244.257 229.994C260.453 229.077 285.055 292.944 280.927 283.778C273.923 268.223 253.424 237.736 232.119 256.184C216.894 269.368 215.939 276.444 212.848 286.324C208.617 299.848 213.181 305.637 220.719 303.6C228.257 301.563 239.187 292.659 242.83 292.383C247.041 292.063 249.086 293.9 251.183 298.446C253.218 302.857 264.425 312.3 260.215 308.429C255.251 303.865 252.881 291.316 245.411 289.822C237.941 288.328 220.964 306.12 215.463 302.453C202.666 293.922 234.478 271.351 247.312 271.351C260.147 271.351 282.15 289.075 283.372 301.91C284.595 314.744 255.869 325.134 242.423 345.915" stroke="#BABABA" stroke-width="1.5" stroke-miterlimit="10" stroke-linecap="round" stroke-linejoin="round"/>
<path d="M147.051 113.813C134.092 100.116 126.879 98.2883 109.63 90.6714" stroke="#BABABA" stroke-width="1.5" stroke-miterlimit="10" stroke-linecap="round" stroke-linejoin="round"/>
<path d="M178.394 83.4943C171.747 59.6611 169.641 66.3466 160.848 43.2188" stroke="#BABABA" stroke-width="1.5" stroke-miterlimit="10" stroke-linecap="round" stroke-linejoin="round"/>
<path d="M222.34 83.4942C224.969 70.6499 225.722 52.2927 230.281 40" stroke="#BABABA" stroke-width="1.5" stroke-miterlimit="10" stroke-linecap="round" stroke-linejoin="round"/>
<path d="M261.242 90.6716C274.062 75.8713 275.36 68.2587 287.076 55.978" stroke="#BABABA" stroke-width="1.5" stroke-miterlimit="10" stroke-linecap="round" stroke-linejoin="round"/>
<path d="M284.933 114.279C301.656 111.101 308.292 105.203 327.635 99.8271" stroke="#BABABA" stroke-width="1.5" stroke-miterlimit="10" stroke-linecap="round" stroke-linejoin="round"/>
<path d="M292.703 147.864C311.985 151.418 314.218 148.963 333.5 152.517" stroke="#BABABA" stroke-width="1.5" stroke-miterlimit="10" stroke-linecap="round" stroke-linejoin="round"/>
<path d="M144.771 182.222C128.868 193.53 125.532 192.919 109.63 204.227" stroke="#BABABA" stroke-width="1.5" stroke-miterlimit="10" stroke-linecap="round" stroke-linejoin="round"/>
<path d="M287.076 182.222C295.767 192.385 304.079 198.657 316.237 204.227" stroke="#BABABA" stroke-width="1.5" stroke-miterlimit="10" stroke-linecap="round" stroke-linejoin="round"/>
<path d="M137.893 145.356C119.737 145.798 108.591 145.443 90.5 143.846" stroke="#BABABA" stroke-width="1.5" stroke-miterlimit="10" stroke-linecap="round" stroke-linejoin="round"/>
</svg>
