<svg width="160" height="160" fill="none" xmlns="http://www.w3.org/2000/svg"><path d="M111.825 148.344c-30.356 17.709-67.382 4.771-87.646-15.569-26.55-26.649-28.746-70.438-9.998-96.398 7.795-10.793 24.07-25.747 41.447-23.731 14.728 1.708 16.691 14.003 41.213 33.267 27.803 21.843 39.819 17.46 46.307 31.24 9.669 20.536-4.98 55.823-31.323 71.191z" fill="#423C4F"/><path d="M48.473 84.287c.65-1.687 4.889-12.933 2.844-19.529-.284-.917-.726-2.343-2.017-3.48-2.576-2.27-5.186-.436-7.238-2.094-2.705-2.186.38-6.55-2.57-12.855-.707-1.512-1.81-3.867-4.24-5.052-2.713-1.324-4.29.172-6.968-.848-3.338-1.271-2.978-4.394-6.118-7.517-3.308-3.289-9.766-5.846-14.535-3.252-4.157 2.263-5.455 7.585-5.259 11.228.29 5.38 3.983 9.781 7.85 11.812 5.56 2.92 11.19.794 11.934 2.91.692 1.969-4.16 3.895-3.908 7.582.174 2.575 2.776 5.091 5.434 5.742 3.683.902 5.823-2.184 8.02-1.007 2.306 1.233 1.021 5.199 2.669 8.796 1.358 2.966 4.906 6.108 14.102 7.564z" fill="#E34C98" fill-opacity=".5"/><path d="M48.608 83.114a.26.26 0 0 1-.255-.207C45.19 67.964 35.85 57.27 28.57 50.93c-7.891-6.874-15.12-10.25-15.191-10.283a.261.261 0 0 1 .218-.473c.072.034 7.368 3.44 15.315 10.363 4.67 4.066 8.65 8.533 11.83 13.279 3.98 5.935 6.711 12.322 8.121 18.984a.26.26 0 0 1-.254.314z" fill="#fff"/><path d="M48.473 84.287c8.151-18.55 7.082-26.656 4.142-30.582-.878-1.172-2.943-3.352-4.198-7.129-1.626-4.898-.307-7.72-.47-11.785-.32-7.952-6.108-15.56-12.53-19.226-4.486-2.561-13.118-5.389-18.422-1.199-2.242 1.772-4.494 5.276-3.504 7.803 1.416 3.617 8.484 1.633 11.859 6.497 1.841 2.654.277 3.998 2.256 6.799 3.12 4.415 8.453 3.13 9.514 6.263 1.026 3.033-3.764 5.03-3.084 8.923.777 4.442 7.314 5.045 7.593 9.325.166 2.548-2.118 2.86-2.245 5.82-.156 3.602 3.14 5.109 6.195 10.463 1.713 3.001 2.426 5.844 2.894 8.028z" fill="url(#a)"/><path d="M48.683 82.648h-.02a.261.261 0 0 1-.24-.28c1.145-15.808-1.4-32.59-6.805-44.892-3.723-8.474-8.355-13.724-11.584-16.635-3.499-3.155-6.152-4.32-6.178-4.332a.26.26 0 1 1 .206-.479c.11.048 2.74 1.201 6.3 4.404 3.274 2.947 7.967 8.26 11.734 16.832 2.451 5.578 4.398 12.388 5.631 19.693a106.767 106.767 0 0 1 1.217 25.446.263.263 0 0 1-.261.243z" fill="#E34C98" fill-opacity=".3"/><path d="M119.75 119.625c21.884-21.884 21.884-57.366 0-79.25s-57.366-21.884-79.25 0-21.884 57.366 0 79.25 57.366 21.884 79.25 0z" fill="#fff"/><path d="M80.126 136.299c-15.038 0-29.176-5.856-39.81-16.489C29.683 109.177 23.827 95.039 23.827 80c0-15.038 5.856-29.176 16.49-39.809 10.633-10.633 24.77-16.49 39.809-16.49 15.037 0 29.176 5.857 39.809 16.49s16.49 24.771 16.49 39.81c0 15.038-5.857 29.176-16.49 39.809s-24.77 16.489-39.81 16.489zm0-112.077c-30.757 0-55.778 25.022-55.778 55.778s25.022 55.778 55.778 55.778S135.904 110.756 135.904 80c.001-30.756-25.022-55.778-55.778-55.778z" fill="#000"/><path d="M68.703 101.067c-3.57-7.7-11.626-6.35-13.375-11.745C51.47 77.433 87.04 59.914 83.71 50.501c-2.607-7.366-26.09-1.458-30.34-10.114-1.378-2.807-.424-6.52 1.922-10.631C36.802 38.913 24.087 57.97 24.087 80c0 23.743 14.767 44.036 35.617 52.199a46.454 46.454 0 0 0 5.084-7.97c2.76-5.497 7.618-15.173 3.914-23.162zM136.165 80c0-16.748-7.349-31.777-18.996-42.045-4.874-.327-7.793.888-9.644 2.433-3.742 3.122-2.178 6.792-6.851 13.375-5.482 7.722-10.415 6.596-14.355 12.723-4.076 6.34-4.59 16.563-.326 23.162 7.09 10.975 22.927 5.026 30.34 14.355 2.417 3.042 4.103 7.926 2.792 16.235 10.507-10.186 17.04-24.448 17.04-40.238z" fill="#E34C98" fill-opacity=".3"/><path d="M80.126 136.299c-15.038 0-29.176-5.856-39.81-16.489C29.683 109.177 23.827 95.039 23.827 80c0-15.038 5.856-29.176 16.49-39.809 10.633-10.633 24.77-16.49 39.809-16.49 15.037 0 29.176 5.857 39.809 16.49s16.49 24.771 16.49 39.81c0 15.038-5.857 29.176-16.49 39.809s-24.77 16.489-39.81 16.489zm0-112.077c-30.757 0-55.778 25.022-55.778 55.778s25.022 55.778 55.778 55.778S135.904 110.756 135.904 80c.001-30.756-25.022-55.778-55.778-55.778z" fill="#000"/><path d="M126.498 68.494a2.94 2.94 0 1 0-4.158-4.158 2.94 2.94 0 0 0 4.158 4.158z" fill="url(#b)"/><path d="M66.467 110.512a.257.257 0 0 1-.105-.022 145.87 145.87 0 0 1-1.903-.856.26.26 0 0 1 .216-.474c.626.287 1.264.574 1.897.854a.26.26 0 0 1-.105.498zm-3.789-1.734a.25.25 0 0 1-.112-.026c-.627-.298-1.26-.604-1.878-.908a.261.261 0 0 1 .23-.468c.617.303 1.246.608 1.872.905a.261.261 0 0 1-.112.497zm-3.738-1.841c-.04 0-.08-.01-.119-.029-.615-.313-1.238-.637-1.852-.962a.26.26 0 0 1 .243-.461c.612.323 1.233.646 1.846.958a.261.261 0 0 1-.118.494zm-3.684-1.947a.253.253 0 0 1-.124-.032 158.23 158.23 0 0 1-1.824-1.016.26.26 0 0 1 .257-.454c.6.34 1.21.68 1.816 1.012a.26.26 0 0 1-.125.49zm-3.625-2.055a.251.251 0 0 1-.132-.036c-.597-.35-1.2-.71-1.792-1.07a.26.26 0 0 1 .27-.445c.59.358 1.19.716 1.785 1.066a.26.26 0 0 1-.131.485zm-3.56-2.165a.261.261 0 0 1-.14-.04c-.586-.37-1.178-.75-1.757-1.127a.26.26 0 1 1 .284-.436c.577.376 1.166.754 1.75 1.122a.26.26 0 0 1-.139.481zm-3.49-2.278c-.05 0-.1-.014-.145-.045-.575-.39-1.153-.789-1.719-1.186a.261.261 0 0 1 .3-.426c.564.396 1.14.793 1.711 1.18a.26.26 0 0 1 .07.362.26.26 0 0 1-.216.115zm-3.409-2.397a.265.265 0 0 1-.153-.05c-.564-.411-1.128-.83-1.676-1.246a.26.26 0 0 1 .315-.415c.545.414 1.106.832 1.667 1.241a.26.26 0 0 1-.153.47zm-3.32-2.518a.26.26 0 0 1-.16-.056c-.549-.433-1.096-.874-1.627-1.31a.26.26 0 1 1 .33-.402 107.5 107.5 0 0 0 1.619 1.304.26.26 0 0 1-.161.464zm-3.216-2.647c-.06 0-.12-.02-.17-.063-.53-.456-1.058-.92-1.57-1.379a.26.26 0 1 1 .349-.387c.508.456 1.033.918 1.56 1.37a.261.261 0 0 1-.17.46zm-3.1-2.785a.258.258 0 0 1-.177-.071 80.884 80.884 0 0 1-1.504-1.452.26.26 0 1 1 .367-.37c.483.478.985.963 1.494 1.442a.26.26 0 0 1-.18.45zm-2.96-2.932a.26.26 0 0 1-.188-.08 72.51 72.51 0 0 1-1.424-1.531.26.26 0 1 1 .387-.35c.456.505.931 1.016 1.414 1.52a.26.26 0 0 1-.189.44zm-2.792-3.092a.259.259 0 0 1-.198-.093 62.49 62.49 0 0 1-1.327-1.617.26.26 0 0 1 .408-.323c.421.532.864 1.072 1.316 1.604a.26.26 0 0 1-.199.429zM23.2 78.854a.26.26 0 0 1-.21-.107 50.603 50.603 0 0 1-1.204-1.713.26.26 0 0 1 .432-.29c.376.56.777 1.13 1.191 1.695a.26.26 0 0 1-.21.415zm-2.32-3.46a.259.259 0 0 1-.223-.125 40.811 40.811 0 0 1-1.042-1.818.26.26 0 1 1 .458-.247c.32.593.666 1.197 1.03 1.795a.26.26 0 0 1-.223.396zm-1.971-3.666a.261.261 0 0 1-.236-.15 31.172 31.172 0 0 1-.824-1.932.261.261 0 0 1 .486-.188c.241.625.514 1.264.81 1.899a.26.26 0 0 1-.236.37zm-1.495-3.882a.26.26 0 0 1-.25-.186 23.708 23.708 0 0 1-.518-2.037.26.26 0 1 1 .51-.106c.135.652.306 1.323.507 1.994a.26.26 0 0 1-.25.335zm-.833-4.07a.26.26 0 0 1-.258-.235 18.211 18.211 0 0 1-.096-1.849l.001-.26a.263.263 0 0 1 .265-.257c.143.002.258.12.257.265-.002.084-.002.167-.002.252 0 .587.032 1.191.093 1.797a.26.26 0 0 1-.232.285l-.028.001zm.073-4.155c-.012 0-.025 0-.038-.003a.26.26 0 0 1-.22-.295c.103-.703.256-1.4.454-2.069a.26.26 0 1 1 .5.148c-.192.647-.339 1.318-.439 1.997a.26.26 0 0 1-.257.222zm1.178-3.982a.261.261 0 0 1-.236-.37 14.62 14.62 0 0 1 1.025-1.854.26.26 0 1 1 .436.284 14.365 14.365 0 0 0-.989 1.788.258.258 0 0 1-.236.152zm2.26-3.48a.26.26 0 0 1-.197-.43c.453-.523.953-1.029 1.486-1.506a.26.26 0 1 1 .347.388c-.516.462-1 .953-1.439 1.458a.261.261 0 0 1-.196.09zm3.09-2.78a.26.26 0 0 1-.152-.473 22.15 22.15 0 0 1 1.775-1.136.26.26 0 1 1 .26.451c-.607.349-1.19.722-1.733 1.108a.251.251 0 0 1-.15.05zm3.602-2.082a.26.26 0 0 1-.111-.496 28.5 28.5 0 0 1 1.935-.82.26.26 0 1 1 .186.487c-.656.25-1.295.522-1.9.804a.258.258 0 0 1-.11.025zm3.886-1.492a.26.26 0 0 1-.077-.509c.385-.12.784-.236 1.183-.346a.26.26 0 0 1 .138.502c-.394.108-.786.223-1.166.341a.25.25 0 0 1-.078.012zM114.126 121.801l-.602-.003a.26.26 0 0 1-.258-.262.254.254 0 0 1 .262-.258c.698.005 1.395.001 2.076-.013a.254.254 0 0 1 .265.255.26.26 0 0 1-.255.266c-.489.01-.99.015-1.488.015zm-2.682-.047h-.009a84.181 84.181 0 0 1-2.087-.097.262.262 0 0 1-.245-.275.262.262 0 0 1 .275-.245c.696.041 1.394.074 2.073.097a.262.262 0 0 1 .252.27.259.259 0 0 1-.259.25zm6.246-.042a.261.261 0 0 1-.013-.521 61.168 61.168 0 0 0 2.069-.14.26.26 0 0 1 .282.237.261.261 0 0 1-.237.281c-.682.058-1.384.106-2.087.141-.005.002-.009.002-.014.002zm-10.403-.203h-.022a96.361 96.361 0 0 1-2.079-.196.26.26 0 1 1 .055-.517c.69.072 1.385.138 2.068.193a.26.26 0 0 1-.022.52zm14.554-.151a.26.26 0 0 1-.031-.519 50.412 50.412 0 0 0 2.052-.291.26.26 0 0 1 .083.514c-.674.109-1.372.209-2.072.294-.011.002-.022.002-.032.002zm-18.696-.283c-.011 0-.022 0-.033-.002-.68-.086-1.376-.18-2.069-.282a.259.259 0 0 1-.219-.295.26.26 0 0 1 .295-.22c.689.101 1.382.195 2.059.28a.262.262 0 0 1 .226.291.262.262 0 0 1-.259.228zm22.807-.388a.26.26 0 0 1-.053-.515 42.863 42.863 0 0 0 2.015-.474.26.26 0 0 1 .132.504c-.658.173-1.345.334-2.04.48a.35.35 0 0 1-.054.005zm4.026-1.062a.26.26 0 0 1-.08-.508 30.97 30.97 0 0 0 1.944-.7.26.26 0 1 1 .192.484c-.633.252-1.298.492-1.976.711a.248.248 0 0 1-.08.013zm3.865-1.545a.26.26 0 0 1-.114-.494c.63-.308 1.239-.637 1.812-.98a.26.26 0 1 1 .267.446c-.584.351-1.208.688-1.851 1.001a.245.245 0 0 1-.114.027zm3.563-2.146a.26.26 0 0 1-.156-.468 17.944 17.944 0 0 0 1.575-1.315.259.259 0 0 1 .368.012.26.26 0 0 1-.012.368c-.5.47-1.045.925-1.62 1.352a.264.264 0 0 1-.155.051zm3.02-2.851a.26.26 0 0 1-.201-.425 14.76 14.76 0 0 0 1.186-1.664.26.26 0 0 1 .445.271 15.511 15.511 0 0 1-1.228 1.724.263.263 0 0 1-.202.094zm2.161-3.54a.26.26 0 0 1-.24-.364c.266-.624.49-1.273.664-1.932a.26.26 0 0 1 .504.133 14.765 14.765 0 0 1-.69 2.004.258.258 0 0 1-.238.159zm1.066-4.013-.031-.002a.26.26 0 0 1-.228-.29 15.97 15.97 0 0 0 .111-1.895l-.001-.151a.26.26 0 0 1 .259-.262h.002a.26.26 0 0 1 .26.258l.001.155c0 .662-.039 1.32-.115 1.957a.26.26 0 0 1-.258.23zm-.027-4.156a.263.263 0 0 1-.259-.228 20.715 20.715 0 0 0-.356-2.025.26.26 0 0 1 .508-.115c.158.699.281 1.397.364 2.075a.26.26 0 0 1-.257.293zm-.909-4.06a.26.26 0 0 1-.248-.18 28.006 28.006 0 0 0-.702-1.94.26.26 0 1 1 .483-.195c.267.662.508 1.328.714 1.976a.26.26 0 0 1-.247.34zm-1.551-3.862a.26.26 0 0 1-.234-.147 38.3 38.3 0 0 0-.95-1.838.26.26 0 1 1 .455-.252c.344.623.668 1.249.963 1.863a.26.26 0 0 1-.234.374zm-2.012-3.647a.259.259 0 0 1-.221-.123 47.496 47.496 0 0 0-1.132-1.734.26.26 0 1 1 .429-.294 47.84 47.84 0 0 1 1.145 1.753.26.26 0 0 1-.221.398zM19.451 110.513a.259.259 0 0 1-.181-.073 16.24 16.24 0 0 1-1.421-1.568.26.26 0 1 1 .408-.323c.415.525.877 1.035 1.375 1.517a.26.26 0 0 1-.18.447zm-2.57-3.262a.26.26 0 0 1-.226-.13 14.428 14.428 0 0 1-.925-1.907.26.26 0 0 1 .483-.192l.103.252c.228.542.493 1.076.79 1.585a.26.26 0 0 1-.225.392zm-1.532-3.858a.261.261 0 0 1-.253-.201 15.054 15.054 0 0 1-.335-2.091.26.26 0 0 1 .519-.047c.061.686.17 1.366.324 2.019a.26.26 0 0 1-.255.32zm-.379-4.136h-.01a.261.261 0 0 1-.25-.27 18.74 18.74 0 0 1 .204-2.102.26.26 0 1 1 .515.08c-.106.689-.173 1.376-.198 2.042a.261.261 0 0 1-.26.25zm.62-4.112a.26.26 0 0 1-.253-.324c.168-.661.373-1.339.609-2.014a.26.26 0 0 1 .492.17c-.23.663-.43 1.326-.595 1.973a.263.263 0 0 1-.253.195zm1.358-3.934a.26.26 0 0 1-.239-.363c.27-.625.571-1.263.895-1.9a.261.261 0 0 1 .465.237 32.77 32.77 0 0 0-.88 1.87.263.263 0 0 1-.24.156zm1.884-3.712a.26.26 0 0 1-.225-.391c.342-.59.711-1.19 1.097-1.786a.26.26 0 0 1 .437.283 42.533 42.533 0 0 0-1.084 1.764.26.26 0 0 1-.225.13zM44.172 117.919h-.002a74.942 74.942 0 0 1-2.09-.049.261.261 0 0 1 .02-.521c.678.026 1.376.042 2.074.048a.261.261 0 0 1-.002.522zm2.083-.01a.26.26 0 0 1-.26-.256.261.261 0 0 1 .256-.265c.681-.011 1.38-.033 2.076-.063a.26.26 0 0 1 .27.249.26.26 0 0 1-.248.271c-.7.03-1.403.051-2.09.063l-.004.001zm-6.245-.15-.019-.001a63.212 63.212 0 0 1-2.084-.18.26.26 0 1 1 .054-.518c.673.07 1.368.13 2.066.178a.26.26 0 0 1 .242.278.26.26 0 0 1-.26.243zm10.407-.026a.26.26 0 0 1-.017-.521c.68-.045 1.377-.099 2.071-.16a.26.26 0 0 1 .282.236.26.26 0 0 1-.236.282c-.698.062-1.4.116-2.083.161-.006.002-.011.002-.017.002zm4.15-.366a.261.261 0 0 1-.027-.52 105.96 105.96 0 0 0 2.063-.246.26.26 0 1 1 .067.516c-.694.089-1.391.173-2.074.248l-.029.002zm-18.701-.04-.037-.002c-.701-.1-1.397-.213-2.067-.337a.26.26 0 0 1 .094-.512c.664.122 1.351.235 2.045.333a.26.26 0 0 1-.035.518zm22.833-.496a.26.26 0 0 1-.038-.518c.678-.101 1.368-.21 2.053-.325a.26.26 0 1 1 .087.513c-.689.116-1.382.226-2.063.327-.014.003-.026.003-.039.003zm-26.928-.263a.239.239 0 0 1-.059-.007 40.278 40.278 0 0 1-2.03-.528.262.262 0 0 1-.177-.323.262.262 0 0 1 .322-.178c.646.187 1.32.363 2.002.522a.26.26 0 0 1-.058.514zm31.037-.426a.26.26 0 0 1-.047-.516c.67-.124 1.357-.258 2.04-.398a.26.26 0 0 1 .104.511c-.686.139-1.375.274-2.049.399a.265.265 0 0 1-.048.004zm4.083-.831a.26.26 0 0 1-.056-.514c.669-.148 1.35-.304 2.027-.464a.26.26 0 1 1 .12.506c-.679.162-1.363.318-2.034.467a.38.38 0 0 1-.057.005zm4.053-.962a.26.26 0 0 1-.064-.513c.667-.169 1.343-.346 2.011-.527a.26.26 0 0 1 .136.503c-.671.181-1.35.359-2.02.529a.273.273 0 0 1-.063.008zm4.023-1.086a.262.262 0 0 1-.25-.189.26.26 0 0 1 .178-.322c.664-.19 1.335-.387 1.996-.586a.26.26 0 1 1 .15.498c-.663.2-1.337.398-2.002.589a.3.3 0 0 1-.072.01zm3.988-1.204a.26.26 0 0 1-.078-.509c.657-.208 1.323-.425 1.978-.643a.26.26 0 1 1 .165.494c-.657.219-1.325.436-1.985.646a.279.279 0 0 1-.08.012zm3.953-1.316a.26.26 0 0 1-.085-.507c.652-.227 1.311-.461 1.959-.697a.26.26 0 1 1 .178.49c-.651.236-1.312.472-1.966.7a.277.277 0 0 1-.086.014zm3.916-1.424a.26.26 0 0 1-.092-.503c.645-.244 1.297-.496 1.94-.75a.26.26 0 1 1 .192.485c-.645.254-1.3.507-1.947.752a.275.275 0 0 1-.093.016zm3.877-1.527a.26.26 0 0 1-.099-.501c.429-.176.858-.354 1.287-.533l.633-.267a.26.26 0 1 1 .203.478l-.634.269c-.43.181-.86.359-1.29.535a.27.27 0 0 1-.1.019zm3.834-1.63a.261.261 0 0 1-.105-.499c.634-.279 1.272-.565 1.897-.85a.26.26 0 0 1 .217.473c-.627.286-1.267.574-1.904.854a.26.26 0 0 1-.105.022zm3.789-1.73a.26.26 0 0 1-.111-.495c.626-.297 1.256-.6 1.874-.902a.26.26 0 0 1 .228.468c-.619.304-1.251.608-1.88.905a.27.27 0 0 1-.111.024zm3.742-1.831a.258.258 0 0 1-.232-.143.26.26 0 0 1 .114-.35 161.55 161.55 0 0 0 1.848-.952.26.26 0 0 1 .351.109.262.262 0 0 1-.109.352c-.615.322-1.239.643-1.855.955a.25.25 0 0 1-.117.029zM116.257 94.36a.26.26 0 0 1-.217-.116.26.26 0 0 1 .072-.36c.275-.183.548-.367.82-.55a.26.26 0 1 1 .292.431c-.274.185-.548.369-.824.552a.255.255 0 0 1-.143.044zm2.538-1.731a.258.258 0 0 1-.213-.112.258.258 0 0 1 .064-.362c.568-.398 1.137-.805 1.691-1.208a.26.26 0 1 1 .306.421c-.557.405-1.128.813-1.699 1.213a.254.254 0 0 1-.149.047zm3.37-2.452a.26.26 0 0 1-.158-.468c.555-.42 1.108-.846 1.646-1.269a.26.26 0 1 1 .322.41c-.541.424-1.097.854-1.655 1.275a.258.258 0 0 1-.155.052zm3.274-2.576a.26.26 0 0 1-.165-.462 94.89 94.89 0 0 0 1.593-1.332.261.261 0 0 1 .339.395c-.523.447-1.062.898-1.602 1.34a.255.255 0 0 1-.165.059zm3.167-2.707a.26.26 0 0 1-.173-.455c.52-.465 1.035-.937 1.533-1.402a.26.26 0 1 1 .356.38c-.5.468-1.019.942-1.542 1.41a.261.261 0 0 1-.174.067zm3.04-2.85a.26.26 0 0 1-.183-.446c.499-.49.99-.987 1.46-1.476a.26.26 0 0 1 .368-.007.26.26 0 0 1 .007.368 80.26 80.26 0 0 1-1.47 1.486.256.256 0 0 1-.182.075zm2.888-3.002a.26.26 0 0 1-.192-.436 68.01 68.01 0 0 0 1.371-1.557.26.26 0 1 1 .396.338c-.445.522-.909 1.05-1.382 1.57a.265.265 0 0 1-.193.085zm2.701-3.171a.26.26 0 0 1-.204-.422c.436-.549.86-1.103 1.261-1.647a.26.26 0 0 1 .419.309c-.405.55-.833 1.108-1.273 1.661a.253.253 0 0 1-.203.099zm2.467-3.357a.26.26 0 0 1-.216-.406c.391-.58.767-1.167 1.117-1.743a.26.26 0 0 1 .445.27 44.085 44.085 0 0 1-1.131 1.764.258.258 0 0 1-.215.115zm2.158-3.56a.26.26 0 0 1-.229-.384c.332-.619.643-1.24.925-1.85a.26.26 0 1 1 .472.219c-.286.618-.601 1.25-.938 1.877a.262.262 0 0 1-.23.137zm1.741-3.782a.26.26 0 0 1-.243-.354c.249-.654.471-1.311.658-1.953a.26.26 0 0 1 .5.146 26.033 26.033 0 0 1-.672 1.992.259.259 0 0 1-.243.169zm1.159-3.995a.26.26 0 0 1-.256-.31c.133-.685.229-1.37.285-2.032a.26.26 0 1 1 .519.044 19.5 19.5 0 0 1-.293 2.089.26.26 0 0 1-.255.21zm.34-4.14a.261.261 0 0 1-.26-.25 15.08 15.08 0 0 0-.214-2.035.26.26 0 0 1 .513-.09c.119.683.194 1.39.221 2.105a.26.26 0 0 1-.25.27h-.01zm-.726-4.087a.262.262 0 0 1-.248-.179 13.846 13.846 0 0 0-.783-1.885.26.26 0 1 1 .464-.235 14.314 14.314 0 0 1 .814 1.958.261.261 0 0 1-.165.33.327.327 0 0 1-.082.01zm-1.872-3.703a.26.26 0 0 1-.213-.11 14.93 14.93 0 0 0-1.292-1.586.26.26 0 1 1 .38-.356 15.56 15.56 0 0 1 1.338 1.641.261.261 0 0 1-.213.41zm-2.829-3.043a.259.259 0 0 1-.167-.06c-.51-.427-1.064-.84-1.645-1.228a.26.26 0 1 1 .289-.433c.597.399 1.166.823 1.69 1.262a.26.26 0 0 1-.167.46zm-3.453-2.316a.258.258 0 0 1-.123-.032 25.469 25.469 0 0 0-1.853-.904.26.26 0 0 1 .21-.477c.656.288 1.291.599 1.89.923a.261.261 0 0 1-.124.49zm-3.805-1.685a.248.248 0 0 1-.088-.016 34.774 34.774 0 0 0-1.966-.64.26.26 0 0 1-.176-.323.26.26 0 0 1 .323-.176c.684.2 1.355.419 1.995.649a.26.26 0 0 1 .157.333.262.262 0 0 1-.245.172zm-3.994-1.176a.262.262 0 0 1-.06-.007c-.656-.155-1.338-.3-2.026-.428a.26.26 0 1 1 .096-.512c.696.13 1.386.276 2.05.434a.26.26 0 0 1 .194.313.264.264 0 0 1-.254.2zM88.472 44.272a.261.261 0 0 1-.2-.095c-.442-.532-.893-1.068-1.34-1.591a.26.26 0 0 1 .396-.339c.45.525.901 1.063 1.344 1.598a.26.26 0 0 1-.2.427zm-2.707-3.166a.262.262 0 0 1-.196-.089 118.36 118.36 0 0 0-1.39-1.546.26.26 0 1 1 .385-.351c.466.51.936 1.033 1.395 1.553a.26.26 0 0 1-.195.433zm-51.993-1.687h-.016a.26.26 0 0 1-.244-.276c.042-.709.1-1.411.17-2.088a.26.26 0 0 1 .518.054 46.48 46.48 0 0 0-.17 2.065.26.26 0 0 1-.258.245zm49.181-1.39a.26.26 0 0 1-.19-.08c-.477-.506-.963-1.01-1.442-1.497a.26.26 0 0 1 .372-.365c.48.49.969.996 1.448 1.504a.26.26 0 0 1-.188.438zm-48.742-2.751-.04-.003a.26.26 0 0 1-.217-.298c.11-.704.24-1.398.383-2.063a.26.26 0 0 1 .51.11c-.143.656-.27 1.34-.379 2.033a.262.262 0 0 1-.257.22zm45.823-.222a.258.258 0 0 1-.182-.074c-.498-.487-1.002-.972-1.499-1.44a.26.26 0 1 1 .357-.379c.5.47 1.006.958 1.506 1.448a.26.26 0 0 1-.182.445zM77 32.202a.258.258 0 0 1-.174-.067 91.273 91.273 0 0 0-1.558-1.374.26.26 0 0 1 .34-.395c.52.448 1.047.914 1.566 1.382a.261.261 0 0 1-.174.454zm-41.9-.991a.26.26 0 0 1-.25-.332c.198-.69.42-1.36.659-1.998a.26.26 0 0 1 .487.184 26.52 26.52 0 0 0-.646 1.958.262.262 0 0 1-.25.188zm38.743-1.729a.26.26 0 0 1-.165-.059 80.93 80.93 0 0 0-1.622-1.296.26.26 0 0 1 .32-.41c.54.42 1.09.859 1.633 1.304a.26.26 0 0 1-.166.461zm-37.274-2.165a.26.26 0 0 1-.235-.373c.313-.647.654-1.269 1.015-1.849a.26.26 0 1 1 .442.275c-.351.564-.684 1.17-.988 1.801a.26.26 0 0 1-.234.146zm33.984-.39a.26.26 0 0 1-.154-.05 70.129 70.129 0 0 0-1.692-1.203.26.26 0 1 1 .296-.43c.563.388 1.136.796 1.704 1.212a.26.26 0 0 1-.154.47zm-3.435-2.359a.262.262 0 0 1-.14-.04 56.214 56.214 0 0 0-1.767-1.085.26.26 0 1 1 .264-.449 56.54 56.54 0 0 1 1.784 1.095.26.26 0 0 1-.14.48zm-28.343-.773a.26.26 0 0 1-.202-.424c.45-.555.934-1.078 1.438-1.551a.26.26 0 0 1 .356.38c-.487.457-.955.961-1.39 1.498a.26.26 0 0 1-.202.097zm24.751-1.335a.26.26 0 0 1-.122-.03c-.618-.33-1.24-.644-1.849-.934a.26.26 0 0 1 .223-.47c.615.293 1.245.61 1.87.944a.26.26 0 0 1-.122.49zM41.81 20.966a.26.26 0 0 1-.148-.475 13.777 13.777 0 0 1 1.835-1.062.26.26 0 1 1 .226.47 13.517 13.517 0 0 0-1.765 1.022.26.26 0 0 1-.148.045zm17.954-.29a.26.26 0 0 1-.1-.02 34.41 34.41 0 0 0-1.933-.732.26.26 0 0 1-.161-.331.26.26 0 0 1 .33-.162c.645.222 1.305.471 1.963.743a.26.26 0 0 1-.1.501zm-3.938-1.348a.291.291 0 0 1-.068-.009 25.762 25.762 0 0 0-2.01-.453.26.26 0 1 1 .093-.512c.668.122 1.36.277 2.05.462a.26.26 0 0 1-.065.512zm-10.277-.158a.26.26 0 0 1-.075-.51c.663-.2 1.359-.358 2.065-.468a.26.26 0 1 1 .08.514c-.682.106-1.353.258-1.993.453a.285.285 0 0 1-.077.01zm6.184-.578h-.023a18.62 18.62 0 0 0-2.05-.065.265.265 0 0 1-.268-.254.261.261 0 0 1 .254-.267c.685-.017 1.392.005 2.109.066a.26.26 0 0 1-.022.52zM58.347 146.19c-.315 0-.632-.009-.942-.028a.261.261 0 0 1-.245-.276.262.262 0 0 1 .276-.244c.668.04 1.358.035 2.048-.014a.26.26 0 1 1 .037.519c-.394.029-.788.043-1.174.043zm-2.99-.3a.238.238 0 0 1-.053-.006 14.253 14.253 0 0 1-2.039-.581.26.26 0 0 1 .18-.488l.256.091c.556.191 1.13.35 1.708.469a.26.26 0 0 1-.052.515zm-3.897-1.43a.266.266 0 0 1-.124-.031 15.224 15.224 0 0 1-1.782-1.144.26.26 0 1 1 .311-.418c.551.411 1.13.782 1.72 1.104a.26.26 0 0 1-.125.489zm-3.334-2.473a.261.261 0 0 1-.181-.074 18.701 18.701 0 0 1-1.431-1.552.26.26 0 1 1 .402-.33c.443.538.911 1.046 1.39 1.509a.26.26 0 0 1-.18.447zm-2.653-3.202a.26.26 0 0 1-.216-.115 25.09 25.09 0 0 1-1.096-1.796.26.26 0 1 1 .455-.252c.34.613.701 1.204 1.073 1.758.08.12.048.281-.07.362a.265.265 0 0 1-.146.043zm-2.026-3.635a.259.259 0 0 1-.236-.151 33.324 33.324 0 0 1-.82-1.932.26.26 0 1 1 .486-.188c.254.654.526 1.295.807 1.901a.26.26 0 0 1-.237.37zm-1.512-3.878a.262.262 0 0 1-.248-.18 43.718 43.718 0 0 1-.6-2.008.26.26 0 0 1 .503-.137c.185.677.384 1.345.593 1.983a.261.261 0 0 1-.248.342zM69.412 142.805a.261.261 0 0 1-.13-.486l.365-.214a.26.26 0 0 1 .266.447l-.37.218a.26.26 0 0 1-.131.035zm2.127-1.329a.26.26 0 0 1-.146-.477 43.37 43.37 0 0 0 1.69-1.197.26.26 0 1 1 .311.417c-.568.424-1.143.831-1.71 1.212a.266.266 0 0 1-.145.045zm3.34-2.487a.26.26 0 0 1-.164-.463 53.166 53.166 0 0 0 1.58-1.341.26.26 0 1 1 .345.39 53.63 53.63 0 0 1-1.595 1.355.262.262 0 0 1-.165.059zm3.125-2.755a.26.26 0 0 1-.18-.449c.493-.467.991-.956 1.482-1.452a.26.26 0 0 1 .37.365c-.494.501-.997.993-1.493 1.464a.258.258 0 0 1-.179.072zm2.93-2.961a.254.254 0 0 1-.177-.071.26.26 0 0 1-.014-.367c.464-.499.934-1.017 1.394-1.539a.26.26 0 1 1 .39.344 74.1 74.1 0 0 1-1.403 1.55.257.257 0 0 1-.19.083zm2.755-3.125a.26.26 0 0 1-.2-.427c.438-.523.88-1.064 1.314-1.609a.261.261 0 1 1 .408.325 92.661 92.661 0 0 1-1.32 1.618.26.26 0 0 1-.202.093zm2.598-3.257a.261.261 0 0 1-.207-.418c.411-.542.829-1.102 1.24-1.666a.26.26 0 1 1 .421.306 96.367 96.367 0 0 1-1.247 1.676.262.262 0 0 1-.207.102zm2.45-3.368a.26.26 0 0 1-.214-.409c.392-.562.786-1.139 1.172-1.717a.26.26 0 1 1 .433.289c-.388.58-.784 1.161-1.177 1.725a.26.26 0 0 1-.214.112zM111.991 63.22c-.012 0-.025 0-.038-.002a.26.26 0 0 1-.22-.295l.138-.983a.26.26 0 0 1 .293-.223c.142.02.242.15.223.294-.045.328-.091.656-.139.986a.26.26 0 0 1-.257.224zm.402-3.051-.031-.002a.26.26 0 0 1-.227-.289c.082-.69.158-1.386.227-2.066a.26.26 0 0 1 .518.052c-.069.683-.146 1.38-.228 2.075a.261.261 0 0 1-.259.23zm.418-4.145h-.023a.26.26 0 0 1-.237-.282c.056-.69.108-1.388.151-2.072a.26.26 0 0 1 .52.034c-.044.687-.095 1.388-.152 2.082a.261.261 0 0 1-.259.238zm.263-4.157h-.012a.26.26 0 0 1-.249-.271c.03-.697.053-1.395.068-2.076a.26.26 0 0 1 .26-.255h.007a.26.26 0 0 1 .254.267 100.19 100.19 0 0 1-.068 2.086.261.261 0 0 1-.26.25zm.092-4.163a.26.26 0 0 1-.261-.26v-.028c0-.685-.008-1.375-.024-2.05a.261.261 0 0 1 .521-.012c.016.68.024 1.372.024 2.062v.027a.26.26 0 0 1-.26.261zm-.098-4.165a.26.26 0 0 1-.26-.248 78.453 78.453 0 0 0-.127-2.073.26.26 0 0 1 .24-.279.262.262 0 0 1 .279.24c.051.681.094 1.383.128 2.087a.26.26 0 0 1-.247.272l-.013.001zm-.313-4.154a.26.26 0 0 1-.259-.234 69.088 69.088 0 0 0-.246-2.06.26.26 0 1 1 .516-.07c.092.677.175 1.376.249 2.077a.26.26 0 0 1-.233.286h-.027zm-.563-4.128a.26.26 0 0 1-.256-.216 53.893 53.893 0 0 0-.387-2.037.26.26 0 1 1 .51-.106c.14.668.272 1.36.391 2.055a.26.26 0 0 1-.258.304zm-.859-4.075a.261.261 0 0 1-.252-.197 42.158 42.158 0 0 0-.555-1.994.26.26 0 0 1 .173-.325.261.261 0 0 1 .325.174c.198.653.387 1.332.562 2.018a.26.26 0 0 1-.253.324zm-1.215-3.983a.262.262 0 0 1-.245-.172 34.683 34.683 0 0 0-.762-1.921.26.26 0 0 1 .478-.207c.271.625.531 1.281.773 1.95a.26.26 0 0 1-.156.333.226.226 0 0 1-.088.017zm-1.657-3.819a.26.26 0 0 1-.232-.14 25.788 25.788 0 0 0-1.017-1.794.26.26 0 1 1 .442-.274c.36.578.709 1.193 1.037 1.829a.259.259 0 0 1-.23.38zm-2.206-3.526a.257.257 0 0 1-.207-.104 19.182 19.182 0 0 0-1.326-1.567.26.26 0 0 1 .378-.358 19.9 19.9 0 0 1 1.361 1.61.26.26 0 0 1-.206.419zm-27.591-.02a.261.261 0 0 1-.16-.467c.562-.433 1.13-.85 1.69-1.24a.26.26 0 0 1 .297.428c-.552.385-1.114.797-1.67 1.225a.255.255 0 0 1-.157.054zm3.418-2.38a.26.26 0 0 1-.138-.48 34.801 34.801 0 0 1 1.814-1.055.26.26 0 1 1 .247.458c-.59.32-1.19.669-1.786 1.04a.263.263 0 0 1-.137.038zm21.313-.614a.262.262 0 0 1-.166-.06 15.069 15.069 0 0 0-1.658-1.195.26.26 0 0 1 .274-.443 15.61 15.61 0 0 1 1.716 1.237.26.26 0 0 1 .034.366.256.256 0 0 1-.2.095zm-17.649-1.36a.26.26 0 0 1-.108-.498 26.08 26.08 0 0 1 1.948-.794.26.26 0 0 1 .177.49c-.628.226-1.27.488-1.909.778a.25.25 0 0 1-.108.024zm14.122-.822a.264.264 0 0 1-.103-.02 13.82 13.82 0 0 0-1.929-.674.26.26 0 0 1 .135-.503 14.124 14.124 0 0 1 2.001.698c.132.057.193.21.136.343a.265.265 0 0 1-.24.156zm-10.204-.58a.261.261 0 0 1-.066-.513c.695-.18 1.39-.32 2.068-.42a.26.26 0 0 1 .076.515c-.659.097-1.336.234-2.013.41a.237.237 0 0 1-.065.008zm6.194-.494-.03-.002a14.896 14.896 0 0 0-2.043-.094.261.261 0 0 1-.012-.52c.116-.003.233-.003.348-.004.595 0 1.19.034 1.767.1a.26.26 0 0 1-.03.52z" fill="#E34C98" fill-opacity=".5"/><path d="M48.614 106.945a2.94 2.94 0 1 0-5.834-.72 2.94 2.94 0 0 0 5.834.72z" fill="#fff"/><path d="M127.941 101.993a2.334 2.334 0 1 1-4.667-.001 2.334 2.334 0 0 1 4.667.001z" fill="url(#c)"/><path d="M95.054 115.15a2.51 2.51 0 1 1-5.02 0 2.51 2.51 0 0 1 5.02 0zM92.113 49.404a2.94 2.94 0 1 0-4.158-4.158 2.94 2.94 0 0 0 4.158 4.157zM77.83 87.356c-.158 0-.317 0-.475-.003a.26.26 0 0 1-.257-.264.263.263 0 0 1 .264-.257 41.038 41.038 0 0 0 2.07-.028.26.26 0 0 1 .02.52c-.543.022-1.092.033-1.621.032zm-2.551-.084h-.018c-.7-.047-1.401-.113-2.085-.198a.26.26 0 1 1 .064-.517 36.22 36.22 0 0 0 2.056.194.26.26 0 0 1-.017.521zm6.24-.076a.26.26 0 0 1-.022-.52 47.72 47.72 0 0 0 2.06-.222.26.26 0 0 1 .29.225.26.26 0 0 1-.224.291c-.697.09-1.397.166-2.082.226h-.022zm-10.366-.435a.237.237 0 0 1-.047-.005 33.486 33.486 0 0 1-2.048-.444.26.26 0 1 1 .126-.505c.66.165 1.339.313 2.016.438a.26.26 0 0 1 .21.303.261.261 0 0 1-.257.213zm14.496-.1a.26.26 0 0 1-.043-.518 54.738 54.738 0 0 0 2.036-.389c.14-.03.279.06.308.2a.26.26 0 0 1-.2.31c-.689.145-1.38.278-2.056.394a.296.296 0 0 1-.045.004zm4.076-.858a.261.261 0 0 1-.063-.514 62.347 62.347 0 0 0 2.005-.533.26.26 0 0 1 .142.5c-.674.192-1.355.373-2.02.539a.296.296 0 0 1-.064.008zm-22.604-.053a.26.26 0 0 1-.08-.013 31.59 31.59 0 0 1-1.975-.705.26.26 0 1 1 .191-.484 30.74 30.74 0 0 0 1.942.693.26.26 0 0 1-.078.51zm26.612-1.082a.261.261 0 0 1-.078-.51c.648-.205 1.31-.425 1.969-.654a.26.26 0 0 1 .172.492c-.664.23-1.33.453-1.984.66a.254.254 0 0 1-.079.012zm-30.478-.446a.258.258 0 0 1-.112-.025 31.848 31.848 0 0 1-1.864-.963.26.26 0 0 1 .255-.455 30.7 30.7 0 0 0 1.832.947.26.26 0 0 1-.111.496zm34.412-.923a.26.26 0 0 1-.243-.168.26.26 0 0 1 .151-.336 89.791 89.791 0 0 0 1.933-.758.26.26 0 0 1 .197.482c-.65.265-1.305.522-1.945.764a.272.272 0 0 1-.093.016zM59.626 82.19a.26.26 0 0 1-.142-.042 32.048 32.048 0 0 1-1.72-1.2.26.26 0 0 1 .311-.418c.551.412 1.12.81 1.693 1.181a.26.26 0 0 1-.142.48zm41.901-.46a.26.26 0 0 1-.104-.499 92.645 92.645 0 0 0 1.897-.847.26.26 0 0 1 .345.127.26.26 0 0 1-.127.346c-.635.292-1.277.579-1.907.852a.265.265 0 0 1-.104.022zm3.784-1.738a.261.261 0 0 1-.114-.495c.443-.215.889-.435 1.338-.66a.26.26 0 0 1 .234.465c-.451.227-.899.448-1.345.664a.259.259 0 0 1-.113.026zM56.292 79.7c-.06 0-.12-.02-.169-.062a35.12 35.12 0 0 1-1.555-1.408.26.26 0 0 1-.008-.368.26.26 0 0 1 .368-.007c.5.48 1.014.945 1.533 1.387a.26.26 0 0 1-.169.458zm-3.003-2.883a.262.262 0 0 1-.191-.084 37.87 37.87 0 0 1-1.383-1.578.26.26 0 1 1 .4-.332c.443.533.901 1.057 1.364 1.557a.26.26 0 0 1-.19.437zm-2.66-3.206a.26.26 0 0 1-.209-.105c-.412-.554-.82-1.13-1.21-1.713a.26.26 0 1 1 .433-.29c.386.576.789 1.145 1.195 1.692a.26.26 0 0 1-.21.416zm-2.322-3.463a.26.26 0 0 1-.223-.126 47.697 47.697 0 0 1-1.043-1.82.26.26 0 0 1 .457-.248c.332.61.678 1.215 1.031 1.8a.261.261 0 0 1-.222.394zm-1.994-3.663a.26.26 0 0 1-.234-.145 49.464 49.464 0 0 1-.883-1.904.26.26 0 0 1 .477-.208c.278.634.572 1.267.874 1.883a.26.26 0 0 1-.234.374zm-1.677-3.823a.261.261 0 0 1-.242-.165 50.512 50.512 0 0 1-.723-1.972.26.26 0 1 1 .493-.168c.223.647.463 1.303.716 1.951a.26.26 0 0 1-.244.354zm-1.352-3.952a.26.26 0 0 1-.25-.187 27.956 27.956 0 0 1-.532-2.053.26.26 0 0 1 .51-.105c0 .008.157.763.521 2.011a.26.26 0 0 1-.25.334z" fill="#E34C98" fill-opacity=".5"/><path d="M98.458 131.881H10.12v14.558h88.338v-14.558z" fill="#000"/><path d="M73.078 115.55H6.514v18.278h66.564V115.55z" fill="url(#d)"/><path d="M73.079 134.088H6.514a.26.26 0 0 1-.26-.261v-18.278a.26.26 0 0 1 .26-.261H73.08a.26.26 0 0 1 .26.261v18.278a.26.26 0 0 1-.26.261zm-66.304-.521h66.044V115.81H6.775v17.757z" fill="#000"/><path d="M102.064 115.55H35.499v18.278h66.565V115.55z" fill="url(#e)"/><path d="M102.065 134.088H35.499a.26.26 0 0 1-.26-.261v-18.278a.26.26 0 0 1 .26-.261h66.565c.144 0 .261.117.261.261v18.278a.261.261 0 0 1-.26.261zm-66.305-.521h66.044V115.81H35.76v17.757z" fill="#000"/><path d="M98.085 116.913H39.48a2.616 2.616 0 0 0-2.615 2.615v10.32a2.615 2.615 0 0 0 2.615 2.615h58.607a2.615 2.615 0 0 0 2.615-2.615v-10.32a2.616 2.616 0 0 0-2.616-2.615z" fill="#E34C98" fill-opacity=".5"/><path d="M44.682 126.291a1.623 1.623 0 1 0-.52-3.203 1.623 1.623 0 0 0 .52 3.203zM50.749 125.835a1.62 1.62 0 1 0-2.294-2.293 1.621 1.621 0 1 0 2.294 2.293zM55.05 126.29a1.621 1.621 0 1 0-.52-3.202 1.622 1.622 0 0 0 .52 3.202z" fill="#fff"/><path d="M11.173 120.427h19.708a.46.46 0 1 0 0-.92H11.173a.46.46 0 1 0 0 .92zM30.88 122.654H11.174a.46.46 0 1 0 0 .92h19.708a.46.46 0 1 0 0-.92zM30.88 125.801H11.174a.46.46 0 1 0 0 .92h19.708a.46.46 0 1 0 0-.92zM30.88 128.949H11.174a.46.46 0 1 0 0 .92h19.708a.46.46 0 1 0 0-.92z" fill="#000"/><path d="M73.078 135.678H6.514v18.279h66.564v-18.279z" fill="url(#f)"/><path d="M73.079 154.217H6.514a.26.26 0 0 1-.261-.261v-18.278a.26.26 0 0 1 .26-.261H73.08a.26.26 0 0 1 .26.261v18.279a.26.26 0 0 1-.26.26zm-66.305-.521h66.044v-17.758H6.775v17.758z" fill="#000"/><path d="M102.064 135.678H35.499v18.279h66.565v-18.279z" fill="url(#g)"/><path d="M102.065 154.217H35.499a.26.26 0 0 1-.26-.261v-18.278a.26.26 0 0 1 .26-.261h66.565c.144 0 .261.117.261.261v18.279a.26.26 0 0 1-.26.26zm-66.305-.521h66.044v-17.758H35.76v17.758z" fill="#000"/><path d="M98.085 137.042H39.48a2.615 2.615 0 0 0-2.615 2.615v10.319a2.616 2.616 0 0 0 2.615 2.616h58.607a2.616 2.616 0 0 0 2.615-2.616v-10.319a2.616 2.616 0 0 0-2.616-2.615z" fill="#E34C98" fill-opacity=".5"/><path d="M44.419 146.439a1.622 1.622 0 1 0 0-3.244 1.622 1.622 0 0 0 0 3.244zM49.602 146.439a1.622 1.622 0 1 0 0-3.244 1.622 1.622 0 0 0 0 3.244zM54.786 146.439a1.622 1.622 0 1 0 0-3.244 1.622 1.622 0 0 0 0 3.244z" fill="#fff"/><path d="M11.173 140.557h19.708a.46.46 0 1 0 0-.92H11.173a.46.46 0 1 0 0 .92zM30.88 142.783H11.174a.46.46 0 1 0 0 .92h19.708a.46.46 0 1 0 0-.92zM30.88 145.931H11.174a.46.46 0 1 0 0 .92h19.708a.46.46 0 1 0 0-.92zM30.88 149.078H11.174a.46.46 0 0 0 0 .92h19.708a.46.46 0 1 0 0-.92z" fill="#000"/><path d="m75.22 29.12 2.862 21.65a30.18 30.18 0 0 0 12.584 20.748l6.686 4.693a4.744 4.744 0 0 0 5.636-.136l5.85-4.543a30.18 30.18 0 0 0 11.418-19.954l2.912-22.435a4.56 4.56 0 0 0-3.338-4.99l-14.551-3.916a24.538 24.538 0 0 0-12.945.053l-13.816 3.838a4.56 4.56 0 0 0-3.299 4.992z" fill="url(#h)"/><path d="M118.89 51.662a.26.26 0 0 1-.258-.294l2.911-22.435a2.932 2.932 0 0 0-2.138-3.197.26.26 0 0 1 .136-.503A3.455 3.455 0 0 1 122.06 29l-2.912 22.435a.26.26 0 0 1-.258.227zM106.162 22.163a.258.258 0 0 1-.068-.01l-1.239-.333a23.006 23.006 0 0 0-12.08.049.26.26 0 1 1-.14-.502 23.529 23.529 0 0 1 12.355-.05l1.239.334a.26.26 0 0 1-.067.512zM79.087 48.12a.26.26 0 0 1-.258-.227l-2.502-18.92a3.458 3.458 0 0 1 2.491-3.767l3.704-1.029a.26.26 0 0 1 .14.502l-3.704 1.029a2.935 2.935 0 0 0-2.115 3.198l2.501 18.919a.26.26 0 0 1-.257.294zM100.078 75.955c-.75 0-1.47-.228-2.084-.658l-6.686-4.693a28.987 28.987 0 0 1-3.748-3.135.26.26 0 1 1 .367-.37 28.419 28.419 0 0 0 3.68 3.078l6.687 4.693a3.09 3.09 0 0 0 1.784.563c.697 0 1.356-.226 1.905-.653l5.851-4.543a.26.26 0 0 1 .32.412l-5.85 4.543a3.6 3.6 0 0 1-2.226.763zM99.218 56.525c6.732 0 12.189-5.457 12.189-12.189s-5.457-12.189-12.19-12.189c-6.731 0-12.188 5.457-12.188 12.189s5.457 12.189 12.189 12.189z" fill="#fff"/><path d="M98.551 52.76a1.516 1.516 0 0 1-1.306-.745l-5.083-8.62a1.516 1.516 0 1 1 2.612-1.541l3.73 6.323 5.685-10.378a1.517 1.517 0 0 1 2.66 1.457l-6.968 12.717c-.262.478-.761.779-1.306.788h-.024z" fill="#E34C98" fill-opacity=".5"/><path d="M65.914 146.315c.436-.442 2.96-8.294 2.96-8.294l4.988 3.559-5.468 7.349-2.48-2.614z" fill="#fff"/><path d="M68.395 149.188a.261.261 0 0 1-.19-.081l-2.48-2.614a.26.26 0 0 1 .002-.36c.318-.386 1.947-5.228 2.9-8.192a.261.261 0 0 1 .4-.133l4.987 3.559a.262.262 0 0 1 .058.368l-5.468 7.349a.26.26 0 0 1-.194.104h-.015zm-2.156-2.91 2.131 2.246 5.125-6.887-4.482-3.198c-.637 1.976-2.19 6.707-2.775 7.839z" fill="#000"/><path d="m74.902 156.242-3.317-.02a6.527 6.527 0 0 1-5.432-2.967l-3.28-5.193a2.916 2.916 0 0 1 1.1-4.132c1.369-.728 2.803-1.437 3.139-1.405.682.065.958 3.293.958 3.293l2.955.113s1.46 6.071 2.744 6.761c.936.502 1.59 1.24 2.029 1.915a1.059 1.059 0 0 1-.896 1.635z" fill="#000"/><path d="M74.568 155.208a.27.27 0 0 1-.04-.003l-4.536-.683a3.693 3.693 0 0 1-2.627-1.761l-4.008-6.698a.26.26 0 0 1 .447-.267l4.008 6.698a3.168 3.168 0 0 0 2.257 1.512l4.537.683a.262.262 0 0 1-.038.519z" fill="#fff"/><path d="M68.968 150.172a.262.262 0 0 1-.252-.193.26.26 0 0 1 .183-.319l2.528-.689a.26.26 0 1 1 .137.503l-2.528.688a.233.233 0 0 1-.069.01zM70.284 151.469a.26.26 0 0 1-.062-.513l1.695-.415a.262.262 0 0 1 .123.507l-1.694.414a.265.265 0 0 1-.062.007zM82.933 144.816l5.79 5.819 3.07-1.128-5.338-7.443-3.522 2.752z" fill="#fff"/><path d="M88.723 150.895a.26.26 0 0 1-.185-.077L82.748 145a.26.26 0 0 1 .023-.389l3.522-2.753a.262.262 0 0 1 .373.054l5.338 7.443a.26.26 0 0 1-.122.397l-3.07 1.127a.245.245 0 0 1-.09.016zm-5.399-6.054 5.466 5.491 2.591-.952-4.98-6.944-3.077 2.405z" fill="#000"/><path d="M86.893 149.724s-.28 2.475.195 4.663c.253 1.166 1.304 1.985 2.497 1.985h14.211c1.016 0 1.476-1.268.698-1.921-2.527-2.117-7.176-5.349-12.891-6.299l-1.595 2.231-3.115-.659z" fill="#000"/><path d="M103.12 154.678H88.392a.26.26 0 1 1 0-.521h14.728a.26.26 0 1 1 0 .521zM94.901 152.062a.26.26 0 0 1-.241-.36l.78-1.891a.26.26 0 0 1 .482.198l-.78 1.892a.261.261 0 0 1-.24.161zM97.465 152.559a.262.262 0 0 1-.247-.343l.564-1.706a.26.26 0 0 1 .495.164l-.565 1.706a.26.26 0 0 1-.247.179z" fill="#fff"/><path d="M52.28 104.103s26.465-3.081 34.334 3.732c7.87 6.812-12.423 36.106-12.423 36.106l-6.417-4.759 6.087-20.705-24.464-6.947 2.883-7.427z" fill="#000"/><path d="M37.716 117.586c3.844 1.221 10.722 2.798 20.336 2.667a7.175 7.175 0 0 1 6.494 3.906c2.848 5.584 9.011 15.639 19.05 22.156l4.796-2.583-12.238-27.549a10.168 10.168 0 0 0-5.791-5.417l-24.254-8.894s-7.521-2.102-11.208 4.612c-.658 1.199-1.88-.945-2.172.023-1 3.316 1.685 10.032 4.987 11.079z" fill="#000"/><path d="M81.683 128.893a.26.26 0 0 1-.238-.155l-5.53-12.449a9.956 9.956 0 0 0-5.642-5.278l-11.616-4.26a.26.26 0 1 1 .18-.488l11.615 4.259a10.48 10.48 0 0 1 5.94 5.556l5.53 12.449a.26.26 0 0 1-.239.366zM75.226 139.594a.26.26 0 0 1-.187-.08 57.458 57.458 0 0 1-3.258-3.697.26.26 0 1 1 .405-.327 57.48 57.48 0 0 0 3.228 3.664.26.26 0 0 1-.188.44z" fill="#fff"/><path d="M71.985 135.914a.259.259 0 0 1-.202-.097 62.988 62.988 0 0 1-1.524-1.964.261.261 0 0 1 .418-.311c.492.661 1 1.316 1.51 1.947a.26.26 0 0 1-.038.366.256.256 0 0 1-.164.059zM86.776 65.395l-6.894 3.721S75.654 80.14 69.606 80.802c-6.05.663-12.034-7.704-12.034-7.704l-4.016 8.592s5.897 9.117 15.248 7.648c9.352-1.469 11.9-15.516 11.9-15.516-.005.01 2.214.219 3.049-1.94.71-1.838.414-2.92.414-2.92s3.321-1.774 2.609-3.567z" fill="#fff"/><path d="M66.792 89.757c-3.974 0-7.18-1.821-9.281-3.487-2.646-2.098-4.113-4.343-4.174-4.438a.26.26 0 0 1-.018-.251l4.016-8.591a.262.262 0 0 1 .448-.041c.059.082 5.966 8.237 11.793 7.596 5.822-.639 10.02-11.411 10.062-11.52a.255.255 0 0 1 .12-.136l6.894-3.721a.26.26 0 0 1 .365.133c.699 1.758-1.863 3.392-2.561 3.799.057.411.102 1.42-.461 2.878-.615 1.588-1.925 1.988-2.651 2.085-.18.024-.32.034-.43.035-.177.843-.881 3.897-2.42 7.047-2.402 4.915-5.74 7.838-9.65 8.453-.704.108-1.39.16-2.052.16zm-12.938-8.09c.732 1.052 6.411 8.751 14.909 7.414 9.063-1.424 11.658-15.167 11.684-15.306a.26.26 0 0 1 .304-.21c.119.01 2.015.144 2.758-1.777.666-1.72.409-2.749.406-2.76a.262.262 0 0 1 .128-.296c.802-.43 2.693-1.734 2.563-2.95L80.09 69.3c-.448 1.137-4.543 11.112-10.455 11.76-.243.027-.486.04-.728.04-5.214 0-10.1-5.949-11.283-7.497l-3.769 8.064z" fill="#000"/><path d="M80.506 72.91a.26.26 0 0 1-.077-.51c.011-.004 1.13-.364 1.254-1.259.09-.652.467-1.144.766-1.442.236-.235.377-.54.404-.87l-1.963.784a.26.26 0 0 1-.192-.484l2.325-.928a.26.26 0 0 1 .356.242v.267c0 .514-.2.996-.562 1.358-.243.242-.547.636-.617 1.144-.17 1.226-1.558 1.666-1.617 1.685a.243.243 0 0 1-.077.012z" fill="#000"/><path d="M36.048 69.296c3.032-.713 4.297-.722 15.319-.323 2.694.098 5.898 3.479 6.215 6.156-.856 2.568-4.808 15.245 2.09 25.15a21.433 21.433 0 0 0 4.137 4.425c-1.026.831-2.62 1.911-4.763 2.546-3.556 1.056-5.344-.086-8.21 0-7.581.226-10.36 8.669-15.257 7.608-1.307-.282-3.04-1.303-4.664-4.723a52.663 52.663 0 0 1-2.197-9.931c-1.236-10.204.788-18.7 2.595-24.032.537-1.683 1.16-6.036 4.735-6.876z" fill="url(#i)"/><path d="M62.986 76.949s-5.79-7.293-10.894-7.875l2.515 19.31 8.38-11.435z" fill="url(#j)"/><path d="m52.305 89.748-3.225.352a.553.553 0 0 0-.196.06l-6.693 3.603a.534.534 0 0 1-.32.06l-7.109-.862a2.17 2.17 0 0 1-1.86-2.616l1.522-7.004a.535.535 0 0 0-.127-.474l-6.622-7.312a.536.536 0 0 0-.921.246c-.682 3.156-5.3 15.324-1.958 21.022 3.544 6.04 16.992 1.822 16.992 1.822s.054.017.13-.016c0 0 1.699-.765 2.68-1.185.95-.406 1.992-1.916 2.492-2.716a.536.536 0 0 1 .779-.143l1.246.941c.88.665 2.133.477 2.785-.412.438-.596.806-1.177.788-1.356-.094-.894-.347-1.25-1.155-1.601a.538.538 0 0 1-.085-.046l-.192-.129a.537.537 0 0 1 .244-.979c.545-.06 1.196-.006 1.78.373.188.123.358.215.514.285.621.279 1.062-.643.463-.967l-1.637-.885a.539.539 0 0 0-.315-.06z" fill="#fff"/><path d="M32.715 100.354c-3.305 0-6.598-.765-8.143-3.4-2.803-4.778-.16-13.878 1.26-18.766.306-1.055.548-1.888.667-2.442a.794.794 0 0 1 1.37-.366l6.622 7.313c.173.19.243.454.188.704l-1.522 7.004c-.114.524-.001 1.076.31 1.514.31.437.794.724 1.327.789l7.11.86a.275.275 0 0 0 .163-.03l6.694-3.602a.791.791 0 0 1 .291-.09l3.225-.352a.797.797 0 0 1 .466.091l1.637.885c.443.24.503.715.333 1.06-.168.339-.574.576-1.026.374a4.148 4.148 0 0 1-.55-.305c-.444-.289-.985-.4-1.61-.333a.272.272 0 0 0-.24.21.27.27 0 0 0 .114.295l.192.13c.014.009.029.016.043.023.888.386 1.206.827 1.31 1.813.011.104.036.349-.836 1.537a2.23 2.23 0 0 1-1.484.893 2.216 2.216 0 0 1-1.668-.427l-1.247-.941a.274.274 0 0 0-.216-.052.272.272 0 0 0-.185.126c-.544.867-1.606 2.386-2.61 2.816-.968.414-2.658 1.175-2.675 1.182a.497.497 0 0 1-.212.044c-.592.18-4.854 1.443-9.098 1.443zm-5.436-24.716a.27.27 0 0 0-.271.218c-.123.571-.368 1.412-.676 2.476-1.399 4.813-4 13.773-1.311 18.358 3.397 5.792 16.557 1.746 16.69 1.705l.077-.024.039.012c.167-.076 1.744-.784 2.67-1.18.638-.273 1.503-1.226 2.373-2.614a.798.798 0 0 1 1.156-.213l1.246.942c.368.278.822.394 1.279.327.459-.067.864-.31 1.14-.686.542-.739.716-1.095.735-1.189-.085-.793-.284-1.064-.998-1.375a.786.786 0 0 1-.127-.07l-.192-.129a.79.79 0 0 1-.328-.852.791.791 0 0 1 .69-.602c.746-.08 1.402.059 1.949.414.169.11.33.2.478.266.215.096.32-.074.347-.128.02-.041.11-.251-.113-.372l-1.637-.885a.274.274 0 0 0-.162-.031l-3.225.352a.27.27 0 0 0-.1.031l-6.694 3.602a.798.798 0 0 1-.474.09l-7.11-.861a2.436 2.436 0 0 1-1.688-1.005 2.437 2.437 0 0 1-.395-1.925l1.523-7.004a.277.277 0 0 0-.066-.244l-6.622-7.313a.27.27 0 0 0-.203-.091z" fill="#000"/><path d="M52.305 94.805a.26.26 0 0 1-.148-.047l-3.628-2.51a.26.26 0 0 1 .296-.428l3.628 2.51a.26.26 0 0 1-.148.475zM51.479 95.896a.263.263 0 0 1-.153-.05l-3.194-2.326a.26.26 0 0 1 .307-.422l3.193 2.327a.26.26 0 0 1-.153.47z" fill="#000"/><path d="M22.371 83.712s1.92-4.703 3.176-7.82c2.791-6.92 11.57-6.92 11.57-6.92L35.12 87.25 22.37 83.712z" fill="url(#k)"/><path d="M41.978 62.645c-.791.399-1.387.456-1.817.43-1.552-.088-2.547-1.339-2.747-1.59-1.028-1.294-1.525-3.418-.653-4.665.628-.898 1.42-.56 2.142-1.564.821-1.14-.02-2.07.737-3.069.872-1.149 2.794-1.06 3.139-1.045 1.186.054 1.327.642 2.448.612 1.145-.03 1.296-.605 2.346-.612.834-.005 2.05.35 2.596 1.316.684 1.21-.016 2.806-.827 3.649-.975 1.01-1.66.468-3.026 1.292-2.366 1.426-1.802 3.968-4.338 5.246z" fill="#000"/><path d="m46.383 68.03-.64-3.984c.14-.016 1.32-.222 1.455-.289 1.093-.544.788-3.285.788-3.285l.608-.726-1.811-4.054c-1.924 1.603-2.61.03-4.514.818-1.904.789-.871 2.909-.871 2.909s-1.556-.686-1.224.819c.252 1.136 1.08 1.207 1.625 1.162l-1.015 6.833s-3.266.928-3.898 1.095c.823-.039 6.505 2.432 12.953-.268l-3.456-1.03z" fill="#fff"/><path d="M43.456 70.583c-2.482 0-4.496-.51-5.646-.8-.425-.108-.791-.201-.912-.195a.26.26 0 0 1-.078-.512c.54-.143 3.065-.859 3.731-1.048l.945-6.36c-1.05-.039-1.438-.75-1.576-1.374-.115-.522-.04-.896.225-1.114.235-.193.56-.2.835-.154-.117-.42-.208-1.037.012-1.617.194-.513.59-.897 1.177-1.14.89-.368 1.546-.259 2.124-.163.738.124 1.321.22 2.323-.614a.262.262 0 0 1 .404.094l1.811 4.053a.26.26 0 0 1-.037.274l-.538.64c.053.591.182 2.876-.943 3.436-.146.073-.87.204-1.273.272l.574 3.566 3.299.982c.106.031.18.126.186.235a.262.262 0 0 1-.16.255 16.652 16.652 0 0 1-6.483 1.284zm-5.463-1.291c1.935.489 6.246 1.55 11.046-.199l-2.73-.813a.26.26 0 0 1-.183-.208l-.64-3.984a.26.26 0 0 1 .227-.3c.153-.018 1.231-.21 1.376-.267.75-.374.711-2.356.638-3.02a.26.26 0 0 1 .06-.196l.502-.6-1.61-3.601c-1.04.758-1.767.636-2.473.518-.559-.093-1.087-.181-1.838.13-.448.186-.747.469-.89.841-.293.772.149 1.704.153 1.714a.262.262 0 0 1-.047.294.26.26 0 0 1-.292.058c-.239-.104-.665-.2-.819-.073-.096.078-.112.297-.045.598.16.728.576 1.023 1.348.958a.261.261 0 0 1 .28.298l-1.015 6.833a.26.26 0 0 1-.187.212c-.093.025-1.709.484-2.86.807z" fill="#000"/><path d="M45.298 64.337a2.94 2.94 0 0 1-2.483-1.333.26.26 0 0 1 .45-.264c.031.054.782 1.274 2.443 1.048a.26.26 0 0 1 .07.516 3.836 3.836 0 0 1-.48.033z" fill="#000"/><path d="M89.04 107.415h-37.3a.626.626 0 0 1-.628-.627v-1.443h38.556v1.443a.628.628 0 0 1-.628.627z" fill="url(#l)"/><path d="M88.286 107.675H52.494a1.644 1.644 0 0 1-1.642-1.642v-.689a.26.26 0 0 1 .26-.261h38.556a.26.26 0 0 1 .26.261v.689c0 .906-.737 1.642-1.642 1.642zm-36.913-2.069v.428c0 .618.503 1.121 1.121 1.121h35.792c.618 0 1.12-.504 1.12-1.121v-.428H51.374z" fill="#000"/><path d="M89.668 105.383H67.607l7.01-20.633a2.306 2.306 0 0 1 1.935-1.037h18.65c.845 0 1.39.82 1.114 1.546-.11.288-.228.573-.325.866l-6.323 19.258z" fill="url(#m)"/><path d="M89.669 105.643H67.607a.258.258 0 0 1-.212-.109.258.258 0 0 1-.034-.235l7.01-20.633a.266.266 0 0 1 .028-.059 2.554 2.554 0 0 1 2.153-1.155h18.65c.489 0 .925.227 1.198.621.26.378.32.857.16 1.278l-.096.246c-.077.2-.158.405-.224.609l-6.323 19.257a.264.264 0 0 1-.248.18zm-21.698-.521h21.508l6.265-19.079c.07-.216.154-.429.234-.635.032-.08.064-.161.094-.242a.863.863 0 0 0-.102-.797.917.917 0 0 0-.769-.396H76.552c-.69 0-1.324.333-1.7.893l-6.882 20.256z" fill="#000"/><path d="M81.481 94.269c-.263.872.139 1.765.897 1.994.759.229 1.587-.293 1.85-1.165.262-.873-.14-1.766-.898-1.994-.759-.23-1.587.293-1.849 1.165zM83.04 105.643H70.887a.26.26 0 0 1 0-.522h12.155a.26.26 0 0 1 0 .522zM89.23 105.643h-2.155a.26.26 0 0 1 0-.522h2.154a.26.26 0 0 1 0 .522z" fill="#fff"/><defs><linearGradient id="g" x1="35.499" y1="144.817" x2="102.066" y2="145.837" gradientUnits="userSpaceOnUse"><stop stop-color="#E34C98"/><stop offset="1" stop-color="#7C1E84"/></linearGradient><linearGradient id="a" x1="13.251" y1="48.258" x2="54.797" y2="48.358" gradientUnits="userSpaceOnUse"><stop stop-color="#E34C98"/><stop offset="1" stop-color="#7C1E84"/></linearGradient><linearGradient id="c" x1="123.276" y1="101.993" x2="127.942" y2="102.013" gradientUnits="userSpaceOnUse"><stop stop-color="#E34C98"/><stop offset="1" stop-color="#7C1E84"/></linearGradient><linearGradient id="d" x1="6.514" y1="124.689" x2="73.081" y2="125.708" gradientUnits="userSpaceOnUse"><stop stop-color="#E34C98"/><stop offset="1" stop-color="#7C1E84"/></linearGradient><linearGradient id="e" x1="35.499" y1="124.689" x2="102.066" y2="125.708" gradientUnits="userSpaceOnUse"><stop stop-color="#E34C98"/><stop offset="1" stop-color="#7C1E84"/></linearGradient><linearGradient id="f" x1="6.514" y1="144.817" x2="73.081" y2="145.837" gradientUnits="userSpaceOnUse"><stop stop-color="#E34C98"/><stop offset="1" stop-color="#7C1E84"/></linearGradient><linearGradient id="b" x1="122.341" y1="68.494" x2="126.517" y2="64.353" gradientUnits="userSpaceOnUse"><stop stop-color="#E34C98"/><stop offset="1" stop-color="#7C1E84"/></linearGradient><linearGradient id="h" x1="75.18" y1="48.233" x2="123.219" y2="48.401" gradientUnits="userSpaceOnUse"><stop stop-color="#E34C98"/><stop offset="1" stop-color="#7C1E84"/></linearGradient><linearGradient id="i" x1="28.338" y1="91.829" x2="63.819" y2="91.944" gradientUnits="userSpaceOnUse"><stop stop-color="#E34C98"/><stop offset="1" stop-color="#7C1E84"/></linearGradient><linearGradient id="j" x1="52.092" y1="78.729" x2="62.989" y2="78.755" gradientUnits="userSpaceOnUse"><stop stop-color="#E34C98"/><stop offset="1" stop-color="#7C1E84"/></linearGradient><linearGradient id="k" x1="22.371" y1="78.111" x2="37.121" y2="78.161" gradientUnits="userSpaceOnUse"><stop stop-color="#E34C98"/><stop offset="1" stop-color="#7C1E84"/></linearGradient><linearGradient id="l" x1="51.112" y1="106.38" x2="89.443" y2="109.382" gradientUnits="userSpaceOnUse"><stop stop-color="#E34C98"/><stop offset="1" stop-color="#7C1E84"/></linearGradient><linearGradient id="m" x1="67.607" y1="94.548" x2="96.395" y2="94.709" gradientUnits="userSpaceOnUse"><stop stop-color="#E34C98"/><stop offset="1" stop-color="#7C1E84"/></linearGradient></defs></svg>