<svg width="212" height="132" fill="none" xmlns="http://www.w3.org/2000/svg"><path d="M5.318 52.358v60.386h60.3l-60.3-60.386zM16.376 79.72l21.987 21.986H16.408l-.032-21.986z" fill="#DBDBDB"/><path d="M5.32 52.36v60.385h60.298L7.444 54.488l-.268-.268-1.856-1.86zM16.376 79.72l21.986 21.987H16.408l-.032-21.987z" fill="#423C4F"/><path d="M7.392 54.908H5.32v.288h2.072v-.288zM6.54 56.25H5.32v.289h1.22v-.288zM6.54 57.59H5.32v.288h1.22v-.289zM6.54 58.932H5.32v.288h1.22v-.288zM6.54 60.275H5.32v.288h1.22v-.288zM6.54 61.612H5.32v.293h1.22v-.293zM6.54 62.956H5.32v.288h1.22v-.288zM7.392 64.299H5.32v.288h2.072V64.3zM6.54 65.642H5.32v.288h1.22v-.288zM6.54 66.979H5.32v.288h1.22v-.288zM6.54 68.322H5.32v.288h1.22v-.288zM6.54 69.665H5.32v.288h1.22v-.288zM6.54 71.003H5.32v.289h1.22v-.289zM6.54 72.346H5.32v.288h1.22v-.288zM7.392 73.689H5.32v.288h2.072v-.288zM6.54 75.027H5.32v.289h1.22v-.289zM6.54 76.37H5.32v.287h1.22v-.288zM6.54 77.713H5.32V78h1.22v-.288zM6.54 79.05H5.32v.293h1.22v-.293zM6.54 80.393H5.32v.288h1.22v-.288zM6.54 81.736H5.32v.288h1.22v-.288zM7.392 83.079H5.32v.288h2.072v-.288zM6.54 84.417H5.32v.288h1.22v-.288zM6.54 85.76H5.32v.288h1.22v-.288zM6.54 87.103H5.32v.288h1.22v-.288zM6.54 88.441H5.32v.289h1.22v-.289zM6.54 89.784H5.32v.288h1.22v-.288zM6.54 91.127H5.32v.288h1.22v-.288zM7.392 92.464H5.32v.293h2.072v-.293zM6.54 93.807H5.32v.288h1.22v-.288zM6.54 95.15H5.32v.288h1.22v-.288zM6.54 96.493H5.32v.288h1.22v-.288zM6.54 97.831H5.32v.288h1.22v-.288zM6.54 99.174H5.32v.288h1.22v-.288zM6.54 100.517H5.32v.288h1.22v-.288zM7.392 101.855H5.32v.289h2.072v-.289zM6.54 103.198H5.32v.288h1.22v-.288zM6.54 104.541H5.32v.288h1.22v-.288zM6.54 105.879H5.32v.289h1.22v-.289zM6.54 107.222H5.32v.288h1.22v-.288zM6.54 108.565H5.32v.288h1.22v-.288zM6.54 109.902H5.32v.293h1.22v-.293z" fill="#C7C7C7"/><path d="m199.527 81.886 1.754-2.827-.866-.537a.793.793 0 0 1-.367-.744 4.58 4.58 0 0 0 .016-.497.79.79 0 0 1 .413-.718l.897-.481-1.573-2.933-.897.481a.79.79 0 0 1-.826-.053 4.822 4.822 0 0 0-.423-.262.79.79 0 0 1-.417-.718l.032-1.018-3.325-.103-.031 1.022a.792.792 0 0 1-.464.688 4.842 4.842 0 0 0-.431.232.79.79 0 0 1-.826.006l-.872-.54-1.754 2.826.868.539a.792.792 0 0 1 .366.745c-.014.164-.02.33-.016.495a.791.791 0 0 1-.413.717l-.898.481 1.573 2.933.898-.481a.79.79 0 0 1 .825.053c.136.094.277.181.422.26a.792.792 0 0 1 .418.717l-.032 1.02 3.325.104.032-1.021a.792.792 0 0 1 .463-.686 4.824 4.824 0 0 0 .433-.232.792.792 0 0 1 .83-.006l.866.538zm-2.815-2.1a2.726 2.726 0 1 1-2.573-4.804 2.726 2.726 0 0 1 2.573 4.804zM82.14 59.694l-1.165-2.019-.618.357a.554.554 0 0 1-.58-.02 3.256 3.256 0 0 0-.302-.175.553.553 0 0 1-.307-.492v-.714h-2.331v.714c0 .21-.12.398-.307.492-.103.053-.204.111-.302.175a.554.554 0 0 1-.58.02l-.618-.357-1.165 2.019.62.357a.555.555 0 0 1 .272.514 3.375 3.375 0 0 0 0 .343.553.553 0 0 1-.27.512l-.622.36 1.165 2.019.62-.357a.554.554 0 0 1 .58.02c.097.063.197.121.301.174a.553.553 0 0 1 .306.492v.714h2.331v-.714c0-.209.12-.397.307-.492.103-.053.203-.11.3-.174a.554.554 0 0 1 .581-.02l.62.357 1.164-2.019-.62-.357a.554.554 0 0 1-.27-.513 3.4 3.4 0 0 0 0-.344c-.01-.21.09-.41.272-.515l.618-.357zm-2.228 1.043a1.91 1.91 0 1 1-3.818-.002 1.91 1.91 0 0 1 3.818.002zM19.386 27.468a9.075 9.075 0 0 0-9.077 9.077 9.077 9.077 0 1 0 9.077-9.077zm0 13.315a4.238 4.238 0 1 1 0-8.478 4.238 4.238 0 1 1 0 8.478z" fill="#EBEBEB"/><path d="M21.131 27.845h-3.49l.193-2.471h3.104l.193 2.47zM14.487 29.02 12.02 31.49l-1.61-1.884 2.194-2.195 1.884 1.61zM10.62 34.55v3.49l-2.47-.192v-3.105l2.47-.193zM11.797 41.193l2.468 2.469-1.883 1.61-2.195-2.195 1.61-1.884zM17.326 45.06h3.49l-.192 2.47h-3.105l-.193-2.47zM23.97 43.884l2.469-2.468 1.61 1.884-2.195 2.195-1.884-1.61zM27.836 38.354v-3.49l2.471.193v3.104l-2.47.193zM26.66 31.711l-2.468-2.468 1.884-1.61 2.195 2.195-1.61 1.883z" fill="#EBEBEB"/><path d="M144.087 6.999a9.077 9.077 0 1 0 0 18.152 9.077 9.077 0 0 0 0-18.152zm0 13.314a4.238 4.238 0 1 1 0-8.478 4.239 4.239 0 1 1 0 8.478z" fill="#5D5471"/><path d="M145.832 7.375h-3.49l.193-2.471h3.104l.193 2.47zM139.188 8.55l-2.467 2.468-1.611-1.883 2.195-2.196 1.883 1.611zM135.322 14.08v3.49l-2.471-.192v-3.105l2.471-.193zM136.498 20.724l2.469 2.468-1.884 1.61-2.195-2.195 1.61-1.883zM142.028 24.59h3.49l-.193 2.471h-3.104l-.193-2.47zM148.671 23.414l2.468-2.469 1.611 1.884-2.195 2.195-1.884-1.61zM152.538 17.885v-3.491l2.47.193v3.105l-2.47.193zM151.361 11.241l-2.468-2.468 1.883-1.61 2.196 2.194-1.611 1.884z" fill="#5D5471"/><path d="M105.875 131.75c48.767 0 88.301-3.014 88.301-6.731 0-3.718-39.534-6.731-88.301-6.731s-88.301 3.013-88.301 6.731c0 3.717 39.534 6.731 88.301 6.731z" fill="#303140"/><path d="M40.075 112.729h-9.557V46.161c0-22.1 17.98-40.079 40.078-40.079 22.1 0 40.079 17.98 40.079 40.079v19.757c0 16.818 13.682 30.5 30.5 30.5 16.818 0 30.5-13.682 30.5-30.5v-39.13h9.557v39.13c0 22.087-17.97 40.057-40.057 40.057-22.088 0-40.057-17.97-40.057-40.057V46.16c0-16.83-13.692-30.521-30.522-30.521S40.075 29.33 40.075 46.16v66.569z" fill="url(#a)"/><path opacity=".2" d="M141.262 96.418v9.557h-.086c-22.09 0-40.057-17.97-40.057-40.057V46.161c0-16.83-13.692-30.522-30.522-30.522h-.108V6.082h.108c22.099 0 40.079 17.98 40.079 40.079v19.757c0 16.817 13.682 30.5 30.5 30.5h.086z" fill="#000"/><path d="m.244 112.729 26.408-.077 26.407-.028 52.816-.054 52.815.054 26.408.027 26.407.078-26.407.078-26.408.028-52.815.053-52.816-.053-26.407-.028-26.408-.078z" fill="#263238"/><path opacity=".6" d="M151.416 103.97a1.76 1.76 0 1 0 .001-3.52 1.76 1.76 0 0 0-.001 3.52z" fill="url(#b)"/><path opacity=".6" d="M155.319 98.847a.858.858 0 1 1-1.715 0 .858.858 0 0 1 1.715 0z" fill="url(#c)"/><path opacity=".6" d="M192.984 101.358a.858.858 0 1 1-1.716 0 .858.858 0 0 1 1.716 0z" fill="url(#d)"/><path opacity=".6" d="M210.167 109.191a.858.858 0 1 1-1.716 0 .858.858 0 0 1 1.716 0z" fill="url(#e)"/><path opacity=".6" d="M208.851 111.699c0 .565-.458 1.023-1.023 1.023h-63.792a1.023 1.023 0 1 1 .243-2.017 2.016 2.016 0 0 1 3.459-1.41l.019-.008a3.808 3.808 0 0 1 5.466-3.797 2.716 2.716 0 0 1 2.712-2.559c1.156 0 2.142.718 2.535 1.733a3.803 3.803 0 0 1 3.953-1.711 5.155 5.155 0 0 1 8.44-4.793 1.023 1.023 0 0 1 1.301-.477l.958-25.581h5.619l.958 25.581a1.024 1.024 0 0 1 1.301.477 5.155 5.155 0 0 1 8.44 4.793c.235-.045.479-.069.729-.069a3.8 3.8 0 0 1 3.224 1.78 2.714 2.714 0 0 1 2.535-1.733 2.716 2.716 0 0 1 2.712 2.559 3.809 3.809 0 0 1 5.466 3.797l.019.008a2.016 2.016 0 0 1 3.459 1.41 1.024 1.024 0 0 1 1.267.994z" fill="url(#f)"/><path d="M162.877 40.725c-.275 0-10.544 4.74-11.152 16.41-.559 10.732 6.861 20.923 7.818 20.248 1.172-.826-.821-7.512 1.458-15.16.808-2.71 4.345-5.118 4.345-5.118l-2.469-16.38z" fill="#fff"/><path d="M159.436 77.574a.714.714 0 0 1-.336-.104c-1.789-.988-8.055-10.338-7.534-20.343.319-6.11 3.302-10.272 5.749-12.687 2.718-2.684 5.365-3.875 5.563-3.875h.137l.021.135 2.484 16.48-.083.056c-.035.024-3.499 2.407-4.282 5.033-1.345 4.51-1.193 8.729-1.092 11.52.075 2.081.12 3.338-.427 3.724a.338.338 0 0 1-.2.061zm3.314-36.627c-1.272.597-10.3 5.336-10.866 16.197-.505 9.698 5.677 19.112 7.37 20.047.132.072.192.066.198.062.406-.287.356-1.684.292-3.452-.101-2.812-.255-7.062 1.105-11.623.756-2.535 3.773-4.757 4.326-5.148l-2.425-16.083z" fill="#263238"/><path opacity=".1" d="M165.347 57.104s-1.534 1.043-2.811 2.532c-1.528-3.41-4.376-9.775-6.218-13.9 3.008-3.477 6.402-5.011 6.559-5.011l2.47 16.379z" fill="#000"/><path d="M189.012 40.744c.275 0 10.537 4.755 11.128 16.427.544 10.732-6.891 20.912-7.847 20.236-1.171-.828.832-7.51-1.436-15.161-.805-2.713-4.338-5.126-4.338-5.126l2.493-16.376z" fill="#fff"/><path d="M192.401 77.598a.338.338 0 0 1-.2-.062c-.547-.386-.5-1.642-.422-3.724.105-2.79.263-7.008-1.075-11.521-.779-2.627-4.24-5.015-4.275-5.04l-.083-.056.015-.099 2.514-16.512h.137c.197 0 2.843 1.195 5.558 3.883 2.443 2.42 5.42 6.585 5.729 12.696.507 10.005-5.772 19.347-7.562 20.331a.72.72 0 0 1-.336.104zm-5.709-20.552c.552.391 3.566 2.618 4.318 5.154 1.353 4.563 1.194 8.813 1.088 11.624-.066 1.769-.119 3.166.287 3.453.008.005.067.01.199-.062 1.694-.932 7.889-10.338 7.398-20.036-.551-10.865-9.571-15.615-10.843-16.213l-2.447 16.08z" fill="#263238"/><path d="M198.31 49.92c-.883.16-1.868.455-2.423.999-1.185 1.156.352 7.539-1.776 8.457-2.131.918-1.067-1.508-2.7-1.17-.747.152-1.103 1.252-1.402 2.333-1.327-1.942-3.49-3.419-3.49-3.419l2.494-16.376c.207 0 6.176 2.743 9.297 9.175z" fill="url(#g)"/><path opacity=".1" d="M195.601 45.807c-1.86 4.159-4.714 10.536-6.224 13.906-1.285-1.52-2.857-2.593-2.857-2.593l2.492-16.376c.157 0 3.579 1.552 6.589 5.063z" fill="#000"/><path d="m183.709 67.577-15.494-.011s-7.3-13.053-6.435-28.614c.435-7.767 2.466-15.588 4.909-22.059 3.363-8.938 7.519-15.277 9.321-15.275 1.809 0 5.949 6.346 9.306 15.289 2.426 6.474 4.445 14.298 4.87 22.066.842 15.562-6.477 28.604-6.477 28.604z" fill="#EBEBEB"/><path d="M185.258 36.959a8.936 8.936 0 1 1-17.872-.014 8.936 8.936 0 0 1 17.872.014z" fill="#C7C7C7"/><path d="M184.941 36.048a8.936 8.936 0 1 1-17.871-.013 8.936 8.936 0 0 1 17.871.013z" fill="url(#h)"/><path d="M182.202 36.042a6.197 6.197 0 1 1-12.393.001 6.197 6.197 0 0 1 12.393 0z" fill="#fff"/><path d="M182.203 36.041c0 .791-.148 1.55-.42 2.245l-3.531 3.532a6.164 6.164 0 0 1-3.903.192l7.626-7.627c.148.527.228 1.083.228 1.658zM176.915 29.913l-7.039 7.04a6.193 6.193 0 0 1 7.039-7.04zM181.428 33.04l-8.421 8.422a4.974 4.974 0 0 1-.476-.291l8.606-8.606c.103.152.199.312.291.476z" fill="#EBEBEB"/><path d="m185.316 16.907-18.627-.014c3.362-8.938 7.519-15.277 9.32-15.275 1.81 0 5.95 6.346 9.307 15.289z" fill="url(#i)"/><path d="M169.897 14.971a.522.522 0 1 1-1.043 0 .522.522 0 0 1 1.043 0zM173.21 14.974a.521.521 0 1 1-1.043 0 .521.521 0 0 1 1.043 0zM176.524 14.976a.522.522 0 1 1-1.043 0 .522.522 0 0 1 1.043 0zM179.838 14.979a.522.522 0 1 1-1.044-.002.522.522 0 0 1 1.044.002zM183.15 14.98a.52.52 0 1 1-1.041.002.52.52 0 0 1 1.041-.001z" fill="#fff"/><path d="M169.875 65.183a.521.521 0 1 1-1.043 0 .521.521 0 0 1 1.043 0zM173.189 65.185a.522.522 0 1 1-1.043 0 .522.522 0 0 1 1.043 0zM176.502 65.188a.521.521 0 1 1-1.043-.001.521.521 0 0 1 1.043 0zM179.816 65.19a.521.521 0 1 1-1.043 0 .521.521 0 0 1 1.043 0zM183.129 65.192a.52.52 0 1 1-1.041.001.52.52 0 0 1 1.041 0z" fill="#C7C7C7"/><path d="m182.28 72.234-12.601-.01-.589-4.657 13.785.01-.595 4.657z" fill="url(#j)"/><path opacity=".1" d="m182.874 67.578-.291 2.268-13.267-.497-.224-1.78 13.782.01z" fill="#000"/><path opacity=".5" d="M175.477 4.255a268.055 268.055 0 0 0-3.374 7.57c-.522 1.275-1.075 2.534-1.561 3.82l-.383.957c-.129.319-.243.642-.366.963-.236.644-.491 1.282-.712 1.932l-.688 1.94c-.23.647-.414 1.307-.634 1.957l-.323.977-.284.989-.284.988c-.094.33-.21.655-.286.99-.713 2.652-1.261 5.338-1.728 8.081-.064-2.776.217-5.571.76-8.308.127-.686.299-1.362.46-2.041l.245-1.018.285-1.006c.196-.668.387-1.34.607-2.002l.671-1.98c.235-.656.502-1.3.752-1.95.249-.65.513-1.294.797-1.93.28-.636.557-1.275.86-1.902.297-.629.587-1.26.914-1.875 1.261-2.477 2.646-4.896 4.272-7.152z" fill="#fff"/><path d="m192.635 103.164-1.24.229-.277 1.308-.277-1.308-1.24-.229 1.235-.302.282-1.235.282 1.235 1.235.302zM180.573 92.68l-1.24.23-.278 1.307-.277-1.308-1.24-.23 1.235-.301.282-1.235.283 1.235 1.235.302zM174.993 80.11l-1.24.23-.277 1.307-.278-1.308-1.24-.23 1.235-.301.283-1.235.282 1.235 1.235.302zM162.549 105.654l-.693.128-.155.731-.155-.731-.693-.129.69-.168.158-.691.158.691.69.169zM199.846 107.833l-.693.128-.155.731-.154-.731-.694-.128.69-.169.158-.69.158.69.69.169zM153.011 110.394l-.694.128-.155.731-.155-.731-.693-.128.69-.169.158-.69.158.69.691.169zM183.162 109.786l-.693.128-.155.731-.154-.731-.694-.128.69-.169.158-.69.158.69.69.169zM178.088 90.693l-.694.128-.154.73-.156-.73-.692-.129.69-.168.158-.69.157.69.691.169zM201.487 109.414c-.259 0-.259.401 0 .401.258.001.259-.401 0-.401zM175.405 88.158c-.259 0-.259.401 0 .401.258 0 .259-.401 0-.401zM158.262 110.394c-.259 0-.259.402 0 .402s.259-.402 0-.402zM170.996 107.632c-.258 0-.259.402 0 .402s.259-.402 0-.402zM196.453 105.8c-.183 0-.183.284 0 .284s.183-.284 0-.284zM178.888 103.669c-.183 0-.183.284 0 .284s.183-.284 0-.284zM166.031 100.892c-.183 0-.183.284 0 .284s.184-.284 0-.284zM188.028 101.471c-.495 0-.496.771 0 .771s.497-.771 0-.771zM167.851 99.585c-.496 0-.497.77 0 .77.496 0 .497-.77 0-.77z" fill="#FCFCFC"/><path d="M124.039 38.91c-1.397 11.928-9.06 14.12-10.344 17.3-.687 1.723-1.596 6.1-1.596 6.1l-12.463-.002s-.9-4.377-1.594-6.1c-1.275-3.181-8.945-5.375-10.33-17.304-.916-7.838 4.978-20.212 18.166-20.21 13.189.002 19.072 12.378 18.161 20.216z" fill="url(#k)"/><path d="m99.271 43.272-.313.059 3.695 19.825.313-.058-3.695-19.826zM112.481 43.268l-3.705 19.823.313.059 3.705-19.824-.313-.058z" fill="#fff"/><path d="M105.874 49.811c-.001 0-.001 0 0 0-1.128 0-2.16-1.072-2.878-2.431-.348.414-.719.636-1.077.636-1.804 0-2.538-3.786-2.568-3.947l.156-.03c.007.039.74 3.818 2.411 3.818.326 0 .67-.22.998-.63-.579-1.153-.934-2.484-.934-3.538.001-1.043.368-1.618 1.036-1.618.421 0 .752.188.958.545.549.95.141 2.933-.585 4.19a4.35 4.35 0 0 1-.28.428c.694 1.343 1.693 2.417 2.762 2.418.803 0 1.605-.624 2.259-1.756.062-.108.123-.22.18-.333a3.52 3.52 0 0 1-.467-.64c-.761-1.317-.92-3.267-.347-4.258.224-.388.549-.594.939-.594.302 0 .551.154.718.444.536.93.214 3.252-.649 5.017.335.329.777.582 1.347.582 1.436 0 2.507-3.795 2.518-3.833l.153.042c-.045.162-1.115 3.95-2.671 3.95-.6 0-1.068-.256-1.423-.591a6.61 6.61 0 0 1-.161.294c-.482.838-1.291 1.835-2.395 1.835zm2.564-7.58c-.335 0-.604.173-.802.514-.538.932-.376 2.847.347 4.1.107.186.242.383.406.565.826-1.715 1.138-3.932.628-4.814-.139-.242-.334-.365-.579-.365zm-5.42 0c-.762 0-.875.913-.876 1.458 0 .99.339 2.268.889 3.386.075-.107.15-.223.223-.349.703-1.218 1.106-3.128.585-4.03-.178-.31-.454-.466-.821-.466z" fill="#fff"/><path d="M113.559 61.775H98.182v3.005h15.377v-3.005zM113.558 65.267H98.181v3.005h15.377v-3.005zM113.558 68.758H98.181v3.005h15.377v-3.005z" fill="#263238"/><path opacity=".5" d="M90.615 38.313c-.12-1.023.008-2.06.172-3.076.183-1.015.44-2.02.782-2.997.678-1.956 1.645-3.834 2.94-5.49 1.287-1.652 2.92-3.087 4.826-4.003a12.023 12.023 0 0 1 2.974-.997 12.066 12.066 0 0 1 3.084-.143c-1.007.194-1.986.416-2.923.748-.937.33-1.823.764-2.659 1.265-1.677 1.005-3.092 2.38-4.299 3.915-1.203 1.542-2.201 3.26-3.023 5.071a30.735 30.735 0 0 0-1.1 2.785c-.325.95-.612 1.914-.774 2.922z" fill="#fff"/><path d="M105.99 16.895c-.126-.776-.154-1.551-.159-2.327.004-.777.032-1.552.159-2.328.126.776.154 1.551.159 2.328-.005.776-.034 1.551-.159 2.327zM95.31 19.664c-.496-.609-.909-1.267-1.302-1.936-.383-.675-.747-1.36-1.026-2.096.498.61.91 1.267 1.302 1.937.383.674.747 1.36 1.026 2.095zM87.445 27.402c-.735-.28-1.42-.643-2.096-1.026-.67-.392-1.327-.805-1.936-1.302.735.279 1.421.642 2.096 1.026.669.393 1.327.805 1.936 1.302zM84.503 38.036c-.776.125-1.552.154-2.328.159-.776-.005-1.551-.033-2.327-.16.776-.125 1.551-.154 2.327-.158.776.005 1.552.033 2.328.159zM87.272 48.716c-.61.497-1.267.91-1.936 1.302-.675.384-1.36.747-2.096 1.026.609-.497 1.267-.91 1.937-1.302.674-.383 1.36-.747 2.095-1.026zM124.189 49.016c.735.279 1.421.642 2.095 1.026.67.392 1.328.804 1.937 1.301-.736-.278-1.421-.642-2.096-1.026-.669-.392-1.327-.804-1.936-1.301zM127.131 38.382c.776-.126 1.552-.154 2.328-.16.775.005 1.551.033 2.327.16-.776.126-1.551.154-2.327.16-.776-.006-1.552-.034-2.328-.16zM124.362 27.702c.609-.497 1.267-.91 1.936-1.302.674-.384 1.36-.747 2.096-1.026-.609.497-1.267.91-1.937 1.302-.675.383-1.361.747-2.095 1.026zM116.624 19.837c.279-.735.642-1.42 1.026-2.096.391-.67.804-1.327 1.301-1.936-.278.735-.642 1.421-1.026 2.096-.392.669-.805 1.327-1.301 1.936z" fill="#263238"/><path d="M26.75 61.85c0-2.79.455-5.299 1.367-7.52.91-2.223 2.791-4.16 5.641-5.813a62.866 62.866 0 0 1 3.162-1.752 25.687 25.687 0 0 0 3.675-2.35 13.47 13.47 0 0 0 3.034-3.205c.826-1.225 1.24-2.635 1.24-4.23 0-1.197-.229-2.25-.684-3.163a7.25 7.25 0 0 0-1.795-2.308 7.459 7.459 0 0 0-2.607-1.41 10.094 10.094 0 0 0-3.034-.47c-1.254 0-2.393.214-3.419.641a11.67 11.67 0 0 0-2.777 1.624 13.652 13.652 0 0 0-2.222 2.222 24.385 24.385 0 0 0-1.667 2.35l-7.436-5.128a16.576 16.576 0 0 1 2.95-4.7 18.063 18.063 0 0 1 4.187-3.462 19.605 19.605 0 0 1 5.085-2.136 21.917 21.917 0 0 1 5.641-.726c2.165 0 4.301.313 6.41.94a16.276 16.276 0 0 1 5.684 2.99c1.68 1.369 3.047 3.12 4.102 5.257 1.054 2.137 1.581 4.687 1.581 7.649 0 1.824-.214 3.434-.64 4.829a13.445 13.445 0 0 1-1.838 3.803 16.02 16.02 0 0 1-2.82 3.077 32.148 32.148 0 0 1-3.676 2.65c-1.14.683-2.28 1.339-3.418 1.965a20.567 20.567 0 0 0-3.12 2.094c-.94.77-1.71 1.653-2.308 2.65-.598.997-.897 2.208-.897 3.632H26.75zm.17 19.914V69.969h9.487v11.795h-9.486z" fill="#423C4F"/><path d="M27.227 62.009h-.637v-.16a24 24 0 0 1 .005-.48l.318.005-.004.316h.318v.319zM26.95 60.417l-.318-.02c.02-.326.046-.65.079-.968l.317.033c-.033.314-.058.632-.078.955zm.197-1.905-.315-.047c.049-.323.105-.645.167-.958l.313.063a19.88 19.88 0 0 0-.165.942zm.376-1.875-.308-.078c.08-.314.17-.63.266-.937l.304.096c-.095.301-.183.61-.262.92zm.573-1.822-.298-.113c.055-.146.112-.29.171-.434.065-.157.133-.312.208-.467l.287.138a8.217 8.217 0 0 0-.2.45c-.058.14-.113.283-.168.426zm.822-1.707-.271-.167c.168-.273.355-.544.555-.807l.253.193a9.62 9.62 0 0 0-.537.78zm1.146-1.51-.236-.215c.214-.234.444-.468.686-.696l.218.232c-.236.222-.46.45-.668.678zm1.385-1.307-.202-.246c.244-.2.503-.4.772-.594l.186.259c-.263.19-.517.386-.756.581zm1.545-1.12-.173-.268c.266-.172.545-.343.829-.508l.16.275a21.3 21.3 0 0 0-.816.5zm1.648-.986-.158-.277c.266-.152.547-.31.844-.472l.153.28c-.294.16-.574.317-.84.468zm1.686-.928-.15-.28c.216-.116.439-.233.668-.353l.185-.098.15.281-.187.1c-.229.119-.451.236-.666.35zm1.7-.924-.162-.275c.274-.16.546-.327.817-.5l.172.268c-.274.176-.55.344-.827.507zm1.634-1.044-.18-.262c.26-.18.52-.367.777-.56l.19.256c-.26.195-.523.383-.787.566zm1.554-1.167-.205-.244c.244-.205.482-.42.708-.637l.221.229c-.23.223-.474.443-.724.652zm1.401-1.355-.237-.213c.21-.234.415-.48.61-.732l.252.195c-.2.257-.41.51-.625.75zm1.194-1.543-.267-.175c.174-.264.33-.54.464-.82l.287.137c-.14.294-.303.582-.484.858zm.847-1.774-.303-.097a7.24 7.24 0 0 0 .227-.914l.313.056a7.503 7.503 0 0 1-.237.955zm.353-1.93-.318-.02a8.8 8.8 0 0 0 .006-.946l.318-.016a9.1 9.1 0 0 1-.006.982zm-.413-1.905a6.568 6.568 0 0 0-.224-.914l.303-.098c.099.305.178.627.235.958l-.314.054zm-16.996-.27-.26-.185c.183-.255.376-.515.579-.779l.253.195c-.201.26-.392.517-.572.77zm16.413-1.51a7.59 7.59 0 0 0-.48-.813l.264-.18c.18.267.35.552.5.847l-.284.145zm-15.243-.005-.242-.207c.21-.246.432-.488.66-.719l.226.224c-.222.225-.438.461-.644.702zm1.336-1.357-.21-.24a14.262 14.262 0 0 1 .754-.618l.193.254c-.065.05-.13.099-.193.15a13.87 13.87 0 0 0-.544.454zm12.847-.193a6.834 6.834 0 0 0-.668-.65l.2-.247c.252.214.488.442.704.684l-.236.213zm-11.328-.952-.17-.269c.272-.172.557-.335.848-.486l.147.282c-.283.147-.56.306-.825.473zm9.892-.26a7.22 7.22 0 0 0-.829-.45l.134-.289c.3.14.591.297.865.47l-.17.27zm-8.207-.618-.124-.293.08-.034c.273-.114.557-.214.845-.297l.089.305c-.277.08-.55.177-.81.286l-.08.033zm6.498-.175-.075-.025c-.276-.086-.56-.162-.84-.225l.07-.311c.289.065.58.143.866.232l.078.025-.099.304zm-4.686-.355-.053-.313c.313-.054.641-.092.973-.114l.021.318a9.14 9.14 0 0 0-.941.11zm2.836-.057a9.694 9.694 0 0 0-.946-.071l.009-.319c.325.009.653.034.976.074l-.04.316zM26.712 36.692l-.532-.366.181-.263.256.177c.055-.088.111-.176.169-.264l.267.173c-.088.135-.172.268-.253.4l-.088.143zM25.442 35.817l-.739-.51.181-.262.739.51-.18.262zm-1.477-1.02-.74-.509.181-.262.74.51-.181.262zm-1.478-1.018-.739-.51.18-.262.74.51-.181.261zm-1.477-1.02-.739-.509.18-.262.74.51-.181.262zM19.531 31.74l-.5-.345.05-.119c.063-.149.127-.296.193-.442l.29.13-.139.316.287.198-.18.262zM36.425 60.417l-.314-.053a7.02 7.02 0 0 1 .23-.956l.303.096c-.091.29-.165.597-.22.913zm.572-1.778-.284-.144c.062-.123.128-.243.199-.36.098-.163.2-.323.307-.48l.264.179a9.773 9.773 0 0 0-.298.465c-.067.11-.13.224-.188.34zm1.055-1.56-.245-.204c.206-.248.429-.49.66-.72l.224.226c-.224.223-.44.457-.639.698zm1.34-1.335-.203-.245.066-.055c.226-.186.459-.367.697-.544l.19.256c-.234.174-.462.352-.685.535l-.065.053zm1.529-1.139-.178-.264c.264-.177.538-.353.816-.522l.166.273c-.274.166-.545.339-.804.513zm1.553-.972v-.16l-.112-.112.036-.027c.28-.153.56-.309.838-.466l.157.278a94.43 94.43 0 0 1-.822.456l-.03.031h-.067zm1.756-.964-.159-.276c.277-.159.554-.32.83-.482l.162.275c-.278.163-.555.324-.833.483zm1.662-.974-.165-.273.085-.05c.243-.153.485-.308.721-.463l.175.266c-.238.157-.482.313-.73.468l-.086.051zm1.616-1.061-.182-.261c.265-.185.524-.371.777-.559l.19.256c-.256.19-.517.377-.785.564zm1.55-1.153-.198-.249c.207-.164.41-.33.606-.495l.132-.113.208.242-.134.114c-.2.168-.404.335-.613.501zm1.465-1.27-.222-.228c.227-.22.45-.449.664-.682l.235.215c-.218.239-.446.472-.677.696zm1.312-1.43-.248-.2c.2-.246.393-.5.577-.757l.26.185c-.188.263-.386.523-.59.772zM52.96 45.2l-.271-.166c.164-.268.32-.547.465-.828l.283.146c-.148.288-.309.573-.477.848zm.891-1.729-.293-.125c.124-.288.239-.587.343-.886l.301.104c-.107.307-.225.612-.35.907zm.64-1.835-.308-.083c.08-.298.153-.61.215-.926l.312.061c-.063.324-.137.643-.22.948zm.376-1.907-.316-.041c.04-.307.073-.626.098-.948l.318.024c-.026.329-.06.653-.1.965zm.15-1.932-.319-.01a21.883 21.883 0 0 0 .007-.954l.319-.004a26.434 26.434 0 0 1-.007.968zm-.343-1.918a21.17 21.17 0 0 0-.074-.952l.317-.031c.032.314.057.639.075.965l-.318.018zm-.192-1.898a17.707 17.707 0 0 0-.167-.938l.311-.064c.065.31.122.632.17.955l-.314.047zm-.388-1.864a14.885 14.885 0 0 0-.276-.91l.302-.102c.102.303.197.616.282.93l-.308.082zm-.612-1.799a13.1 13.1 0 0 0-.34-.746l-.057-.117.284-.143.06.119c.122.248.239.505.347.764l-.294.123zm-33.504-.21-.283-.146c.15-.289.308-.574.47-.85l.275.163c-.16.27-.315.55-.462.833zm32.657-1.493c-.158-.276-.325-.55-.495-.813l.267-.173c.174.268.344.547.504.829l-.276.157zM20.95 28.47l-.264-.179c.181-.268.372-.533.567-.788l.253.193c-.191.25-.378.51-.556.774zm30.65-1.451a15.25 15.25 0 0 0-.588-.748l.244-.205c.206.245.407.502.6.763l-.256.19zm-29.494-.06-.24-.209a18.987 18.987 0 0 1 .653-.716l.23.22a18.351 18.351 0 0 0-.643.704zm1.322-1.373-.217-.232c.235-.22.48-.437.726-.643l.205.244c-.242.202-.482.415-.714.631zm26.95-.023a14.228 14.228 0 0 0-.68-.665l.215-.235c.238.217.472.446.695.68l-.23.22zm-25.49-1.202-.192-.254c.258-.194.523-.383.79-.562l.178.264c-.262.176-.523.362-.777.552zm24.088-.08c-.248-.199-.504-.392-.76-.573l.184-.26c.261.185.522.381.775.583l-.2.25zm-22.507-.982-.164-.273c.276-.166.56-.326.845-.477l.15.281c-.28.149-.56.306-.831.47zm20.953-.117a16.257 16.257 0 0 0-.823-.479l.152-.28c.283.154.565.318.84.488l-.169.27zm-19.27-.778-.135-.288c.291-.137.59-.268.887-.39l.12.294c-.291.12-.585.25-.872.384zm17.597-.13c-.285-.133-.58-.26-.874-.377l.118-.296c.3.12.6.249.891.385l-.135.289zm-15.833-.594-.107-.3c.303-.107.613-.209.92-.302l.093.305c-.303.091-.608.191-.906.297zm14.064-.109a16.528 16.528 0 0 0-.912-.277l.085-.307c.131.037.263.074.393.113.18.054.358.11.535.168l-.1.303zm-12.239-.443-.077-.309c.31-.078.628-.15.944-.216l.064.312c-.311.064-.624.136-.93.213zm10.402-.071c-.311-.073-.622-.139-.934-.198l.059-.313c.316.06.632.127.947.2l-.072.311zm-8.532-.313-.05-.314c.315-.05.638-.095.96-.131l.035.316c-.316.036-.632.08-.945.13zm6.657-.043a21.925 21.925 0 0 0-.948-.116l.032-.317c.321.032.642.072.961.118l-.045.316zm-4.761-.174-.023-.317c.32-.023.644-.039.967-.048l.01.319c-.32.008-.638.024-.954.046zm2.862-.018c-.318-.018-.636-.03-.954-.035l.004-.318c.324.005.646.016.968.035l-.018.318zM36.31 62.009h-.637v-.319h.32c.001-.11.005-.219.01-.327l.319.016a9.43 9.43 0 0 0-.012.47v.16zM34.734 62.009h-.938v-.319h.938v.319zm-1.876 0h-.939v-.319h.939v.319zm-1.877 0h-.939v-.319h.939v.319zm-1.877 0h-.938v-.319h.938v.319zM27.398 81.922h-.637v-.637h.319v.319h.318v.318zM27.08 80.3h-.319v-.985h.319v.985zm0-1.97h-.319v-.986h.319v.985zm0-1.971h-.319v-.986h.319v.986zm0-1.971h-.319v-.986h.319v.986zm0-1.97h-.319v-.986h.319v.986zM27.08 70.446h-.319v-.637h.637v.319h-.318v.318zM34.982 70.128h-.948v-.319h.948v.319zm-1.896 0h-.948v-.319h.948v.319zm-1.896 0h-.948v-.319h.948v.319zm-1.896 0h-.948v-.319h.948v.319zM36.567 70.446h-.319v-.318h-.318v-.319h.637v.637zM36.566 80.3h-.318v-.985h.318v.985zm0-1.97h-.318v-.986h.318v.985zm0-1.971h-.318v-.986h.318v.986zm0-1.97h-.318v-.986h.318v.985zm0-1.971h-.318v-.986h.318v.986zM36.567 81.922h-.637v-.318h.318v-.319h.319v.637zM34.982 81.923h-.948v-.319h.948v.319zm-1.896 0h-.948v-.319h.948v.319zm-1.896 0h-.948v-.319h.948v.319zm-1.896 0h-.948v-.319h.948v.319z" fill="#263238"/><path d="M119.476 79.96a5.43 5.43 0 1 0 10.86-.001 5.43 5.43 0 0 0-10.86.001zm2.893 0a2.536 2.536 0 1 1 5.072 0 2.536 2.536 0 0 1-5.072 0z" fill="url(#l)"/><path d="M123.861 74.756h2.087l-.115-1.478h-1.857l-.115 1.478z" fill="url(#m)"/><path d="m127.834 75.459 1.477 1.476.963-1.126-1.313-1.313-1.127.963z" fill="url(#n)"/><path d="M130.147 78.767v2.088l1.478-.116v-1.857l-1.478-.115z" fill="url(#o)"/><path d="m129.444 82.74-1.476 1.477 1.126.964 1.313-1.313-.963-1.127z" fill="url(#p)"/><path d="M126.137 85.053h-2.088l.115 1.478h1.857l.116-1.478z" fill="url(#q)"/><path d="m122.162 84.35-1.476-1.477-.963 1.127 1.313 1.313 1.126-.964z" fill="url(#r)"/><path d="M119.85 81.042v-2.088l-1.477.116v1.857l1.477.115z" fill="url(#s)"/><path d="m120.554 77.069 1.476-1.477-1.127-.963-1.313 1.313.964 1.127z" fill="url(#t)"/><path d="m126.13 78.735-1.674-.449-1.226 1.227.449 1.672 1.673.45 1.227-1.226-.449-1.674zm-1.225 1.775a.548.548 0 1 1-.003-1.097.548.548 0 0 1 .003 1.097z" fill="url(#u)"/><path d="M63.593 15.709a7.461 7.461 0 1 0 14.923-.002 7.461 7.461 0 0 0-14.923.002zm3.976 0a3.485 3.485 0 1 1 6.97 0 3.485 3.485 0 0 1-6.97 0z" fill="#263238"/><path d="M69.62 8.557h2.868l-.159-2.03h-2.551l-.159 2.03zM75.08 9.524l2.029 2.029 1.324-1.548L76.628 8.2 75.08 9.524zM78.258 14.07v2.868l2.03-.159v-2.551l-2.03-.159zM77.29 19.53l-2.028 2.028 1.548 1.324 1.805-1.804-1.324-1.548zM72.746 22.707h-2.869l.16 2.031h2.55l.16-2.03zM67.285 21.741l-2.028-2.029-1.324 1.548 1.804 1.805 1.548-1.324zM64.108 17.196v-2.869l-2.031.159v2.552l2.03.158zM65.074 11.735l2.029-2.029-1.548-1.323-1.805 1.804 1.324 1.548zM72.737 14.025l-2.3-.617-1.684 1.685.617 2.3 2.298.616 1.686-1.684-.617-2.3zm-1.684 2.439a.754.754 0 1 1 0-1.51.756.756 0 0 1 0 1.51z" fill="#263238"/><path d="M116.811 96.868c0 2.977 2.422 5.399 5.397 5.399a5.405 5.405 0 0 0 5.401-5.4c0-2.977-2.422-5.4-5.401-5.4a5.406 5.406 0 0 0-5.397 5.4zm1.149 0a4.25 4.25 0 1 1 4.248 4.25 4.25 4.25 0 0 1-4.248-4.25zm-1.149 0c0 2.977 2.422 5.399 5.397 5.399a5.405 5.405 0 0 0 5.401-5.4c0-2.977-2.422-5.4-5.401-5.4a5.406 5.406 0 0 0-5.397 5.4zm1.149 0a4.25 4.25 0 1 1 4.248 4.25 4.25 4.25 0 0 1-4.248-4.25zm-4.853 0a9.103 9.103 0 1 0 18.206-.003 9.103 9.103 0 0 0-18.206.003zm3.186 0a5.925 5.925 0 0 1 5.915-5.919 5.927 5.927 0 0 1 5.92 5.919 5.925 5.925 0 0 1-5.92 5.917 5.923 5.923 0 0 1-5.915-5.917zm.518 0c0 2.977 2.422 5.399 5.397 5.399a5.405 5.405 0 0 0 5.401-5.4c0-2.977-2.422-5.4-5.401-5.4a5.406 5.406 0 0 0-5.397 5.4zm1.149 0a4.25 4.25 0 1 1 4.248 4.25 4.25 4.25 0 0 1-4.248-4.25z" fill="#455A64"/><path d="M121.142 87.929h2.084l-.208-2.08h-1.669l-.207 2.08zM125.753 88.593l1.805 1.041.861-1.905-1.445-.835-1.221 1.698zM129.416 91.472l1.042 1.805 1.698-1.22-.835-1.445-1.905.86zM131.148 95.798v2.084l2.081-.207v-1.67l-2.081-.207zM130.485 100.411l-1.042 1.805 1.905.86.835-1.446-1.698-1.219zM127.605 104.073l-1.805 1.042 1.22 1.698 1.445-.834-.86-1.906zM123.28 105.805h-2.085l.208 2.08h1.669l.208-2.08zM118.667 105.142l-1.805-1.042-.861 1.905 1.446.835 1.22-1.698zM115.005 102.262l-1.042-1.805-1.698 1.219.834 1.446 1.906-.86zM113.273 97.936v-2.084l-2.081.207v1.67l2.081.207zM113.935 93.324l1.042-1.805-1.905-.86-.835 1.445 1.698 1.22zM116.815 89.66l1.805-1.042-1.22-1.698-1.445.835.86 1.905zM58.434 9.198a2.477 2.477 0 1 0 .46-4.934 2.477 2.477 0 0 0-.46 4.934zM56.498 6.53a2.175 2.175 0 1 1 4.331.4 2.175 2.175 0 0 1-4.33-.4zm1.936 2.668a2.477 2.477 0 1 0 .46-4.934 2.477 2.477 0 0 0-.46 4.934zM56.498 6.53a2.175 2.175 0 1 1 4.331.4 2.175 2.175 0 0 1-4.33-.4zm1.936 2.668a2.477 2.477 0 1 0 .46-4.934 2.477 2.477 0 0 0-.46 4.934zM56.498 6.53a2.175 2.175 0 1 1 4.331.4 2.175 2.175 0 0 1-4.33-.4zm1.681 5.4a5.222 5.222 0 1 0 .97-10.399 5.222 5.222 0 0 0-.97 10.4zm-2.365-5.463a2.865 2.865 0 0 1 3.114-2.587 2.866 2.866 0 0 1 2.585 3.116 2.865 2.865 0 0 1-3.115 2.585 2.865 2.865 0 0 1-2.584-3.114zm.384.035a2.477 2.477 0 1 0 4.933.46 2.477 2.477 0 0 0-4.933-.46zm.3.028a2.175 2.175 0 1 1 4.331.4 2.175 2.175 0 0 1-4.33-.4zm1.936 2.668a2.477 2.477 0 1 0 .46-4.934 2.477 2.477 0 0 0-.46 4.934zM56.498 6.53a2.175 2.175 0 1 1 4.331.4 2.175 2.175 0 0 1-4.33-.4zm1.936 2.668a2.477 2.477 0 1 0 .46-4.934 2.477 2.477 0 0 0-.46 4.934zM56.498 6.53a2.175 2.175 0 1 1 4.331.4 2.175 2.175 0 0 1-4.33-.4z" fill="#455A64"/><path d="m58.127 1.655 2 .186.02-1.426L58.37.25l-.243 1.405zM61.87 2.682l1.282 1.545 1.023-.993-1.14-1.374-1.165.822zM63.79 6.055l-.185 1.999 1.425.02.165-1.777-1.405-.242zM62.763 9.797l-1.545 1.283.993 1.022 1.375-1.14-.823-1.165zM59.39 11.717l-1.998-.186-.021 1.425 1.777.166.243-1.405zM55.648 10.69l-1.283-1.545-1.022.992 1.14 1.375 1.165-.822zM53.728 7.317l.185-1.999-1.425-.02-.165 1.777 1.405.242zM54.755 3.575 56.3 2.293l-.993-1.022-1.374 1.14.822 1.164z" fill="#455A64"/><path d="M98.1 93.557a6.272 6.272 0 0 0 12.54.33 6.272 6.272 0 1 0-12.54-.33zm3.342.088a2.929 2.929 0 1 1 5.856.153 2.929 2.929 0 0 1-5.856-.153z" fill="#C7C7C7"/><path d="m103.323 87.68 2.411.064-.089-1.71-2.144-.056-.178 1.703zM107.891 88.614l1.66 1.75 1.147-1.272-1.477-1.556-1.33 1.078zM110.46 92.503l-.064 2.411 1.711-.088.056-2.144-1.703-.179zM109.527 97.072l-1.75 1.66 1.272 1.147 1.556-1.477-1.078-1.33zM105.637 99.64l-2.41-.063.088 1.711 2.144.056.178-1.703zM101.07 98.708l-1.66-1.75-1.147 1.272 1.476 1.556 1.331-1.078zM98.5 94.818l.064-2.41-1.71.088-.057 2.144 1.703.178zM99.433 90.25l1.75-1.66-1.272-1.147-1.556 1.477 1.078 1.33zM106.036 92.185l-2.056-.61-1.556 1.477.501 2.084 2.054.61 1.557-1.476-.5-2.085zm-1.574 2.155a.68.68 0 1 1 .036-1.36.68.68 0 0 1-.036 1.36z" fill="#C7C7C7"/><path d="M184.079 99.64s1.288 4.294 2.818 8.681c1.529 4.387 2.888 14.462 2.603 14.724-.284.261-3.68-9.536-4.66-14.012-.98-4.476-1.683-9.068-1.683-9.068l.922-.325z" fill="url(#v)"/><path d="m184.101 99.531 1.022 2.917-1.625.395-.49-3.005 1.093-.307z" fill="#DBDBDB"/><path d="M184.101 99.531c.175-.617.202-1.352-.385-2.192-.709-1.014-.503-1.802-.503-1.802s-1.827 2.342-.204 4.301l1.092-.307z" fill="#455A64"/><path d="M183.229 95.42c.092.148-.096.885.246 1.461.322.543-1.336 1.437-1.199.57.156-.983.784-2.303.953-2.031z" fill="url(#w)"/><path d="M192.092 102.153s-1.245 3.476-2.692 7.018-3 11.769-2.777 11.996c.222.227 3.438-7.683 4.437-11.321 1-3.639 1.776-7.385 1.776-7.385l-.744-.308z" fill="#A6A6A6"/><path d="m192.078 102.063-.966 2.355 1.319.395.533-2.45-.886-.3z" fill="#DBDBDB"/><path d="M192.078 102.064c.14-1.939 1.679-3.517 1.679-3.517s.626 2.276-.794 3.816l-.885-.299z" fill="#455A64"/><path d="M188.262 97.595s.492 3.659 1.168 7.425c.676 3.766.476 12.136.211 12.312-.266.175-1.759-8.232-1.976-11.999-.218-3.767-.195-7.593-.195-7.593l.792-.145z" fill="#37474F"/><path d="m188.294 97.51.453 2.505-1.373.11-.009-2.507.929-.108z" fill="#DBDBDB"/><path d="M187.365 97.618s.88-.088.929-.108c.049-.02.707-2.541.651-2.612-.054-.07-2.959.337-2.943.61.015.275 1.363 2.11 1.363 2.11zM191.359 124.352h-7.452a1.394 1.394 0 0 1-1.395-1.395v-10.105c0-.771.624-1.395 1.395-1.395h7.452c.771 0 1.395.624 1.395 1.395v10.105c0 .771-.625 1.395-1.395 1.395zM191.462 109.42h-7.658v2.036h7.658v-2.036z" fill="#455A64"/><path d="M184.274 111.412c1.78-.087 6.138-.092 6.726.005.013.002.013.024 0 .026-.588.098-4.652.22-6.726.006-.024-.002-.024-.037 0-.037z" fill="#263238"/><path d="M113.375 126.505c.074-.68 7.889-17.521 8.594-17.973.265-.176 2.785.82 5.796 2.11l.094.042c.621.264 12.077 3.342 12.077 3.342l-5.077 11.022-11.92-3.443-.183-.09s-5.874 5.109-6.702 5.524c-.823.411-2.757.146-2.679-.534z" fill="#AD6359"/><path d="m130.037 111.324-5.223 10.822-1.874-.542-.184-.088s-5.875 5.108-6.702 5.523c-.823.412-2.758.146-2.679-.532.073-.681 7.889-17.523 8.592-17.973.266-.177 2.787.817 5.799 2.109.029.013.06.029.092.042.155.065 1.001.31 2.179.639z" fill="#EBEBEB"/><path d="M113.308 126.59c.074-.686 7.907-17.72 8.616-18.181.268-.176 2.815.82 5.859 2.111l-5.018 10.997s-5.916 5.18-6.748 5.602c-.83.418-2.784.158-2.709-.529z" fill="url(#x)"/><path d="M114.102 126.659c1.382-2.823 6.695-14.34 7.847-17.236.01-.023-.006-.031-.018-.008-1.432 2.768-6.65 14.328-7.876 17.223-.026.061.017.081.047.021zM117.134 126.305c.339-.664.321-1.474.088-2.028-.224-.533-.63-1.087-1.231-1.339-.018-.008-.033.024-.016.034 1.042.677 1.556 2.145 1.123 3.317-.009.023.024.039.036.016zM121.972 122.493c.541-1.135.747-2.646.139-3.786-.024-.044-.086-.01-.084.032a17.39 17.39 0 0 1-.205 3.709c-.015.09.111.127.15.045zM121.222 123.217c.542-1.135.748-2.646.139-3.786-.023-.044-.086-.01-.084.032a17.325 17.325 0 0 1-.205 3.709c-.014.09.111.127.15.045zM120.472 123.942c.541-1.136.748-2.646.139-3.786-.023-.044-.086-.01-.084.032a17.328 17.328 0 0 1-.205 3.709c-.014.089.111.126.15.045zM119.723 124.666c.542-1.136.748-2.646.139-3.786-.023-.044-.086-.01-.084.032a17.328 17.328 0 0 1-.205 3.709c-.014.089.111.126.15.045zM124.327 111.398c.585-1.284-1.409-2.197-1.996-.911-.585 1.284 1.409 2.197 1.996.911z" fill="#263238"/><path d="M124.453 125.131c.746-.357.612-1.302.279-1.887-.541-.949-1.49-1.866-2.445-2.383-.024-.012-.042.002-.049.021-.093-.013-.207.052-.187.163.188 1.073.257 2.243.769 3.225.299.574.928 1.2 1.633.861zm-1.783-2.519c-.106-.525-.185-1.052-.31-1.573.475.466.968.909 1.397 1.422.204.246.409.501.579.772.263.422.702 1.983-.593 1.525-.714-.252-.948-1.52-1.073-2.146z" fill="#263238"/><path d="M123.169 117.827c-.611.925-.799 2.081-1.098 3.129-.031.108.075.185.169.181.006.02.022.036.047.026 1.004-.416 2.041-1.23 2.677-2.119.392-.548.622-1.474-.083-1.906-.666-.41-1.356.149-1.712.689zm.967-.391c1.336-.322.738 1.185.433 1.578a7.189 7.189 0 0 1-.655.708c-.479.467-1.015.857-1.536 1.272.178-.506.311-1.022.47-1.534.19-.61.551-1.846 1.288-2.024z" fill="#263238"/><path d="M153.379 78.072s-.211 6.602-1.201 9.852c0 0-1.08.568-1.403.771 0 0 8.201 19.638 7.734 27.193-.153 2.477-2.79 5.612-5.623 7.375-5.014 3.12-28.066 1.319-28.066 1.319l3.552-14.715s13.881.862 14.272.024c.496-1.063-2.585-9.322-5.045-16.034-.249-.677-2.724-3.179-2.436-7.704.281-4.406 2.13-8.082 2.13-8.082h16.086z" fill="#37474F"/><path d="M131.194 111.503c3.376-.062 6.127.224 9.503.226l.958.001 1.275.001c.295 0 .592-.01.881-.079.258-.062.526-.175.679-.404.224-.334.103-.76.026-1.122a46.836 46.836 0 0 0-.571-2.367c-.85-3.19-1.96-6.305-3.005-9.433l-1.615-4.835c-.131-.392-.261-.784-.426-1.163a9.9 9.9 0 0 0-.531-1.012c-.37-.639-.701-1.282-.917-1.991-.913-3.002-.035-6.108 1.033-8.94.143-.38.292-.758.447-1.134.01-.026.051-.015.042.013-.973 2.99-2.134 6.1-1.48 9.29.154.752.412 1.474.78 2.147.186.342.391.674.574 1.019.185.35.336.716.471 1.088.571 1.585 1.078 3.195 1.614 4.792 1.067 3.177 2.188 6.345 3.077 9.577.222.805.427 1.615.609 2.429.133.6.433 1.418-.09 1.915-.383.364-.986.409-1.487.413-.841.005-1.683-.005-2.524-.007-3.424-.01-8.901-.297-9.326-.306-.076-.002-.072-.116.003-.118zM127.419 123.898c.332-1.718.648-3.446 1.029-5.155.382-1.714.793-3.42 1.236-5.119.126-.479.255-.958.383-1.437.062-.228.122-.456.189-.683.068-.228.117-.466.211-.685.01-.025.043-.01.042.013-.026.437-.147.89-.234 1.319-.085.415-.165.831-.25 1.245-.176.853-.355 1.704-.542 2.555a142.984 142.984 0 0 1-1.23 5.084c-.247.961-.495 1.92-.746 2.879-.014.054-.099.041-.088-.016z" fill="#263238"/><path d="m155.699 102.13-17.374-6.293-.726-1.98c-.25-.677-2.723-3.179-2.435-7.705.279-4.405 2.128-8.082 2.128-8.082h16.086s-.209 6.603-1.201 9.853c0 0-1.08.57-1.403.772 0 0 2.708 6.484 4.925 13.435z" fill="#263238"/><path d="M182.11 127.297c-.655.197-19.211-.417-19.902-.889-.265-.175-.334-2.884-.322-6.16l.001-.102c.001-.675.293-11.994.293-11.994l12.988.392-1.305 11.864-.011.203s6.997 3.411 7.703 4.011c.7.598 1.211 2.481.555 2.675z" fill="#AD6359"/><path d="M182.111 127.298c-.656.196-19.211-.418-19.902-.89-.266-.177-.336-2.885-.323-6.16v-.104c.003-.184-.001-1.102.056-2.493l12.173.466-.251 2.29-.013.202s6.999 3.414 7.706 4.013c.696.599 1.21 2.48.554 2.676z" fill="#EBEBEB"/><path d="M182.252 127.378c-.662.197-19.4-.427-20.099-.902-.267-.179-.335-2.913-.324-6.22l12.082.368s7.067 3.447 7.778 4.051c.708.604 1.225 2.506.563 2.703z" fill="url(#y)"/><path d="M182.008 126.619c-3.138-.181-15.814-.618-18.93-.559-.025 0-.026.017 0 .019 3.106.248 15.785.582 18.929.592.066 0 .067-.048.001-.052zM180.507 123.961c-.744-.055-1.484.274-1.905.704-.404.414-.758 1.002-.757 1.654 0 .019.034.021.038.001.22-1.223 1.374-2.265 2.623-2.319.025-.002.026-.038.001-.04zM175.12 120.977c-1.257-.059-2.729.336-3.544 1.338-.032.039.024.083.062.065a17.38 17.38 0 0 1 3.499-1.248c.088-.021.073-.151-.017-.155zM176.077 121.388c-1.257-.059-2.729.336-3.544 1.338-.032.039.024.083.062.065a17.38 17.38 0 0 1 3.499-1.248c.088-.021.073-.151-.017-.155zM177.035 121.798c-1.257-.059-2.729.336-3.544 1.338-.032.039.024.083.062.066a17.38 17.38 0 0 1 3.499-1.248c.088-.022.073-.152-.017-.156zM177.993 122.209c-1.257-.059-2.729.336-3.544 1.338-.032.039.024.083.062.065a17.38 17.38 0 0 1 3.499-1.248c.088-.021.073-.151-.017-.155zM163.978 123.103c-1.411-.043-1.48 2.15-.067 2.193 1.411.042 1.48-2.15.067-2.193z" fill="#263238"/><path d="M176.59 117.668c-.619-.549-1.438-.06-1.848.475-.665.866-1.143 2.095-1.25 3.176-.002.027.018.038.039.038.024.091.127.17.222.109.916-.59 1.968-1.106 2.676-1.959.412-.498.746-1.32.161-1.839zm-1.631 2.62c-.444.301-.899.578-1.331.895.245-.619.463-1.245.77-1.839.147-.283.303-.572.488-.833.287-.406 1.556-1.416 1.635-.044.044.757-1.034 1.463-1.562 1.821z" fill="#263238"/><path d="M170.353 121.681c1.089.205 2.228-.069 3.309-.2.112-.014.142-.141.102-.226.016-.013.024-.034.006-.053-.773-.765-1.925-1.406-2.99-1.648-.658-.149-1.6-.003-1.726.814-.119.774.663 1.194 1.299 1.313zm-.736-.741c-.814-1.106.807-1.139 1.287-1.01.309.083.613.205.907.33.616.26 1.183.604 1.767.924-.535.031-1.062.109-1.595.16-.636.062-1.916.207-2.366-.404z" fill="#263238"/><path d="M174.921 119.502H160.39s2.588-19.78 1.727-21.072c-.378-.567-19.241 1.324-24.76-4.654-5.046-5.465.089-15.704.089-15.704h15.483s.317 4.389 1.149 6.143c.358.752 17.654-.32 20.361 4.622 3.618 6.604.482 30.665.482 30.665z" fill="#37474F"/><path d="M161.923 116.739c1.639-.048 3.283-.112 4.924-.111a128.96 128.96 0 0 1 6.993.2c.223.016.451.013.67.057.025.005.019.04-.002.044-.356.062-4.075.104-4.891.106-1.636.005-3.268-.043-4.903-.102-.929-.033-1.858-.067-2.787-.105-.052-.003-.059-.087-.004-.089zM152.299 82.811c-.065-.464-.126-.93-.181-1.395-.126-1.061-.236-2.13-.268-3.199-.003-.084.117-.077.126.002.099.824.175 1.652.269 2.477.092.818.164 1.652.318 2.46.046.244.149.652.461.657.419.007.499-.56.535-.867.09-.767.081-1.54.042-2.31-.046-.878-.156-1.753-.253-2.626-.003-.031.049-.037.055-.006.361 1.697.707 3.478.407 5.214-.058.338-.209.7-.562.818l-.017.004c.004.01.01.018.01.03.003.049 0 .098.002.147.002.041.002.082.001.124 0 .086.005.172.002.258-.004.08-.109.08-.127.011-.02-.004-.039-.016-.045-.042a1.377 1.377 0 0 1 .01-.504.614.614 0 0 1-.516-.277c-.198-.28-.224-.648-.269-.976z" fill="#263238"/><path d="M153.839 84.069c-1.195.789-2.295 1.756-3.332 2.74-.041.038.009.104.055.069 1.135-.877 2.3-1.737 3.385-2.675.085-.074-.017-.195-.108-.134zM141.112 84.911c.336-.008.666-.016.999-.077.293-.054.583-.136.869-.22.536-.16 1.189-.347 1.58-.771.397-.43.663-1.017.898-1.546.26-.583.458-1.21.527-1.846.003-.028.047-.027.044.001-.053.663-.138 1.314-.328 1.954a6.35 6.35 0 0 1-.366.923c-.141.292-.296.589-.518.828-.432.467-1.141.695-1.748.816a5.44 5.44 0 0 1-1.97.012c-.043-.008-.028-.073.013-.074z" fill="#263238"/><path d="M163.685 97.495c-.094-.37-.334-.609-.713-.676-.408-.07-.844-.029-1.256-.025-.968.01-1.936.02-2.904.023-3.813.008-7.659-.1-11.409-.851-1.818-.365-3.629-.873-5.334-1.61-1.455-.63-2.91-1.494-3.817-2.832-1.044-1.541-1.126-3.558-1.09-5.36a20.5 20.5 0 0 1 .934-5.736c.148-.472.315-.938.502-1.396.012-.029-.031-.054-.044-.024a19.9 19.9 0 0 0-1.513 5.535 19.082 19.082 0 0 0-.128 2.828c.026.92.098 1.859.357 2.746.988 3.373 4.769 4.767 7.827 5.624 3.678 1.031 7.516 1.318 11.321 1.374 1.913.029 3.827.006 5.739-.026.366-.006.967-.108 1.184.276.114.2.136.471.171.695.043.27.072.54.092.812.076 1.016.019 2.037-.04 3.052a304.887 304.887 0 0 1-.429 6.191c-.164 2.073-.395 4.142-.546 6.216-.037.508-.087 1.015-.135 1.522-.006.058.095.07.102.011.531-4.099.911-8.215 1.181-12.339.066-1.019.141-2.039.169-3.06.027-.98.021-2.014-.221-2.97z" fill="#263238"/><path d="M154.379 98.252c-1.444-.012-2.637-.127-3.857-.28a82.756 82.756 0 0 1-3.607-.52c-2.082-.356-4.212-.747-6.179-1.54-1.059-.427-2.106-.984-2.977-1.726-.025-.021-.057.013-.034.035 1.488 1.445 3.375 2.293 5.358 2.834 2.262.616 4.61.974 6.938 1.217 1.385.144 2.97.151 4.362.126.097-.001.087-.145-.004-.146z" fill="#263238"/><path d="M146.195 63.81c4.593 2.798 11.234 6.416 12.282 4.97 2.678-3.695 4.034-11.763 4.061-13.65.016-1.098-7.911-2.86-8.087-1.698-.205 1.355-.531 8.196-.941 8.539-.313.261-5.08-1.087-6.489-1.173-3.484-.21-2.957 1.713-.826 3.012z" fill="#AD6359"/><path d="m153.972 55.308 9.098 1.312s-2.257 11.274-4.933 12.504c-1.563.719-8.417-2.462-11.904-4.956-3.804-2.722-1.331-3.908 1.326-3.44 2.115.372 5.654 1.195 5.724 1.04.07-.155.689-6.46.689-6.46z" fill="url(#z)"/><path opacity=".1" d="M154.784 60.986c.003.275.019.555.108.836.083-.279.106-.559.109-.837a3.098 3.098 0 0 0-.104-.838c-.086.28-.107.56-.113.839zm1.427 8.044c.071.017.137.032.206.046a2.582 2.582 0 0 0-.099-.665 2.664 2.664 0 0 0-.107.62zm.726-10.983a2.99 2.99 0 0 0-.834.106c.277.087.556.107.834.11.28 0 .557-.022.837-.107a3.125 3.125 0 0 0-.837-.11zm-3.614 7.573a2.81 2.81 0 0 0-.835.103c.277.087.557.11.835.113.278-.004.56-.023.837-.108a2.867 2.867 0 0 0-.837-.108zm-7.659-3.635a2.955 2.955 0 0 0-.666-.516c.134.257.318.468.51.667.198.197.411.38.667.52a2.97 2.97 0 0 0-.511-.671zm15.835-3.403a3.057 3.057 0 0 0-.667-.52c.136.261.319.472.511.671.201.196.411.38.667.52a2.924 2.924 0 0 0-.511-.67zm-3.358 6.896c-.2-.192-.411-.38-.667-.519.136.26.319.471.512.673.197.194.41.377.666.517-.136-.26-.318-.468-.511-.67zm1.227-3.725a3.04 3.04 0 0 0-.519.666c.26-.135.471-.319.671-.508.199-.202.379-.414.518-.67-.257.135-.47.32-.67.512zm-9.348 1.015c-.193.2-.377.41-.516.666.26-.136.468-.318.671-.509.196-.2.379-.414.518-.67-.26.136-.471.32-.673.513z" fill="#000"/><path d="M158.233 57.873a87.05 87.05 0 0 0-1.983-.267c-.318-.04-.635-.084-.954-.114-.343-.032-.693-.092-1.037-.1-.024-.001-.03.03-.006.037.331.092.683.135 1.021.204.313.065.63.114.945.168.658.112 1.315.224 1.975.32 1.321.193 2.644.348 3.973.487.031.003.039-.043.007-.05a98.33 98.33 0 0 0-3.941-.685z" fill="#263238"/><path opacity=".1" d="M161.346 63.24c-.867 2.7-1.998 5.325-3.21 5.884-1.563.718-8.416-2.46-11.903-4.955-1.977-1.414-2.259-2.413-1.704-2.984l16.817 2.055z" fill="#000"/><path d="M183.123 55.864s-9.671-.489-19.666-1.438c-9.993-.95-31.803 1.404-32.198 2.138-.396.735 21.911 2.814 31.799 2.56 9.888-.253 19.873-1.15 19.873-1.15l.192-2.11z" fill="#455A64"/><path d="m183.338 55.763-6.648-.642.036 3.626 6.55-.525.062-2.46z" fill="#DBDBDB"/><path d="M183.338 55.762c1.2-.688 2.724-1.124 4.793-.322 2.499.968 4.038.125 4.038.125s-3.932 5.06-8.894 2.656l.063-2.459z" fill="#263238"/><path d="M192.406 55.469c-.359-.118-1.8.66-3.188.238-1.307-.398-2.299 3.558-.559 2.82 1.976-.838 4.407-2.842 3.747-3.058z" fill="url(#A)"/><path d="M154.857 53.578c1.065-.731 2.277-2.337 3.2-2.6a1.1 1.1 0 0 1 1.245.42s.319-1.014 1.196-1.115c.452-.052.931.623.931.623s.291-.801 1.077-.843c.626-.033 1.012.65 1.012.65s.637-.64 1.286-.47c1.315.347 2.164 5.661.338 6.795-.851.528-.988-.78-.988-.78s-.259 1.93-1.35 2.133c-1.091.202-1.166-1.51-1.166-1.51s-.266 1.87-1.418 1.965c-1.2.1-.982-1.624-.982-1.624s-.613 1.31-1.512 1.18c-1.485-.21-.063-2.733-.526-3.856l-2.029-.337-.314-.631z" fill="#AD6359"/><path d="M156.361 52.245c-1.069.604-2.697-.58-3.803-.148-1.495.583.302 2.083 2.613 2.112l1.798-.294-.608-1.67z" fill="#AD6359"/><path d="M163.595 50.81c-.004-.017.02-.026.027-.009.705 1.68.965 3.742.548 5.527-.014.058-.115.061-.112-.006.078-1.922-.006-3.633-.463-5.511zM161.436 50.879c-.006-.02.028-.03.037-.008.717 1.734.946 4.065.223 6.065-.025.069-.115.106-.093.025.38-1.367.252-4.394-.167-6.082zM159.139 57.35c.619-1.945.552-3.892.196-5.883-.005-.026.033-.03.042-.01.44.927.535 2.22.524 3.231-.011.97-.216 1.842-.693 2.684-.019.033-.082.02-.069-.022z" fill="#263238"/><path d="M148.827 62.214c-1.013.136-2.767-1.69-3.317-2.981-.038-.088.178-.961.391-2.034a23.4 23.4 0 0 0 .318-2.053l4.12 1.441s-.554 1.37-.662 2.544a1.44 1.44 0 0 0 .002.28c0 .012.002.028.001.045.034.533.125 2.625-.853 2.758z" fill="#AD6359"/><path d="M149.679 59.409c-.001.012.002.03.001.048-.135.004-.279 0-.437-.02-2.475-.344-2.851-3.191-2.904-4.248l4.001 1.398s-.554 1.371-.664 2.543c-.007.099-.007.192.003.279z" fill="#263238"/><path d="M145.593 50.188c-.508 1.489.144 5.857 1.182 6.86 1.505 1.455 4.038 1.671 5.291-.153 1.215-1.769.264-7.447-.901-8.365-1.718-1.354-4.822-.54-5.572 1.658z" fill="#AD6359"/><path d="M149.907 52.953c-.004-.01-.021.017-.019.03.048.293.053.638-.201.77-.008.005-.005.02.005.017.32-.089.308-.546.215-.817z" fill="#263238"/><path d="M149.604 52.68c-.479.026-.392.983.052.958.437-.024.35-.98-.052-.958zM151.571 52.797c.001-.012.025.011.025.023.018.298.088.635.365.709.009.002.009.017-.001.017-.331-.016-.42-.465-.389-.75z" fill="#263238"/><path d="M151.807 52.463c.473-.08.598.873.16.947-.432.072-.556-.88-.16-.947zM149.186 52.277c.127-.045.237-.107.359-.165.137-.064.252-.102.333-.237.044-.073.012-.193-.055-.242-.155-.114-.342-.076-.51-.006a.738.738 0 0 0-.395.358c-.09.17.1.35.268.292zM152.133 51.948c-.134-.01-.257-.04-.389-.064-.149-.026-.271-.031-.385-.14-.061-.06-.062-.183-.011-.248.12-.151.31-.165.491-.14a.74.74 0 0 1 .476.24c.131.14-.005.365-.182.352zM149.84 55.674c.077.063.156.152.265.152.104-.001.22-.059.311-.104.009-.004.02.005.014.014a.399.399 0 0 1-.361.195c-.136-.01-.213-.12-.257-.24-.006-.018.017-.026.028-.017z" fill="#263238"/><path d="M150.07 54.758c.19.242.446.36.715.388a1.26 1.26 0 0 0 .433-.031.85.85 0 0 0 .064-.016c.034-.008.05-.039.053-.072v-.002a.104.104 0 0 0-.006-.03v-.002l-.003-.026a7.779 7.779 0 0 0-.068-.573c.087.034.529.186.512.067-.149-.98-.315-2.072-.67-3.017-.01-.032-.06-.02-.054.012.106.95.378 1.873.5 2.824-.141-.039-.37-.114-.49-.1-.031.011.116.664.115.767l-.001.011c-.379.084-.678-.005-1.074-.228-.024-.016-.046.006-.026.028z" fill="#263238"/><path d="M151.003 55.026s-.177.291-.445.415a.543.543 0 0 1-.325.05c-.243-.04-.268-.257-.242-.447a1.34 1.34 0 0 1 .08-.293s.375.291.932.275z" fill="#263238"/><path d="M150.558 55.441a.543.543 0 0 1-.325.05c-.243-.04-.268-.256-.242-.446.256.003.523.152.567.396z" fill="#FF97B8"/><path opacity=".2" d="M146.496 48.85c.059.587.203 2.405-.018 2.815-.211.394-.68 1.353-.96 1.533-.147-1.205-.142-2.373.076-3.01.178-.531.498-.983.902-1.337z" fill="#263238"/><path d="M150.248 49.973a1.455 1.455 0 0 1-1.261.644c-.491-.022-1.008-.299-1.236-.746-.007-.013-.027-.002-.021.01.244.479.697.843 1.251.853.519.01 1.041-.29 1.296-.742.012-.02-.016-.039-.029-.02zM148.336 46.587c-.834.117-1.547.67-1.785 1.275-.146.368-.132.722-.034 1.073.004.014.033.008.03-.007-.114-.56.09-1.237.65-1.704.538-.448 1.297-.656 1.997-.481.365.091.674.28.851.533.02.028.081.001.063-.028-.287-.495-1.017-.766-1.772-.661zM153.404 47.83a1.852 1.852 0 0 0-.902-.9c-.55-.257-1.125-.142-1.693-.016-.015.003-.01.027.005.024.484-.106.982-.185 1.459-.007.39.144.734.422.942.783.432.75.227 1.768-.474 2.28-.396.29-.916.406-1.398.31-.019-.003-.029.025-.01.03.884.199 1.837-.306 2.126-1.174a1.847 1.847 0 0 0-.055-1.33z" fill="#263238"/><path d="M145.379 51.07s-.964-1.406-.398-2.347c.321-.534 1.577-.61 1.577-.61s.321-.763 1.329-1.117c1.018-.357 2.329.113 2.329.113s.928-.68 1.918-.253c1.38.595 1.44 2.587.207 3.369-.866.549-2.201-.122-2.201-.122-.118.03-1.26.906-2.309-.082 0 0-.677.754-1.406.36.001.001-.265.718-1.046.69z" fill="#263238"/><path d="M146.405 53.758s-.965-1.417-1.607-1.075c-.641.343.072 2.389.817 2.676.745.288 1.025-.396 1.025-.396l-.235-1.205z" fill="#AD6359"/><path d="M145.018 53.264c-.012-.001-.015.016-.004.02.522.22.792.71.98 1.216-.154-.196-.365-.305-.628-.122-.013.01-.001.03.014.028.216-.043.37-.004.513.17.102.123.17.278.242.42.024.047.109.023.092-.032a.055.055 0 0 1-.004-.012c.021-.669-.488-1.612-1.205-1.688z" fill="#263238"/><path d="M134.718 82.633c.041.054 19.444 1.73 19.637 1.545.27-.26-.965-19.659-4.443-23.608-.856-.972-3.869-2.134-4.859-1.52-2.565 1.59-4.135 5.178-5.145 7.264-.747 1.545-1.706 4.202-2.592 6.934-1.465 4.499-2.742 9.189-2.598 9.385z" fill="url(#B)"/><path opacity=".1" d="M146.192 66.51a2.863 2.863 0 0 0-.156.829c.168-.238.272-.497.36-.76.084-.27.152-.541.157-.83a2.855 2.855 0 0 0-.361.76zm-7.782 5.05c-.081.266-.149.54-.154.829.168-.238.273-.497.361-.76.084-.267.149-.54.153-.83a3.028 3.028 0 0 0-.36.76zm11.371 11.36a2.96 2.96 0 0 0-.154.829c.168-.238.273-.497.364-.76.081-.27.145-.54.153-.83a2.983 2.983 0 0 0-.363.76zm-9.675.17-.012.037c.074.005.149.012.223.016.079-.26.144-.526.149-.813a2.81 2.81 0 0 0-.36.76zm-5.06-1.553a3.074 3.074 0 0 0-.156.83 2.82 2.82 0 0 0 .363-.764c.084-.266.149-.537.153-.83-.164.241-.269.5-.36.764zm9.892-4.949a3.112 3.112 0 0 0-.157.83c.172-.238.276-.498.364-.761.084-.27.149-.54.154-.83-.165.238-.27.498-.361.761zm-2.966-13.522a2.858 2.858 0 0 0-.154.83c.165-.238.269-.5.36-.764.085-.264.15-.534.157-.827a2.944 2.944 0 0 0-.363.761zm10.287 3.43c-.004-.003-.01-.002-.014-.005a2.814 2.814 0 0 0-.826-.157c.238.168.497.275.761.363.046.014.093.028.139.039-.019-.081-.038-.163-.06-.24zm-12.667 10.946a3.09 3.09 0 0 0-.83-.157c.238.171.497.276.764.363.264.085.534.15.827.157a2.892 2.892 0 0 0-.761-.363zm14.743 5.804a2.904 2.904 0 0 0-.83-.154c.241.168.5.273.764.36l.12.038a4.351 4.351 0 0 0-.004-.224c-.017-.008-.034-.016-.05-.02zm-7.211-2.82a2.974 2.974 0 0 0-.83-.153c.241.167.5.272.764.36.266.084.537.152.829.157a3.013 3.013 0 0 0-.763-.364zm5.236-5.873a2.91 2.91 0 0 0-.826-.153c.237.164.497.272.761.36.266.081.54.152.829.157a2.958 2.958 0 0 0-.764-.364zm-7.86-4.347a2.907 2.907 0 0 0-.829-.154c.24.168.499.272.763.36.267.085.538.152.83.157a2.98 2.98 0 0 0-.764-.363zm-6.546 10.688a2.886 2.886 0 0 0-.475-.695c.049.286.159.543.282.795.13.244.274.484.475.695-.05-.29-.16-.546-.282-.795zm8.112-20.207a2.914 2.914 0 0 0-.475-.695c.049.286.159.543.281.791.129.249.275.488.476.699a2.964 2.964 0 0 0-.282-.795zm4.121 9.087c-.131-.244-.271-.484-.475-.695.049.286.16.546.282.795.131.247.275.487.478.695a2.973 2.973 0 0 0-.285-.795zm-5.381 13.337c-.131-.245-.271-.485-.475-.695.049.286.159.543.282.795.057.105.114.21.18.312l.198.016a3.632 3.632 0 0 0-.185-.428zm4.68-5.805a3.088 3.088 0 0 0-.475-.695c.049.286.159.543.282.795.131.247.275.487.475.698a2.918 2.918 0 0 0-.282-.798zm-7.512-3.448c-.131-.245-.271-.488-.476-.699.05.29.16.546.283.798.13.245.274.485.478.695a2.934 2.934 0 0 0-.285-.794zm-5.363 1.615c-.028.093-.059.187-.086.28a2.968 2.968 0 0 0 .771-.51 2.627 2.627 0 0 0-.685.23zm5.907 4.239a3.084 3.084 0 0 0-.698.475c.289-.05.546-.16.797-.282a2.91 2.91 0 0 0 .692-.475c-.285.05-.542.16-.791.282zm-1.554-11.91c-.244.13-.484.27-.692.474.287-.049.543-.159.795-.281.245-.131.485-.275.695-.479-.289.053-.546.16-.798.285zm11.224 12.384a3.076 3.076 0 0 0-.698.476c.286-.05.546-.16.795-.282.248-.128.485-.271.695-.475a2.905 2.905 0 0 0-.792.281zm-4.116-7.067a3.069 3.069 0 0 0-.698.475c.286-.049.546-.16.794-.281.249-.129.485-.272.696-.476-.287.05-.543.16-.792.282zm1.902-10.353a3.094 3.094 0 0 0-.695.475c.289-.05.543-.159.795-.279.248-.131.487-.278.698-.479-.289.05-.546.16-.798.283z" fill="#000"/><path d="M149.154 64.766c4.043 3.125 11.869 8.6 15.386 7.685 3.73-.969 7.196-6.552 8.843-8.474.7-.816-6.099-4.722-7.034-4.054-.919.656-3.163 4.388-3.943 4.747-.781.36-7.364-2.425-11.673-3.606-5.065-1.389-4.863 1.163-1.579 3.702z" fill="#AD6359"/><path d="M168.733 52.26c.869-.119 1.257.703 1.257.703s.525-.464 1.197-.432c.77.037 1.049 1.26 1.049 1.26s.629-.359 1.335-.253c.733.11 1.191 1.304 1.191 1.304s.77-.013 1.315.516c.932.905.514 2.845.261 4.08-.253 1.237-2.934 4.92-3.455 5.157l-7.382-2.76s-.456-3.184.53-6.065c.409-1.193 1.726-3.376 2.702-3.51z" fill="#AD6359"/><path d="M169.851 52.992c-.754 1.156-1.126 2.471-1.572 3.763-.01.028.036.044.045.015.429-1.29 1.107-2.479 1.586-3.75.014-.034-.038-.059-.059-.028zM172.127 53.797c-.163.267-.238.586-.324.883a38.338 38.338 0 0 0-.708 2.917c-.005.03.038.045.045.015a48.989 48.989 0 0 1 .829-2.877c.094-.295.218-.598.244-.909.004-.046-.062-.07-.086-.03zM174.754 54.869c-.151.226-.189.55-.249.81-.069.297-.14.593-.212.888a51.118 51.118 0 0 1-.454 1.767c-.008.03.037.044.045.015.171-.594.349-1.185.515-1.78.081-.293.161-.586.239-.88.066-.249.177-.553.146-.814-.002-.015-.023-.018-.03-.006z" fill="#263238"/><path d="m165.01 61.102 7.427 5.73s-5.071 6.229-9.037 6.15c-3.967-.078-12.031-5.756-15.017-8.587-2.985-2.83-1.909-4.693 2.124-3.55 4.033 1.142 11.315 3.548 11.572 3.556.258.01 2.931-3.298 2.931-3.298z" fill="url(#C)"/><path opacity=".1" d="M150.02 62.769c-.193.2-.377.41-.517.665.261-.135.468-.317.672-.508.196-.201.379-.414.518-.67-.26.136-.471.32-.673.513zm14.203 6.558c-.195.2-.381.408-.519.667.26-.136.471-.32.673-.513a2.94 2.94 0 0 0 .515-.668c-.255.137-.47.319-.669.514zm1.528-7.653a3.386 3.386 0 0 0-.258.233c-.196.201-.382.408-.52.667.261-.136.471-.32.673-.513a3.65 3.65 0 0 0 .249-.277l-.144-.11zm-7.611 3.805a3.114 3.114 0 0 0-.666-.519c.136.26.319.47.512.673.197.194.41.377.666.517a2.947 2.947 0 0 0-.512-.67zm4.785 7.224c-.2-.192-.41-.377-.666-.516.135.257.318.468.511.67l.093.088c.103.012.206.022.302.027-.077-.094-.158-.18-.24-.269zm3.469-6.968a3.06 3.06 0 0 0-.665-.516c.134.257.318.468.511.67.2.193.411.38.665.517-.135-.26-.317-.468-.511-.67zm-6.602 3.99a2.957 2.957 0 0 0-.836.109c.279.082.559.105.837.109.278-.004.558-.02.838-.105a3.031 3.031 0 0 0-.839-.112zm11.609-3.691a4.735 4.735 0 0 0-.401-.028 2.958 2.958 0 0 0-.835.11c.279.083.558.104.837.11a3.58 3.58 0 0 0 .588-.047l-.189-.145zm-18.079-.414c-.276 0-.555.019-.835.104.278.087.558.11.836.113.278-.004.56-.023.837-.108a2.87 2.87 0 0 0-.838-.109zm2.882 3.628c.005.278.023.556.108.836.087-.278.108-.556.114-.835a3.06 3.06 0 0 0-.108-.837 2.96 2.96 0 0 0-.114.836zm6.47-3.273c.002.28.02.558.105.838a2.96 2.96 0 0 0 .113-.835 2.973 2.973 0 0 0-.107-.837 2.818 2.818 0 0 0-.111.834zm5.025 3.815c.006.28.024.56.105.837.09-.279.11-.557.113-.835a2.862 2.862 0 0 0-.107-.837c-.083.28-.103.558-.111.835z" fill="#000"/><path d="M167.303 65.3c-.515-.423-1.041-.834-1.566-1.245-.252-.197-.503-.397-.761-.586-.278-.203-.548-.434-.839-.617-.021-.013-.041.01-.024.028.237.25.517.466.772.699.236.216.483.42.726.628.507.433 1.015.866 1.532 1.286a97.588 97.588 0 0 0 3.163 2.453c.025.02.056-.017.032-.038a99.02 99.02 0 0 0-3.035-2.608zM155.62 69.77a213.005 213.005 0 0 1-3.704-2.689c-.947-.716-1.886-1.443-2.833-2.16-.008-.006-.021.007-.013.015.51.5 1.042.976 1.589 1.433-.043-.025-.085-.051-.128-.075-.267-.148-.54-.286-.811-.425-.016-.009-.03.018-.015.028.263.166.525.337.794.492.171.1.346.188.52.28.242.196.487.388.734.577.477.364 3.033 2.255 3.839 2.565.03.012.055-.023.028-.04zM51.959 36.102a26.457 26.457 0 0 1-.12-2.147 19.782 19.782 0 0 1-.057-3.086c.11-1.694.352-3.735 1.954-4.684.738-.438 1.602-.621 2.446-.712.88-.095 1.822-.1 2.618.346.315.176.584.416.786.716.581.21 1.168.452 1.648.842.628.33 1.022 1.04 1.273 1.674.303.763.432 1.579.525 2.39.086.756.124 1.501-.087 2.241-.183.646-.494 1.244-.782 1.848-.349.73-.677 1.478-.756 2.292-.003.027-.044.027-.043 0 .089-1.307.85-2.427 1.288-3.629a5.103 5.103 0 0 0 .306-2.132c-.057-.827-.166-1.67-.389-2.47-.19-.683-.506-1.462-1.056-1.956l.027.029c.612.665.843 1.576.992 2.443.166.967.252 1.96.132 2.939-.11.896-.433 1.73-.783 2.556-.347.821-.717 1.654-.839 2.546-.129.94.062 1.88.273 2.793.202.884.435 1.778.419 2.691a3.945 3.945 0 0 1-.767 2.296c-.915 1.229-2.836 2.139-4.22 1.111-.346-.256-.63-.588-.898-.921a12.495 12.495 0 0 1-.802-1.12 15.446 15.446 0 0 1-1.317-2.61c-.716-1.802-1.155-3.704-1.497-5.609-.085-.469-.162-.94-.23-1.412.085 1.07.221 2.136.428 3.198.37 1.904.886 3.843 1.805 5.56.238.446.502.877.792 1.29.316.45.673.862 1.017 1.29.02.025-.012.058-.037.035-.669-.63-1.22-1.43-1.683-2.22a13.679 13.679 0 0 1-1.167-2.636 26.377 26.377 0 0 1-1.199-5.782z" fill="#263238"/><path d="M58.444 40.021c.49 3.633 3.197 12.26 5.217 12.808 1.881.51 10.153-1.954 11.217-3.595.57-.879 2.826-8.947 1.815-8.465-1.276.61-10.64 5.344-11.026 5.247-.813-.204-2.399-3.407-3.77-5.198-2.988-3.906-3.681-2.493-3.453-.797z" fill="#F7A9A0"/><path d="m64.095 43.63-4.241 3.884s-1.5-5.55-1.67-8.119c-.17-2.568 1.933-2.279 5.91 4.234z" fill="#263238"/><path d="m38.423 74.638 8.096 6.083 35.46-47.195-8.097-6.083-35.46 47.195z" fill="url(#D)"/><path d="m34.526 79.834 8.095 6.084 3.9-5.191-8.095-6.083-3.9 5.19z" fill="#FF97B8"/><path d="m37.553 74.378 9.454 7.103 1.41-1.875-9.455-7.104-1.41 1.876zM39.111 72.305l9.454 7.103 1.41-1.876-9.455-7.103-1.409 1.876z" fill="#37474F"/><path d="m73.883 27.444 7.423-3.536 2.443-1.174-.43 2.687-1.331 8.114-1.703.56s.086-1.747.082-1.778l-1.703.56s.086-1.747.082-1.779l-1.686.574s.069-1.76.064-1.791l-1.685.573s.068-1.76.064-1.792l-1.685.574s.07-1.76.065-1.792z" fill="#EBEBEB"/><path d="m81.307 23.908 2.443-1.174-.431 2.687-2.012-1.513z" fill="#37474F"/><g opacity=".1" fill="#000"><path d="M50.02 72.05c2.195-3.035 4.42-6.048 6.648-9.057l6.719-9.005 6.779-8.959 3.411-4.463 3.44-4.443-3.311 4.54-3.338 4.518-6.719 9.004-6.78 8.959c-2.27 2.978-4.545 5.953-6.85 8.906zM47.772 70.63c2.196-3.034 4.42-6.047 6.648-9.056l6.719-9.005 6.78-8.959 3.41-4.463 3.44-4.442-3.31 4.539-3.339 4.518-6.719 9.005-6.78 8.958c-2.27 2.978-4.545 5.952-6.849 8.906zM45.523 69.21c2.196-3.034 4.42-6.047 6.649-9.057l6.719-9.004 6.779-8.96 3.411-4.462 3.44-4.443-3.311 4.54-3.338 4.518-6.719 9.004-6.78 8.959c-2.27 2.978-4.546 5.952-6.85 8.905z"/></g><path d="M77.497 40.477c.12 1.257.917 3.054.704 3.968-.193.825-.95.864-.95.864s.715.753.385 1.55c-.17.41-.974.5-.974.5s.546.629.21 1.32c-.27.55-1.036.557-1.036.557s.244.847-.21 1.32c-.92.96-5.862-.836-5.964-2.934-.047-.978 1.136-.474 1.136-.474s-1.527-1.136-1.183-2.164c.345-1.028 1.843-.28 1.843-.28s-1.47-1.114-1.006-2.145c.484-1.072 1.854-.067 1.854-.067s-.828-1.145-.292-1.852c.885-1.168 2.365 1.243 3.545 1.38l1.25-1.574.688.031z" fill="#F7A9A0"/><path d="M77.922 42.395c-.01-1.2 1.774-2.03 1.93-3.178.211-1.554-1.923-.73-3.043 1.23l-.602 1.675 1.715.273z" fill="#F7A9A0"/><path d="M75.716 49.256c.017.005.014.03-.004.027-1.77-.194-3.655-.95-4.982-2.153-.043-.04.002-.128.058-.093 1.605.978 3.107 1.718 4.928 2.219zM76.682 47.378c.02.006.01.039-.011.036-1.823-.21-3.922-1.12-5.288-2.687-.047-.054-.035-.148.023-.09.988.972 3.634 2.299 5.276 2.741zM72.242 42.346c1.368 1.452 3.064 2.319 4.934 2.958.024.009.01.042-.013.04-1-.063-2.149-.595-3.008-1.085-.823-.47-1.47-1.057-1.963-1.865-.02-.031.02-.078.05-.047z" fill="#263238"/><path d="M79.975 127.681c-.653.195-19.131-.427-19.82-.898-.264-.174-.33-2.872-.316-6.134v-.102c.002-.672.008-1.365.021-2.066.002-.097.004-.193.003-.29.071-4.706.247-9.587.247-9.587l12.202.302-.409 9.568-.022.376-.115 1.965-.012.202s6.967 3.401 7.67 3.999c.696.595 1.204 2.472.55 2.665z" fill="#F7A9A0"/><path d="M74.81 122.324c-.043-.015-.067-.028-.07-.04l.07.04z" fill="url(#E)"/><path d="M80.334 127.809c-.432.128-8.429-.094-14.246-.397a163.38 163.38 0 0 1-3.57-.222c-1.368-.106-2.284-.209-2.43-.309-.253-.173-.409-7.725-.314-8.613l12.185.406-.021 2.324s7.115 3.48 7.832 4.089c.711.608 1.229 2.522.564 2.722z" fill="url(#F)"/><path d="M79.915 127.039c-3.162-.186-15.93-.638-19.069-.582-.025.001-.026.018 0 .02 3.129.253 15.9.602 19.067.614.067.001.068-.047.002-.052zM72.234 120.305c-1.237-.275-2.766-.136-3.748.719-.038.033.01.086.05.075a17.5 17.5 0 0 1 3.688-.636c.09-.007.099-.138.01-.158zM73.114 120.877c-1.237-.275-2.766-.136-3.748.718-.038.034.01.087.05.076a17.565 17.565 0 0 1 3.688-.637c.09-.006.099-.137.01-.157zM73.995 121.449c-1.237-.275-2.767-.136-3.749.719-.038.033.01.086.05.075a17.566 17.566 0 0 1 3.688-.637c.091-.005.1-.137.01-.157zM74.874 122.022c-1.237-.275-2.766-.136-3.748.718-.038.034.01.087.05.076a17.505 17.505 0 0 1 3.688-.637c.09-.006.099-.137.01-.157z" fill="#263238"/><path d="M74.632 117.505c-.466-.691-1.387-.419-1.922 0-.866.678-1.64 1.758-2.015 2.786-.01.026.007.042.028.046 0 .095.082.198.19.162 1.04-.345 2.196-.585 3.1-1.24.529-.383 1.06-1.101.62-1.754zm-2.248 2.147c-.508.183-1.022.339-1.523.54.395-.543.764-1.099 1.213-1.601.214-.24.439-.482.684-.691.382-.324 1.873-.991 1.607.367-.147.749-1.376 1.168-1.981 1.385z" fill="#263238"/><path d="M67.542 119.858c1.01.472 2.192.49 3.28.634.112.015.172-.102.155-.195.02-.009.033-.027.019-.051-.562-.939-1.526-1.853-2.504-2.356-.604-.311-1.56-.404-1.888.362-.31.724.347 1.33.938 1.606zm-.532-.907c-.518-1.285 1.073-.91 1.509-.664.28.159.546.354.802.549.536.409 1.003.886 1.493 1.344-.53-.103-1.064-.16-1.597-.243-.636-.099-1.922-.279-2.207-.986zM53.348 54.81s6.431 32.296 6.883 34.68c.074.384-1.621 13.332-1.707 20.542-.036 3.003 1.356 4.927 1.356 4.927l12.75.573s1.397-1.889 1.427-3.831c.096-6.236-1.127-19.143-1.568-22.774-.577-4.766-7.859-34.117-7.859-34.117H53.349z" fill="#263238"/><path d="M60.56 112.594c2.035.027 1.451-.009 3.484.04.996.024 7.534.189 8.458.375.02.004.019.038-.002.041-.934.122-7.468-.156-8.463-.2-2.031-.089-1.447-.085-3.478-.197-.038-.001-.036-.059.002-.059zM61.897 89.59c-.143-1.778-.55-3.542-.884-5.29-.342-1.794-.681-3.588-1.021-5.383-.675-3.552-1.335-7.107-2.017-10.658-.772-4.014-1.87-7.938-2.68-11.944-.02-.093-.157-.049-.14.042 1.259 7.124 2.931 14.142 4.278 21.25l1.02 5.382c.33 1.75.703 3.497.988 5.254.148.915.224 1.833.198 2.76-.025.87-.115 1.738-.195 2.605-.166 1.82-.333 3.64-.492 5.46-.176 2.002-.35 4.004-.519 6.007-.172 2.035-.363 4.073-.464 6.114 0 .025.042.03.046.005.478-3.592.762-7.216 1.104-10.822.172-1.82.342-3.64.508-5.461.16-1.762.412-3.551.27-5.322z" fill="#37474F"/><path d="m63.283 54.81-4.015 29.783c-1.911-9.646-5.92-29.783-5.92-29.783h9.935z" fill="#37474F"/><path d="M58.504 128.481c-.662.163-19.086-1.386-19.749-1.89-.256-.188-.186-2.886-.01-6.143l.008-.102c.035-.671.075-1.362.123-2.062.007-.097.014-.193.017-.289l2.291-9.563 12.328.999-2.608 9.451-.04.374-.214 1.957-.022.201s6.787 3.747 7.459 4.379c.665.629 1.079 2.528.417 2.688z" fill="#F7A9A0"/><path d="M53.615 122.871c-.044-.017-.067-.031-.07-.043l.07.043z" fill="url(#G)"/><path d="M58.856 128.627c-.438.106-8.413-.517-14.209-1.112-1.34-.139-2.566-.276-3.553-.4-1.361-.175-2.272-.324-2.413-.431-.243-.186-.02-7.737.12-8.618l12.149 1.017-.138 2.319s6.932 3.833 7.617 4.477c.68.645 1.1 2.582.427 2.748z" fill="url(#H)"/><path d="M58.475 127.838c-3.148-.344-15.877-1.437-19.015-1.538-.025-.001-.026.016-.001.02 3.112.409 15.85 1.399 19.012 1.57.067.004.071-.044.005-.052zM51.143 120.726c-1.222-.337-2.756-.275-3.78.529-.04.032.006.087.047.078a17.576 17.576 0 0 1 3.715-.451c.091-.001.106-.132.018-.156zM51.993 121.342c-1.222-.337-2.756-.275-3.78.529-.04.031.005.087.047.078a17.447 17.447 0 0 1 3.715-.451c.09-.001.105-.132.018-.156zM52.844 121.957c-1.222-.336-2.757-.274-3.78.53-.04.031.005.087.047.077a17.51 17.51 0 0 1 3.715-.45c.09-.002.105-.133.018-.157zM53.694 122.573c-1.222-.337-2.756-.275-3.78.529-.04.032.005.087.047.078a17.574 17.574 0 0 1 3.715-.451c.09-.001.105-.132.018-.156z" fill="#263238"/><path d="M53.679 118.049c-.431-.713-1.365-.488-1.92-.096-.899.634-1.727 1.673-2.153 2.682-.01.024.006.041.026.047-.005.094.072.202.181.171 1.057-.293 2.224-.475 3.16-1.083.546-.355 1.113-1.046.706-1.721zm-2.354 2.033c-.516.156-1.037.287-1.548.462.422-.522.818-1.059 1.292-1.538.226-.229.462-.459.718-.655.398-.305 1.92-.896 1.586.447-.184.74-1.432 1.097-2.048 1.284z" fill="#263238"/><path d="M46.478 120.044c.987.522 2.165.6 3.244.797.111.021.178-.093.165-.187.02-.007.034-.025.021-.049-.514-.967-1.43-1.928-2.382-2.48-.588-.34-1.538-.481-1.904.267-.346.709.28 1.346.856 1.652zm-.485-.933c-.453-1.308 1.117-.855 1.54-.587.272.173.528.381.773.589.515.435.958.935 1.424 1.417-.524-.129-1.055-.213-1.583-.323-.63-.131-1.905-.375-2.154-1.096zM51.825 116.65l-12.385-1.374s-1.207-3.254-.463-6.345c1.57-6.517 6.029-16.537 6.347-17.686.485-1.751 1.567-15.863 2.618-24.587 0 0-1.993-4.723 1.737-11.857h14.962s-1.003 6.79-2.719 11.094c0 0 .318-.243-1.701.87 0 0-1.238 22.163-2.144 26.36-.748 3.463-2.05 14.565-3.596 20.174-.547 1.986-2.656 3.351-2.656 3.351z" fill="#263238"/><path d="M40.274 112.549c2.025.188 1.447.105 3.47.316.99.103 7.494.785 8.4 1.043.02.006.017.04-.005.041-.94.048-7.433-.748-8.42-.87-2.019-.249-1.437-.199-3.452-.471-.038-.005-.031-.063.007-.059zM62.49 65.6c-1.349.463-2.65 1.122-3.895 1.813-.048.027-.016.103.037.08 1.312-.563 2.65-1.102 3.928-1.737.1-.05.033-.192-.07-.157zM62.907 56.598c-.003-.045-.083-.055-.083-.006.01 1.557-.088 2.927-.22 4.383-.06.676-.604 4.41-1.776 4.138-.196-.046-.296-.239-.327-.535-.037-.355.097-.792.155-1.145.13-.782.235-1.566.302-2.356.125-1.474.131-2.948-.048-4.418-.006-.048-.075-.044-.075.005.001 2.04-.052 4.077-.357 6.098-.147.972-.636 2.434.38 2.584 1.035.152 1.704-2.298 1.83-2.968.353-1.87.367-3.888.22-5.78z" fill="#37474F"/><path d="M60.859 65.212a6.29 6.29 0 0 0-.264.775c-.056.203-.133.423-.11.636.005.04.06.045.082.017.137-.174.196-.413.272-.62.09-.239.184-.477.266-.718.055-.16-.18-.244-.246-.09zM50.65 55.526a12.542 12.542 0 0 0-1.64 4.537c-.256 1.632-.159 3.24.154 4.855.185.954.288 1.873.22 2.845-.07.974-.202 1.945-.31 2.915-.213 1.902-.423 3.804-.634 5.706-.42 3.788-.806 7.585-1.303 11.364a46.49 46.49 0 0 1-1.044 5.502c-.46 1.79-1.005 3.556-1.552 5.321-1.13 3.639-2.264 7.277-3.349 10.929-.135.457-.27.913-.398 1.372-.01.038.047.05.059.014 1.229-3.588 2.313-7.229 3.45-10.847 1.112-3.536 2.24-7.064 2.819-10.735.294-1.867.493-3.75.707-5.628l.646-5.704c.212-1.883.43-3.765.638-5.649l.314-2.853c.1-.91.225-1.824.197-2.74-.027-.913-.252-1.795-.396-2.692a12.51 12.51 0 0 1-.144-2.491 12.974 12.974 0 0 1 1.161-4.84c.171-.372.267-.762.47-1.118.058-.102-.004-.162-.064-.063z" fill="#37474F"/><path d="M55.066 56.162a24.235 24.235 0 0 1-.804 1.865c-.26.545-.546 1.101-.998 1.513-.425.388-.97.612-1.516.769-.32.092-.65.16-.978.213-.326.053-.683.08-.997.182-.06.02-.063.115.003.127.34.067.726.05 1.072.03.345-.021.688-.062 1.025-.139a3.696 3.696 0 0 0 1.657-.847c.49-.446.765-1.05 1.014-1.653.273-.659.468-1.34.608-2.038.011-.057-.066-.074-.086-.022z" fill="#37474F"/><path d="m64.128 51.267.56 3.533-15.384-.032s.44-11.353 4.744-15.755c2.153-2.201 4.596-1.959 6.11-.33.383.413 4.907 5.98 5.333 8.373.37 2.111-1.363 4.21-1.363 4.21z" fill="#455A64"/><path d="M53.778 39.581a.27.27 0 0 1-.27.271.241.241 0 0 1-.14-.041c.107-.144.219-.28.334-.414a.259.259 0 0 1 .076.184zm1.927-.271a.27.27 0 1 0 0 .54.27.27 0 0 0 0-.54zm2.198 0a.27.27 0 1 0 0 .54.27.27 0 0 0 0-.54zm2.198 0a.27.27 0 1 0 0 .54.27.27 0 0 0 0-.54zm-3.297-1.618a.27.27 0 1 0 0 .541.27.27 0 0 0 0-.54zm2.055.042a.27.27 0 1 0 .414.23v-.01a3.433 3.433 0 0 0-.414-.22zm-5.352 4.83a.27.27 0 1 0 0 .54.27.27 0 0 0 0-.54zm2.198 0a.27.27 0 1 0 0 .54.27.27 0 0 0 0-.54zm2.198 0a.27.27 0 1 0 0 .54.27.27 0 0 0 0-.54zm2.198 0a.27.27 0 1 0 0 .54.27.27 0 0 0 0-.54zm2.198 0a.27.27 0 1 0 0 .54.27.27 0 0 0 0-.54zm-9.722-1.555c-.086.15-.17.306-.252.462a.184.184 0 0 0 .083.016.27.27 0 0 0 .27-.271.258.258 0 0 0-.101-.207zm2.029-.063a.27.27 0 1 0 0 .541.27.27 0 0 0 0-.54zm2.198 0a.27.27 0 1 0 0 .541.27.27 0 0 0 0-.54zm2.198 0a.27.27 0 1 0 0 .541.27.27 0 0 0 0-.54zm2.198 0a.27.27 0 1 0 0 .541.27.27 0 0 0 0-.54zm-9.892 4.872a.27.27 0 1 0 0 .54.27.27 0 0 0 0-.54zm2.199 0a.27.27 0 1 0 0 .54.27.27 0 0 0 0-.54zm2.198 0a.27.27 0 1 0 0 .54.27.27 0 0 0 0-.54zm2.198 0a.27.27 0 1 0 0 .54.27.27 0 0 0 0-.54zm2.198 0a.27.27 0 1 0 0 .54.27.27 0 0 0 0-.54zm2.198 0a.27.27 0 1 0 0 .54.27.27 0 0 0 0-.54zm2.199 0a.27.27 0 1 0 0 .54.27.27 0 0 0 0-.54zm-12.09-1.617a.27.27 0 1 0 0 .54.27.27 0 0 0 0-.54zm2.198 0a.27.27 0 1 0 0 .54.27.27 0 0 0 0-.54zm2.198 0a.27.27 0 1 0 0 .54.27.27 0 0 0 0-.54zm2.198 0a.27.27 0 1 0 0 .54.27.27 0 0 0 0-.54zm2.198 0a.27.27 0 1 0 0 .54.27.27 0 0 0 0-.54zm2.198 0a.27.27 0 1 0 0 .54.27.27 0 0 0 0-.54zm-12.09 4.871a.27.27 0 1 0 0 .541.27.27 0 0 0 0-.54zm2.199 0a.27.27 0 1 0 0 .541.27.27 0 0 0 0-.54zm2.198 0a.27.27 0 1 0 0 .541.27.27 0 0 0 0-.54zm2.198 0a.27.27 0 1 0 0 .541.27.27 0 0 0 0-.54zm2.198 0a.27.27 0 1 0 0 .541.27.27 0 0 0 0-.54zm2.198 0a.27.27 0 1 0 0 .541.27.27 0 0 0 0-.54zm2.199 0a.27.27 0 1 0 0 .541.27.27 0 0 0 0-.54zM50.282 47.47c-.038.175-.076.35-.108.523.01.003.022.003.035.003a.27.27 0 0 0 .27-.271.263.263 0 0 0-.197-.255zm2.124-.014a.27.27 0 1 0 0 .54.27.27 0 0 0 0-.54zm2.199 0a.27.27 0 1 0 0 .54.27.27 0 0 0 0-.54zm2.198 0a.27.27 0 1 0 0 .54.27.27 0 0 0 0-.54zm2.198 0a.27.27 0 1 0 0 .54.27.27 0 0 0 0-.54zm2.198 0a.27.27 0 1 0 0 .54.27.27 0 0 0 0-.54zm2.198 0a.27.27 0 1 0 0 .54.27.27 0 0 0 0-.54zm2.138.011a.267.267 0 0 0-.006.52c.012-.173.019-.345.006-.52zm-14.227 4.86a.27.27 0 1 0 0 .541.27.27 0 0 0 0-.54zm2.198 0a.27.27 0 1 0 0 .541.27.27 0 0 0 0-.54zm2.198 0a.27.27 0 1 0 0 .541.27.27 0 0 0 0-.54zm2.198 0a.27.27 0 1 0 0 .541.27.27 0 0 0 0-.54zm2.198 0a.27.27 0 1 0 0 .541.27.27 0 0 0 0-.54zm2.198 0a.27.27 0 1 0 0 .541.27.27 0 0 0 0-.54zm2.01.078a.267.267 0 0 0 .067.433l-.067-.433zm-14.1-1.695a.27.27 0 1 0 0 .54.27.27 0 0 0 0-.54zm2.198 0a.27.27 0 1 0 0 .54.27.27 0 0 0 0-.54zm2.199 0a.27.27 0 1 0 0 .54.27.27 0 0 0 0-.54zm2.198 0a.27.27 0 1 0 0 .541.27.27 0 0 0 0-.541zm2.198 0a.27.27 0 1 0 0 .541.27.27 0 0 0 0-.541zm2.198 0a.27.27 0 1 0 0 .541.27.27 0 0 0 0-.541zm2.198 0a.27.27 0 1 0 0 .541.27.27 0 0 0 0-.541zM50.21 53.963a.27.27 0 1 0 0 .54.27.27 0 0 0 0-.54zm2.198 0a.27.27 0 1 0 0 .54.27.27 0 0 0 0-.54zm2.199 0a.27.27 0 1 0 0 .54.27.27 0 0 0 0-.54zm2.198 0a.27.27 0 1 0 0 .541.27.27 0 0 0 0-.54zm2.198 0a.27.27 0 1 0 0 .541.27.27 0 0 0 0-.54zm2.198 0a.27.27 0 1 0 0 .541.27.27 0 0 0 0-.54zm2.198 0a.27.27 0 1 0 0 .541.27.27 0 0 0 0-.54z" fill="#fff"/><path d="M61.545 50.14c-.816.091-1.635.21-2.43.422-.396.105-.784.228-1.172.36-.193.065-.387.123-.582.181-.201.06-.416.116-.626.124-.02 0-.019.029 0 .03.205.003.4.006.604-.017.194-.023.386-.066.575-.114.402-.103.8-.224 1.2-.331.81-.216 1.619-.43 2.442-.588.038-.007.028-.07-.01-.067zM63.577 50.849a17.996 17.996 0 0 0-2.034-.08c-.34.007-.677.034-1.015.07-.162.016-.323.036-.483.058-.177.025-.351.072-.528.094-.019.002-.019.03 0 .029.168-.015.339-.003.507-.008l.507-.019c.339-.01.678-.018 1.016-.033.678-.029 1.353-.05 2.031-.056.038 0 .034-.052 0-.055z" fill="#263238"/><path d="M54.783 41.133c-1.2 1.812-6.875 8.947-7.087 9.632-.21.684 1.077 2.105 1.064 2.384-.05 1.136-2.907 7.974-3.92 7.251-1.336-.95-6.092-6.946-5.458-10.109.634-3.163 12.843-11.043 14.838-11.786 1.995-.743 1.748.84.563 2.628z" fill="#F7A9A0"/><path d="M50.175 62.849c.77-.727-.528-1.217-.528-1.217s2.037.255 2.54-.802c.482-1.02-1.106-1.556-1.22-1.596.108.013 1.986.198 2.383-.916.41-1.157-1.277-1.422-1.386-1.439.105-.02 1.498-.31 1.606-1.224.185-1.572-3.869-1.084-4.889-1.859 0 0 .065-2.044.086-2.105 0 0-.316.846-.985 1.16-.83.39-1.591.66-1.875 1.136A1.16 1.16 0 0 0 46 55.368s-1.121.054-1.46.92c-.174.446.385 1.12.385 1.12s-.896.08-1.15.87c-.205.63.388 1.206.388 1.206s-.825.476-.825 1.188c-.003 1.435 5.19 3.734 6.837 2.177z" fill="#F7A9A0"/><path d="M44.242 59.59c-.016-.009-.032.012-.016.024 1.523 1.173 3.556 1.995 5.488 2.052.064.001.094-.1.025-.116-1.981-.44-3.705-.987-5.496-1.96zM44.894 57.406c-.02-.01-.037.022-.018.036 1.576 1.2 3.89 2.063 6.126 1.865.077-.006.139-.09.05-.088-1.497.018-4.55-.929-6.158-1.813zM52.115 56.812c-2.15.106-4.12-.488-6.054-1.389-.025-.012-.039.025-.02.041.826.699 2.119 1.144 3.154 1.406.992.25 1.936.277 2.924.017.038-.01.042-.077-.004-.075z" fill="#263238"/><path d="M44.105 59.49c-.376-.341-.67-.8-.538-1.326.06-.24.21-.444.41-.586.25-.176.63-.19.813-.211-.347-.412-.542-.988-.268-1.49.126-.232.334-.352.583-.447.135-.05.701-.13.866-.106a1.186 1.186 0 0 1-.418-.98c.029-.426.292-.75.638-.979.398-.263.868-.379 1.311-.541.23-.085.459-.169.664-.306.187-.124.341-.287.494-.612.02-.045.025-.002.009.035-.083.194-.153.319-.275.463a2.15 2.15 0 0 1-.42.384c-.377.265-.825.387-1.234.593-.357.18-.691.435-.869.804-.183.38-.1.818.151 1.144.015.015.008.044-.024.046-.19.015-.64.154-.752.214-.192.102-.384.229-.483.422-.222.438-.117.993.161 1.396.01.014-.454.087-.771.34-.15.121-.254.304-.311.486-.137.43.001.927.33 1.231.006.005.007.01.008.017.001.004.002.007.001.01a.023.023 0 0 1-.007.017 6.387 6.387 0 0 1-.275.166c-.008.002-.009-.008-.004-.015.009-.01.173-.151.21-.17zM51.704 45.535l-5.03-2.79s5.126-3.401 7.508-4.377c2.381-.976 2.436 1.327-2.478 7.167z" fill="#263238"/><path d="M56.84 37.307c-.811.283-1.06.853-.843 1.536.243.764 2.486 2.333 3.467 1.883.849-.389.224-2.403-.203-2.87-.243-.266-1.272-.948-2.42-.549z" fill="#263238"/><path d="M56.244 38.678c.11.277 1.757 1.937 3.06 1.681.424-.084.068-2.42.068-2.42l.013-.18.182-2.498-3.112-1.401-.446-.18s-.005.687-.002 1.542v.122c-.001.048-.003.094-.001.14-.002.127-.002.258 0 .387 0 .1.001.196.006.3.002.104.007.205.01.31.044 1.027.177 2.079.222 2.197z" fill="#F7A9A0"/><path d="M56.007 35.221c.979 1.822 2.633 2.379 3.378 2.538l.182-2.498-3.112-1.402-.446-.18s-.004.687-.002 1.542z" fill="#263238"/><path d="M62.673 31.528c.428 4.376-2.144 5.128-3.088 5.219-.857.083-3.785.257-4.663-4.051-.879-4.31 1.02-5.892 2.97-6.185 1.95-.294 4.352.641 4.78 5.017z" fill="#F7A9A0"/><path d="M61.575 30.432c-.104-.002-.2-.02-.302-.033-.115-.014-.209-.014-.301-.093-.05-.043-.056-.138-.019-.19.086-.12.232-.139.372-.128a.57.57 0 0 1 .376.166c.106.102.011.28-.126.278zM58.622 30.836c.102-.022.192-.059.29-.091.11-.037.202-.054.277-.15.04-.052.027-.146-.019-.19-.108-.102-.254-.091-.39-.053a.57.57 0 0 0-.335.236c-.085.12.043.277.177.248zM59.465 31.847c-.004-.01-.022.017-.02.03.046.295.049.642-.208.774-.008.004-.005.018.005.016.322-.086.314-.546.223-.82z" fill="#263238"/><path d="M59.161 31.57c-.482.022-.402.985.045.965.44-.02.36-.983-.045-.965z" fill="#263238"/><path d="M58.977 31.637c-.08.061-.154.164-.255.182-.116.022-.213-.072-.298-.162-.01-.01-.016 0-.016.012.013.185.1.368.3.38.182.01.298-.165.33-.354.005-.035-.03-.083-.061-.058zM61.106 31.58c.001-.012.024.012.025.024.013.3.078.64.355.719.01.002.01.017 0 .017-.334-.022-.416-.475-.38-.76z" fill="#263238"/><path d="M61.349 31.248c.478-.073.588.887.145.954-.435.067-.545-.894-.145-.954z" fill="#263238"/><path d="M61.556 31.288c.082.043.168.126.259.122.106-.005.172-.118.227-.225.006-.011.015-.004.016.008.026.183-.013.381-.185.437-.157.05-.293-.094-.358-.271-.012-.033.008-.088.041-.07zM59.612 34.267c.074.067.149.16.258.166.105.005.225-.047.319-.087.01-.004.019.005.013.014a.403.403 0 0 1-.373.177c-.137-.018-.208-.133-.246-.256-.005-.017.018-.024.029-.014zM60.756 33.071s.104.44.123.65c.002.019-.048.033-.119.044-.003.001-.005.003-.008 0-.366.094-.751.001-1.005-.28-.016-.02.008-.044.029-.032.295.177.606.2.936.174.009-.059-.203-.746-.17-.752.114-.02.347.036.487.063-.19-.922-.525-1.805-.7-2.725-.006-.033.041-.048.054-.019.417.901.658 1.957.878 2.903.03.119-.418.002-.505-.026z" fill="#263238"/><path d="M54.935 32.34c1.035-.023.975-1.655.975-1.655s1.17-.143 1.197-2.04c0 0 .6 1.125 2.199 1.308.338.039-.818-.798-.818-.798s1.391 1.181 3.887.637c.176-.038-.1-2.937-2.097-3.778-1.998-.84-3.943-.01-5.123 1.271 0 0-1.422.71-1.54 2.083-.12 1.372.918 2.981 1.32 2.972z" fill="#263238"/><path d="M58.803 33.513a1.42 1.42 0 0 1-1.385-1.05 1.418 1.418 0 0 1 1.002-1.735 1.418 1.418 0 0 1 1.734 1.002 1.418 1.418 0 0 1-1.35 1.783zm-.032-2.643a1.229 1.229 0 0 0-1.17 1.544c.175.653.849 1.043 1.502.868a1.229 1.229 0 0 0 .868-1.502 1.23 1.23 0 0 0-1.2-.91zM62.024 33.078c-.542.006-1.04-.543-1.135-1.275-.048-.37.012-.733.17-1.02.162-.299.408-.484.693-.52.286-.038.57.078.804.325.225.238.376.573.424.943.1.774-.287 1.465-.863 1.54a.741.741 0 0 1-.093.007zm-.176-2.633a.593.593 0 0 0-.071.005c-.224.03-.42.18-.553.423-.138.253-.19.575-.148.905.088.671.542 1.168 1.016 1.105.473-.061.787-.657.7-1.327a1.504 1.504 0 0 0-.374-.838c-.17-.18-.37-.275-.57-.273z" fill="#455A64"/><path d="m60.128 31.899-.14-.128c.19-.207.651-.511 1.042-.189l-.12.146c-.35-.289-.765.152-.782.171zM53.918 33.072l-.178-.065c.03-.082.306-.814.716-.936.384-.114 2.932-.205 3.04-.208l.007.189c-.73.025-2.696.111-2.992.2-.271.08-.52.62-.593.82z" fill="#455A64"/><path d="M55.65 32.963s-.975-1.362-1.594-1.013c-.62.349.125 2.33.859 2.595.734.264.992-.411.992-.411l-.257-1.171z" fill="#F7A9A0"/><path d="M54.283 32.513c-.012-.001-.014.015-.003.02.515.201.79.674.984 1.164-.154-.188-.363-.29-.615-.105-.014.01 0 .03.014.027.21-.047.361-.012.505.154.102.118.172.268.246.405.024.045.107.02.088-.033a.141.141 0 0 0-.004-.011c.006-.654-.512-1.563-1.215-1.621z" fill="#263238"/><defs><linearGradient id="r" x1="119.723" y1="84.093" x2="122.163" y2="84.103" gradientUnits="userSpaceOnUse"><stop stop-color="#E34C98"/><stop offset="1" stop-color="#7C1E84"/></linearGradient><linearGradient id="a" x1="30.518" y1="59.406" x2="181.267" y2="60.301" gradientUnits="userSpaceOnUse"><stop stop-color="#E34C98"/><stop offset="1" stop-color="#7C1E84"/></linearGradient><linearGradient id="c" x1="153.603" y1="98.847" x2="155.319" y2="98.854" gradientUnits="userSpaceOnUse"><stop stop-color="#E34C98"/><stop offset="1" stop-color="#7C1E84"/></linearGradient><linearGradient id="d" x1="191.269" y1="101.358" x2="192.985" y2="101.366" gradientUnits="userSpaceOnUse"><stop stop-color="#E34C98"/><stop offset="1" stop-color="#7C1E84"/></linearGradient><linearGradient id="e" x1="208.451" y1="109.191" x2="210.167" y2="109.199" gradientUnits="userSpaceOnUse"><stop stop-color="#E34C98"/><stop offset="1" stop-color="#7C1E84"/></linearGradient><linearGradient id="f" x1="143.013" y1="92.412" x2="208.866" y2="92.861" gradientUnits="userSpaceOnUse"><stop stop-color="#E34C98"/><stop offset="1" stop-color="#7C1E84"/></linearGradient><linearGradient id="g" x1="186.519" y1="50.642" x2="198.313" y2="50.671" gradientUnits="userSpaceOnUse"><stop stop-color="#E34C98"/><stop offset="1" stop-color="#7C1E84"/></linearGradient><linearGradient id="h" x1="167.07" y1="36.042" x2="184.945" y2="36.117" gradientUnits="userSpaceOnUse"><stop stop-color="#E34C98"/><stop offset="1" stop-color="#7C1E84"/></linearGradient><linearGradient id="i" x1="166.689" y1="9.262" x2="185.32" y2="9.358" gradientUnits="userSpaceOnUse"><stop stop-color="#E34C98"/><stop offset="1" stop-color="#7C1E84"/></linearGradient><linearGradient id="j" x1="169.09" y1="69.901" x2="182.877" y2="70.072" gradientUnits="userSpaceOnUse"><stop stop-color="#E34C98"/><stop offset="1" stop-color="#7C1E84"/></linearGradient><linearGradient id="k" x1="87.619" y1="40.502" x2="124.14" y2="40.631" gradientUnits="userSpaceOnUse"><stop stop-color="#E34C98"/><stop offset="1" stop-color="#7C1E84"/></linearGradient><linearGradient id="l" x1="119.476" y1="79.96" x2="130.337" y2="80.006" gradientUnits="userSpaceOnUse"><stop stop-color="#E34C98"/><stop offset="1" stop-color="#7C1E84"/></linearGradient><linearGradient id="m" x1="123.861" y1="74.017" x2="125.949" y2="74.03" gradientUnits="userSpaceOnUse"><stop stop-color="#E34C98"/><stop offset="1" stop-color="#7C1E84"/></linearGradient><linearGradient id="n" x1="127.834" y1="75.715" x2="130.275" y2="75.726" gradientUnits="userSpaceOnUse"><stop stop-color="#E34C98"/><stop offset="1" stop-color="#7C1E84"/></linearGradient><linearGradient id="o" x1="130.147" y1="79.811" x2="131.626" y2="79.815" gradientUnits="userSpaceOnUse"><stop stop-color="#E34C98"/><stop offset="1" stop-color="#7C1E84"/></linearGradient><linearGradient id="p" x1="127.968" y1="83.961" x2="130.408" y2="83.971" gradientUnits="userSpaceOnUse"><stop stop-color="#E34C98"/><stop offset="1" stop-color="#7C1E84"/></linearGradient><linearGradient id="q" x1="124.049" y1="85.792" x2="126.137" y2="85.804" gradientUnits="userSpaceOnUse"><stop stop-color="#E34C98"/><stop offset="1" stop-color="#7C1E84"/></linearGradient><linearGradient id="b" x1="149.656" y1="102.209" x2="153.178" y2="102.224" gradientUnits="userSpaceOnUse"><stop stop-color="#E34C98"/><stop offset="1" stop-color="#7C1E84"/></linearGradient><linearGradient id="s" x1="118.373" y1="79.998" x2="119.851" y2="80.002" gradientUnits="userSpaceOnUse"><stop stop-color="#E34C98"/><stop offset="1" stop-color="#7C1E84"/></linearGradient><linearGradient id="t" x1="119.59" y1="75.849" x2="122.031" y2="75.859" gradientUnits="userSpaceOnUse"><stop stop-color="#E34C98"/><stop offset="1" stop-color="#7C1E84"/></linearGradient><linearGradient id="u" x1="123.23" y1="79.96" x2="126.579" y2="79.974" gradientUnits="userSpaceOnUse"><stop stop-color="#E34C98"/><stop offset="1" stop-color="#7C1E84"/></linearGradient><linearGradient id="v" x1="183.157" y1="111.345" x2="189.54" y2="111.352" gradientUnits="userSpaceOnUse"><stop stop-color="#E34C98"/><stop offset="1" stop-color="#7C1E84"/></linearGradient><linearGradient id="w" x1="182.268" y1="96.599" x2="183.517" y2="96.601" gradientUnits="userSpaceOnUse"><stop stop-color="#E34C98"/><stop offset="1" stop-color="#7C1E84"/></linearGradient><linearGradient id="x" x1="113.306" y1="117.855" x2="127.787" y2="117.901" gradientUnits="userSpaceOnUse"><stop stop-color="#E34C98"/><stop offset="1" stop-color="#7C1E84"/></linearGradient><linearGradient id="y" x1="161.828" y1="123.836" x2="182.56" y2="124.088" gradientUnits="userSpaceOnUse"><stop stop-color="#E34C98"/><stop offset="1" stop-color="#7C1E84"/></linearGradient><linearGradient id="z" x1="144.28" y1="62.268" x2="163.074" y2="62.374" gradientUnits="userSpaceOnUse"><stop stop-color="#E34C98"/><stop offset="1" stop-color="#7C1E84"/></linearGradient><linearGradient id="A" x1="187.726" y1="57.038" x2="192.518" y2="57.069" gradientUnits="userSpaceOnUse"><stop stop-color="#E34C98"/><stop offset="1" stop-color="#7C1E84"/></linearGradient><linearGradient id="B" x1="134.707" y1="71.536" x2="154.396" y2="71.6" gradientUnits="userSpaceOnUse"><stop stop-color="#E34C98"/><stop offset="1" stop-color="#7C1E84"/></linearGradient><linearGradient id="C" x1="146.678" y1="66.743" x2="172.442" y2="66.967" gradientUnits="userSpaceOnUse"><stop stop-color="#E34C98"/><stop offset="1" stop-color="#7C1E84"/></linearGradient><linearGradient id="D" x1="64.249" y1="57.123" x2="56.155" y2="51.033" gradientUnits="userSpaceOnUse"><stop stop-color="#E34C98"/><stop offset="1" stop-color="#7C1E84"/></linearGradient><linearGradient id="E" x1="74.74" y1="122.304" x2="74.811" y2="122.305" gradientUnits="userSpaceOnUse"><stop stop-color="#E34C98"/><stop offset="1" stop-color="#7C1E84"/></linearGradient><linearGradient id="F" x1="59.746" y1="123.057" x2="80.645" y2="123.249" gradientUnits="userSpaceOnUse"><stop stop-color="#E34C98"/><stop offset="1" stop-color="#7C1E84"/></linearGradient><linearGradient id="G" x1="53.545" y1="122.85" x2="53.615" y2="122.85" gradientUnits="userSpaceOnUse"><stop stop-color="#E34C98"/><stop offset="1" stop-color="#7C1E84"/></linearGradient><linearGradient id="H" x1="38.573" y1="123.353" x2="59.201" y2="123.522" gradientUnits="userSpaceOnUse"><stop stop-color="#E34C98"/><stop offset="1" stop-color="#7C1E84"/></linearGradient></defs></svg>