<svg width="213" height="159" fill="none" xmlns="http://www.w3.org/2000/svg"><path d="M212.802 139.069H.448v.107h212.354v-.107zM191.524 145.905h-14.067v.106h14.067v-.106zM141.12 147.058h-3.692v.106h3.692v-.106zM177.032 141.961h-8.151v.106h8.151v-.106zM41.071 142.674H22.727v.106H41.07v-.106zM47.544 142.674h-2.69v.106h2.69v-.106zM96.07 144.469H56.285v.106H96.07v-.106zM101.11 120.128H19.099a2.427 2.427 0 0 1-2.424-2.424V2.424A2.427 2.427 0 0 1 19.099 0h82.011a2.427 2.427 0 0 1 2.424 2.424v115.28a2.428 2.428 0 0 1-2.424 2.424zM19.099.107a2.32 2.32 0 0 0-2.318 2.318v115.279a2.32 2.32 0 0 0 2.318 2.318h82.011a2.32 2.32 0 0 0 2.317-2.318V2.424A2.32 2.32 0 0 0 101.11.106H19.099zM192.972 120.128h-82.01a2.427 2.427 0 0 1-2.424-2.424V2.424A2.427 2.427 0 0 1 110.962 0h82.01a2.428 2.428 0 0 1 2.425 2.424v115.28a2.428 2.428 0 0 1-2.425 2.424zM110.962.107a2.32 2.32 0 0 0-2.318 2.318v115.279a2.32 2.32 0 0 0 2.318 2.318h82.01a2.32 2.32 0 0 0 2.318-2.318V2.424a2.32 2.32 0 0 0-2.318-2.318h-82.01z" fill="#EBEBEB"/><path d="M163.575 59.408a2.234 2.234 0 0 1 2.875-2.14 4.73 4.73 0 0 1 5.551-5.334 4.13 4.13 0 0 1 3.529-1.986 4.138 4.138 0 0 1 4.136 4.077c.023 0 .046-.004.069-.004a3.81 3.81 0 0 1 0 7.62h-13.993l.003-.003a2.232 2.232 0 0 1-2.17-2.23zM38.439 49.32a2.234 2.234 0 0 1 2.875-2.138 4.73 4.73 0 0 1 5.55-5.334 4.132 4.132 0 0 1 7.666 2.09c.023 0 .045-.003.069-.003a3.81 3.81 0 1 1 0 7.62H40.607l.003-.004a2.232 2.232 0 0 1-2.171-2.23zM95.875 16.998H87.73a5.36 5.36 0 0 0-5.326-5.954c-.066 0-.13.008-.195.01a4.74 4.74 0 0 0-9.182 1.653v.01a4.521 4.521 0 0 0-4.304 4.281h-.215a2.39 2.39 0 0 0-2.383 2.383 2.39 2.39 0 0 0 2.383 2.383h27.366a2.39 2.39 0 0 0 2.383-2.383 2.39 2.39 0 0 0-2.383-2.383zM156.194 20.401a7.187 7.187 0 0 0-6.096-3.385 7.186 7.186 0 0 0-6.159 3.487 3.843 3.843 0 0 0-1.038-.146 3.856 3.856 0 0 0-3.856 3.856l.001.005h-2.033a1.93 1.93 0 0 0-1.925 1.925 1.93 1.93 0 0 0 1.925 1.925h7.015a7.185 7.185 0 0 0 11.209 1.178c.121.01.243.019.367.019a4.451 4.451 0 0 0 .59-8.864z" fill="#423C4F"/><path d="M113.346 47.63a7.187 7.187 0 0 0-6.097-3.384 7.185 7.185 0 0 0-6.158 3.486 3.843 3.843 0 0 0-1.038-.145 3.856 3.856 0 0 0-3.856 3.855v.005h-2.032a1.931 1.931 0 0 0-1.925 1.926c0 1.058.866 1.925 1.925 1.925h7.014a7.187 7.187 0 0 0 11.21 1.177c.121.01.243.02.367.02a4.451 4.451 0 0 0 .59-8.864z" fill="#F0F0F0"/><path d="M24.418 139.005v-20.299h1.735v-9.672h2.538v-33.63h3.667v-4.339l7.832-3.652v-4.375h1.084v12.366h1.519v33.63h1.519V91.351h4.122V82.24h1.15v26.795h3.131V98.836h2.061v-2.603h4.773v-8.896h2.614v-6.292h3.214V71.88h1.146v9.166h3.213v6.292h2.614v8.896h4.773v2.603h2.062v10.198h2.444V96.233h4.773V68.679h1.52V65.64h10.196v3.038h2.17v19.96h8.679v1.953h3.254v1.519h-3.254v7.81h9.112V73.886h1.953v-5.533h4.231V48.718h1.193v19.635h3.037v5.533h17.808v-1.821h1.085v12.367h1.518v.217h.913v12.366h1.518v3.363h3.21v-9.112h1.151v21.696h1.28v-9.112h1.151v14.211h.699v-10.197h2.062v-2.604h4.773v-8.895h2.614v-6.292h3.213v-9.167h1.146v9.166h3.214v6.293h2.613v8.895h4.774v2.604h2.061v9.98h.37v.217h1.02v20.944H24.417z" fill="#E6E6E6"/><path d="M136.364 75.103h-1.229v1.23h1.229v-1.23zM136.364 77.165h-1.229v1.23h1.229v-1.23zM136.364 85.408h-1.229v1.23h1.229v-1.23zM136.364 87.47h-1.229v1.23h1.229v-1.23zM136.364 89.531h-1.229v1.23h1.229v-1.23zM136.364 95.715h-1.229v1.23h1.229v-1.23zM136.364 97.776h-1.229v1.23h1.229v-1.23zM134.413 83.348h-1.23v1.23h1.23v-1.23zM134.412 85.408h-1.229v1.23h1.229v-1.23zM134.413 87.47h-1.23v1.23h1.23v-1.23zM134.413 89.531h-1.23v1.23h1.23v-1.23zM134.412 91.592h-1.229v1.23h1.229v-1.23zM134.413 95.715h-1.23v1.23h1.23v-1.23zM134.412 97.776h-1.229v1.23h1.229v-1.23zM132.46 75.103h-1.23v1.23h1.23v-1.23zM132.46 77.165h-1.23v1.23h1.23v-1.23zM132.459 79.225h-1.23v1.23h1.23v-1.23zM132.46 81.286h-1.23v1.23h1.23v-1.23zM132.46 83.348h-1.23v1.23h1.23v-1.23zM132.459 85.408h-1.23v1.23h1.23v-1.23zM132.46 87.47h-1.23v1.23h1.23v-1.23zM132.46 89.531h-1.23v1.23h1.23v-1.23zM132.459 91.592h-1.23v1.23h1.23v-1.23zM132.46 93.654h-1.23v1.23h1.23v-1.23zM132.459 97.776h-1.23v1.23h1.23v-1.23zM130.506 75.103h-1.229v1.23h1.229v-1.23zM130.506 77.165h-1.229v1.23h1.229v-1.23zM130.506 79.225h-1.229v1.23h1.229v-1.23zM130.506 81.286h-1.229v1.23h1.229v-1.23zM130.506 83.348h-1.229v1.23h1.229v-1.23zM130.506 85.408h-1.229v1.23h1.229v-1.23zM130.506 87.47h-1.229v1.23h1.229v-1.23zM130.506 106.02h-1.229v1.23h1.229v-1.23zM128.554 75.103h-1.229v1.23h1.229v-1.23zM128.554 77.165h-1.229v1.23h1.229v-1.23zM128.554 79.225h-1.23v1.23h1.23v-1.23zM128.554 81.286h-1.229v1.23h1.229v-1.23zM128.554 83.348h-1.229v1.23h1.229v-1.23zM128.554 85.408h-1.23v1.23h1.23v-1.23zM128.554 87.47h-1.229v1.23h1.229v-1.23zM128.554 89.531h-1.229v1.23h1.229v-1.23zM128.554 101.898h-1.229v1.23h1.229v-1.23zM128.554 103.959h-1.23v1.23h1.23v-1.23zM128.554 106.02h-1.229v1.23h1.229v-1.23zM128.554 108.082h-1.229v1.229h1.229v-1.229zM128.554 116.325h-1.23v1.23h1.23v-1.23zM126.602 75.103h-1.23v1.23h1.23v-1.23zM126.602 77.165h-1.23v1.23h1.23v-1.23zM126.601 79.225h-1.229v1.23h1.229v-1.23zM126.602 81.286h-1.23v1.23h1.23v-1.23zM126.602 83.348h-1.23v1.23h1.23v-1.23zM126.601 85.408h-1.229v1.23h1.229v-1.23zM126.602 87.47h-1.23v1.23h1.23v-1.23zM126.602 89.531h-1.23v1.23h1.23v-1.23zM126.601 91.592h-1.229v1.23h1.229v-1.23zM126.602 93.654h-1.23v1.23h1.23v-1.23zM126.602 99.837h-1.23v1.229h1.23v-1.23zM126.602 101.898h-1.23v1.23h1.23v-1.23zM126.601 103.959h-1.229v1.23h1.229v-1.23zM126.602 106.02h-1.23v1.23h1.23v-1.23zM126.602 108.082h-1.23v1.229h1.23v-1.229zM126.601 116.325h-1.229v1.23h1.229v-1.23zM124.648 75.103h-1.229v1.23h1.229v-1.23zM124.648 77.165h-1.229v1.23h1.229v-1.23zM124.648 79.225h-1.229v1.23h1.229v-1.23zM124.648 81.286h-1.229v1.23h1.229v-1.23zM124.648 83.348h-1.229v1.23h1.229v-1.23zM124.648 85.408h-1.229v1.23h1.229v-1.23zM124.648 87.47h-1.229v1.23h1.229v-1.23zM124.648 89.531h-1.229v1.23h1.229v-1.23zM124.648 91.592h-1.229v1.23h1.229v-1.23zM124.648 93.654h-1.229v1.23h1.229v-1.23zM124.648 95.715h-1.229v1.23h1.229v-1.23zM124.648 97.776h-1.229v1.23h1.229v-1.23zM124.648 99.837h-1.229v1.229h1.229v-1.23zM124.648 101.898h-1.229v1.23h1.229v-1.23zM124.648 103.959h-1.229v1.23h1.229v-1.23zM124.648 106.02h-1.229v1.23h1.229v-1.23zM124.648 108.082h-1.229v1.229h1.229v-1.229zM124.648 110.142h-1.229v1.229h1.229v-1.229zM122.696 75.103h-1.23v1.23h1.23v-1.23zM122.696 77.165h-1.23v1.23h1.23v-1.23zM122.696 79.225h-1.23v1.23h1.23v-1.23zM122.696 81.286h-1.23v1.23h1.23v-1.23zM122.696 83.348h-1.23v1.23h1.23v-1.23zM122.696 85.408h-1.23v1.23h1.23v-1.23zM122.696 87.47h-1.23v1.23h1.23v-1.23zM122.696 89.531h-1.23v1.23h1.23v-1.23zM122.696 91.592h-1.23v1.23h1.23v-1.23zM122.696 93.654h-1.23v1.23h1.23v-1.23zM122.696 99.837h-1.23v1.229h1.23v-1.23zM122.696 101.898h-1.23v1.23h1.23v-1.23zM122.696 103.959h-1.23v1.23h1.23v-1.23zM122.696 106.02h-1.23v1.23h1.23v-1.23zM120.743 75.103h-1.229v1.23h1.229v-1.23zM120.743 77.165h-1.229v1.23h1.229v-1.23zM120.743 79.225h-1.229v1.23h1.229v-1.23zM120.743 81.286h-1.229v1.23h1.229v-1.23zM120.743 83.348h-1.229v1.23h1.229v-1.23zM120.743 85.408h-1.229v1.23h1.229v-1.23zM120.743 87.47h-1.229v1.23h1.229v-1.23zM120.743 89.531h-1.229v1.23h1.229v-1.23zM120.743 91.592h-1.229v1.23h1.229v-1.23zM120.743 93.654h-1.229v1.23h1.229v-1.23zM120.743 99.837h-1.229v1.229h1.229v-1.23zM120.743 101.898h-1.229v1.23h1.229v-1.23zM120.743 103.959h-1.229v1.23h1.229v-1.23zM98.757 69.752h-1.23v1.23h1.23v-1.23zM98.757 71.813h-1.23v1.229h1.23v-1.23zM98.757 73.874h-1.23v1.23h1.23v-1.23zM98.757 75.936h-1.23v1.23h1.23v-1.23zM98.757 77.996h-1.23v1.23h1.23v-1.23zM98.757 80.057h-1.23v1.23h1.23v-1.23zM98.757 82.12h-1.23v1.229h1.23v-1.23zM98.757 84.179h-1.23v1.23h1.23v-1.23zM98.757 90.362h-1.23v1.23h1.23v-1.23zM98.757 92.424h-1.23v1.23h1.23v-1.23zM96.805 69.752h-1.23v1.23h1.23v-1.23zM96.805 71.813h-1.23v1.229h1.23v-1.23zM96.805 73.874h-1.23v1.23h1.23v-1.23zM96.805 75.936h-1.23v1.23h1.23v-1.23zM96.805 77.996h-1.23v1.23h1.23v-1.23zM96.805 80.057h-1.23v1.23h1.23v-1.23zM96.805 82.12h-1.23v1.229h1.23v-1.23zM96.805 84.179h-1.23v1.23h1.23v-1.23zM96.805 92.424h-1.23v1.23h1.23v-1.23zM94.853 69.752h-1.23v1.23h1.23v-1.23zM94.853 71.813h-1.23v1.229h1.23v-1.23zM94.853 73.874h-1.23v1.23h1.23v-1.23zM94.853 75.936h-1.23v1.23h1.23v-1.23zM94.853 77.996h-1.23v1.23h1.23v-1.23zM94.853 80.057h-1.23v1.23h1.23v-1.23zM94.853 82.12h-1.23v1.229h1.23v-1.23zM94.853 84.179h-1.23v1.23h1.23v-1.23zM92.9 69.752h-1.23v1.23h1.23v-1.23zM92.9 71.813h-1.23v1.229h1.23v-1.23zM92.9 73.874h-1.23v1.23h1.23v-1.23zM92.9 75.936h-1.23v1.23h1.23v-1.23zM92.9 77.996h-1.23v1.23h1.23v-1.23zM92.9 80.057h-1.23v1.23h1.23v-1.23zM92.9 84.179h-1.23v1.23h1.23v-1.23zM92.9 86.24h-1.23v1.23h1.23v-1.23zM92.9 92.424h-1.23v1.23h1.23v-1.23zM92.9 94.485h-1.23v1.23h1.23v-1.23zM92.9 96.546h-1.23v1.23h1.23v-1.23zM92.9 98.607h-1.23v1.23h1.23v-1.23zM92.9 100.669h-1.23v1.229h1.23v-1.229zM92.9 102.729h-1.23v1.229h1.23v-1.229zM92.9 104.79h-1.23v1.23h1.23v-1.23zM90.947 69.752h-1.23v1.23h1.23v-1.23zM90.947 71.813h-1.23v1.229h1.23v-1.23zM90.947 73.874h-1.23v1.23h1.23v-1.23zM90.947 75.936h-1.23v1.23h1.23v-1.23zM90.947 77.996h-1.23v1.23h1.23v-1.23zM90.947 80.057h-1.23v1.23h1.23v-1.23zM90.947 86.24h-1.23v1.23h1.23v-1.23zM90.947 88.302h-1.23v1.23h1.23v-1.23zM90.947 90.362h-1.23v1.23h1.23v-1.23zM90.947 92.424h-1.23v1.23h1.23v-1.23zM90.947 94.485h-1.23v1.23h1.23v-1.23zM90.947 96.546h-1.23v1.23h1.23v-1.23zM90.947 98.607h-1.23v1.23h1.23v-1.23zM90.947 100.669h-1.23v1.229h1.23v-1.229zM90.947 102.729h-1.23v1.229h1.23v-1.229zM90.947 104.79h-1.23v1.23h1.23v-1.23zM90.947 106.852h-1.23v1.23h1.23v-1.23zM90.947 110.974h-1.23v1.23h1.23v-1.23zM88.995 69.752h-1.23v1.23h1.23v-1.23zM88.995 71.813h-1.23v1.229h1.23v-1.23zM88.995 73.874h-1.23v1.23h1.23v-1.23zM88.995 75.936h-1.23v1.23h1.23v-1.23zM88.995 77.996h-1.23v1.23h1.23v-1.23zM88.995 80.057h-1.23v1.23h1.23v-1.23zM88.995 86.24h-1.23v1.23h1.23v-1.23zM88.995 88.302h-1.23v1.23h1.23v-1.23zM88.995 90.362h-1.23v1.23h1.23v-1.23zM88.995 92.424h-1.23v1.23h1.23v-1.23zM88.995 98.607h-1.23v1.23h1.23v-1.23zM88.995 100.669h-1.23v1.229h1.23v-1.229zM88.995 102.729h-1.23v1.229h1.23v-1.229zM88.995 104.79h-1.23v1.23h1.23v-1.23zM88.995 106.852h-1.23v1.23h1.23v-1.23zM88.995 110.974h-1.23v1.23h1.23v-1.23zM88.995 113.036h-1.23v1.23h1.23v-1.23zM71.276 88.917h-1.23v1.23h1.23v-1.23zM71.276 90.977h-1.23v1.23h1.23v-1.23zM71.276 93.038h-1.23v1.23h1.23v-1.23zM71.276 95.1h-1.23v1.23h1.23V95.1zM71.276 97.16h-1.23v1.23h1.23v-1.23zM71.276 99.222h-1.23v1.23h1.23v-1.23zM71.276 101.283h-1.23v1.23h1.23v-1.23zM71.276 107.467h-1.23v1.229h1.23v-1.229zM71.276 109.527h-1.23v1.23h1.23v-1.23zM71.276 111.589h-1.23v1.229h1.23v-1.229zM69.323 88.917h-1.23v1.23h1.23v-1.23zM69.323 90.977h-1.23v1.23h1.23v-1.23zM69.323 93.038h-1.23v1.23h1.23v-1.23zM69.323 95.1h-1.23v1.23h1.23V95.1zM69.323 97.16h-1.23v1.23h1.23v-1.23zM69.323 99.222h-1.23v1.23h1.23v-1.23zM69.323 101.283h-1.23v1.23h1.23v-1.23zM67.37 88.917h-1.229v1.23h1.23v-1.23zM67.37 90.977h-1.229v1.23h1.23v-1.23zM67.37 93.038h-1.229v1.23h1.23v-1.23zM67.37 95.1h-1.229v1.23h1.23V95.1zM67.37 97.16h-1.229v1.23h1.23v-1.23zM67.37 99.222h-1.229v1.23h1.23v-1.23zM67.37 101.283h-1.229v1.23h1.23v-1.23zM65.418 88.917h-1.23v1.23h1.23v-1.23zM65.418 90.977h-1.23v1.23h1.23v-1.23zM65.418 93.038h-1.23v1.23h1.23v-1.23zM65.418 95.1h-1.23v1.23h1.23V95.1zM65.418 97.16h-1.23v1.23h1.23v-1.23zM65.418 99.222h-1.23v1.23h1.23v-1.23zM65.418 101.283h-1.23v1.23h1.23v-1.23zM65.418 103.344h-1.23v1.229h1.23v-1.229zM65.418 105.405h-1.23v1.23h1.23v-1.23zM65.418 107.467h-1.23v1.229h1.23v-1.229zM65.418 109.527h-1.23v1.23h1.23v-1.23zM63.466 88.917h-1.23v1.23h1.23v-1.23zM63.466 90.977h-1.23v1.23h1.23v-1.23zM63.466 93.038h-1.23v1.23h1.23v-1.23zM63.466 95.1h-1.23v1.23h1.23V95.1zM63.466 97.16h-1.23v1.23h1.23v-1.23zM63.466 99.222h-1.23v1.23h1.23v-1.23zM63.466 101.283h-1.23v1.23h1.23v-1.23zM63.466 103.344h-1.23v1.229h1.23v-1.229zM63.466 105.405h-1.23v1.23h1.23v-1.23zM63.466 107.467h-1.23v1.229h1.23v-1.229zM63.466 109.527h-1.23v1.23h1.23v-1.23zM63.466 111.589h-1.23v1.229h1.23v-1.229zM63.466 117.772h-1.23v1.229h1.23v-1.229zM63.466 119.833h-1.23v1.23h1.23v-1.23zM61.513 88.917h-1.23v1.23h1.23v-1.23zM61.513 90.977h-1.23v1.23h1.23v-1.23zM61.513 93.038h-1.23v1.23h1.23v-1.23zM61.513 99.222h-1.23v1.23h1.23v-1.23zM61.513 101.283h-1.23v1.23h1.23v-1.23zM61.513 103.344h-1.23v1.229h1.23v-1.229zM61.513 105.405h-1.23v1.23h1.23v-1.23zM61.513 107.467h-1.23v1.229h1.23v-1.229zM61.513 109.527h-1.23v1.23h1.23v-1.23zM61.513 111.589h-1.23v1.229h1.23v-1.229zM61.513 117.772h-1.23v1.229h1.23v-1.229zM61.513 119.833h-1.23v1.23h1.23v-1.23zM61.513 121.894h-1.23v1.23h1.23v-1.23zM41.045 76.55h-1.23v1.23h1.23v-1.23zM41.045 78.61h-1.23v1.23h1.23v-1.23zM41.045 80.672h-1.23v1.23h1.23v-1.23zM41.045 82.733h-1.23v1.23h1.23v-1.23zM41.045 84.794h-1.23v1.23h1.23v-1.23zM41.045 86.855h-1.23v1.23h1.23v-1.23zM41.045 88.917h-1.23v1.23h1.23v-1.23zM41.045 90.977h-1.23v1.23h1.23v-1.23zM41.045 93.038h-1.23v1.23h1.23v-1.23zM41.045 95.1h-1.23v1.23h1.23V95.1zM41.045 97.16h-1.23v1.23h1.23v-1.23zM41.045 99.222h-1.23v1.23h1.23v-1.23zM41.045 101.283h-1.23v1.23h1.23v-1.23zM41.045 103.344h-1.23v1.229h1.23v-1.229zM41.045 105.405h-1.23v1.23h1.23v-1.23zM41.045 107.467h-1.23v1.229h1.23v-1.229zM41.045 109.527h-1.23v1.23h1.23v-1.23zM41.045 111.589h-1.23v1.229h1.23v-1.229zM41.045 113.65h-1.23v1.23h1.23v-1.23zM41.045 115.711h-1.23v1.229h1.23v-1.229zM41.045 117.772h-1.23v1.229h1.23v-1.229zM41.045 119.833h-1.23v1.23h1.23v-1.23zM41.045 121.894h-1.23v1.23h1.23v-1.23zM39.093 76.55h-1.23v1.23h1.23v-1.23zM39.093 78.61h-1.23v1.23h1.23v-1.23zM39.093 80.672h-1.23v1.23h1.23v-1.23zM39.093 82.733h-1.23v1.23h1.23v-1.23zM39.093 84.794h-1.23v1.23h1.23v-1.23zM39.093 86.855h-1.23v1.23h1.23v-1.23zM39.093 88.917h-1.23v1.23h1.23v-1.23zM39.093 90.977h-1.23v1.23h1.23v-1.23zM39.093 93.038h-1.23v1.23h1.23v-1.23zM39.093 95.1h-1.23v1.23h1.23V95.1zM39.093 97.16h-1.23v1.23h1.23v-1.23zM39.093 99.222h-1.23v1.23h1.23v-1.23zM39.093 101.283h-1.23v1.23h1.23v-1.23zM39.093 103.344h-1.23v1.229h1.23v-1.229zM39.093 105.405h-1.23v1.23h1.23v-1.23zM39.093 107.467h-1.23v1.229h1.23v-1.229zM39.093 109.527h-1.23v1.23h1.23v-1.23zM39.093 111.589h-1.23v1.229h1.23v-1.229zM39.093 113.65h-1.23v1.23h1.23v-1.23zM37.14 76.55h-1.229v1.23h1.23v-1.23zM37.14 78.61h-1.229v1.23h1.23v-1.23zM37.14 80.672h-1.229v1.23h1.23v-1.23zM37.14 82.733h-1.229v1.23h1.23v-1.23zM37.14 84.794h-1.229v1.23h1.23v-1.23zM37.14 86.855h-1.229v1.23h1.23v-1.23zM37.14 88.917h-1.229v1.23h1.23v-1.23zM37.14 90.977h-1.229v1.23h1.23v-1.23zM37.14 93.038h-1.229v1.23h1.23v-1.23zM37.14 95.1h-1.229v1.23h1.23V95.1zM37.14 97.16h-1.229v1.23h1.23v-1.23zM37.14 99.222h-1.229v1.23h1.23v-1.23zM37.14 101.283h-1.229v1.23h1.23v-1.23zM37.14 103.344h-1.229v1.229h1.23v-1.229zM37.14 105.405h-1.229v1.23h1.23v-1.23zM37.14 107.467h-1.229v1.229h1.23v-1.229zM37.14 109.527h-1.229v1.23h1.23v-1.23zM37.14 111.589h-1.229v1.229h1.23v-1.229zM37.14 113.65h-1.229v1.23h1.23v-1.23zM35.189 76.55h-1.23v1.23h1.23v-1.23zM35.189 78.61h-1.23v1.23h1.23v-1.23zM35.189 80.672h-1.23v1.23h1.23v-1.23zM35.189 82.733h-1.23v1.23h1.23v-1.23zM35.189 84.794h-1.23v1.23h1.23v-1.23zM35.189 86.855h-1.23v1.23h1.23v-1.23zM35.189 88.917h-1.23v1.23h1.23v-1.23zM35.189 90.977h-1.23v1.23h1.23v-1.23zM35.189 93.038h-1.23v1.23h1.23v-1.23zM35.189 95.1h-1.23v1.23h1.23V95.1zM35.189 97.16h-1.23v1.23h1.23v-1.23zM35.189 99.222h-1.23v1.23h1.23v-1.23zM35.189 101.283h-1.23v1.23h1.23v-1.23zM35.189 103.344h-1.23v1.229h1.23v-1.229zM35.189 105.405h-1.23v1.23h1.23v-1.23zM33.234 76.55h-1.23v1.23h1.23v-1.23zM33.234 78.61h-1.23v1.23h1.23v-1.23zM33.234 80.672h-1.23v1.23h1.23v-1.23zM33.234 82.733h-1.23v1.23h1.23v-1.23zM33.234 84.794h-1.23v1.23h1.23v-1.23zM33.234 86.855h-1.23v1.23h1.23v-1.23zM33.234 88.917h-1.23v1.23h1.23v-1.23zM33.234 90.977h-1.23v1.23h1.23v-1.23zM33.234 93.038h-1.23v1.23h1.23v-1.23zM33.234 95.1h-1.23v1.23h1.23V95.1zM33.234 97.16h-1.23v1.23h1.23v-1.23zM33.234 99.222h-1.23v1.23h1.23v-1.23zM33.234 101.283h-1.23v1.23h1.23v-1.23zM31.282 76.55h-1.23v1.23h1.23v-1.23zM31.282 78.61h-1.23v1.23h1.23v-1.23zM31.282 80.672h-1.23v1.23h1.23v-1.23zM31.282 82.733h-1.23v1.23h1.23v-1.23zM31.282 84.794h-1.23v1.23h1.23v-1.23zM31.282 86.855h-1.23v1.23h1.23v-1.23zM31.282 88.917h-1.23v1.23h1.23v-1.23zM31.282 90.977h-1.23v1.23h1.23v-1.23zM31.282 93.038h-1.23v1.23h1.23v-1.23zM31.282 95.1h-1.23v1.23h1.23V95.1zM31.282 97.16h-1.23v1.23h1.23v-1.23zM31.282 99.222h-1.23v1.23h1.23v-1.23zM174.767 91.592h-1.23v1.23h1.23v-1.23zM174.767 93.654h-1.23v1.23h1.23v-1.23zM174.767 95.715h-1.23v1.23h1.23v-1.23zM174.767 97.776h-1.23v1.23h1.23v-1.23zM174.767 99.837h-1.23v1.229h1.23v-1.23zM174.767 101.898h-1.23v1.23h1.23v-1.23zM174.767 103.959h-1.23v1.23h1.23v-1.23zM174.767 106.02h-1.23v1.23h1.23v-1.23zM174.767 108.082h-1.23v1.229h1.23v-1.229zM174.767 110.142h-1.23v1.229h1.23v-1.229zM174.767 112.203h-1.23v1.23h1.23v-1.23zM174.767 114.265h-1.23v1.23h1.23v-1.23zM174.767 116.325h-1.23v1.23h1.23v-1.23zM174.767 118.387h-1.23v1.229h1.23v-1.229zM174.767 120.448h-1.23v1.23h1.23v-1.23zM174.767 122.509h-1.23v1.229h1.23v-1.229zM174.767 124.57h-1.23v1.23h1.23v-1.23zM174.767 126.631h-1.23v1.23h1.23v-1.23zM174.767 128.692h-1.23v1.229h1.23v-1.229zM174.767 130.753h-1.23v1.229h1.23v-1.229zM172.814 91.592h-1.229v1.23h1.229v-1.23zM172.815 93.654h-1.23v1.23h1.23v-1.23zM172.815 95.715h-1.23v1.23h1.23v-1.23zM172.814 97.776h-1.229v1.23h1.229v-1.23zM172.815 99.837h-1.23v1.229h1.23v-1.23zM172.815 101.898h-1.23v1.23h1.23v-1.23zM172.814 103.959h-1.229v1.23h1.229v-1.23zM172.815 106.02h-1.23v1.23h1.23v-1.23zM172.815 108.082h-1.23v1.229h1.23v-1.229zM172.814 110.142h-1.229v1.229h1.229v-1.229zM172.814 112.203h-1.229v1.23h1.229v-1.23zM172.815 114.265h-1.23v1.23h1.23v-1.23zM172.814 116.325h-1.229v1.23h1.229v-1.23zM172.814 118.387h-1.229v1.229h1.229v-1.229zM172.815 120.448h-1.23v1.23h1.23v-1.23zM172.814 122.509h-1.229v1.229h1.229v-1.229zM172.814 124.57h-1.229v1.23h1.229v-1.23zM172.815 126.632h-1.23v1.229h1.23v-1.229zM170.861 91.592h-1.229v1.23h1.229v-1.23zM170.862 93.654h-1.23v1.23h1.23v-1.23zM170.862 95.715h-1.23v1.23h1.23v-1.23zM170.861 97.776h-1.229v1.23h1.229v-1.23zM170.862 99.837h-1.23v1.229h1.23v-1.23zM170.862 101.898h-1.23v1.23h1.23v-1.23zM170.861 103.959h-1.229v1.23h1.229v-1.23zM170.862 106.02h-1.23v1.23h1.23v-1.23zM170.862 108.082h-1.23v1.229h1.23v-1.229zM170.861 110.142h-1.229v1.229h1.229v-1.229zM170.861 112.203h-1.229v1.23h1.229v-1.23zM170.862 114.265h-1.23v1.23h1.23v-1.23zM170.861 116.325h-1.229v1.23h1.229v-1.23zM170.861 118.387h-1.229v1.229h1.229v-1.229zM170.862 120.448h-1.23v1.23h1.23v-1.23zM170.861 122.509h-1.229v1.229h1.229v-1.229zM170.861 124.57h-1.229v1.23h1.229v-1.23zM170.862 126.632h-1.23v1.229h1.23v-1.229zM182.073 106.635h-1.23v1.229h1.23v-1.229zM182.073 108.697h-1.23v1.23h1.23v-1.23zM182.072 110.757h-1.229v1.23h1.229v-1.23zM182.072 112.819h-1.229v1.229h1.229v-1.229zM182.073 114.88h-1.23v1.229h1.23v-1.229zM182.072 116.94h-1.229v1.23h1.229v-1.23zM182.072 119.001h-1.229v1.23h1.229v-1.23zM182.073 121.063h-1.23v1.23h1.23v-1.23zM182.072 123.124h-1.229v1.23h1.229v-1.23zM182.072 125.185h-1.229v1.23h1.229v-1.23zM182.073 127.247h-1.23v1.229h1.23v-1.229zM182.072 129.306h-1.229v1.23h1.229v-1.23zM182.072 131.368h-1.229v1.229h1.229v-1.229zM180.118 106.635h-1.229v1.229h1.229v-1.229zM180.118 108.697h-1.229v1.23h1.229v-1.23zM180.118 110.757h-1.229v1.23h1.229v-1.23zM180.118 112.819h-1.229v1.229h1.229v-1.229zM180.118 114.88h-1.229v1.229h1.229v-1.229zM180.118 116.94h-1.229v1.23h1.229v-1.23zM180.118 119.001h-1.229v1.23h1.229v-1.23zM180.118 121.063h-1.229v1.23h1.229v-1.23zM180.118 123.124h-1.229v1.23h1.229v-1.23zM180.118 125.185h-1.229v1.23h1.229v-1.23zM180.118 127.247h-1.229v1.229h1.229v-1.229zM180.118 129.306h-1.229v1.23h1.229v-1.23zM180.118 131.368h-1.229v1.229h1.229v-1.229zM178.166 106.635h-1.23v1.229h1.23v-1.229zM178.166 108.697h-1.23v1.23h1.23v-1.23zM178.166 110.757h-1.23v1.23h1.23v-1.23zM178.166 112.819h-1.23v1.229h1.23v-1.229zM178.166 114.88h-1.23v1.229h1.23v-1.229zM178.166 116.94h-1.23v1.23h1.23v-1.23zM178.166 119.001h-1.23v1.23h1.23v-1.23zM178.166 121.063h-1.23v1.23h1.23v-1.23zM178.166 123.124h-1.23v1.23h1.23v-1.23zM178.166 125.185h-1.23v1.23h1.23v-1.23zM178.166 127.247h-1.23v1.229h1.23v-1.229zM178.166 129.306h-1.23v1.23h1.23v-1.23zM178.166 131.368h-1.23v1.229h1.23v-1.229zM178.166 133.43h-1.23v1.229h1.23v-1.229zM167.319 107.25h-1.23v1.229h1.23v-1.229zM167.319 109.311h-1.23v1.23h1.23v-1.23zM167.318 111.372h-1.229v1.229h1.229v-1.229zM167.319 113.433h-1.23v1.229h1.23v-1.229zM167.319 115.495h-1.23v1.229h1.23v-1.229zM167.318 117.555h-1.229v1.229h1.229v-1.229zM167.319 119.616h-1.23v1.23h1.23v-1.23zM167.319 121.678h-1.23v1.23h1.23v-1.23zM167.318 123.738h-1.229v1.23h1.229v-1.23zM167.318 125.8h-1.229v1.229h1.229V125.8zM167.318 131.983h-1.229v1.229h1.229v-1.229zM165.365 107.25h-1.23v1.229h1.23v-1.229zM165.365 109.311h-1.23v1.23h1.23v-1.23zM165.365 111.372h-1.23v1.229h1.23v-1.229zM165.365 113.433h-1.23v1.229h1.23v-1.229zM165.365 115.495h-1.23v1.229h1.23v-1.229zM165.365 117.555h-1.23v1.229h1.23v-1.229zM165.365 119.616h-1.23v1.23h1.23v-1.23zM165.365 121.678h-1.23v1.23h1.23v-1.23zM165.365 123.738h-1.23v1.23h1.23v-1.23zM165.365 129.921h-1.23v1.23h1.23v-1.23zM165.365 131.983h-1.23v1.229h1.23v-1.229zM163.412 107.25h-1.23v1.229h1.23v-1.229zM163.412 109.311h-1.23v1.23h1.23v-1.23zM163.412 111.372h-1.23v1.229h1.23v-1.229zM163.412 113.433h-1.23v1.229h1.23v-1.229zM163.412 115.495h-1.23v1.229h1.23v-1.229zM163.412 117.555h-1.23v1.229h1.23v-1.229zM163.412 119.616h-1.23v1.23h1.23v-1.23zM163.412 121.678h-1.23v1.23h1.23v-1.23zM163.412 127.861h-1.23v1.229h1.23v-1.229zM163.412 129.921h-1.23v1.23h1.23v-1.23zM163.412 131.983h-1.23v1.229h1.23v-1.229zM145.26 75.936h-1.229v1.23h1.229v-1.23zM145.26 77.996h-1.229v1.23h1.229v-1.23zM145.26 80.057h-1.229v1.23h1.229v-1.23zM145.26 82.12h-1.229v1.229h1.229v-1.23zM145.26 84.179h-1.229v1.23h1.229v-1.23zM145.26 86.24h-1.229v1.23h1.229v-1.23zM145.26 88.302h-1.229v1.23h1.229v-1.23zM145.26 90.362h-1.229v1.23h1.229v-1.23zM145.26 92.424h-1.229v1.23h1.229v-1.23zM145.26 94.485h-1.229v1.23h1.229v-1.23zM145.26 96.546h-1.229v1.23h1.229v-1.23zM145.26 98.607h-1.229v1.23h1.229v-1.23zM145.26 100.669h-1.229v1.229h1.229v-1.229zM145.26 102.729h-1.229v1.229h1.229v-1.229zM145.26 104.79h-1.229v1.23h1.229v-1.23zM145.26 106.852h-1.229v1.23h1.229v-1.23zM145.26 108.913h-1.229v1.229h1.229v-1.229zM145.26 113.036h-1.229v1.23h1.229v-1.23zM145.26 115.097h-1.229v1.23h1.229v-1.23zM145.26 117.157h-1.229v1.23h1.229v-1.23zM145.26 119.219h-1.229v1.229h1.229v-1.229zM145.26 121.281h-1.229v1.229h1.229v-1.229zM143.308 75.936h-1.23v1.23h1.23v-1.23zM143.307 77.996h-1.229v1.23h1.229v-1.23zM143.308 80.057h-1.23v1.23h1.23v-1.23zM143.308 82.12h-1.23v1.229h1.23v-1.23zM143.307 84.179h-1.229v1.23h1.229v-1.23zM143.308 86.24h-1.23v1.23h1.23v-1.23zM143.308 88.302h-1.23v1.23h1.23v-1.23zM143.307 90.362h-1.229v1.23h1.229v-1.23zM143.308 92.424h-1.23v1.23h1.23v-1.23zM143.308 94.485h-1.23v1.23h1.23v-1.23zM143.307 96.546h-1.229v1.23h1.229v-1.23zM143.307 98.607h-1.229v1.23h1.229v-1.23zM143.308 100.669h-1.23v1.229h1.23v-1.229zM143.307 102.729h-1.229v1.229h1.229v-1.229zM143.307 104.79h-1.229v1.23h1.229v-1.23zM143.308 106.852h-1.23v1.23h1.23v-1.23zM143.308 119.219h-1.23v1.229h1.23v-1.229zM143.308 121.281h-1.23v1.229h1.23v-1.229zM141.356 75.936h-1.23v1.23h1.23v-1.23zM141.355 77.996h-1.23v1.23h1.23v-1.23zM141.356 80.057h-1.23v1.23h1.23v-1.23zM141.356 82.12h-1.23v1.229h1.23v-1.23zM141.355 84.179h-1.23v1.23h1.23v-1.23zM141.356 86.24h-1.23v1.23h1.23v-1.23zM141.356 88.302h-1.23v1.23h1.23v-1.23zM141.355 90.362h-1.23v1.23h1.23v-1.23zM141.356 92.424h-1.23v1.23h1.23v-1.23zM141.356 94.485h-1.23v1.23h1.23v-1.23zM141.355 96.546h-1.23v1.23h1.23v-1.23zM141.355 98.607h-1.23v1.23h1.23v-1.23zM141.356 100.669h-1.23v1.229h1.23v-1.229zM141.355 102.729h-1.23v1.229h1.23v-1.229zM141.355 104.79h-1.23v1.23h1.23v-1.23zM141.356 106.852h-1.23v1.23h1.23v-1.23zM141.355 110.974h-1.23v1.23h1.23v-1.23zM141.356 113.036h-1.23v1.23h1.23v-1.23zM141.356 115.097h-1.23v1.23h1.23v-1.23zM141.355 117.157h-1.23v1.23h1.23v-1.23zM141.356 121.281h-1.23v1.229h1.23v-1.229zM152.347 101.898h-1.229v1.23h1.229v-1.23zM152.347 103.959h-1.229v1.23h1.229v-1.23zM152.347 106.02h-1.229v1.23h1.229v-1.23zM152.347 108.082h-1.229v1.229h1.229v-1.229zM152.347 110.142h-1.229v1.229h1.229v-1.229zM152.347 112.203h-1.229v1.23h1.229v-1.23zM152.347 114.265h-1.229v1.23h1.229v-1.23zM152.347 118.387h-1.229v1.229h1.229v-1.229zM152.347 120.448h-1.229v1.23h1.229v-1.23zM152.347 122.509h-1.229v1.229h1.229v-1.229zM152.347 124.57h-1.229v1.23h1.229v-1.23zM152.347 126.631h-1.229v1.23h1.229v-1.23zM152.347 128.692h-1.229v1.229h1.229v-1.229zM152.347 130.753h-1.229v1.229h1.229v-1.229zM152.347 132.815h-1.229v1.229h1.229v-1.229zM150.396 101.898h-1.23v1.23h1.23v-1.23zM150.395 103.959h-1.229v1.23h1.229v-1.23zM150.396 106.02h-1.23v1.23h1.23v-1.23zM150.396 108.082h-1.23v1.229h1.23v-1.229zM150.395 110.142h-1.229v1.229h1.229v-1.229zM150.395 112.203h-1.229v1.23h1.229v-1.23zM150.395 118.387h-1.229v1.229h1.229v-1.229zM150.396 120.448h-1.23v1.23h1.23v-1.23zM150.395 122.509h-1.229v1.229h1.229v-1.229zM150.395 124.57h-1.229v1.23h1.229v-1.23zM150.396 126.632h-1.23v1.229h1.23v-1.229zM150.395 128.692h-1.229v1.229h1.229v-1.229zM150.395 130.753h-1.229v1.229h1.229v-1.229zM150.396 132.815h-1.23v1.23h1.23v-1.23zM148.442 101.898h-1.23v1.23h1.23v-1.23zM148.442 103.959h-1.23v1.23h1.23v-1.23zM148.442 106.02h-1.23v1.23h1.23v-1.23zM148.442 108.082h-1.23v1.229h1.23v-1.229zM148.442 110.142h-1.23v1.229h1.23v-1.229zM148.442 112.203h-1.23v1.23h1.23v-1.23zM148.442 116.325h-1.23v1.23h1.23v-1.23zM148.442 118.387h-1.23v1.229h1.23v-1.229zM148.442 120.448h-1.23v1.23h1.23v-1.23zM148.442 122.509h-1.23v1.229h1.23v-1.229zM148.442 124.57h-1.23v1.23h1.23v-1.23zM148.442 126.631h-1.23v1.23h1.23v-1.23zM148.442 128.692h-1.23v1.229h1.23v-1.229zM148.442 130.753h-1.23v1.229h1.23v-1.229zM148.442 132.815h-1.23v1.229h1.23v-1.229zM107.292 90.362h-1.23v1.23h1.23v-1.23zM107.292 92.424h-1.23v1.23h1.23v-1.23zM107.292 94.485h-1.23v1.23h1.23v-1.23zM107.292 96.546h-1.23v1.23h1.23v-1.23zM107.292 98.607h-1.23v1.23h1.23v-1.23zM107.292 100.669h-1.23v1.229h1.23v-1.229zM107.292 102.729h-1.23v1.229h1.23v-1.229zM107.292 104.79h-1.23v1.23h1.23v-1.23zM107.292 106.852h-1.23v1.23h1.23v-1.23zM107.292 108.913h-1.23v1.229h1.23v-1.229zM107.292 110.974h-1.23v1.23h1.23v-1.23zM107.292 113.036h-1.23v1.23h1.23v-1.23zM107.292 115.097h-1.23v1.23h1.23v-1.23zM107.292 119.219h-1.23v1.229h1.23v-1.229zM107.292 121.281h-1.23v1.229h1.23v-1.229zM107.292 123.341h-1.23v1.23h1.23v-1.23zM107.292 125.402h-1.23v1.23h1.23v-1.23zM107.292 129.524h-1.23v1.229h1.23v-1.229zM107.292 131.586h-1.23v1.229h1.23v-1.229zM107.292 133.648h-1.23v1.229h1.23v-1.229zM105.34 90.362h-1.23v1.23h1.23v-1.23zM105.34 92.424h-1.23v1.23h1.23v-1.23zM105.34 94.485h-1.23v1.23h1.23v-1.23zM105.34 96.546h-1.23v1.23h1.23v-1.23zM105.34 98.607h-1.23v1.23h1.23v-1.23zM105.34 100.669h-1.23v1.229h1.23v-1.229zM105.34 102.729h-1.23v1.229h1.23v-1.229zM105.34 104.79h-1.23v1.23h1.23v-1.23zM105.34 106.852h-1.23v1.23h1.23v-1.23zM105.34 108.913h-1.23v1.229h1.23v-1.229zM105.34 110.974h-1.23v1.23h1.23v-1.23zM105.34 113.036h-1.23v1.23h1.23v-1.23zM105.34 115.097h-1.23v1.23h1.23v-1.23zM105.34 121.281h-1.23v1.229h1.23v-1.229zM105.34 123.341h-1.23v1.23h1.23v-1.23zM105.34 127.464h-1.23v1.23h1.23v-1.23zM105.34 129.524h-1.23v1.229h1.23v-1.229zM105.34 131.586h-1.23v1.229h1.23v-1.229zM105.34 133.648h-1.23v1.229h1.23v-1.229zM103.386 90.362h-1.229v1.23h1.229v-1.23zM103.386 92.424h-1.229v1.23h1.229v-1.23zM103.386 94.485h-1.229v1.23h1.229v-1.23zM103.386 96.546h-1.229v1.23h1.229v-1.23zM103.386 98.607h-1.229v1.23h1.229v-1.23zM103.386 100.669h-1.229v1.229h1.229v-1.229zM103.386 102.729h-1.229v1.229h1.229v-1.229zM103.386 104.79h-1.229v1.23h1.229v-1.23zM103.386 106.852h-1.229v1.23h1.229v-1.23zM103.386 108.913h-1.229v1.229h1.229v-1.229zM103.386 110.974h-1.229v1.23h1.229v-1.23zM103.386 113.036h-1.229v1.23h1.229v-1.23zM103.386 115.097h-1.229v1.23h1.229v-1.23zM103.386 117.157h-1.229v1.23h1.229v-1.23zM103.386 121.281h-1.229v1.229h1.229v-1.229zM103.386 125.402h-1.229v1.23h1.229v-1.23zM103.386 127.464h-1.229v1.229h1.229v-1.229zM103.386 129.524h-1.229v1.229h1.229v-1.229zM103.386 131.585h-1.229v1.23h1.229v-1.23zM103.386 133.647h-1.229v1.23h1.229v-1.23zM115.247 102.116h-1.229v1.229h1.229v-1.229zM115.247 104.176h-1.229v1.229h1.229v-1.229zM115.247 106.237h-1.229v1.23h1.229v-1.23zM115.247 108.299h-1.229v1.23h1.229v-1.23zM115.247 110.359h-1.229v1.229h1.229v-1.229zM115.247 112.421h-1.229v1.229h1.229v-1.229zM115.247 118.604h-1.229v1.23h1.229v-1.23zM115.247 120.666h-1.229v1.23h1.229v-1.23zM115.247 122.727h-1.229v1.229h1.229v-1.229zM115.247 124.788h-1.229v1.23h1.229v-1.23zM115.247 126.849h-1.229v1.23h1.229v-1.23zM115.247 128.909h-1.229v1.23h1.229v-1.23zM115.247 130.971h-1.229v1.229h1.229v-1.229zM113.296 102.116h-1.23v1.229h1.23v-1.229zM113.296 104.176h-1.23v1.229h1.23v-1.229zM113.296 106.237h-1.23v1.23h1.23v-1.23zM113.296 108.299h-1.23v1.23h1.23v-1.23zM113.296 110.359h-1.23v1.229h1.23v-1.229zM113.296 112.421h-1.23v1.229h1.23v-1.229zM113.296 118.604h-1.23v1.23h1.23v-1.23zM113.296 120.666h-1.23v1.23h1.23v-1.23zM113.296 122.727h-1.23v1.229h1.23v-1.229zM113.296 124.788h-1.23v1.23h1.23v-1.23zM113.296 126.849h-1.23v1.23h1.23v-1.23zM113.296 128.909h-1.23v1.23h1.23v-1.23zM113.296 133.033h-1.23v1.229h1.23v-1.229zM48.423 93.038h-1.23v1.23h1.23v-1.23zM48.423 95.1h-1.23v1.23h1.23V95.1zM48.423 97.16h-1.23v1.23h1.23v-1.23zM48.423 99.222h-1.23v1.23h1.23v-1.23zM48.423 101.283h-1.23v1.23h1.23v-1.23zM48.423 103.344h-1.23v1.229h1.23v-1.229zM48.423 105.405h-1.23v1.23h1.23v-1.23zM48.423 107.467h-1.23v1.229h1.23v-1.229zM48.423 109.527h-1.23v1.23h1.23v-1.23zM48.423 111.589h-1.23v1.229h1.23v-1.229zM48.423 113.65h-1.23v1.23h1.23v-1.23zM48.423 117.772h-1.23v1.229h1.23v-1.229zM48.423 119.833h-1.23v1.23h1.23v-1.23zM48.423 121.894h-1.23v1.23h1.23v-1.23zM48.423 123.955h-1.23v1.23h1.23v-1.23zM48.423 126.018h-1.23v1.229h1.23v-1.229zM48.423 128.079h-1.23v1.23h1.23v-1.23zM48.423 130.139h-1.23v1.23h1.23v-1.23zM48.423 132.201h-1.23v1.23h1.23v-1.23zM46.47 93.038h-1.229v1.23h1.23v-1.23zM46.47 95.1h-1.229v1.23h1.23V95.1zM46.47 97.16h-1.229v1.23h1.23v-1.23zM46.47 99.222h-1.229v1.23h1.23v-1.23zM46.47 101.283h-1.229v1.23h1.23v-1.23zM46.47 103.344h-1.229v1.229h1.23v-1.229zM46.47 105.405h-1.229v1.23h1.23v-1.23zM46.47 107.467h-1.229v1.229h1.23v-1.229zM46.47 109.527h-1.229v1.23h1.23v-1.23zM46.47 111.589h-1.229v1.229h1.23v-1.229zM46.47 113.65h-1.229v1.23h1.23v-1.23zM46.47 115.711h-1.229v1.229h1.23v-1.229zM46.47 117.772h-1.229v1.229h1.23v-1.229zM46.47 119.833h-1.229v1.23h1.23v-1.23zM46.47 121.894h-1.229v1.23h1.23v-1.23zM46.47 123.955h-1.229v1.23h1.23v-1.23zM46.47 126.018h-1.229v1.229h1.23v-1.229zM46.47 128.079h-1.229v1.23h1.23v-1.23zM46.47 130.139h-1.229v1.23h1.23v-1.23zM46.47 132.201h-1.229v1.23h1.23v-1.23zM58.04 101.066h-1.229v1.23h1.23v-1.23zM58.04 103.128h-1.229v1.229h1.23v-1.229zM58.04 105.188h-1.229v1.23h1.23v-1.23zM58.04 107.25h-1.229v1.229h1.23v-1.229zM58.04 109.311h-1.229v1.23h1.23v-1.23zM58.04 111.372h-1.229v1.229h1.23v-1.229zM58.04 113.433h-1.229v1.229h1.23v-1.229zM58.04 115.495h-1.229v1.229h1.23v-1.229zM58.04 117.555h-1.229v1.229h1.23v-1.229zM58.04 119.616h-1.229v1.23h1.23v-1.23zM56.089 101.066h-1.23v1.23h1.23v-1.23zM56.089 103.128h-1.23v1.229h1.23v-1.229zM56.089 105.188h-1.23v1.23h1.23v-1.23zM56.089 107.25h-1.23v1.229h1.23v-1.229zM56.089 109.311h-1.23v1.23h1.23v-1.23zM56.089 111.372h-1.23v1.229h1.23v-1.229zM56.089 113.433h-1.23v1.229h1.23v-1.229zM56.089 115.495h-1.23v1.229h1.23v-1.229zM56.089 117.555h-1.23v1.229h1.23v-1.229z" fill="#F0F0F0"/><path d="M106.624 158.25c45.478 0 82.346-2.153 82.346-4.809s-36.868-4.809-82.346-4.809c-45.479 0-82.347 2.153-82.347 4.809s36.868 4.809 82.347 4.809z" fill="#303140"/><path d="m104.702 76.514.715.885-67.84 54.037 2.89 3.577.397.491 67.839-54.037.715.885 1.27-5.85-5.986.012z" fill="url(#a)"/><path opacity=".7" d="m104.702 76.514.715.885-67.84 54.037 2.89 3.577.397.491 67.839-54.037.715.885 1.27-5.85-5.986.012z" fill="#fff"/><path d="M27.592 135.214a2.234 2.234 0 0 1 2.875-2.139 4.73 4.73 0 0 1 5.55-5.334 4.132 4.132 0 0 1 3.53-1.987 4.137 4.137 0 0 1 4.136 4.077c.023-.001.045-.004.069-.004a3.81 3.81 0 1 1 0 7.62H29.758l.003-.003a2.231 2.231 0 0 1-2.17-2.23z" fill="url(#b)"/><path opacity=".8" d="M27.592 135.214a2.234 2.234 0 0 1 2.875-2.139 4.73 4.73 0 0 1 5.55-5.334 4.132 4.132 0 0 1 3.53-1.987 4.137 4.137 0 0 1 4.136 4.077c.023-.001.045-.004.069-.004a3.81 3.81 0 1 1 0 7.62H29.758l.003-.003a2.231 2.231 0 0 1-2.17-2.23z" fill="#fff"/><path d="m169.801 110.746 1.694 2.097-31.533 25.472 6.851 8.482.941 1.164 31.533-25.472 1.694 2.098 3.013-13.869-14.193.028z" fill="url(#c)"/><path opacity=".5" d="m169.801 110.746 1.694 2.097-31.533 25.472 6.851 8.482.941 1.164 31.533-25.472 1.694 2.098 3.013-13.869-14.193.028z" fill="#fff"/><path d="M152.752 137.398a7.186 7.186 0 0 0-6.096-3.385 7.186 7.186 0 0 0-6.159 3.487 3.822 3.822 0 0 0-1.038-.146 3.856 3.856 0 0 0-3.856 3.856l.001.005h-2.033a1.93 1.93 0 0 0-1.925 1.925 1.93 1.93 0 0 0 1.925 1.925h7.015a7.184 7.184 0 0 0 11.209 1.178c.121.01.243.019.367.019a4.451 4.451 0 0 0 .59-8.864z" fill="url(#d)"/><path opacity=".8" d="M152.752 137.398a7.186 7.186 0 0 0-6.096-3.385 7.186 7.186 0 0 0-6.159 3.487 3.822 3.822 0 0 0-1.038-.146 3.856 3.856 0 0 0-3.856 3.856l.001.005h-2.033a1.93 1.93 0 0 0-1.925 1.925 1.93 1.93 0 0 0 1.925 1.925h7.015a7.184 7.184 0 0 0 11.209 1.178c.121.01.243.019.367.019a4.451 4.451 0 0 0 .59-8.864z" fill="#fff"/><path d="m105.411 51.22-.613-.645a.701.701 0 0 0-.641-.206l-.916.176a.702.702 0 0 0-.565.604l-.469 3.84 1.421.544c1.73-.752 1.64-3.038 1.64-3.038l.249-.455a.703.703 0 0 0-.106-.82z" fill="#FFB573"/><path d="M88.266 62.724s1.36.083 2.158.063a55.357 55.357 0 0 0 2.393-.07c.784-.05 1.563-.106 2.278-.205.354-.05.698-.113.969-.187.127-.036.25-.075.306-.098.091-.042-.01.032.042.003.132-.113.39-.42.616-.705.233-.296.467-.614.699-.938.466-.65.928-1.325 1.39-2.004l2.774-4.117 2.168 1.155c-.319.793-.664 1.557-1.01 2.33a125.66 125.66 0 0 1-1.101 2.29c-.383.76-.78 1.515-1.212 2.271-.219.378-.443.757-.691 1.143-.257.395-.493.763-.94 1.251-.242.268-.683.593-.967.733a6.324 6.324 0 0 1-.85.379c-.521.188-.994.307-1.459.41-.926.207-1.808.33-2.687.414-1.76.174-3.448.24-5.212.2l.336-4.318z" fill="url(#e)"/><path opacity=".7" d="M104.057 55.622c-.319.79-.663 1.554-1.007 2.327-.361.765-.726 1.53-1.104 2.294a48.957 48.957 0 0 1-1.21 2.268 24.08 24.08 0 0 1-.693 1.142c-.255.395-.492.765-.938 1.253-.242.268-.684.59-.969.73-.314.175-.581.28-.849.383-.522.187-.994.306-1.457.408-.926.208-1.809.33-2.688.416a43.615 43.615 0 0 1-5.211.2l.068-.892.267-3.428s1.36.085 2.158.064a55.34 55.34 0 0 0 2.395-.072 28.527 28.527 0 0 0 2.276-.204c.353-.047.697-.11.969-.187.127-.034.25-.072.306-.098.093-.042-.009.034.042.005.132-.115.39-.421.616-.706.233-.297.467-.615.697-.938.467-.65.93-1.325 1.393-2.005l2.773-4.115 2.166 1.155z" fill="#fff"/><path opacity=".1" d="M92.02 66.94a43.615 43.615 0 0 1-4.09.103L88 66.15l.33-.782s2.226-.03 3.692 1.572z" fill="#000"/><path d="M65.55 138.912s-3.844-2.645-3.608-4.422a.306.306 0 0 0-.264-.357l-3.26-.493a.428.428 0 0 0-.404.173l-1.926 2.699.865.313.465-.326.218.572c4.695 1.699 6.742 2.383 7.777 2.426.286-.365.138-.585.138-.585z" fill="#000"/><path d="M87.204 88.953s-.195.51-.539 1.393c-.37.955-.913 2.348-1.567 4.005-.438 1.104-.922 2.327-1.444 3.614-2.4 5.963-5.5 13.34-7.551 17.065-3.929 7.126-14.164 20.662-14.164 20.662l-4.09-1.495s7.364-13.939 11.08-21.002c1.134-2.153 2.438-5.321 3.73-8.779a231.875 231.875 0 0 0 1.817-5.05c.267-.764.53-1.528.786-2.28a476.13 476.13 0 0 0 2.068-6.24c.225-.7.438-1.362.629-1.974a253.42 253.42 0 0 0 1.312-4.234h.004l3.648 1.987 4.281 2.328z" fill="#263238"/><path opacity=".3" d="M86.665 90.346c-.37.955-.913 2.348-1.567 4.005-.437 1.104-.922 2.327-1.444 3.614-3.338.671-6.736 1.126-9.178 1.402.268-.765.531-1.53.786-2.281a475.516 475.516 0 0 0 2.068-6.239c.225-.7.438-1.363.629-1.975 2.454.336 5.737.837 8.706 1.474z" fill="#000"/><path d="M74.134 64.985c0 .004.003.007.003.01.589 1.975.934 4.271 1.127 6.535.149 1.76.205 3.495.213 5.05a77.89 77.89 0 0 1-.092 4.017c-.069 1.364-.15 2.204-.15 2.204l12.904.663c3.873-14.032.128-20.74.128-20.74s-1.608-.163-3.46-.08c-.239.007-.481.026-.73.045-1.578.131-4.092.63-5.77 1.01-.347.076-.694.166-1.034.257-1.686.46-3.139 1.03-3.139 1.03z" fill="url(#f)"/><path opacity=".7" d="m88.14 83.466-12.903-.662s.08-.841.149-2.209c.017-.4.034-.854.05-1.346.026-.795.043-1.695.043-2.667-.004-.472-.013-.96-.025-1.461 0-.081-.005-.162-.005-.243a62.739 62.739 0 0 0-.114-2.454c-.026-.298-.047-.595-.072-.892a38.865 38.865 0 0 0-.06-.705 48.306 48.306 0 0 0-.289-2.255 26.602 26.602 0 0 0-.773-3.58s-.004-.005-.008-.005c0 0 1.457-.57 3.143-1.032.335-.09.683-.178 1.027-.255 1.682-.378 4.197-.88 5.772-1.01.25-.018.493-.039.735-.043 1.847-.085 3.457.076 3.457.076s3.746 6.706-.127 20.743z" fill="#fff"/><path d="M96.12 117.045s-3.687-2.862-3.349-4.623a.306.306 0 0 0-.242-.371l-3.226-.679a.429.429 0 0 0-.414.149l-2.077 2.583.846.363.482-.299.185.584c4.59 1.966 6.594 2.767 7.626 2.87.304-.35.169-.577.169-.577z" fill="#000"/><path d="M81.407 94.428c.194.01.302.01.302.01l15.47 2.25-8.807 14.608 4.41 1.678s15.944-17.191 12.382-21.111c-2.929-3.224-17.284-5.186-17.284-5.186l.471-3.365-13.278-2.614c-5.676 12.425 4.434 13.613 6.334 13.73z" fill="#263238"/><path d="m74.915 82.019-.282-.055.258-.895.25.049-.226.9zM85.36 84.04l-5.668-1.096.221-.9 5.645 1.095-.198.902zM85.996 83.223l2.396.465-.16.908-2.426-.47.19-.903zM75.578 81.204l3.898.756-.23.898-3.885-.751.217-.903z" fill="#263238"/><g opacity=".2" fill="#fff"><path d="m74.915 82.019-.282-.055.258-.895.25.049-.226.9zM85.36 84.04l-5.668-1.096.221-.9 5.645 1.095-.198.902zM85.996 83.223l2.396.465-.16.908-2.426-.47.19-.903zM75.578 81.204l3.898.756-.23.898-3.885-.751.217-.903z"/></g><path d="m83.786 82.974-.128.548a.168.168 0 0 1-.194.127l-1.419-.252a.168.168 0 0 1-.134-.206l.143-.569a.169.169 0 0 1 .195-.124l1.404.272c.094.019.155.11.133.204z" stroke="#fff" stroke-width=".589" stroke-miterlimit="10"/><path d="m82.61 83.017-.432-.076" stroke="#fff" stroke-width=".589" stroke-miterlimit="10" stroke-linecap="round" stroke-linejoin="round"/><path d="m79.642 57.846 3.37 2.793c-.329 1.368.243 2.629.907 2.863 0 0 .493 1.172-.455 1.37-1.92.4-4.112-1.46-4.112-1.46 1.016-1.093.648-3.82.29-5.566z" fill="#EBB376"/><path opacity=".2" d="m81.017 58.984 1.995 1.652c-.08.324-.14.651-.161.97-.748-.095-1.782-.896-1.867-1.675-.043-.39-.03-.764.033-.947z" fill="#000"/><path d="M82.618 52.324c.815.508 1.92 2.041.55 2.41-1.371.368-1.952-3.284-.55-2.41z" fill="#263238"/><path d="M78.408 57.562c1.426 1.88 2.165 3.056 3.822 3.392 2.491.507 4.303-2.03 3.465-4.306-.754-2.049-2.96-4.78-5.39-4.262-2.395.512-3.323 3.296-1.897 5.176z" fill="#FFB573"/><path d="m78.83 55.516-1.713-1.999s-2.263 1.665-1.236 2.673c-.677 1.594 2.014 3.818 4.367 3.361.273-1.437-1.823-3.893-1.823-3.893.13-.039.266-.088.405-.142z" fill="#263238"/><path d="M78.74 59.701c.493.4 1.125.533 1.642.467.779-.099.87-.874.402-1.455-.42-.523-1.331-1.101-1.992-.71-.651.387-.615 1.24-.052 1.698z" fill="#FFB573"/><path d="M81.734 56.097c.107.16.277.232.38.162.105-.07.103-.258-.003-.417-.107-.16-.277-.232-.38-.162-.105.07-.103.257.003.417zM83.53 54.876c.107.16.278.232.381.161.104-.07.102-.257-.004-.417-.106-.16-.277-.232-.38-.161-.105.07-.103.257.004.417z" fill="#263238"/><path d="M83.014 55.343s.961.636 1.65.794c-.112.438-.67.642-.67.642l-.98-1.436z" fill="#ED893E"/><path d="M82.514 57.861a1.82 1.82 0 0 0-.212.135.057.057 0 0 0-.013.079c.018.025.054.03.078.012.683-.496 1.342-.25 1.349-.247a.056.056 0 0 0 .072-.033.057.057 0 0 0-.032-.073 1.565 1.565 0 0 0-1.242.127zM80.506 55.573a.114.114 0 0 0 .101-.052.908.908 0 0 1 .693-.436.114.114 0 0 0 .113-.114.112.112 0 0 0-.114-.112 1.13 1.13 0 0 0-.882.541.112.112 0 0 0 .034.156c.017.01.036.016.055.017zM83.552 53.425a.114.114 0 0 0-.138-.144c-.6.166-.755.661-.764.682a.115.115 0 0 0 .074.143.112.112 0 0 0 .14-.073c.006-.02.13-.4.612-.534a.112.112 0 0 0 .076-.074zM78.425 55.657s4.484-1.884 4.759-4.035c.275-2.15-1.62-1.27-1.62-1.27s.877-.06.791.58c0 0-1.514-1.034-2.957-.146 0 0 .674-.013 1.03.487 0 0-1.371.268-2.91 1.408-1.537 1.14-4.299 5.22.907 2.976z" fill="#263238"/><path opacity=".3" d="m87.88 86.677-7.31-.839s2.894-.475 7.47-.307l-.16 1.146z" fill="#000"/><path opacity=".1" d="M75.335 72.424c-.026-.297-.047-.595-.073-.892a39.948 39.948 0 0 0-.06-.705 48.306 48.306 0 0 0-.288-2.255c.195-.157.412-.302.641-.429 0 0 .417 2.145-.22 4.281z" fill="#000"/><path d="m63.154 82.857-1.27 2.98 2.75.68s1.181-1.958.028-3.452l-1.508-.208zM62.082 88.136l2.17.016.382-1.634-2.75-.68.198 2.298z" fill="#EBB376"/><path d="M75.52 67.05c.189 1.868-.449 2.628-.449 2.628s-1.81 1.138-2.595 1.72a56.851 56.851 0 0 0-1.943 1.526c-.307.257-.603.518-.874.776-.268.254-.52.52-.679.725-.07.082-.142.216-.218.335-.077.125-.158.311-.242.463-.166.342-.33.705-.487 1.085a46.9 46.9 0 0 0-.893 2.353c-.588 1.596-1.136 3.242-1.7 4.86l-2.508-.595c.255-1.763.6-3.48.997-5.22.21-.865.442-1.731.709-2.612.132-.44.283-.888.453-1.348.101-.241.183-.46.31-.718.134-.262.257-.518.441-.79.34-.508.673-.89 1.009-1.26.335-.365.672-.702 1.011-1.027a32.38 32.38 0 0 1 2.071-1.808 56.345 56.345 0 0 1 4.33-3.196s1.086.41 1.257 2.102z" fill="url(#g)"/><path opacity=".7" d="M75.52 67.05c.189 1.868-.449 2.628-.449 2.628s-1.81 1.138-2.595 1.72a56.851 56.851 0 0 0-1.943 1.526c-.307.257-.603.518-.874.776-.268.254-.52.52-.679.725-.07.082-.142.216-.218.335-.077.125-.158.311-.242.463-.166.342-.33.705-.487 1.085a46.9 46.9 0 0 0-.893 2.353c-.588 1.596-1.136 3.242-1.7 4.86l-2.508-.595c.255-1.763.6-3.48.997-5.22.21-.865.442-1.731.709-2.612.132-.44.283-.888.453-1.348.101-.241.183-.46.31-.718.134-.262.257-.518.441-.79.34-.508.673-.89 1.009-1.26.335-.365.672-.702 1.011-1.027a32.38 32.38 0 0 1 2.071-1.808 56.345 56.345 0 0 1 4.33-3.196s1.086.41 1.257 2.102z" fill="#fff"/><path d="m81.222 64.542.945 1.484s-3.293 3.99-9.595 5.307l-.42 1.282 1.34.351s6.806-1.761 9.521-6.866l1.403-1.563-1.653-.555-1.541.56z" fill="url(#h)"/><path d="m78.17 63.648 1.535-1.342 3.058 1.676.353-1.833 1.615.929.462 2.37-2.253-.974-2.016 1.798-2.753-2.624z" fill="url(#i)"/><path opacity=".6" d="m78.17 63.648 1.535-1.342 3.058 1.676.353-1.833 1.615.929.462 2.37-2.253-.974-2.016 1.798-2.753-2.624z" fill="#fff"/><path d="M120.295 37.086s-2.855 3.542-5.754 3.248c-2.898-.294-4.379.882-4.379.882l-.283 1.414 1.554-.21s0-1.12 3.024-.994c3.025.126 5.293-2.474 6.175-3.653l-.337-.687z" fill="url(#j)"/><path d="m140.812 31.198-.061-.28c-.03-.11-.014-.124-.118-.4a2.726 2.726 0 0 0-.692-1.007c-.512-.457-.933-.618-1.299-.763-.727-.257-1.306-.338-1.879-.408a18.613 18.613 0 0 0-1.635-.107c-1.057-.03-2.076.022-3.086.085a56.603 56.603 0 0 0-5.976.72l.729 4.184a104.48 104.48 0 0 1 5.588-.75 39.84 39.84 0 0 1 2.737-.181c.442-.012.877-.01 1.277.015.282.016.561.048.77.084.013.144.018.302.013.469-.027.722-.208 1.567-.454 2.41-.499 1.691-1.281 3.448-2.09 5.09l2.015 1.344a24.746 24.746 0 0 0 3.225-5.266c.419-.981.79-2.017.958-3.232a6.375 6.375 0 0 0-.022-2.007z" fill="url(#k)"/><path opacity=".7" d="M140.834 33.205c-.136 1.003-.417 1.886-.744 2.714-.068.174-.14.348-.212.518-.879 1.945-1.941 3.636-3.228 5.262l-2.013-1.342c.807-1.643 1.588-3.397 2.09-5.092.169-.582.31-1.168.386-1.712.038-.242.06-.475.068-.696a4.14 4.14 0 0 0-.013-.467 6.841 6.841 0 0 0-.768-.085 15.806 15.806 0 0 0-1.279-.017c-.034 0-.064.004-.097.004-.858.03-1.746.09-2.642.178a100.97 100.97 0 0 0-5.415.727l-.17.025-.731-4.188a57.786 57.786 0 0 1 5.976-.717c1.011-.064 2.03-.115 3.088-.085.531.013 1.066.042 1.635.106.573.072 1.151.153 1.877.408.365.144.786.306 1.3.764.246.221.526.578.692 1.007.102.276.089.289.119.399l.059.28c.132.735.102 1.398.022 2.01z" fill="#fff"/><path opacity=".1" d="M135.022 32.292a41.2 41.2 0 0 0-2.642.179c-1.792.187-3.635.442-5.415.726.65-1.597 1.317-3.21 1.317-3.21s2.973.284 6.74 2.305zM140.09 35.919c-.068.174-.14.348-.212.518-.88 1.945-1.941 3.636-3.228 5.262l-2.013-1.342c.807-1.644 1.588-3.398 2.089-5.092.17-.582.31-1.168.387-1.712.981.659 1.983 1.44 2.977 2.366z" fill="#000"/><path d="M112.946 32.04c.116.146.132.327.036.403-.096.076-.268.018-.384-.13-.116-.146-.132-.327-.036-.402.096-.076.268-.019.384.128z" fill="#263238"/><path d="M113.092 32.356s.335 1.111.29 1.81c.452.037.806-.422.806-.422l-1.096-1.388z" fill="#DE5753"/><path d="M112.84 30.798a.11.11 0 0 0-.089-.18c-.607.026-.87.46-.881.479a.109.109 0 0 0 .039.15.11.11 0 0 0 .15-.038.87.87 0 0 1 .702-.372.109.109 0 0 0 .079-.039z" fill="#263238"/><path d="M117.176 29.766c1.404 1.01 4.091 2.611 5.615 2.005 0 0 1.371 1.14.054 4.006-1.448 3.15-2.256.787-2.256.787.38-1.908-.916-2.45-2.252-2.702l-1.161-4.096z" fill="#E4897B"/><path d="M117.597 27.86c1.314 1.89 2.179 2.93 1.999 4.575-.27 2.475-3.148 3.407-5.001 1.947-1.667-1.314-3.535-4.186-2.337-6.298 1.18-2.08 4.025-2.116 5.339-.224z" fill="#E4897B"/><path d="M119.709 30.98c-.198 1.07-3.804 2.537-5.441.227 0 0-2.054-.017-3.289-1.255-1.236-1.238-.971-2.581.136-3.312.976-.643 3.499-5.387 6.437-2.002 3.19-.13 2.402 5.004 2.157 6.341z" fill="#263238"/><path d="M113.614 26.13s-1.894-.092-2.986.776c-1.092.868-.784 3.531-.364 4.034.42.502.868.502.868.502s-.644-.333-.644-.825c0 0 .28.657 1.568.825 0 0-.367-.293-.309-.664 0 0 .698.903 2.31 0 1.611-.904-.443-4.648-.443-4.648z" fill="#263238"/><path d="M115.226 30.81c.348.492.484 1.109.452 1.608-.046.75-.675.81-1.169.336-.445-.426-.957-1.33-.666-1.957.287-.617.985-.551 1.383.012z" fill="#E4897B"/><path d="M118.997 37.087s-.353-4.276 2.439-6.677l3.325.304s-1.916 4.676-5.764 6.373z" fill="url(#l)"/><path opacity=".6" d="M118.997 37.087s-.353-4.276 2.439-6.677l3.325.304s-1.916 4.676-5.764 6.373z" fill="#fff"/><path d="M128.583 46.703s-5.028-4.937-10.586-8.393c0 0 3.703-8.692 8.39-9.468 0 0 12.119 3.66 15.635 13.577l-13.439 4.284z" fill="url(#m)"/><path d="m129.221 76.816-2.17.92-2.347-4.931 2.169-.921 2.348 4.932z" fill="#E4897B"/><path d="m142.022 42.42-1.28 13.576c-.703.52-1.824.926-3.177 1.241-2.649.617-6.183.897-9.236 1.06-3.428.187-6.243.223-6.498.42-.596.464 6.952 16.054 6.952 16.054l-3.602.449s-9.469-12.986-10.695-17.498c-.451-1.665-.906-3.75 2.152-5.7 2.692-1.716 12.716-3.003 12.716-3.003l-.771-2.316 13.439-4.283z" fill="#263238"/><path opacity=".2" d="M137.564 57.239c-2.649.616-6.183.896-9.236 1.06-.413-5.01 2.108-9.818 2.108-9.818l3.585-.92 3.543 9.678z" fill="#000"/><path d="m160.813 74.817.384 2.326-5.347 1.12-.383-2.325 5.346-1.12z" fill="#E4897B"/><path d="M161.313 77.228a.056.056 0 0 0-.062-.014.055.055 0 0 0-.035.054c.002.04.034.988.33 1.265a.28.28 0 0 0 .204.082c.133-.004.188-.07.21-.124.065-.154-.053-.425-.211-.683a4.262 4.262 0 0 0-.436-.58zm.024.197c.283.34.592.85.52 1.023-.009.023-.031.053-.111.056a.17.17 0 0 1-.124-.052.439.439 0 0 1-.067-.086c-.145-.234-.198-.696-.218-.94z" fill="url(#n)"/><path d="M161.292 77.214a.056.056 0 0 0-.055.007c-.022.017-.529.404-.581.788a.41.41 0 0 0 .08.314c.094.122.183.12.242.095.25-.103.389-.85.348-1.16a.057.057 0 0 0-.034-.044zm-.526.81c.035-.252.314-.523.456-.646.004.339-.137.875-.286.937-.013.005-.05.02-.111-.06a.3.3 0 0 1-.059-.23z" fill="url(#o)"/><path d="m160.908 77.197-1.35-2.191a.206.206 0 0 1 .032-.256l1.54-1.495a.343.343 0 0 1 .535.07c.473.798 1.13 1.969 1.742 2.962.716 1.162 1.397 2.126 2.236 3.489.508.824-.185 1.565-.472 1.267-1.31-1.358-2.137-2.618-3.808-3.459a1.092 1.092 0 0 1-.455-.387zM142.021 42.42s4.317 11.098-2.966 15.405c0 0-.093 12.824 1.748 14.327 2.24 1.829 18.649 2.76 18.649 2.76l-.143 4.074s-17.566 1.438-22.884-.47c-6.228-2.235-7.614-31.62-7.614-31.62l13.21-4.476z" fill="#263238"/><path opacity=".2" d="m137.031 49.233 2.622-.793s.36 2.256.355 3.463l-1.216 1.045-1.15-.367s-.314-2.411-.611-3.348z" fill="#000"/><path d="m129.447 46.712.339 1.08-.969.3-.342-1.07.972-.31zM133.921 45.276l.365 1.119-4.015 1.245-.355-1.08 4.005-1.284zM138.919 43.673l.364 1.171-4.489 1.39-.356-1.125 4.481-1.436zM142.572 43.825l-2.765.857h-.003l-.37-1.172 2.744-.88.394 1.195z" fill="#263238"/><g opacity=".2" fill="#fff"><path d="m129.447 46.712.339 1.08-.969.3-.342-1.07.972-.31zM133.921 45.276l.365 1.119-4.015 1.245-.355-1.08 4.005-1.284zM138.919 43.673l.364 1.171-4.489 1.39-.356-1.125 4.481-1.436zM142.572 43.825l-2.765.857h-.003l-.37-1.172 2.744-.88.394 1.195z"/></g><path d="M126.386 77.049a.056.056 0 0 0 .043-.047.056.056 0 0 0-.029-.057c-.035-.019-.869-.469-1.259-.353a.278.278 0 0 0-.174.135c-.063.117-.034.197.001.244.101.133.394.168.697.161a4.11 4.11 0 0 0 .721-.083zm-.183-.078c-.437.072-1.032.082-1.146-.067-.014-.02-.029-.053.009-.123a.168.168 0 0 1 .107-.081.41.41 0 0 1 .107-.016c.276-.006.702.18.923.287z" fill="url(#p)"/><path d="M126.408 77.04a.053.053 0 0 0 .021-.051c-.003-.027-.082-.66-.387-.9a.406.406 0 0 0-.312-.087c-.152.019-.195.098-.204.16-.037.268.539.764.826.885a.052.052 0 0 0 .023.005.06.06 0 0 0 .033-.012zm-.435-.862c.201.157.294.535.329.719-.295-.168-.687-.559-.665-.72.002-.013.008-.052.108-.065a.297.297 0 0 1 .228.066z" fill="url(#q)"/><path d="m126.617 76.716 2.573-.06a.206.206 0 0 1 .205.156l.515 2.083a.344.344 0 0 1-.329.427c-.929.006-2.271-.017-3.438.011-1.364.032-2.541.135-4.14.172-.967.023-1.259-.948-.856-1.046 1.834-.447 3.338-.526 4.907-1.546.171-.11.36-.192.563-.197z" fill="#263238"/><path opacity=".7" d="m142.022 42.421-13.438 4.281s-2.37-2.323-5.653-4.9a66.185 66.185 0 0 0-1.958-1.479 48.595 48.595 0 0 0-2.977-2.013s3.704-8.694 8.392-9.467c0 0 12.117 3.657 15.634 13.578z" fill="#fff"/><path opacity=".1" d="M122.932 41.803a65.838 65.838 0 0 0-1.958-1.478l.263-.794s1.13.951 1.695 2.272z" fill="#000"/><path d="m103.514 50.67-.926.22a.588.588 0 0 0-.444.479l-.21 1.29a.59.59 0 0 0 .363.64l.677.27s1.955 1.41 3.607.5l-.714-1.89-1.397-1.265a1.06 1.06 0 0 0-.956-.244z" fill="#E4897B"/><path d="M120.38 38.654c1.187.712 1.291 2.182 1.291 2.182s-.933 2.532-1.474 3.791c-.368.855-.75 1.713-1.194 2.566-.459.86-.901 1.704-1.65 2.636l-.146.176-.175.188a4.57 4.57 0 0 1-.411.389c-.064.06-.182.142-.281.212-.096.066-.23.155-.27.17l-.359.186c-.467.236-.905.42-1.345.6-.873.358-1.737.67-2.603.967a71.617 71.617 0 0 1-5.242 1.56l-.842-2.271c1.592-.816 3.215-1.589 4.799-2.385.793-.393 1.583-.79 2.342-1.188.374-.202.746-.408 1.067-.604l.229-.144c.062-.035.014-.019.01-.016-.009 0-.029.026-.015.005.013-.023.027-.03.066-.086l.051-.064.061-.09c.343-.499.733-1.263 1.069-2.012a52.33 52.33 0 0 0 .983-2.368c.617-1.615 1.21-3.299 1.762-4.93-.001 0 1.017-.226 2.277.53z" fill="url(#r)"/><path opacity=".7" d="M120.38 38.654c1.187.712 1.291 2.182 1.291 2.182s-.933 2.532-1.474 3.791c-.368.855-.75 1.713-1.194 2.566-.459.86-.901 1.704-1.65 2.636l-.146.176-.175.188a4.57 4.57 0 0 1-.411.389c-.064.06-.182.142-.281.212-.096.066-.23.155-.27.17l-.359.186c-.467.236-.905.42-1.345.6-.873.358-1.737.67-2.603.967a71.617 71.617 0 0 1-5.242 1.56l-.842-2.271c1.592-.816 3.215-1.589 4.799-2.385.793-.393 1.583-.79 2.342-1.188.374-.202.746-.408 1.067-.604l.229-.144c.062-.035.014-.019.01-.016-.009 0-.029.026-.015.005.013-.023.027-.03.066-.086l.051-.064.061-.09c.343-.499.733-1.263 1.069-2.012a52.33 52.33 0 0 0 .983-2.368c.617-1.615 1.21-3.299 1.762-4.93-.001 0 1.017-.226 2.277.53z" fill="#fff"/><path d="M42.709 151.35h71.726l37.959-30.662 1.665 2.06h9.349l9.525-43.843-9.354.019.005-.019-44.867.09 5.357 6.63-81.365 65.725z" fill="url(#s)"/><path opacity=".2" d="M42.709 151.35h62.377l43.617-35.232 5.356 6.63 9.525-43.843-44.867.09 5.357 6.63-81.365 65.725z" fill="#fff"/><path d="M41.25 148.819h51.5a5.987 5.987 0 0 1 5.948-6.65c.073 0 .145.008.218.011a5.294 5.294 0 0 1 10.256 1.846v.012a5.05 5.05 0 0 1 4.806 4.781h.241a2.67 2.67 0 0 1 2.662 2.662 2.67 2.67 0 0 1-2.662 2.662h-72.97a2.67 2.67 0 0 1-2.661-2.662 2.67 2.67 0 0 1 2.661-2.662z" fill="url(#t)"/><path opacity=".7" d="M41.25 148.819h51.5a5.987 5.987 0 0 1 5.948-6.65c.073 0 .145.008.218.011a5.294 5.294 0 0 1 10.256 1.846v.012a5.05 5.05 0 0 1 4.806 4.781h.241a2.67 2.67 0 0 1 2.662 2.662 2.67 2.67 0 0 1-2.662 2.662h-72.97a2.67 2.67 0 0 1-2.661-2.662 2.67 2.67 0 0 1 2.661-2.662z" fill="#fff"/><defs><linearGradient id="k" x1="126.066" y1="34.963" x2="140.907" y2="35.032" gradientUnits="userSpaceOnUse"><stop stop-color="#E34C98"/><stop offset="1" stop-color="#7C1E84"/></linearGradient><linearGradient id="a" x1="37.578" y1="106.003" x2="110.706" y2="106.384" gradientUnits="userSpaceOnUse"><stop stop-color="#E34C98"/><stop offset="1" stop-color="#7C1E84"/></linearGradient><linearGradient id="c" x1="139.962" y1="129.34" x2="184.005" y2="129.559" gradientUnits="userSpaceOnUse"><stop stop-color="#E34C98"/><stop offset="1" stop-color="#7C1E84"/></linearGradient><linearGradient id="d" x1="131.646" y1="141.21" x2="156.621" y2="141.392" gradientUnits="userSpaceOnUse"><stop stop-color="#E34C98"/><stop offset="1" stop-color="#7C1E84"/></linearGradient><linearGradient id="e" x1="87.93" y1="60.76" x2="104.063" y2="60.847" gradientUnits="userSpaceOnUse"><stop stop-color="#E34C98"/><stop offset="1" stop-color="#7C1E84"/></linearGradient><linearGradient id="f" x1="74.134" y1="73.042" x2="89.898" y2="73.092" gradientUnits="userSpaceOnUse"><stop stop-color="#E34C98"/><stop offset="1" stop-color="#7C1E84"/></linearGradient><linearGradient id="g" x1="62.932" y1="74.235" x2="75.558" y2="74.271" gradientUnits="userSpaceOnUse"><stop stop-color="#E34C98"/><stop offset="1" stop-color="#7C1E84"/></linearGradient><linearGradient id="h" x1="72.152" y1="68.474" x2="84.419" y2="68.545" gradientUnits="userSpaceOnUse"><stop stop-color="#E34C98"/><stop offset="1" stop-color="#7C1E84"/></linearGradient><linearGradient id="i" x1="78.171" y1="64.21" x2="85.194" y2="64.261" gradientUnits="userSpaceOnUse"><stop stop-color="#E34C98"/><stop offset="1" stop-color="#7C1E84"/></linearGradient><linearGradient id="j" x1="109.879" y1="39.858" x2="120.634" y2="39.946" gradientUnits="userSpaceOnUse"><stop stop-color="#E34C98"/><stop offset="1" stop-color="#7C1E84"/></linearGradient><linearGradient id="b" x1="27.592" y1="131.601" x2="47.566" y2="131.744" gradientUnits="userSpaceOnUse"><stop stop-color="#E34C98"/><stop offset="1" stop-color="#7C1E84"/></linearGradient><linearGradient id="l" x1="118.983" y1="33.748" x2="124.762" y2="33.769" gradientUnits="userSpaceOnUse"><stop stop-color="#E34C98"/><stop offset="1" stop-color="#7C1E84"/></linearGradient><linearGradient id="m" x1="117.997" y1="37.772" x2="142.028" y2="37.908" gradientUnits="userSpaceOnUse"><stop stop-color="#E34C98"/><stop offset="1" stop-color="#7C1E84"/></linearGradient><linearGradient id="n" x1="161.216" y1="77.913" x2="161.978" y2="77.914" gradientUnits="userSpaceOnUse"><stop stop-color="#E34C98"/><stop offset="1" stop-color="#7C1E84"/></linearGradient><linearGradient id="o" x1="160.651" y1="77.821" x2="161.333" y2="77.822" gradientUnits="userSpaceOnUse"><stop stop-color="#E34C98"/><stop offset="1" stop-color="#7C1E84"/></linearGradient><linearGradient id="p" x1="124.93" y1="76.853" x2="126.43" y2="76.87" gradientUnits="userSpaceOnUse"><stop stop-color="#E34C98"/><stop offset="1" stop-color="#7C1E84"/></linearGradient><linearGradient id="q" x1="125.524" y1="76.525" x2="126.43" y2="76.528" gradientUnits="userSpaceOnUse"><stop stop-color="#E34C98"/><stop offset="1" stop-color="#7C1E84"/></linearGradient><linearGradient id="r" x1="105.679" y1="46.185" x2="121.675" y2="46.251" gradientUnits="userSpaceOnUse"><stop stop-color="#E34C98"/><stop offset="1" stop-color="#7C1E84"/></linearGradient><linearGradient id="s" x1="42.709" y1="115.128" x2="172.961" y2="116.112" gradientUnits="userSpaceOnUse"><stop stop-color="#E34C98"/><stop offset="1" stop-color="#7C1E84"/></linearGradient><linearGradient id="t" x1="38.588" y1="146.436" x2="116.867" y2="148.108" gradientUnits="userSpaceOnUse"><stop stop-color="#E34C98"/><stop offset="1" stop-color="#7C1E84"/></linearGradient></defs></svg>