<svg width="202" height="370" viewBox="0 0 202 370" fill="none" xmlns="http://www.w3.org/2000/svg">
<path d="M89.6886 131.563C87.0216 130.042 87.9254 122.34 85.8232 117.796C81.0824 107.55 72.9466 101.83 76.0579 82.1255C78.0923 69.2405 89.7196 61.9844 101.285 61.9844C115.287 61.9844 126.075 69.1876 127.937 82.5325C130.378 100.029 120.816 107.556 117.222 115.287C116.096 117.71 116.486 129.881 113.061 131.287C109.657 132.685 92.1299 132.956 89.6886 131.563Z" fill="#FFF34F"/>
<path d="M78.2297 368.999C78.2297 368.999 85.7618 249.339 80.0696 234.35C72.5427 214.529 78.6796 194.343 86.342 179.654C92.5086 167.833 95.0958 162.707 97.1307 159.75C98.0364 158.433 90.4808 158.027 89.4365 157.157C86.1667 154.432 102.517 158.89 104.323 154.23C105.008 152.462 87.4419 154.173 87.109 151.177C86.8289 148.656 109.252 151.657 109.397 149.128C109.518 147.013 86.5834 148.456 86.6555 145.927C86.7257 143.471 115.187 147.124 115.289 144.553C115.399 141.792 86.4387 143.615 86.4256 141.1C86.4161 139.276 115.463 141.435 115.524 140.83C115.584 140.224 114.525 138.535 115.494 137.081C116.462 135.628 110.952 136.839 88.4569 136.773C85.9137 136.765 84.5814 135.804 84.0365 131.989C83.4916 128.175 83.3099 123.996 81.3117 118.728C79.3134 113.46 66.7791 97.2928 69.8672 82.0336C72.9554 66.7745 87.3668 55.3301 101.778 55.3301C116.19 55.3301 129.346 66.4822 133.265 80.0354C138.445 97.945 126.877 110.584 123.062 117.124C119.248 123.663 119.793 127.781 118.763 130.99C117.734 134.199 116.366 134.246 105.775 134.081C102.069 134.024 97.7994 134.576 96.963 126.547C95.9529 116.85 104.564 124.42 106.501 120.242C108.041 116.922 113.192 95.6278 114.857 89.9056C116.358 84.7494 102.384 94.3864 103.534 104.801C104.684 115.216 108.499 85.1825 102.323 85.3641C96.1467 85.5458 96.6113 107.074 98.7808 106.83C101.246 106.552 98.951 98.317 95.2687 93.0239C92.1222 88.5011 87.4516 86.2785 89.5162 91.3284C92.7149 99.1522 91.1336 104.698 94.0225 111.92C95.4071 115.382 106.274 112.72 105.716 114.727C105.234 116.463 94.5267 115.173 95.1593 116.846C95.792 118.519 104.768 117.125 105.103 118.797C105.438 120.47 100.823 133.129 118.484 133.182C122.292 133.194 122.132 142.329 126.398 142.329C130.663 142.329 138.779 143.553 141.288 151.052C143.776 158.489 141.428 167.722 141.678 165.966C141.929 164.21 146.203 150.509 141.436 146.495C136.669 142.48 126.736 143.33 118.206 145.532C109.699 147.728 96.1266 165.102 101.145 166.106C106.162 167.109 119.46 159.331 114.9 160.837C110.34 162.342 101.353 171.677 98.6356 180.156C93.785 195.293 104.539 198.853 99.107 196.715C93.6753 194.577 94.0144 182.055 99.107 174.134C103.319 167.583 113.94 157.742 127.238 156.99C140.535 156.237 160.734 208.673 157.346 201.148C151.595 188.377 134.765 163.346 117.273 178.493C104.773 189.317 103.988 195.126 101.45 203.238C97.9771 214.341 101.724 219.095 107.913 217.422C114.102 215.749 123.076 208.439 126.067 208.212C129.524 207.95 131.203 209.458 132.925 213.191C134.596 216.812 143.797 224.565 140.34 221.387C136.264 217.64 134.319 207.337 128.186 206.11C122.053 204.883 108.114 219.491 103.598 216.48C93.0911 209.476 119.209 190.945 129.747 190.945C140.284 190.945 158.349 205.497 159.353 216.034C160.356 226.572 136.772 235.102 125.732 252.163C114.693 269.224 127.74 334.96 135.267 366.071" stroke="#BABABA" stroke-width="1.5" stroke-miterlimit="10" stroke-linecap="round" stroke-linejoin="round"/>
<path d="M47.4298 61.6026C36.7901 50.3572 30.8678 48.8562 16.706 42.6025" stroke="#BABABA" stroke-width="1.5" stroke-miterlimit="10" stroke-linecap="round" stroke-linejoin="round"/>
<path d="M73.1627 36.7098C67.7054 17.1421 65.9763 22.6311 58.7573 3.64258" stroke="#BABABA" stroke-width="1.5" stroke-miterlimit="10" stroke-linecap="round" stroke-linejoin="round"/>
<path d="M109.244 36.7098C111.403 26.1643 112.021 11.0926 115.763 1" stroke="#BABABA" stroke-width="1.5" stroke-miterlimit="10" stroke-linecap="round" stroke-linejoin="round"/>
<path d="M141.183 42.6024C151.709 30.451 152.775 24.2009 162.393 14.1182" stroke="#BABABA" stroke-width="1.5" stroke-miterlimit="10" stroke-linecap="round" stroke-linejoin="round"/>
<path d="M160.634 61.9848C174.364 59.3749 179.812 54.5329 195.694 50.1191" stroke="#BABABA" stroke-width="1.5" stroke-miterlimit="10" stroke-linecap="round" stroke-linejoin="round"/>
<path d="M167.014 89.5586C182.845 92.4768 184.678 90.4608 200.509 93.379" stroke="#BABABA" stroke-width="1.5" stroke-miterlimit="10" stroke-linecap="round" stroke-linejoin="round"/>
<path d="M45.5575 117.768C32.5011 127.052 29.7624 126.551 16.706 135.835" stroke="#BABABA" stroke-width="1.5" stroke-miterlimit="10" stroke-linecap="round" stroke-linejoin="round"/>
<path d="M162.393 117.768C169.529 126.112 176.354 131.261 186.335 135.835" stroke="#BABABA" stroke-width="1.5" stroke-miterlimit="10" stroke-linecap="round" stroke-linejoin="round"/>
<path d="M39.9111 87.499C25.0047 87.8622 15.853 87.5706 1 86.2598" stroke="#BABABA" stroke-width="1.5" stroke-miterlimit="10" stroke-linecap="round" stroke-linejoin="round"/>
</svg>
