<svg style="position: absolute; width: 30px; height: 32px; overflow: hidden;" version="1.1" xmlns="http://www.w3.org/2000/svg"
     xmlns:xlink="http://www.w3.org/1999/xlink">
    <defs>

        <symbol id="star-empty" viewBox="0 0 34 32">
            <title>star-empty</title>
            <path width="30px" height="30px" d="M34.9087 13.2261C34.6796 12.4865 34.051 11.9613 33.3073 11.8914L23.2053 10.9342L19.2108 1.17785C18.9162 0.462836 18.2454 0 17.5001 0C16.7548 0 16.0841 0.462836 15.7895 1.17952L11.7949 10.9342L1.6914 11.8914C0.949038 11.963 0.32204 12.4865 0.0915886 13.2261C-0.138863 13.9656 0.0739643 14.7768 0.635539 15.2881L8.27141 22.276L6.01977 32.6259C5.85501 33.3869 6.13806 34.1735 6.74317 34.63C7.06841 34.8752 7.44894 35 7.83267 35C8.16353 35 8.49171 34.9069 8.78625 34.723L17.5001 29.2885L26.2108 34.723C26.8482 35.1232 27.6517 35.0867 28.2555 34.63C28.8609 34.1721 29.1437 33.3852 28.9789 32.6259L26.7273 22.276L34.3631 15.2895C34.9247 14.7768 35.1391 13.967 34.9087 13.2261Z" fill="#565656"/>
        </symbol>


        <!-- <symbol id="star-half" viewBox="0 0 34 32">
            <title>star-half</title>
            <path class="path-star-half"
                  d="M 33.412,12.395 21.57,11.374 16.942,0.47 12.314,11.39 0.472,12.395 9.465,20.186 6.764,31.765 16.943,25.621 27.122,31.765 24.437,20.186 33.413,12.395 Z M 16.941,22.541 c 0,0 -0.297971,-14.6455833 0,-15.318 l 2.816,6.654 7.214,0.626 -5.468,4.744 1.647,7.049 z"/>
            </symbol> -->

        <symbol id="star-filled" viewBox="0 0 34 32">
            <title>star-filled</title>
            <path width="30px" height="30px" d="M34.9087 13.2261C34.6796 12.4865 34.051 11.9613 33.3073 11.8914L23.2053 10.9342L19.2108 1.17785C18.9162 0.462836 18.2454 0 17.5001 0C16.7548 0 16.0841 0.462836 15.7895 1.17952L11.7949 10.9342L1.6914 11.8914C0.949038 11.963 0.32204 12.4865 0.0915886 13.2261C-0.138863 13.9656 0.0739643 14.7768 0.635539 15.2881L8.27141 22.276L6.01977 32.6259C5.85501 33.3869 6.13806 34.1735 6.74317 34.63C7.06841 34.8752 7.44894 35 7.83267 35C8.16353 35 8.49171 34.9069 8.78625 34.723L17.5001 29.2885L26.2108 34.723C26.8482 35.1232 27.6517 35.0867 28.2555 34.63C28.8609 34.1721 29.1437 33.3852 28.9789 32.6259L26.7273 22.276L34.3631 15.2895C34.9247 14.7768 35.1391 13.967 34.9087 13.2261Z" fill="#FFC107"/>

        </symbol>

</svg>


    </defs>
</svg>
